<svg width="258" height="255" viewBox="0 0 258 255" fill="none" xmlns="http://www.w3.org/2000/svg">
<path d="M164.5 50.2174L93 197.717M93 3.6978C88.985 4.63302 85.4264 5.87507 82.5 7.21745L3 169.217C6.11544 169.115 9.14964 169.119 12.1024 169.217M93 3.6978C113.909 -1.17276 147.195 2.27835 168 43.2174C187.132 41.6097 229.93 46.3605 253.04 77.2174M93 3.6978L12.1024 169.217M12.1024 169.217C55.4021 170.667 81.1987 192.671 89 204.217C140.052 202.06 170.962 228.286 183.109 245.717M253.04 77.2174C253.887 78.3487 254.708 79.515 255.5 80.7174L186.5 251.217C185.606 249.531 184.476 247.68 183.109 245.717M253.04 77.2174L183.109 245.717M93 24.7174C100.833 26.0507 118.7 31.6174 127.5 43.2174L107.5 80.7174L72.5 66.2174L93 24.7174ZM149 134.217L127.5 176.717C140.48 179.384 169.352 187.817 181 200.217L201 158.717C195 151.884 176.2 137.417 149 134.217Z" stroke="black" stroke-width="3"/>
<path d="M38.5 151.717C51.6667 152.884 80.8 159.917 92 178.717" stroke="black" stroke-width="3"/>
<path d="M47.5 134.217C60.6667 135.384 89.8 142.417 101 161.217" stroke="black" stroke-width="3"/>
<path d="M56.5 113.217C69.6667 114.384 98.8 121.417 110 140.217" stroke="black" stroke-width="3"/>
<path d="M65.5 93.2173C78.6667 94.384 107.8 101.417 119 120.217" stroke="black" stroke-width="3"/>
<path d="M155.5 113.217C168.667 114.384 197.8 121.417 209 140.217" stroke="black" stroke-width="3"/>
<path d="M163.5 93.2173C176.667 94.384 205.8 101.417 217 120.217" stroke="black" stroke-width="3"/>
<path d="M172.5 71.2173C185.667 72.384 214.8 79.4173 226 98.2173" stroke="black" stroke-width="3"/>
</svg>
