<svg width="214" height="200" viewBox="0 0 214 200" fill="none" xmlns="http://www.w3.org/2000/svg">
<path d="M47.193 142.5C34.793 121.3 39.693 86.9998 42.693 71.4998C46.5705 31.7556 109.178 0.468462 136.693 14.53M47.193 142.5C54.3597 143.833 70.293 153.7 68.693 174.5C67.3597 183 59.693 200 42.693 198M47.193 142.5C59.3597 154.833 75.493 183.2 42.693 198M42.693 198C35.8597 198 20.193 193.7 12.193 188.5C2.19301 182 -7.80714 148.5 20.6929 139.5C13.3596 86.6665 25.0929 -14.2002 130.693 4.99982C139.749 7.73367 153.893 15.2847 166.446 28.9998M136.693 14.53C137.562 14.9743 138.397 15.4638 139.193 15.9998C159.993 29.9998 167.86 68.4998 169.193 85.9998C162.393 89.5998 156.86 99.9998 155.693 105.5C151.293 125.1 169.026 134.833 177.693 136.5C194.093 140.1 206.193 129.333 210.193 123.5C217.393 103.9 201.193 90.3332 192.193 85.9998C188.879 60.6549 178.382 42.0408 166.446 28.9998M136.693 14.53L166.446 28.9998" stroke="black" stroke-width="3.5"/>
<path d="M27.6543 170.789L28.128 158L37.7201 160.368L37.6083 174.105" stroke="black" stroke-width="2.5" stroke-linejoin="bevel"/>
<circle cx="26.1934" cy="171.395" r="2.5" fill="black"/>
<circle cx="36.1406" cy="174.947" r="2.5" fill="black"/>
</svg>
