<svg width="174" height="159" viewBox="0 0 174 159" fill="none" xmlns="http://www.w3.org/2000/svg">
<path d="M30.6541 37.9156C34.7197 32.0127 38.0347 23.3319 45.0095 20.2498C48.2546 18.8158 51.8585 17.8301 55.4056 17.5535C58.1195 17.3419 61.23 18.7373 63.647 19.8347C66.5034 21.1315 69.4417 21.4578 71.5006 24.0525C73.7121 26.8395 71.4793 32.0687 70.496 34.9565C67.9798 42.3462 64.8502 49.4296 60.9959 56.2058C60.4484 57.1684 59.8592 58.1576 59.1997 59.0485C58.8404 59.5337 58.2168 61.1917 58.2466 60.5887C58.2827 59.8571 57.0934 59.3186 56.5806 59.0471C54.7275 58.066 53.1833 56.8014 51.4135 55.7062C51.0119 55.4577 49.3989 54.8476 49.7543 54.1256C50.5128 52.5849 51.3102 51.0706 52.1487 49.5679C53.9004 46.4285 55.5989 43.402 56.5111 39.9278C57.2713 37.0325 60.7525 32.3656 58.647 29.3991C57.9547 28.4235 55.4651 27.6741 54.3173 27.5148C52.4799 27.2597 50.5366 27.1091 48.82 27.9808C44.8367 30.0036 44.1486 34.0265 42.9782 37.9239C42.4459 39.6966 41.5234 41.3672 40.8176 43.0729C40.2795 44.3737 39.9189 45.9079 38.9804 46.9971C37.1062 49.1723 32.5986 46.7168 30.652 45.5324C30.5036 45.442 26.4508 43.0366 26.4342 42.8722C26.404 42.5726 28.2269 40.2384 28.5329 39.7251C29.0468 38.863 29.8309 37.9091 30.6184 37.2947C31.5555 36.5635 31.8279 35.2754 32.2602 34.9432" stroke="#001D3D" stroke-width="3" stroke-linecap="round" stroke-linejoin="round"/>
<path d="M98.7206 46.9054C96.1607 43.5695 87.4743 35.9893 82.5559 40.575C81.4486 41.6074 80.8692 42.9879 80.1084 44.2676C78.8234 46.4292 77.5724 48.5627 76.1503 50.6401C74.4957 53.0574 72.2382 56.5723 72.2083 59.5786C72.1795 62.4656 72.3263 66.4436 73.7234 69.0122C75.989 73.1774 80.6171 74.3833 85.1823 73.0146C89.0701 71.8491 94.6013 70.3817 95.9977 66.0491C96.6197 64.1191 96.6899 62.0761 96.8135 60.0696C96.9424 57.9766 97.7259 56.0401 97.4849 53.9281C97.3348 52.6131 96.9503 49.2027 97.5767 47.9301C98.5479 45.9571 100.122 47.2764 96.867 45.9295" stroke="#001D3D" stroke-width="3" stroke-linecap="round" stroke-linejoin="round"/>
<path d="M121.253 71.3545C118.389 68.4215 114.58 63.0488 109.734 64.6979C108.657 65.0642 107.709 65.4217 106.809 66.1212C105.908 66.8206 105.329 68.8554 104.751 69.8822C103.875 71.4371 103.385 73.1446 102.754 74.8108C101.296 78.6545 102.592 84.3645 104.995 87.4572C107.181 90.2707 110.652 91.0045 113.959 90.7248C117.588 90.4179 120.245 88.8421 122.677 86.2357C124.343 84.4497 126.879 81.8896 127.828 79.5461C128.903 76.8899 130.912 74.4885 132.002 71.8256C133.367 68.4903 135.247 65.3081 137.014 62.1708C137.69 60.9693 142.42 56.6173 141.216 55.2305C140.147 53.9989 137.846 53.8229 136.407 53.1457C134.738 52.3601 133.903 51.3757 132.933 53.4363C132.254 54.8798 130.876 55.9715 130.272 57.4329C129.515 59.2611 128.056 61.3918 126.989 63.0721C126.218 64.2858 124.667 66.2743 124.324 67.6827C124.108 68.5714 122.623 69.7721 122.045 70.5532C121.794 70.8917 121.582 71.1782 121.334 71.5132C120.99 71.978 121.801 71.0054 121.822 70.5864" stroke="#001D3D" stroke-width="3" stroke-linecap="round" stroke-linejoin="round"/>
<path d="M116.487 78.3288C114.567 75.3697 112.606 72.2239 109.177 74.7004C107.91 75.6156 107.167 77.2451 107.512 78.8076C107.785 80.0382 108.428 81.8012 109.188 82.8338C109.973 83.898 111.655 83.6897 112.787 83.8024C114.797 84.0025 118.761 81.4572 118.073 78.9967C117.81 78.0567 117.402 78.0818 116.524 78.0702C115.082 78.051 116.173 78.3597 116.449 77.3097" stroke="#001D3D" stroke-width="3" stroke-linecap="round" stroke-linejoin="round"/>
<path d="M139.166 89.7782C144.221 92.9073 149.167 96.6138 154.571 99.1572C155.252 99.4776 155.282 100.12 155.674 99.214C156.957 96.2462 159.108 91.9831 158.801 88.6703C158.379 84.1268 154.637 80.7087 150.714 78.9077C148.358 77.8259 146.853 77.2736 144.255 78.0118C141.107 78.9061 137.497 80.3166 135.233 82.8372C129.01 89.7649 129.931 104.82 140.658 106.351C143.127 106.703 146.077 106.603 148.563 106.203C149.292 106.085 149.866 105.739 150.497 105.389C151.512 104.825 150.555 104.613 149.797 103.792" stroke="#001D3D" stroke-width="3" stroke-linecap="round" stroke-linejoin="round"/>
<path d="M144.554 85.4442C147.839 85.1379 149.074 84.7302 151.409 86.3571C151.893 86.6944 153.109 86.9133 152.532 87.7836C151.924 88.703 151.438 89.7146 150.83 90.6186C150.734 90.7612 150.26 91.8398 150.168 91.7801C149.586 91.4 148.996 90.7783 148.525 90.2666C147.536 89.1905 145.815 88.5572 144.6 87.6578C143.707 86.9965 145.067 86.5047 144.908 85.9039C144.78 85.4206 144.64 85.8022 143.919 85.7667" stroke="#001D3D" stroke-width="3" stroke-linecap="round" stroke-linejoin="round"/>
<path d="M138.754 90.0674C137.404 92.7444 134.975 97.5394 139.666 98.4712C142.075 98.9497 143.966 99.7493 146.45 99.6289C147.201 99.5924 149.447 100.416 149.479 101.277C149.493 101.645 149.461 102.378 149.648 102.789C150.222 104.054 149.91 102.6 149.309 102.043" stroke="#001D3D" stroke-width="3" stroke-linecap="round" stroke-linejoin="round"/>
<path d="M89.5739 51.231C88.8584 49.9346 88.3378 47.2153 86.47 47.2597C85.5099 47.2825 84.8595 47.7231 84.4466 48.5801C84.0471 49.4091 83.9444 50.2696 83.3929 51.0146C82.7046 51.9444 81.7179 53.3141 81.6094 54.4943C81.3872 56.9134 80.9127 58.9135 80.1181 61.1187C78.8674 64.59 81.5061 67.7151 85.2457 66.6542C88.1141 65.8404 90.5112 65.1286 91.5129 61.9361C91.9417 60.5695 90.2408 58.4189 89.7488 57.1513C89.2464 55.8567 89.2552 54.5785 89.1263 53.2335C88.9409 51.2989 89.8775 50.2742 87.6072 52.5493" stroke="#001D3D" stroke-width="3" stroke-linecap="round" stroke-linejoin="round"/>
<path d="M61.4301 119.546C62.9312 121.55 64.6982 123.392 65.9206 125.515C66.062 125.761 67.2577 124.954 67.8664 124.938C69.9935 124.881 72.162 124.645 74.1929 125.24C75.585 125.647 76.9342 125.09 78.34 125.366C79.3349 125.562 80.4233 125.599 81.4381 125.542C82.1729 125.502 82.7717 125.086 83.4969 125.119C85.1825 125.195 86.5891 125.153 88.2175 125.627C88.7126 125.771 89.133 125.651 89.6227 125.506C90.1838 125.339 90.0112 125.404 90.2975 124.686C91.1668 122.506 92.2961 120.438 93.1753 118.272C94.0864 116.028 95.3398 113.836 96.5462 111.746C97.2967 110.447 97.6939 108.961 98.5784 107.736C99.1075 107.003 99.5867 106.284 100.04 105.499C100.95 103.922 99.8146 104.022 98.3828 102.728C97.3265 101.774 96.76 100.441 96.0634 99.2288C95.6772 98.5568 95.6126 97.6999 95.1459 97.0866C94.412 96.1222 93.9608 95.2284 93.5626 94.0686C92.8575 92.0155 91.6238 89.7645 91.8364 87.5667C91.9096 86.8093 91.9454 85.4628 91.1495 85.0033C90.3081 84.5175 90.1529 85.2263 89.155 85.5777C86.7457 86.4261 84.1236 86.4055 81.7148 85.5906C81.3947 85.4823 81.1394 85.5401 80.8183 85.5832C79.7842 85.7221 78.7117 85.5441 77.6814 85.4414C76.1205 85.2857 74.2642 85.8357 72.757 85.4391C72.1572 85.2812 71.53 84.8399 70.8906 84.8969C70.5044 84.9313 70.0953 84.9871 69.7168 84.868C68.7475 84.5629 67.7473 84.7549 66.7799 84.6526C66.4861 84.6215 60.5784 89.6737 60.3763 90.4417C60.1159 91.4308 59.9552 92.5151 59.588 93.4762C59.2711 94.3056 58.632 95.132 58.1861 95.9044C57.7412 96.675 57.3019 97.4891 56.9257 98.2947C56.556 99.0864 55.8892 100.284 55.7872 101.14C55.685 101.996 55.4194 102.764 54.836 103.387C53.5491 104.761 52.8968 107.226 52.0763 108.647C51.6318 109.417 50.0951 109.714 51.1189 110.305C51.6729 110.625 54.3444 111.152 54.9461 111.324C55.6363 111.522 56.3203 111.889 57.0236 112.014C57.5203 112.101 58.0531 112.298 58.397 112.668C58.6077 112.895 58.979 113.37 59.3003 113.416C60.3799 113.572 66.6549 111.23 67.258 110.238C68.6494 107.949 69.2747 105.253 70.1581 102.76C70.8378 100.841 72.6451 99.5101 73.2013 97.4998C73.4816 96.4866 74.7662 95.5026 74.6209 94.4518C74.569 94.0767 74.2326 93.259 74.5648 93.0652C74.8543 92.8963 74.9557 92.781 75.1304 92.4784C75.4799 91.8729 74.007 93.349 73.6137 93.927" stroke="#001D3D" stroke-width="3" stroke-linecap="round" stroke-linejoin="round"/>
<path d="M90.9923 107.816C91.7994 105.819 91.9675 104.478 90.8206 102.614C90.5465 102.169 90.391 101.688 90.0607 101.269C89.397 100.425 88.4387 100.161 87.5236 99.6843C85.8896 98.8333 81.043 97.2815 79.741 99.4175C79.4709 99.8606 78.8257 100.4 78.7991 100.94C78.7044 102.863 81.6092 103.989 82.7654 105.056C84.3048 106.478 85.6224 108.049 87.2974 109.317C89.0612 110.652 89.8454 113.231 88.2985 114.991C87.3248 116.099 85.7275 116.832 84.2377 116.766C83.4135 116.729 82.6269 116.096 81.8082 115.955C80.4824 115.727 79.3297 114.277 78.4584 113.335C77.6301 112.439 76.8513 111.638 76.459 110.448C76.3398 110.086 76.4115 109.114 76.2283 108.917C75.6607 108.306 76.4915 108.147 76.8149 108.021" stroke="#001D3D" stroke-width="3" stroke-linecap="round" stroke-linejoin="round"/>
<path d="M113.698 106.979C112.005 105.931 110.752 105.558 108.809 106.021C108.165 106.174 107.474 106.204 107.099 106.822C105.828 108.918 107.305 111.626 109.195 112.77C111.05 113.892 113.884 112.989 114.154 110.619C114.22 110.042 113.997 108.516 113.408 108.223C112.944 107.991 112.296 108.233 111.791 108.121C111.489 108.053 111.742 108.532 111.79 108.712" stroke="#001D3D" stroke-width="3" stroke-linecap="round" stroke-linejoin="round"/>
</svg>
