
<svg xmlns="http://www.w3.org/2000/svg" width="20" height="20" viewBox="0 0 20 20">
	<def>
		<g id="twitter">
			<path d="M19.86 3.884a8.05 8.05 0 0 1-2.323.637 4.053 4.053 0 0 0 1.779-2.239 8.1 8.1 0 0 1-2.57.983 4.046 4.046 0 0 0-6.894 3.69 11.488 11.488 0 0 1-8.34-4.228 4.025 4.025 0 0 0-.547 2.035c0 1.403.714 2.642 1.8 3.367a4.034 4.034 0 0 1-1.833-.506v.051a4.05 4.05 0 0 0 3.246 3.967 4.068 4.068 0 0 1-1.828.07 4.05 4.05 0 0 0 3.78 2.809 8.117 8.117 0 0 1-5.99 1.675 11.45 11.45 0 0 0 6.202 1.818c7.442 0 11.511-6.165 11.511-11.511 0-.176-.003-.35-.011-.524a8.195 8.195 0 0 0 2.018-2.094z"/>
		</g>
		<g id="facebook">
			<path d="M14.58 6.527h-3.12V4.481c0-.768.51-.947.868-.947h2.201V.157L11.498.145c-3.365 0-4.131 2.519-4.131 4.13v2.252H5.42v3.48h1.946v9.848h4.093v-9.848h2.762l.357-3.48z"/>
		</g>
		<g id="instagram">
			<path d="M10 4.832c-2.805 0-5.128 2.283-5.128 5.128S7.155 15.088 10 15.088s5.128-2.323 5.128-5.128S12.805 4.832 10 4.832zm0 8.413c-1.803 0-3.285-1.482-3.285-3.285S8.197 6.675 10 6.675s3.285 1.482 3.285 3.285-1.482 3.285-3.285 3.285z"/>
			<circle r="1.162" cy="4.711" cx="15.329"/>
			<path d="M18.334 1.706C17.292.625 15.81.064 14.127.064H5.873c-3.485 0-5.81 2.324-5.81 5.81v8.213c0 1.723.562 3.205 1.683 4.287 1.082 1.041 2.525 1.562 4.167 1.562h8.174c1.723 0 3.165-.56 4.207-1.562 1.081-1.042 1.642-2.524 1.642-4.247V5.873c0-1.683-.56-3.125-1.602-4.167zm-.16 12.42c0 1.243-.441 2.244-1.163 2.926s-1.722 1.041-2.924 1.041H5.913c-1.202 0-2.203-.36-2.924-1.041-.722-.722-1.082-1.723-1.082-2.965V5.873c0-1.202.36-2.203 1.082-2.925.68-.68 1.722-1.041 2.924-1.041h8.254c1.202 0 2.203.36 2.925 1.082.68.72 1.081 1.722 1.081 2.884v8.254z"/>
		</g>
		<g id="linkedin">
			<path d="M4.4,19.9H0.1V5.7h4.3V19.9z M20,19.9h-4.3v-7.6c0-2-0.7-3-2.1-3c-1.1,0-1.8,0.6-2.2,1.7c0,1.8,0,8.9,0,8.9 H7.2c0,0,0.1-12.8,0-14.2h3.4l0.3,2.8h0.1c0.9-1.4,2.3-2.4,4.2-2.4c1.5,0,2.6,0.4,3.5,1.4c0.9,1,1.4,2.4,1.4,4.3V19.9z"/>
			<ellipse cx="2.2" cy="2.2" rx="2.2" ry="2.1"/>
		</g>
		<g id="google">
			<path d="M19.6,8.1c-3.1,0-6.3,0-9.4,0c0,1.3,0,2.6,0,3.9c1.8,0,3.6,0,5.4,0c-0.2,1.2-1,2.4-2,3.1c-0.7,0.4-1.4,0.7-2.2,0.9 c-0.8,0.1-1.6,0.2-2.4,0c-0.8-0.2-1.6-0.5-2.2-1c-1.1-0.7-1.9-1.8-2.3-3.1c-0.4-1.3-0.4-2.6,0-3.9C4.8,7.2,5.3,6.4,6,5.7 C6.8,4.9,7.9,4.3,9,4c1-0.2,2-0.2,2.9,0.1c0.8,0.2,1.5,0.7,2.2,1.3c0.6-0.6,1.2-1.2,1.8-1.8c0.3-0.3,0.7-0.6,1-1 c-0.9-0.9-2-1.6-3.2-2c-2.1-0.8-4.6-0.8-6.7-0.1c-2.4,0.8-4.5,2.7-5.7,5C0.9,6.3,0.6,7.2,0.4,8c-0.4,2.2-0.1,4.5,0.9,6.5 c0.7,1.3,1.6,2.4,2.7,3.3c1.1,0.9,2.3,1.5,3.6,1.8c1.7,0.4,3.4,0.4,5.1,0.1c1.5-0.3,2.9-1.1,4.1-2.1c1.2-1.1,2.1-2.6,2.5-4.2 C19.9,11.7,19.9,9.9,19.6,8.1z"/>
		</g>
		<g id="add">
			<path d="m10,19.83862c-0.67921,0 -1.22983,-0.55059 -1.22983,-1.22983l0,-17.21758c0,-0.67922 0.55061,-1.22983 1.22983,-1.22983c0.67921,0 1.22983,0.55061 1.22983,1.22983l0,17.21758c0,0.67923 -0.55062,1.22983 -1.22983,1.22983z"/>
   			<path d="m0.16138,10c0,-0.67921 0.55061,-1.22983 1.22983,-1.22983l17.21758,0c0.67923,0 1.22983,0.55062 1.22983,1.22983c0,0.67921 -0.55059,1.22983 -1.22983,1.22983l-17.21758,0c-0.67922,0 -1.22983,-0.55062 -1.22983,-1.22983z"/>
		</g>
		<g id="add-circle">
			<path d="M10,0C4.5,0,0,4.5,0,10c0,5.5,4.5,10,10,10s10-4.5,10-10C20,4.5,15.5,0,10,0z M14,11h-3v3c0,0.6-0.4,1-1,1
	s-1-0.4-1-1v-3H6c-0.6,0-1-0.4-1-1s0.4-1,1-1h3V6c0-0.6,0.4-1,1-1s1,0.4,1,1v3h3c0.6,0,1,0.4,1,1S14.6,11,14,11z"/>
		</g>
		<g id="close">
			<path d="M19.5 17.3 12.2 10l7.3-7.3c.6-.6.6-1.6 0-2.2-.6-.6-1.6-.6-2.2 0L10 7.8 2.7.5C2.1-.1 1.1-.1.5.5c-.6.6-.6 1.6 0 2.2L7.8 10 .5 17.3c-.6.6-.6 1.6 0 2.2.6.6 1.6.6 2.2 0l7.3-7.3 7.3 7.3c.6.6 1.6.6 2.2 0 .7-.6.7-1.6 0-2.2z"/>
		</g>
		<g id="stats">
   			<path d="m0.05909,0.06353l1.9488,0.62117l0,16.13734c0,0.64225 0.52333,1.16564 1.1656,1.16564l16.76742,0l-0.62115,1.9488l-16.14627,0c-1.71708,0 -3.1144,-1.39738 -3.1144,-3.11444l0,-16.75851zm15.09406,0.77927l2.10397,0l0,16.24576l-2.10397,0l0,-16.24576zm-3.87159,3.3313l2.10397,0l0,12.91446l-2.10397,0l0,-12.91446zm-3.87336,3.3364l2.10391,0l0,9.57614l-2.10391,0l0,-9.57614zm-3.87161,3.33484l2.10394,0l0,6.2413l-2.10394,0l0,-6.2413z" />
		</g>
		<g id="bookmark">
			<path d="m1.32699,3.21905c0,-1.72821 1.40637,-3.13458 3.13458,-3.13458l11.07508,0c1.72814,0 3.13443,1.40625 3.13636,3.13249l0,13.6466c0,1.39402 -0.63011,2.44243 -1.80788,2.88111c-0.59256,0.21876 -1.25626,0.22609 -1.8716,0.01902c-0.2956,-0.09924 -0.91113,-0.40797 -1.08046,-0.49438l-0.00724,-0.00367l-0.09297,-0.05493l-2.41444,-1.63798l1.74668,-1.18328l1.70913,1.1602c0.14983,0.0752 0.31549,0.1562 0.45788,0.2232c0.15408,0.0726 0.26355,0.12038 0.30255,0.13313l0.00193,0.00068c0.26172,0.08814 0.4686,0.03591 0.5634,0.00087c0.13593,-0.05088 0.25708,-0.12009 0.34986,-0.25341c0.0948,-0.13622 0.18159,-0.37052 0.18159,-0.79229l0,-13.64636c0,-0.64733 -0.52749,-1.1748 -1.17478,-1.1748l-11.07508,0c-0.64733,0 -1.1748,0.52747 -1.1748,1.1748l0,13.64636c0,0.42178 0.08681,0.65608 0.18159,0.79229c0.09279,0.13332 0.21389,0.20254 0.34987,0.25341c0.0947,0.03495 0.30127,0.08717 0.56255,-0.00058c0.094,-0.03253 0.45108,-0.2007 0.76326,-0.35739l4.85266,-3.29101l0.56318,0.37863l1.18791,0.80427l-1.6666,1.12902l-0.00183,0l-3.97798,2.69334l-0.01439,0.00734c-0.16937,0.0864 -0.78519,0.39523 -1.08071,0.49438c-0.29996,0.10069 -0.60999,0.15002 -0.91638,0.15002c-0.32566,0 -0.64928,-0.05522 -0.95463,-0.16894c-1.17836,-0.43684 -1.80826,-1.48757 -1.80826,-2.8812l0,-13.64634z"/>
		</g>
		<g id="link">
			<path d="m0.04213,3.19559c0,-1.72494 1.40636,-3.12776 3.13345,-3.12776l1.21915,0l-0.62536,1.95799l-0.5938,0c-0.64663,0 -1.17261,0.5257 -1.17261,1.16977l0,13.60883c0,0.64405 0.52599,1.16974 1.17261,1.16974l13.63582,0c0.64666,0 1.17264,-0.52569 1.17264,-1.16974l0,-0.75998l1.96084,-0.62136l0,1.38135c0,1.72499 -1.40636,3.12776 -3.13348,3.12776l-13.63582,0c-1.72709,0 -3.13345,-1.40277 -3.13345,-3.12776l0,-13.60883zm10.34479,-3.05926l7.50513,0c1.13852,0 2.06582,0.92472 2.06582,2.06233l0,7.68613l-1.96084,0.62136l0,-7.02766l-11.33851,11.31604l-1.38745,-1.38474l11.33802,-11.31548l-6.84751,0l0.62534,-1.95799z"/>
		</g>
		<g id="share">
			<path d="M16.3,0c-2,0-3.7,1.6-3.7,3.7s1.6,3.7,3.7,3.7S20,5.7,20,3.7S18.4,0,16.3,0z M16.3,5.4c-0.9,0-1.7-0.8-1.7-1.7 c0-0.9,0.8-1.7,1.7-1.7C17.3,2,18,2.8,18,3.7C18,4.6,17.3,5.4,16.3,5.4z"/>
			<path d="M16.3,12.7c-1.1,0-2,0.5-2.7,1.2l-5.2-2.6l-0.3-0.2l-0.1,0.4L7.9,13l0,0.2L8,13.2L8.1,13v0L8,13.2l4.7,2.4 c0,0.2-0.1,0.5-0.1,0.7c0,2,1.6,3.7,3.7,3.7s3.7-1.6,3.7-3.7C20,14.3,18.3,12.7,16.3,12.7z M16.3,18c-0.9,0-1.7-0.8-1.7-1.7 c0-0.9,0.8-1.7,1.7-1.7c0.9,0,1.7,0.8,1.7,1.7C18,17.3,17.3,18,16.3,18z"/>
			<path d="M0,10c0,2,1.6,3.7,3.7,3.7S7.3,12,7.3,10c0-0.2,0-0.5-0.1-0.7L12,6.9l-0.1-0.2v0L12,6.9l0.2-0.1l0-0.2l-0.2-1.5 l-0.1-0.4L11.5,5L6.4,7.5C5.7,6.8,4.7,6.3,3.7,6.3C1.6,6.3,0,8,0,10z M2,10c0-0.9,0.8-1.7,1.7-1.7c0.9,0,1.7,0.8,1.7,1.7 c0,0.9-0.8,1.7-1.7,1.7C2.7,11.7,2,11,2,10z"/>
		</g>
		<g id="lupe">
			<path d="M20,8c0-4.4-3.6-8-8-8C7.6,0,4,3.6,4,8c0,1.9,0.6,3.6,1.7,4.9L0,18.6L1.4,20l7.1-7.1l-0.2-0.2 C6.9,11.6,6,9.9,6,8c0-3.3,2.7-6,6-6c3.3,0,6,2.7,6,6c0,3.3-2.7,6-6,6c-0.7,0-1.3-0.1-1.9-0.3L10,13.7l-1.5,1.5l0.4,0.2 c1,0.4,2.1,0.7,3.2,0.7C16.4,16,20,12.4,20,8z"/>
		</g>
		<g id="copy">
			<path d="M12.8,15.9L12.6,16v0.2v1.4v0c0,0.3-0.2,0.5-0.5,0.5H2.5c-0.3,0-0.5-0.2-0.5-0.5V7.9c0-0.3,0.2-0.5,0.5-0.5 h1.4H4l0.1-0.2l0.5-1.5l0.1-0.3H4.3H2.5c-1.4,0-2.5,1.1-2.5,2.5v9.6c0,1.4,1.1,2.5,2.5,2.5h9.6c1.4,0,2.5-1.1,2.5-2.5v-1.8v-0.4 l-0.3,0.1L12.8,15.9z"/>
			<path d="M16.9-0.1H8.8C7-0.1,5.6,1.4,5.6,3.1v8.1c0,1.7,1.4,3.2,3.2,3.2h8.1c1.7,0,3.2-1.4,3.2-3.2V3.1 C20.1,1.4,18.6-0.1,16.9-0.1z M18.1,11.2c0,0.7-0.5,1.2-1.2,1.2H8.8c-0.7,0-1.2-0.5-1.2-1.2V3.1c0-0.7,0.5-1.2,1.2-1.2h8.1	c0.7,0,1.2,0.5,1.2,1.2V11.2z"/>
		</g>
		<g id="arrow">
			<path d="M17.8,9H0v1.9h17.8l-5.6,6.7l1.5,0.9l5.8-6.9c0.8-0.9,0.8-2.4,0-3.3l-5.6-6.7l-1.5,0.9L17.8,9z"/>
		</g>
		<g id="arrow-dd">
			<path d="M1.6,4.1c-0.4,0-0.9,0.2-1.2,0.5c-0.7,0.7-0.7,1.7,0,2.4l8.4,8.4c0.7,0.7,1.7,0.7,2.4,0L19.5,7 c0.7-0.7,0.7-1.7,0-2.4c-0.7-0.7-1.7-0.7-2.4,0L10,11.8L2.8,4.6C2.5,4.3,2.1,4.1,1.6,4.1z"/>
		</g>
		<g id="upload">
			<path d="M16.3,8.2C15.9,5.3,13.2,3,10,3C7.4,3,5.2,4.5,4.2,6.6C1.8,7.2,0,9.2,0,11.7c0,3,2.5,5.3,5.5,5.3 c0.6,0,1-0.4,1-1c0-0.6-0.4-1-1-1c-2,0-3.5-1.5-3.5-3.3c0-1.6,1.3-3,3-3.2c0.4,0,0.7-0.3,0.8-0.6C6.4,6.2,8,5,10,5 c2.5,0,4.4,1.9,4.4,4.1c0,0.6,0.4,1,1,1c1.5,0,2.6,1.1,2.6,2.4c0,1.3-1.1,2.4-2.6,2.4c-0.6,0-1,0.4-1,1c0,0.6,0.4,1,1,1 c2.5,0,4.6-1.9,4.6-4.4C20,10.4,18.4,8.7,16.3,8.2z"/>
			<path d="M10.7,8.8C10.7,8.8,10.7,8.8,10.7,8.8c-0.1-0.1-0.2-0.2-0.3-0.2c-0.2-0.1-0.5-0.1-0.8,0 c-0.1,0-0.2,0.1-0.3,0.2c0,0,0,0,0,0l-2,2c-0.4,0.4-0.4,1,0,1.4s1,0.4,1.4,0L9,11.9v3.6c0,0.6,0.4,1,1,1c0.6,0,1-0.4,1-1v-3.6 l0.3,0.3c0.4,0.4,1,0.4,1.4,0s0.4-1,0-1.4L10.7,8.8z"/>
		</g>
		<g id="page">
			<path d="M17,20H3c-1.7,0-3-1.3-3-3V3c0-1.7,1.3-3,3-3h14c1.7,0,3,1.3,3,3v14C20,18.7,18.7,20,17,20z M3,2 C2.4,2,2,2.4,2,3v14c0,0.6,0.4,1,1,1h14c0.6,0,1-0.4,1-1V3c0-0.6-0.4-1-1-1H3z"/>
			<path d="M3.5,4.2v2h13l-0.6-2H3.5z"/>
			<path d="M3.5,13.8v2h13l-0.6-2H3.5z"/>
			<path d="M3.5,9v2h9l-0.6-2H3.5z"/>	
		</g>
		<g id="pages">
			<path d="M5.6,0H17c1.7,0,3,1.3,3,3v9.4c0,1.5-1.1,2.8-2.6,3V17c0,1.7-1.3,3-3,3H3c-1.7,0-3-1.3-3-3V7.6 c0-1.5,1.1-2.8,2.6-3V3C2.6,1.4,4,0,5.6,0z M4.6,4.6h9.8c1.7,0,3,1.3,3,3v5.7c0.4-0.2,0.6-0.5,0.6-0.9V3c0-0.6-0.4-1-1-1H5.6 c-0.6,0-1,0.4-1,1V4.6z M3,6.6c-0.6,0-1,0.4-1,1V17c0,0.6,0.4,1,1,1h11.4c0.6,0,1-0.4,1-1V7.6c0-0.6-0.4-1-1-1H3z M13.3,9.2H4.1v2 h9.2V9.2z M4.1,13.4h9.2v2H4.1V13.4z"/>
		</g>
		<g id="check-ok">
			<path d="M13.7,7.3c0.4,0.4,0.4,1,0,1.4l-4,4c-0.4,0.4-1,0.4-1.4,0l-2-2c-0.4-0.4-0.4-1,0-1.4c0.4-0.4,1-0.4,1.4,0 L9,10.6l3.3-3.3C12.7,6.9,13.3,6.9,13.7,7.3z"/>
			<path d="M10,2c-4.4,0-8,3.6-8,8c0,4.4,3.6,8,8,8c4.4,0,8-3.6,8-8C18,5.6,14.4,2,10,2z M0,10C0,4.5,4.5,0,10,0 c5.5,0,10,4.5,10,10c0,5.5-4.5,10-10,10C4.5,20,0,15.5,0,10z"/>	
		</g>
		<g id="check-cancel">
			<path d="M10,0C4.5,0,0,4.5,0,10c0,5.5,4.5,10,10,10c5.5,0,10-4.5,10-10C20,4.5,15.5,0,10,0z M10,18c-4.4,0-8-3.6-8-8 c0-4.4,3.6-8,8-8s8,3.6,8,8C18,14.4,14.4,18,10,18z"/>
			<path d="M13.5,6.5c-0.3-0.3-0.7-0.3-1,0L10,9L7.5,6.5c-0.3-0.3-0.7-0.3-1,0c-0.3,0.3-0.3,0.7,0,1L9,10l-2.5,2.5 c-0.3,0.3-0.3,0.7,0,1c0.3,0.3,0.7,0.3,1,0L10,11l2.5,2.5c0.3,0.3,0.7,0.3,1,0s0.3-0.7,0-1L11,10l2.5-2.5 C13.8,7.2,13.8,6.7,13.5,6.5z"/>	
		</g>
		<g id="warning">
			<path d="M11,15c0,0.6-0.4,1-1,1c-0.5,0-1-0.4-1-1s0.4-1,1-1C10.5,14,11,14.4,11,15z"/>
			<path d="M10,4c0.5,0,1,0.4,1,1v6c0,0.6-0.4,1-1,1c-0.5,0-1-0.4-1-1V5C9,4.4,9.5,4,10,4z"/>
			<path d="M10,2c-4.4,0-8,3.6-8,8s3.6,8,8,8c4.4,0,8-3.6,8-8S14.4,2,10,2z M0.1,10C0.1,4.5,4.5,0,10,0 c5.5,0,9.9,4.5,9.9,10S15.5,20,10,20C4.5,20,0.1,15.5,0.1,10z"/>
		</g>
		<g id="remove">
			<path d="M12.4,0H7.6v2h4.8V0z M20,3.1H0v2h20V3.1z M8,6.9H6v9.3h2V6.9z M12,6.9h2v9.3h-2V6.9z M16.8,18 c0.6,0,1.2-0.5,1.2-1.2V7.1l2,0.6v9.1c0,1.7-1.4,3.2-3.2,3.2H3.2C1.4,20,0,18.6,0,16.8V7.8l2-0.6v9.7C2,17.5,2.5,18,3.2,18H16.8z"/>
		</g>
		<g id="lock">
			<path d="M8,6.1c0,0.6-0.4,1-1,1h0c-0.6,0-1-0.4-1-1V4c0-2.2,1.8-4,4-4h0.1c2.2,0,4,1.8,4,4v2.1c0,0.6-0.4,1-1,1 c-0.6,0-1-0.4-1-1V4c0-1.1-0.9-2-2-2H9.9C8.9,2,8,2.9,8,4V6.1z M18,7.1v9.7c0,0.6-0.5,1.2-1.2,1.2H3.2C2.5,18,2,17.5,2,16.8V7.1 L0,7.7v9.1C0,18.6,1.4,20,3.2,20h13.7c1.7,0,3.2-1.4,3.2-3.2V7.7L18,7.1z M11.9,9.1L10,11L8.1,9.1l-1.4,1.4l1.9,1.9l-1.9,1.9 l1.4,1.4l1.9-1.9l1.9,1.9l1.4-1.4l-1.9-1.9l1.9-1.9L11.9,9.1z"/>
		</g>
		<g id="unlock">
			<path d="M14.1,5.1v-1c0-2.2-1.8-4.1-4.1-4.1H9.9C7.7,0,5.9,1.8,5.9,4.1v1v2H18v9.8c0,0.6-0.5,1.2-1.2,1.2H3.2 C2.5,18,2,17.5,2,16.8V7.1L0,7.7v9.1C0,18.6,1.4,20,3.2,20h13.7c1.7,0,3.2-1.4,3.2-3.2V5.1H14.1z M12.1,5.1H7.9v-1 C7.9,2.9,8.8,2,9.9,2h0.1c1.1,0,2.1,0.9,2.1,2.1V5.1z"/>
			<path d="M10.9,10.3V9.7c0-0.6-0.4-1-1-1c-0.6,0-1,0.4-1,1v0.6C7.8,10.7,7,11.7,7,13c0,1.6,1.3,2.8,2.8,2.8 c1.6,0,2.8-1.3,2.8-2.8C12.7,11.7,12,10.7,10.9,10.3z M9.9,13.8C9.4,13.8,9,13.4,9,13s0.3-0.8,0.8-0.8c0,0,0,0,0,0c0,0,0,0,0,0 c0,0,0,0,0,0c0,0,0,0,0,0c0.4,0,0.8,0.4,0.8,0.8C10.7,13.4,10.3,13.8,9.9,13.8z"/>
		</g>
		<g id="transfer">
			<path d="M15.1,0.1L20,5l0,0l-4.9,4.9l-1-1.9L16.2,6H2v2H0V5c0-0.6,0.4-1,1-1h15.2l-2.1-2.1L15.1,0.1z M18,14v-2v0h2v3 c0,0.6-0.4,1-1,1H3.8l2.1,2.1l-1,1.9L0,15l4.9-4.9l1,1.9L3.8,14H18z"/>
		</g>
		<g id="download">
			<path d="M13.7,6.8l1.9,1L10,13.4L4.4,7.8l1.9-1L9,9.6V0h2v9.6L13.7,6.8z M18,16.8v-6.6l2,0.6v6.3c0,1.6-1.3,2.9-2.9,2.9 H3.4C1.5,20,0,18.5,0,16.6v-5.7l2-0.6v6.4C2,17.4,2.6,18,3.4,18h13.4C17.5,18,18,17.5,18,16.8z"/>
		</g>
		<g id="clock">
			<path d="M10 20C4.5 20 0 15.5 0 10S4.5 0 10 0s10 4.5 10 10-4.5 10-10 10zm0-18c-4.4 0-8 3.6-8 8s3.6 8 8 8 8-3.6 8-8-3.6-8-8-8z"/>
			<path d="M13.5 11h-3.3C9.6 11 9 10.4 9 9.7V5c0-.6.4-1 1-1s1 .4 1 1v4h2.5c.6 0 1 .4 1 1s-.4 1-1 1z"/>
		</g>
		<g id="edit">
			<path d="M0,18c0,1.1,0.9,2,2,2h2.6L0,15.4V18z M19.4,3.8l-3.2-3.2c-0.8-0.8-2-0.8-2.8,0l-0.2,0.2c-0.4,0.4-0.4,1,0,1.4 l4.6,4.6c0.4,0.4,1,0.4,1.4,0l0.2-0.2C20.2,5.7,20.2,4.6,19.4,3.8z M11.9,3.6c-0.4-0.4-1-0.4-1.4,0l-9,9C1,13.1,1,13.7,1.4,14.1 l4.6,4.6c0.4,0.4,1,0.4,1.4,0l9-9c0.4-0.4,0.4-1,0-1.4L11.9,3.6z"/>
		</g>
		<g id="calendar">
			<path d="M17,3h-2V1c0-0.6-0.4-1-1-1s-1,0.4-1,1v2H7V1c0-0.6-0.4-1-1-1S5,0.4,5,1v2H3C1.3,3,0,4.3,0,6v11 c0,1.7,1.3,3,3,3h14c1.7,0,3-1.3,3-3V6C20,4.3,18.7,3,17,3z M2,6c0-0.6,0.4-1,1-1h2c0,0.6,0.4,1,1,1s1-0.4,1-1h6c0,0.6,0.4,1,1,1 s1-0.4,1-1h2c0.6,0,1,0.4,1,1v2H2V6z M18,17c0,0.6-0.4,1-1,1H3c-0.6,0-1-0.4-1-1v-7h16V17z"/>
			<path d="M7,15h6c0.6,0,1-0.4,1-1s-0.4-1-1-1H7c-0.6,0-1,0.4-1,1S6.4,15,7,15z"/>
		</g>
		<g id="calendar-2">
			<path d="M17,0H3C1.3,0,0,1.4,0,3V17c0,1.7,1.3,3,3,3h3l-0.6-2H3c-0.6,0-1-0.4-1-1l0-9.5h16l0,9.5c0,0.6-0.4,1-1,1H7.9 l0.6,2H17c1.7,0,3-1.3,3-3v-2.5h0V3C20,1.4,18.6,0,17,0z M18,5.5H2V3c0-0.6,0.5-1,1-1h14c0.6,0,1,0.5,1,1L18,5.5z M8.4,9.4H4.3v2 h4.1V9.4z M11.6,13.5h4.1v2h-4.1V13.5z"/>
		</g>
		<g id="home">
			<path d="M2,4.6l8-2.5l8,2.5v0l2,0.6V3.1L10,0L0,3.1v2.1L2,4.6z M18,16.8c0,0.6-0.5,1.2-1.2,1.2H3.2 C2.5,18,2,17.5,2,16.8V7.1L0,7.8v9.1C0,18.6,1.4,20,3.2,20h13.6c1.7,0,3.2-1.4,3.2-3.2V7.8l-2-0.6V16.8z M10,10.2 c2,0,3.6,1.6,3.6,3.6V16l-2,0.6v-2.8c0-0.9-0.7-1.6-1.6-1.6S8.4,13,8.4,13.8v2.8l-2-0.6v-2.1C6.4,11.9,8,10.2,10,10.2z"/>
		</g>
		<g id="nominees">
			<path d="M19.2,6.7c0-1.9-1-3.6-2.8-4.9c-3.6-2.5-9.1-2.5-12.7,0c-1.8,1.3-2.8,3-2.8,4.9c0,0.3,0,0.7,0.1,1v9.2 c0,1.9,1.1,2.7,1.8,2.9c0.6,0.2,1.3,0.2,1.9,0c0.3-0.1,0.9-0.4,1.1-0.5l4.3-2.7h0l1.9-1.2l-1.3-0.8L10,14.3l-5.2,3.3 C4.4,17.8,4.1,17.9,4,18c-0.3,0.1-0.5,0-0.6,0c-0.2-0.1-0.5-0.2-0.5-1V11c0.2,0.2,0.5,0.4,0.7,0.6c1.8,1.2,4.1,1.9,6.4,1.9 s4.6-0.6,6.4-1.9c0.3-0.2,0.5-0.4,0.7-0.6v5.9c0,0.8-0.3,1-0.5,1c-0.1,0-0.3,0.1-0.6,0c-0.1,0-0.5-0.2-0.8-0.4l-1-0.6l-1.9,1.2 l1.9,1.2l0.1,0c0.2,0.1,0.8,0.4,1.1,0.5c0.3,0.1,0.6,0.2,0.9,0.2c0.3,0,0.7-0.1,1-0.2c0.7-0.3,1.8-1,1.8-2.9V7.7 C19.1,7.4,19.2,7.1,19.2,6.7L19.2,6.7z M15.2,10c-2.9,2-7.5,2-10.4,0c-1.3-0.9-2-2-2-3.2c0-1.2,0.7-2.3,2-3.2C6.2,2.5,8.1,2,10,2 s3.8,0.5,5.2,1.5c1.3,0.9,2,2,2,3.2S16.5,9.1,15.2,10L15.2,10z"/>
		</g>
		<g id="winners">
			<path d="M1.6,4.5c0,4.6,3.8,8.4,8.4,8.4l0,0c4.6,0,8.4-3.8,8.4-8.4V0H1.6V4.5z M3.6,4.5V2h12.8v2.5 c0,3.5-2.9,6.4-6.4,6.4S3.6,8,3.6,4.5z M14.3,14.1c0,1.1,0.5,2.1,1.5,3c0.8,0.7,1.6,1,1.6,1V20H2.5v-1.9c0,0,0.8-0.3,1.6-1 c1-0.8,1.5-1.8,1.5-3l2,0.6c-0.2,1.4-0.8,2.5-1.5,3.3h7.8c-0.7-0.8-1.4-1.9-1.5-3.3L14.3,14.1z"/>
		</g>
		<g id="collections">
			<path d="M17,0H3C1.4,0,0,1.3,0,3v14c0,1.7,1.3,3,3,3h3l-0.6-2H3c-0.6,0-1-0.4-1-1v-6.7c0-0.6,0.4-1,1-1h7.2l0.7-3.5H17 c0.6,0,1,0.4,1,1V17c0,0.6-0.4,1-1,1H7.9l0.6,2H17c1.7,0,3-1.3,3-3V3C20,1.3,18.6,0,17,0L17,0z M18,4c-0.3-0.1-0.7-0.2-1-0.2H9.2 L8.6,7.3H3c-0.3,0-0.7,0.1-1,0.2V3c0-0.6,0.4-1,1-1h14c0.6,0,1,0.5,1,1V4z"/>
		</g>
		<g id="elements">
			<path d="M10,12.4L0,6.1l0.6-0.8C2.7,2,6.2,0.1,10,0.1s7.3,1.9,9.4,5.1L20,6.1L10,12.4L10,12.4z M2.8,5.5L10,10l7.2-4.6 c-1.8-2.1-4.4-3.4-7.2-3.4S4.6,3.4,2.8,5.5z M10.2,7.6L10,7.5L9.8,7.6c0.1,0,0.1,0,0.2,0C10.1,7.6,10.1,7.6,10.2,7.6z M16.4,9.6 c1.2,0.8,2.2,1.9,3,3.1l0.6,0.8l-10,6.3L0,13.5l0.6-0.8c0.8-1.2,1.9-2.3,3-3.1l0.9,1.8c-0.6,0.5-1.2,1-1.7,1.6l7.2,4.6l7.2-4.6 c-0.5-0.6-1.1-1.1-1.7-1.6L16.4,9.6z"/>
		</g>
		<g id="courses">
			<path d="M20,7.6L20,7.6L20,7.6l0,5.8h-2V9.1l-8,6.1L0,7.6l10-7.5L20,7.6z M3.3,7.6l6.7,5l6.7-5l-6.7-5L3.3,7.6z M6.1,15 c0.5,1.7,2,2.9,3.9,2.9s3.4-1.2,3.9-2.9l1.9,0.6c-0.8,2.5-3.1,4.3-5.8,4.3s-5-1.8-5.8-4.3L6.1,15z"/>
		</g>
		<g id="teachers">
			<path d="M14.8,9c0,2.6-2.2,4.8-4.8,4.8S5.2,11.6,5.2,9V4.8C5.2,2.2,7.3,0,10,0s4.8,2.2,4.8,4.8V9z M10,2 C8.4,2,7.2,3.3,7.2,4.8V9c0,1.6,1.3,2.8,2.8,2.8s2.8-1.3,2.8-2.8V4.8C12.8,3.3,11.6,2,10,2z M16.2,10l1.9,0.6l0,0 c-0.7,3.5-3.6,6.3-7.2,6.7V18h1.4v2H7.6v-2H9v-0.7c-3.6-0.4-6.5-3.2-7.2-6.7L3.8,10c0.4,3.1,3.1,5.4,6.2,5.4S15.8,13,16.2,10z"/>
		</g>
		<g id="directory">
			<path d="M18,0v16.8c0,0.6-0.5,1.2-1.2,1.2H3.2C2.6,18,2,17.5,2,16.8V3.2C2,2.5,2.6,2,3.2,2H14v12.2l2,0.6V0H3.2 C1.5,0,0,1.4,0,3.2v13.7C0,18.6,1.5,20,3.2,20h13.6c1.7,0,3.2-1.4,3.2-3.2V0.6L18,0L18,0z"/>
		</g>
		<g id="jobs">
			<path d="M15.7,15.3H4.3c-1.6,0-3-1.3-3-3V3c0-1.6,1.3-3,3-3h11.4c1.6,0,3,1.3,3,3v9.3C18.7,14,17.3,15.3,15.7,15.3z M4.3,2c-0.6,0-1,0.4-1,1v9.3c0,0.6,0.4,1,1,1h11.4c0.6,0,1-0.4,1-1V3c0-0.6-0.4-1-1-1H4.3z M5.4,4.7h9.2v2H5.4V4.7z M14.6,8.9H5.4 v2h9.2V8.9z M18,16.5v-0.5l2-0.6v1.2c0,1.9-1.6,3.5-3.5,3.5h-13C1.6,20,0,18.4,0,16.5v-1.2l2,0.6v0.5C2,17.3,2.7,18,3.5,18h13 C17.3,18,18,17.3,18,16.5z"/>
		</g>
		<g id="shop">
			<path d="M18.2,0.4c-0.8-0.5-1.8-0.5-2.6,0L9,4.5v13l-6.2-3.9c-0.2-0.1-0.3-0.3-0.3-0.5V2.6c0-0.3,0.2-0.5,0.3-0.5 C2.9,2.1,3,2,3.1,2c0.1,0,0.2,0,0.3,0.1L6.2,4l1.6-1.4L4.4,0.4c-0.8-0.5-1.8-0.5-2.6,0C1,0.8,0.5,1.7,0.5,2.6v10.5 c0,0.9,0.5,1.8,1.3,2.3l6.9,4.3C9.1,19.9,9.6,20,10,20s0.9-0.1,1.3-0.3l6.9-4.3c0.8-0.5,1.3-1.3,1.3-2.3V2.6 C19.5,1.7,19,0.8,18.2,0.4z M17.5,13.1c0,0.2-0.1,0.4-0.3,0.5L11,17.5V5.6l5.6-3.5c0.3-0.2,0.5-0.1,0.6,0c0.1,0.1,0.3,0.2,0.3,0.5 L17.5,13.1L17.5,13.1z"/>
		</g>
		<g id="articles">
			<path d="M6,3.2v11.6h0l-2-0.6v-11C4,1.4,5.4,0,7.2,0h9.7C18.6,0,20,1.4,20,3.2v13.7c0,1.7-1.4,3.2-3.2,3.2H0V0l2,0.6V18 h14.8c0.6,0,1.2-0.5,1.2-1.2V3.2C18,2.5,17.5,2,16.8,2H7.2C6.5,2,6,2.5,6,3.2z M8.8,5.2h6.4v2H8.8V5.2z M15.2,9H8.8v2h6.4V9z  M8.8,12.8h6.4v2H8.8V12.8z"/>
		</g>
		<g id="padlock">
			<path d="M3.182,6.364h5.092V4.455c0-0.703-0.25-1.303-0.747-1.799c-0.497-0.498-1.098-0.746-1.8-0.746 c-0.703,0-1.302,0.249-1.8,0.746C3.43,3.152,3.182,3.752,3.182,4.455V6.364z M11.455,7.318v5.727c0,0.266-0.094,0.491-0.279,0.676 C10.99,13.907,10.766,14,10.5,14H0.954c-0.265,0-0.49-0.093-0.676-0.279C0.093,13.536,0,13.311,0,13.045V7.318 c0-0.265,0.093-0.49,0.278-0.676c0.186-0.186,0.411-0.278,0.676-0.278h0.318V4.455c0-1.22,0.438-2.267,1.313-3.142 C3.46,0.438,4.507,0,5.727,0s2.267,0.438,3.142,1.313c0.875,0.875,1.313,1.922,1.313,3.142v1.909H10.5 c0.266,0,0.49,0.092,0.676,0.278C11.361,6.828,11.455,7.053,11.455,7.318z"/>
		</g>
		<g id="check">
			<path d="M5.7,18.1c0.7,0.5,0.8,0.7,1.8,0.7c0.4,0,1-0.8,1-0.8l11-13.5c0.7-0.9,0.5-2.3-0.4-2.9 c-0.8-0.7-2.1-0.5-2.8,0.3L6.7,13.8l-3.6-3.1c-0.8-0.7-2-0.7-2.7,0.1c-0.7,0.8-0.7,2,0.1,2.8L5.7,18.1"/>
		</g>
		<g id="cart">
			<path d="M10 4.5c-.6 0-1-.4-1-1v-2c0-.6.4-1 1-1s1 .4 1 1v2c0 .6-.4 1-1 1zM8 15.5c-.5 0-.9-.3-1-.8l-.5-3c-.1-.5.3-1.1.8-1.2.5-.1 1.1.3 1.2.8l.5 3c.1.5-.3 1.1-.8 1.2H8zM12 15.5h-.2c-.5-.1-.9-.6-.8-1.2l.5-3c.1-.5.6-.9 1.2-.8.5.1.9.6.8 1.2l-.5 3c-.1.5-.5.8-1 .8z"/>
			<path d="M11.7 19.5H8.3c-1.8 0-2.8 0-3.6-.7-.8-.7-1-1.7-1.3-3.4l-.9-4.8c-.1-1-.2-1.6-.4-1.8-.1 0-.2-.1-.2-.2-.3-.1-.9-.1-1.9-.1v-2h20v2c-1 0-1.6 0-1.9.1-.1 0-.2.1-.2.2-.2.2-.3.8-.5 1.8l-.9 4.8c-.3 1.7-.5 2.7-1.3 3.4-.8.7-1.8.7-3.5.7zm-7.6-11c.2.5.3 1 .4 1.8l.9 4.7c.2 1.2.4 2 .6 2.2.3.2 1 .2 2.3.2h3.3c1.3 0 2 0 2.3-.2.3-.2.4-1 .6-2.2l.9-4.8c.1-.7.2-1.3.4-1.8H4.1z"/>
		</g>
		<g id="play">
			<path d="M13.4,9.3L9.1,6.9C8.4,6.6,7.7,7,7.7,7.7v4.6c0,0.7,0.8,1.1,1.4,0.8l4.3-2.4C13.9,10.4,13.9,9.6,13.4,9.3z"/>
			<path d="M10,20C4.5,20,0,15.5,0,10S4.5,0,10,0s10,4.5,10,10S15.5,20,10,20z M10,1.5c-4.7,0-8.5,3.8-8.5,8.5 c0,4.7,3.8,8.5,8.5,8.5c4.7,0,8.5-3.8,8.5-8.5C18.5,5.3,14.7,1.5,10,1.5z"/>
		</g>
		<g id="play-2">
			<path d="M13.1,9.3L8.9,7.1C8.5,6.8,8,7.1,8,7.6v4.4c0,0.4,0.5,0.7,0.9,0.5l4.2-2.3C13.5,10,13.5,9.5,13.1,9.3z"/>
			<path d="M10,20C4.5,20,0,15.5,0,10S4.5,0,10,0c5.5,0,10,4.5,10,10S15.5,20,10,20z M10,0.5c-5.2,0-9.5,4.3-9.5,9.5 c0,5.2,4.3,9.5,9.5,9.5s9.5-4.3,9.5-9.5C19.5,4.8,15.2,0.5,10,0.5z"/>
		</g>
		<g id="user-login">
			<path d="M18.5,13.5L15.7,17l-1.9-1.7l-1.4,1.5l3.4,3.2l4.1-5.2L18.5,13.5z"/>
			<path d="M14.2,11c-0.9-0.4-1.8-0.7-2.8-0.8c2.1-0.6,3.7-2.6,3.7-5C15.2,2.3,12.8,0,10,0C7.1,0,4.8,2.3,4.8,5.2	c0,2.3,1.6,4.3,3.7,5C3.7,10.9,0,15,0,20h2c0-4.4,3.6-8,8-8c1.3,0,2.6,0.3,3.6,0.9L14.2,11L14.2,11z M6.8,5.2C6.8,3.4,8.2,2,10,2 c1.7,0,3.2,1.4,3.2,3.2c0,1.7-1.4,3.2-3.2,3.2C8.2,8.3,6.8,6.9,6.8,5.2z"/>
		</g>
		<g id="user-add">
			<path d="M15.1,5.2C15.1,2.3,12.8,0,10,0C7.1,0,4.8,2.3,4.8,5.2c0,2.3,1.6,4.3,3.7,5C3.7,10.8,0,15,0,20h2 c0-4.4,3.6-8,8-8c1.3,0,2.6,0.3,3.6,0.9l0.6-1.9c-0.9-0.4-1.8-0.7-2.8-0.8C13.6,9.5,15.1,7.5,15.1,5.2z M6.8,5.2C6.8,3.4,8.2,2,10,2 c1.7,0,3.2,1.4,3.2,3.2c0,1.7-1.4,3.2-3.2,3.2C8.2,8.3,6.8,6.9,6.8,5.2z M17.3,15.3H20v2h-2.7V20h-2v-2.7h-2.7v-2h2.7v-2.7h2V15.3z"/>
		</g>
		<g id="user-avatar">
			<path d="M0,0v20h2.7c1.2-2.8,4-4.7,7.3-4.7c1.3,0,2.6,0.3,3.6,0.9l0.6-1.9c-0.9-0.4-1.8-0.7-2.8-0.8 c2.1-0.6,3.7-2.6,3.7-5c0-2.8-2.3-5.2-5.2-5.2S4.8,5.6,4.8,8.5c0,2.3,1.6,4.3,3.7,4.9c-2.7,0.4-5,1.9-6.5,3.9V2h16v8.1l2-0.6V0H0z  M6.8,8.5c0-1.7,1.4-3.2,3.2-3.2s3.2,1.4,3.2,3.2c0,1.7-1.4,3.2-3.2,3.2S6.8,10.2,6.8,8.5z"/>
		</g>
		<g id="mail">
			<path d="M20,3.1L20,3.1L20,3.1C20,1.4,18.6,0,17,0H3C1.4,0,0,1.4,0,3v0h0v2.3l0,0V17c0,1.7,1.3,3,3,3h3l-0.6-2H3 c-0.6,0-1-0.4-1-1L2,6.7l8,5l8-5L18,17c0,0.6-0.4,1-1,1H7.9l0.6,2H17c1.7,0,3-1.4,3-3v-2.5h0V5.4l0,0L20,3.1L20,3.1z M10,9.3l-8-5V3 c0-0.6,0.5-1,1-1h14c0.6,0,1,0.5,1,1v1.3L10,9.3z"/>
		</g>
		<g id="discount">
			<path d="M7.4,1.3C6.6,0.5,5.5,0,4.4,0C3.2,0,2.1,0.5,1.3,1.3C0.5,2.1,0,3.2,0,4.4s0.5,2.3,1.3,3.1 c0.9,0.9,2,1.3,3.1,1.3c1.1,0,2.2-0.4,3.1-1.3C9.1,5.7,9.1,3,7.4,1.3z M5.6,5.6c-0.7,0.7-1.8,0.7-2.5,0c-0.7-0.7-0.7-1.8,0-2.5 c0.3-0.3,0.8-0.5,1.3-0.5c0.5,0,0.9,0.2,1.3,0.5C6.3,3.8,6.3,4.9,5.6,5.6z M18.7,12.6c-1.7-1.7-4.5-1.7-6.2,0 c-0.8,0.8-1.3,1.9-1.3,3.1c0,1.2,0.5,2.3,1.3,3.1c0.8,0.8,1.9,1.3,3.1,1.3l0,0c1.2,0,2.3-0.5,3.1-1.3C20.4,17,20.4,14.3,18.7,12.6z  M16.9,16.9c-0.3,0.3-0.8,0.5-1.3,0.5c-0.5,0-0.9-0.2-1.3-0.5c-0.7-0.7-0.7-1.8,0-2.5c0.3-0.3,0.8-0.5,1.3-0.5 c0.5,0,0.9,0.2,1.3,0.5C17.6,15.1,17.6,16.2,16.9,16.9z M17.3,0.8L0.8,17.3l1.8,1.8L19.2,2.7L17.3,0.8z"/>
		</g>
		<g id="eye">
			<path d="M10,5.1C4.5,5.1,0,9,0,13.7h2c0-2.3,1.4-4.2,3.5-5.4c-0.2,0.5-0.3,1.1-0.3,1.7c0,2,1.2,3.7,3,4.4l0.6-1.9 c-0.9-0.5-1.6-1.4-1.6-2.5c0-1.6,1.3-2.8,2.9-2.8c1.6,0,2.9,1.3,2.9,2.8c0,1.1-0.7,2.1-1.7,2.6l-0.7,2.2c2.5-0.2,4.4-2.3,4.4-4.8 c0-0.6-0.1-1.2-0.3-1.7c2.1,1.2,3.5,3.2,3.5,5.4h2C20,9,15.5,5.1,10,5.1z"/>
		</g>
		<g id="eye-2">
			<path d="M17,8.2L19,5l-1.7-1.1l-2.3,3.5c-1.2-0.4-2.6-0.6-4.2-0.7l0-3.9l-2,0l0,3.9C7.4,6.8,6,7.1,4.7,7.5l-2-3.5 l-1.7,1l1.9,3.3C1.1,9.2,0,10.5,0,11.9c0,2.6,3.3,4.6,7.9,5.1l0.8-2.5c-0.9-0.5-1.6-1.4-1.6-2.6c0-1.6,1.3-2.9,2.9-2.9 s2.9,1.3,2.9,2.9c0,1.1-0.7,2.1-1.6,2.6l-0.8,2.6c5.5-0.1,9.6-2.3,9.6-5.2C20,10.4,18.9,9.1,17,8.2z M6,14.7c-2.5-0.6-4-1.8-4-2.7 C2,11,3.5,9.8,6,9.2c-0.5,0.8-0.8,1.7-0.8,2.7C5.1,13,5.5,13.9,6,14.7z M14,14.7c0.5-0.8,0.8-1.7,0.8-2.7c0-1-0.3-2-0.8-2.7 c2.5,0.6,4,1.8,4,2.7C18,12.9,16.5,14,14,14.7z"/>
		</g>
		<g id="submission">
			<path d="M15.7,0H4.3c-1.6,0-3,1.3-3,3v9.3c0,1.6,1.3,3,3,3h11.4c1.6,0,3-1.3,3-3V3C18.7,1.4,17.3,0,15.7,0z M16.7,12.3 c0,0.6-0.4,1-1,1H4.3c-0.6,0-1-0.4-1-1V3c0-0.6,0.4-1,1-1h11.4c0.6,0,1,0.4,1,1V12.3z M18,16.5v-0.5l2-0.6v1.2 c0,1.9-1.6,3.5-3.5,3.5h-13C1.6,20,0,18.4,0,16.5v-1.2l2,0.6v0.5C2,17.3,2.7,18,3.5,18h13C17.3,18,18,17.3,18,16.5z M9.4,7.9 l2.8-3.5l1.6,1.2l-4.1,5.2L6.2,7.6l1.4-1.5L9.4,7.9z"/>
		</g>
		<g id="video">
			<path d="M3,0h14c1.7,0,3,1.4,3,3v11.5h0V17c0,1.7-1.4,3-3,3H8.5l-0.6-2H17c0.6,0,1-0.4,1-1L18,3c0-0.6-0.5-1-1-1H3 C2.5,2,2,2.5,2,3L2,17c0,0.6,0.4,1,1,1h2.4L6,20H3c-1.7,0-3-1.3-3-3V3C0,1.4,1.3,0,3,0z M15.2,10c0-0.4-0.2-0.7-0.5-0.9L6.7,5 C6.4,4.8,6,4.8,5.7,5C5.4,5.2,5.2,5.5,5.2,5.9v8.3c0,0.4,0.2,0.7,0.5,0.9c0.2,0.1,0.3,0.1,0.5,0.1c0.2,0,0.3,0,0.5-0.1l8-4.1 C15,10.7,15.2,10.4,15.2,10L15.2,10z M7.2,12.5L7.2,12.5v-5L12,10L7.2,12.5z"/>
		</g>
		<g id="comment">
			<path d="M20,3c0-1.7-1.4-3-3-3H3C1.3,0,0,1.3,0,3v8.8c0,1.7,1.4,3,3,3h3.2V20l6.9-5.2h0l-0.6-2h-0.1L8.2,16v-3.2H3	c-0.6,0-1-0.5-1-1V3c0-0.6,0.4-1,1-1h14c0.6,0,1,0.5,1,1v9.8l2-0.6V3z"/>
		</g>
	</def>
</svg>