<svg width="500" height="250" viewBox="0 0 500 250" fill="none" xmlns="http://www.w3.org/2000/svg">
<rect width="500" height="250" fill="white"/>
<path d="M75.919 99.5C75.919 101.58 76.039 103.52 76.279 105.32C76.559 107.12 77.039 108.84 77.719 110.48C78.399 112.08 79.259 113.64 80.299 115.16C81.379 116.68 82.739 118.22 84.379 119.78C84.819 120.22 85.039 120.7 85.039 121.22C85.079 121.74 84.919 122.22 84.559 122.66C84.199 123.1 83.719 123.3 83.119 123.26C82.519 123.26 81.939 123 81.379 122.48C79.579 120.8 78.099 119.02 76.939 117.14C75.819 115.26 74.879 113.4 74.119 111.56C73.439 113.6 72.539 115.6 71.419 117.56C70.339 119.52 68.959 121.4 67.279 123.2C66.759 123.76 66.179 124.04 65.539 124.04C64.939 124.04 64.459 123.82 64.099 123.38C63.739 122.94 63.559 122.46 63.559 121.94C63.599 121.42 63.839 120.94 64.279 120.5C67.119 117.46 69.119 114.24 70.279 110.84C71.439 107.44 72.019 103.66 72.019 99.5V75.2C72.019 74.6 72.199 74.16 72.559 73.88C72.919 73.56 73.379 73.4 73.939 73.4C74.499 73.4 74.959 73.56 75.319 73.88C75.719 74.16 75.919 74.6 75.919 75.2V99.5ZM84.739 96.86C84.739 96.3 84.899 95.88 85.219 95.6C85.579 95.28 85.999 95.12 86.479 95.12H96.379V75.2C96.379 74.6 96.559 74.16 96.919 73.88C97.279 73.56 97.739 73.4 98.299 73.4C98.859 73.4 99.319 73.56 99.679 73.88C100.079 74.16 100.279 74.6 100.279 75.2V123.14C100.279 123.74 100.079 124.18 99.679 124.46C99.319 124.78 98.859 124.94 98.299 124.94C97.739 124.94 97.279 124.78 96.919 124.46C96.559 124.18 96.379 123.74 96.379 123.14V98.6H86.479C85.999 98.6 85.579 98.46 85.219 98.18C84.899 97.86 84.739 97.42 84.739 96.86ZM63.679 97.88C63.679 99.88 63.559 101.92 63.319 104C63.119 106.04 62.659 108.08 61.939 110.12C61.259 112.16 60.259 114.18 58.939 116.18C57.659 118.22 55.959 120.22 53.839 122.18C53.279 122.7 52.699 122.96 52.099 122.96C51.499 123 51.019 122.8 50.659 122.36C50.299 121.92 50.119 121.42 50.119 120.86C50.159 120.34 50.399 119.88 50.839 119.48C52.759 117.8 54.299 116.12 55.459 114.44C56.659 112.76 57.559 111.02 58.159 109.22C58.799 107.42 59.219 105.54 59.419 103.58C59.659 101.58 59.779 99.42 59.779 97.1V75.2C59.779 74.6 59.959 74.16 60.319 73.88C60.679 73.56 61.139 73.4 61.699 73.4C62.259 73.4 62.719 73.56 63.079 73.88C63.479 74.16 63.679 74.6 63.679 75.2V97.88ZM115.231 119.24C115.231 119.72 115.311 120.04 115.471 120.2C115.671 120.36 115.931 120.44 116.251 120.44H132.691C133.171 120.44 133.571 120.58 133.891 120.86C134.251 121.18 134.431 121.62 134.431 122.18C134.431 122.74 134.251 123.16 133.891 123.44C133.571 123.76 133.171 123.92 132.691 123.92H115.651C114.691 123.92 113.911 123.78 113.311 123.5C112.751 123.22 112.311 122.86 111.991 122.42C111.711 121.98 111.531 121.48 111.451 120.92C111.371 120.36 111.331 119.8 111.331 119.24V101.3C111.331 100.74 111.371 100.18 111.451 99.62C111.531 99.06 111.711 98.56 111.991 98.12C112.311 97.68 112.751 97.32 113.311 97.04C113.911 96.76 114.691 96.62 115.651 96.62H128.311C128.631 96.62 128.871 96.54 129.031 96.38C129.231 96.22 129.331 95.9 129.331 95.42V78.8C129.331 78.32 129.231 78 129.031 77.84C128.871 77.68 128.631 77.6 128.311 77.6H113.071C112.591 77.6 112.171 77.46 111.811 77.18C111.491 76.86 111.331 76.42 111.331 75.86C111.331 75.3 111.491 74.88 111.811 74.6C112.171 74.28 112.591 74.12 113.071 74.12H128.911C129.871 74.12 130.631 74.26 131.191 74.54C131.791 74.82 132.231 75.18 132.511 75.62C132.831 76.06 133.031 76.56 133.111 77.12C133.191 77.68 133.231 78.24 133.231 78.8V95.42C133.231 95.98 133.191 96.54 133.111 97.1C133.031 97.66 132.831 98.16 132.511 98.6C132.231 99.04 131.791 99.4 131.191 99.68C130.631 99.96 129.871 100.1 128.911 100.1H116.251C115.931 100.1 115.671 100.18 115.471 100.34C115.311 100.5 115.231 100.82 115.231 101.3V119.24ZM163.651 97.46C163.651 98.02 163.471 98.46 163.111 98.78C162.791 99.06 162.391 99.2 161.911 99.2H153.331V123.14C153.331 123.74 153.131 124.18 152.731 124.46C152.371 124.78 151.911 124.94 151.351 124.94C150.791 124.94 150.331 124.78 149.971 124.46C149.611 124.18 149.431 123.74 149.431 123.14V75.2C149.431 74.6 149.611 74.16 149.971 73.88C150.331 73.56 150.791 73.4 151.351 73.4C151.911 73.4 152.371 73.56 152.731 73.88C153.131 74.16 153.331 74.6 153.331 75.2V95.72H161.911C162.391 95.72 162.791 95.88 163.111 96.2C163.471 96.48 163.651 96.9 163.651 97.46ZM213.702 83.54C213.702 85.18 213.422 86.58 212.862 87.74C212.342 88.86 211.562 89.78 210.522 90.5C209.482 91.18 208.202 91.68 206.682 92C205.202 92.32 203.482 92.48 201.522 92.48H182.382C180.422 92.48 178.682 92.32 177.162 92C175.682 91.68 174.422 91.18 173.382 90.5C172.342 89.78 171.542 88.86 170.982 87.74C170.462 86.58 170.202 85.18 170.202 83.54C170.202 80.26 171.242 77.96 173.322 76.64C175.442 75.28 178.462 74.6 182.382 74.6H201.522C203.482 74.6 205.202 74.76 206.682 75.08C208.202 75.4 209.482 75.92 210.522 76.64C211.562 77.32 212.342 78.24 212.862 79.4C213.422 80.52 213.702 81.9 213.702 83.54ZM209.802 83.54C209.802 81.62 209.062 80.24 207.582 79.4C206.142 78.52 203.842 78.08 200.682 78.08H183.222C180.062 78.08 177.742 78.52 176.262 79.4C174.822 80.24 174.102 81.62 174.102 83.54C174.102 85.46 174.822 86.86 176.262 87.74C177.742 88.58 180.062 89 183.222 89H200.682C203.842 89 206.142 88.58 207.582 87.74C209.062 86.86 209.802 85.46 209.802 83.54ZM217.662 101.72C217.662 102.28 217.482 102.72 217.122 103.04C216.802 103.32 216.402 103.46 215.922 103.46H194.682V112.4C194.682 113 194.482 113.46 194.082 113.78C193.722 114.06 193.262 114.2 192.702 114.2C192.142 114.2 191.682 114.06 191.322 113.78C190.962 113.46 190.782 113 190.782 112.4V103.46H167.922C167.442 103.46 167.022 103.32 166.662 103.04C166.342 102.72 166.182 102.28 166.182 101.72C166.182 101.16 166.342 100.74 166.662 100.46C167.022 100.14 167.442 99.98 167.922 99.98H215.922C216.402 99.98 216.802 100.14 217.122 100.46C217.482 100.74 217.662 101.16 217.662 101.72ZM174.762 119.24C174.762 119.72 174.842 120.04 175.002 120.2C175.202 120.36 175.462 120.44 175.782 120.44H212.202C212.682 120.44 213.082 120.58 213.402 120.86C213.762 121.18 213.942 121.62 213.942 122.18C213.942 122.74 213.762 123.16 213.402 123.44C213.082 123.76 212.682 123.92 212.202 123.92H175.182C174.222 123.92 173.442 123.78 172.842 123.5C172.282 123.22 171.842 122.86 171.522 122.42C171.242 121.98 171.062 121.48 170.982 120.92C170.902 120.36 170.862 119.8 170.862 119.24V112.04C170.862 111.44 171.042 111 171.402 110.72C171.762 110.4 172.222 110.24 172.782 110.24C173.342 110.24 173.802 110.4 174.162 110.72C174.562 111 174.762 111.44 174.762 112.04V119.24ZM268.014 74C268.494 74 268.894 74.16 269.214 74.48C269.574 74.76 269.754 75.18 269.754 75.74C269.754 76.3 269.574 76.74 269.214 77.06C268.894 77.34 268.494 77.48 268.014 77.48H232.794C232.474 77.48 232.214 77.56 232.014 77.72C231.854 77.88 231.774 78.2 231.774 78.68V95.12C231.774 95.6 231.854 95.92 232.014 96.08C232.214 96.24 232.474 96.32 232.794 96.32H268.674C269.154 96.32 269.554 96.48 269.874 96.8C270.234 97.08 270.414 97.5 270.414 98.06C270.414 98.62 270.234 99.06 269.874 99.38C269.554 99.66 269.154 99.8 268.674 99.8H232.194C231.234 99.8 230.454 99.66 229.854 99.38C229.294 99.1 228.854 98.74 228.534 98.3C228.254 97.86 228.074 97.36 227.994 96.8C227.914 96.24 227.874 95.68 227.874 95.12V78.68C227.874 78.12 227.914 77.56 227.994 77C228.074 76.44 228.254 75.94 228.534 75.5C228.854 75.06 229.294 74.7 229.854 74.42C230.454 74.14 231.234 74 232.194 74H268.014ZM274.674 121.58C274.674 122.14 274.494 122.56 274.134 122.84C273.814 123.16 273.414 123.32 272.934 123.32H224.934C224.454 123.32 224.034 123.16 223.674 122.84C223.354 122.56 223.194 122.14 223.194 121.58C223.194 121.02 223.354 120.58 223.674 120.26C224.034 119.98 224.454 119.84 224.934 119.84H272.934C273.414 119.84 273.814 119.98 274.134 120.26C274.494 120.58 274.674 121.02 274.674 121.58ZM282.006 84.56C282.006 83.12 282.206 81.76 282.606 80.48C283.006 79.2 283.626 78.08 284.466 77.12C285.346 76.16 286.446 75.4 287.766 74.84C289.126 74.28 290.766 74 292.686 74C294.606 74 296.246 74.28 297.606 74.84C298.966 75.4 300.086 76.16 300.966 77.12C301.846 78.08 302.486 79.2 302.886 80.48C303.286 81.76 303.486 83.12 303.486 84.56V113.24C303.486 114.68 303.286 116.04 302.886 117.32C302.486 118.6 301.846 119.72 300.966 120.68C300.086 121.64 298.966 122.4 297.606 122.96C296.246 123.52 294.606 123.8 292.686 123.8C290.766 123.8 289.126 123.52 287.766 122.96C286.446 122.4 285.346 121.64 284.466 120.68C283.626 119.72 283.006 118.6 282.606 117.32C282.206 116.04 282.006 114.68 282.006 113.24V84.56ZM285.906 111.56C285.906 114.68 286.406 116.92 287.406 118.28C288.406 119.64 290.166 120.32 292.686 120.32C295.246 120.32 297.026 119.64 298.026 118.28C299.066 116.92 299.586 114.68 299.586 111.56V86.24C299.586 83.12 299.066 80.88 298.026 79.52C297.026 78.16 295.246 77.48 292.686 77.48C290.166 77.48 288.406 78.16 287.406 79.52C286.406 80.88 285.906 83.12 285.906 86.24V111.56ZM305.706 96.86C305.706 96.3 305.866 95.88 306.186 95.6C306.546 95.28 306.966 95.12 307.446 95.12H313.626V75.2C313.626 74.6 313.806 74.16 314.166 73.88C314.526 73.56 314.986 73.4 315.546 73.4C316.106 73.4 316.566 73.56 316.926 73.88C317.326 74.16 317.526 74.6 317.526 75.2V123.14C317.526 123.74 317.326 124.18 316.926 124.46C316.566 124.78 316.106 124.94 315.546 124.94C314.986 124.94 314.526 124.78 314.166 124.46C313.806 124.18 313.626 123.74 313.626 123.14V98.6H307.446C306.966 98.6 306.546 98.46 306.186 98.18C305.866 97.86 305.706 97.42 305.706 96.86ZM324.606 75.2C324.606 74.6 324.786 74.16 325.146 73.88C325.506 73.56 325.966 73.4 326.526 73.4C327.086 73.4 327.546 73.56 327.906 73.88C328.306 74.16 328.506 74.6 328.506 75.2V123.14C328.506 123.74 328.306 124.18 327.906 124.46C327.546 124.78 327.086 124.94 326.526 124.94C325.966 124.94 325.506 124.78 325.146 124.46C324.786 124.18 324.606 123.74 324.606 123.14V75.2ZM339.018 84.56C339.018 83.12 339.278 81.76 339.798 80.48C340.318 79.2 341.078 78.08 342.078 77.12C343.118 76.16 344.358 75.4 345.798 74.84C347.278 74.28 348.978 74 350.898 74C352.818 74 354.518 74.28 355.998 74.84C357.478 75.4 358.718 76.16 359.718 77.12C360.758 78.08 361.538 79.2 362.058 80.48C362.618 81.76 362.898 83.12 362.898 84.56V113.24C362.898 114.68 362.618 116.04 362.058 117.32C361.538 118.6 360.758 119.72 359.718 120.68C358.718 121.64 357.478 122.4 355.998 122.96C354.518 123.52 352.818 123.8 350.898 123.8C348.978 123.8 347.278 123.52 345.798 122.96C344.358 122.4 343.118 121.64 342.078 120.68C341.078 119.72 340.318 118.6 339.798 117.32C339.278 116.04 339.018 114.68 339.018 113.24V84.56ZM342.918 111.56C342.918 114.68 343.618 116.92 345.018 118.28C346.418 119.64 348.378 120.32 350.898 120.32C353.458 120.32 355.438 119.64 356.838 118.28C358.278 116.92 358.998 114.68 358.998 111.56V86.24C358.998 83.12 358.278 80.88 356.838 79.52C355.438 78.16 353.458 77.48 350.898 77.48C348.378 77.48 346.418 78.16 345.018 79.52C343.618 80.88 342.918 83.12 342.918 86.24V111.56ZM368.118 96.86C368.118 96.3 368.278 95.88 368.598 95.6C368.958 95.28 369.378 95.12 369.858 95.12H380.238V75.2C380.238 74.6 380.418 74.16 380.778 73.88C381.138 73.56 381.598 73.4 382.158 73.4C382.718 73.4 383.178 73.56 383.538 73.88C383.938 74.16 384.138 74.6 384.138 75.2V123.14C384.138 123.74 383.938 124.18 383.538 124.46C383.178 124.78 382.718 124.94 382.158 124.94C381.598 124.94 381.138 124.78 380.778 124.46C380.418 124.18 380.238 123.74 380.238 123.14V98.6H369.858C369.378 98.6 368.958 98.46 368.598 98.18C368.278 97.86 368.118 97.42 368.118 96.86ZM418.409 85.46C418.409 86.02 418.229 86.46 417.869 86.78C417.549 87.06 417.149 87.2 416.669 87.2H407.789V100.16C407.829 102.16 408.109 104.04 408.629 105.8C409.189 107.52 409.929 109.18 410.849 110.78C411.769 112.38 412.869 113.94 414.149 115.46C415.469 116.94 416.929 118.42 418.529 119.9C418.969 120.34 419.189 120.82 419.189 121.34C419.229 121.86 419.069 122.34 418.709 122.78C418.349 123.22 417.869 123.42 417.269 123.38C416.669 123.38 416.089 123.12 415.529 122.6C413.329 120.52 411.409 118.32 409.769 116C408.169 113.72 406.909 111.42 405.989 109.1C405.069 111.46 403.829 113.82 402.269 116.18C400.749 118.58 398.909 120.92 396.749 123.2C396.229 123.76 395.649 124.04 395.009 124.04C394.409 124.04 393.929 123.82 393.569 123.38C393.209 122.94 393.029 122.46 393.029 121.94C393.069 121.42 393.309 120.94 393.749 120.5C395.189 118.98 396.509 117.42 397.709 115.82C398.949 114.22 400.029 112.56 400.949 110.84C401.869 109.12 402.589 107.32 403.109 105.44C403.629 103.56 403.889 101.58 403.889 99.5V87.2H395.009C394.529 87.2 394.109 87.06 393.749 86.78C393.429 86.46 393.269 86.02 393.269 85.46C393.269 84.9 393.429 84.48 393.749 84.2C394.109 83.88 394.529 83.72 395.009 83.72H416.669C417.149 83.72 417.549 83.88 417.869 84.2C418.229 84.48 418.409 84.9 418.409 85.46ZM416.249 101.3C416.249 100.74 416.409 100.32 416.729 100.04C417.089 99.72 417.509 99.56 417.989 99.56H426.749V75.2C426.749 74.6 426.929 74.16 427.289 73.88C427.649 73.56 428.109 73.4 428.669 73.4C429.229 73.4 429.689 73.56 430.049 73.88C430.449 74.16 430.649 74.6 430.649 75.2V123.14C430.649 123.74 430.449 124.18 430.049 124.46C429.689 124.78 429.229 124.94 428.669 124.94C428.109 124.94 427.649 124.78 427.289 124.46C426.929 124.18 426.749 123.74 426.749 123.14V103.04H417.989C417.509 103.04 417.089 102.9 416.729 102.62C416.409 102.3 416.249 101.86 416.249 101.3ZM437.729 75.2C437.729 74.6 437.909 74.16 438.269 73.88C438.629 73.56 439.089 73.4 439.649 73.4C440.209 73.4 440.669 73.56 441.029 73.88C441.429 74.16 441.629 74.6 441.629 75.2V123.14C441.629 123.74 441.429 124.18 441.029 124.46C440.669 124.78 440.209 124.94 439.649 124.94C439.089 124.94 438.629 124.78 438.269 124.46C437.909 124.18 437.729 123.74 437.729 123.14V75.2ZM414.629 75.56C414.629 76.12 414.449 76.56 414.089 76.88C413.769 77.16 413.369 77.3 412.889 77.3H398.789C398.309 77.3 397.889 77.16 397.529 76.88C397.209 76.56 397.049 76.12 397.049 75.56C397.049 75 397.209 74.58 397.529 74.3C397.889 73.98 398.309 73.82 398.789 73.82H412.889C413.369 73.82 413.769 73.98 414.089 74.3C414.449 74.58 414.629 75 414.629 75.56ZM123.29 169.04C124.517 169.04 125.637 168.933 126.65 168.72C127.69 168.533 128.57 168.213 129.29 167.76C130.037 167.28 130.61 166.68 131.01 165.96C131.41 165.213 131.61 164.32 131.61 163.28C131.61 162.293 131.37 161.453 130.89 160.76C130.437 160.04 129.823 159.427 129.05 158.92C128.277 158.413 127.37 157.973 126.33 157.6C125.317 157.227 124.237 156.88 123.09 156.56C121.943 156.24 120.81 155.88 119.69 155.48C118.57 155.08 117.557 154.573 116.65 153.96C115.77 153.347 115.05 152.6 114.49 151.72C113.957 150.813 113.69 149.693 113.69 148.36C113.69 146.893 113.983 145.68 114.57 144.72C115.157 143.76 115.943 143 116.93 142.44C117.917 141.853 119.023 141.453 120.25 141.24C121.503 141 122.797 140.88 124.13 140.88C124.77 140.88 125.477 140.933 126.25 141.04C127.05 141.147 127.823 141.293 128.57 141.48C129.343 141.64 130.063 141.853 130.73 142.12C131.397 142.36 131.943 142.613 132.37 142.88C132.583 143.04 132.743 143.267 132.85 143.56C132.983 143.827 132.97 144.12 132.81 144.44C132.703 144.733 132.477 144.92 132.13 145C131.81 145.08 131.437 145.04 131.01 144.88C130.077 144.507 129.037 144.133 127.89 143.76C126.743 143.36 125.49 143.16 124.13 143.16C121.623 143.16 119.703 143.573 118.37 144.4C117.037 145.2 116.37 146.48 116.37 148.24C116.37 149.28 116.583 150.12 117.01 150.76C117.437 151.4 118.01 151.933 118.73 152.36C119.477 152.787 120.343 153.16 121.33 153.48C122.317 153.773 123.37 154.093 124.49 154.44C126.117 154.973 127.543 155.52 128.77 156.08C129.997 156.613 131.023 157.227 131.85 157.92C132.703 158.587 133.343 159.347 133.77 160.2C134.197 161.053 134.41 162.04 134.41 163.16C134.41 164.627 134.143 165.88 133.61 166.92C133.103 167.96 132.37 168.813 131.41 169.48C130.477 170.173 129.33 170.68 127.97 171C126.637 171.32 125.143 171.48 123.49 171.48C122.45 171.48 121.41 171.387 120.37 171.2C119.357 171.013 118.397 170.76 117.49 170.44C116.583 170.147 115.77 169.813 115.05 169.44C114.357 169.067 113.81 168.68 113.41 168.28C113.037 167.907 112.863 167.56 112.89 167.24C112.917 166.893 113.01 166.613 113.17 166.4C113.357 166.16 113.597 166.013 113.89 165.96C114.183 165.88 114.543 165.987 114.97 166.28C115.423 166.6 115.943 166.933 116.53 167.28C117.143 167.6 117.797 167.88 118.49 168.12C119.21 168.387 119.97 168.6 120.77 168.76C121.597 168.947 122.437 169.04 123.29 169.04ZM147.957 169.28C149.21 169.28 150.21 169.187 150.957 169C151.703 168.813 152.277 168.56 152.677 168.24C153.077 167.947 153.33 167.613 153.437 167.24C153.57 166.84 153.637 166.44 153.637 166.04C153.637 165.32 153.477 164.747 153.157 164.32C152.837 163.867 152.383 163.507 151.797 163.24C151.21 162.947 150.503 162.707 149.677 162.52C148.85 162.307 147.917 162.067 146.877 161.8C146.077 161.587 145.263 161.36 144.437 161.12C143.61 160.853 142.863 160.52 142.197 160.12C141.557 159.72 141.023 159.227 140.597 158.64C140.17 158.027 139.957 157.253 139.957 156.32C139.957 155.653 140.103 155.013 140.397 154.4C140.69 153.76 141.157 153.2 141.797 152.72C142.463 152.213 143.33 151.813 144.397 151.52C145.463 151.227 146.77 151.08 148.317 151.08C149.597 151.08 150.783 151.173 151.877 151.36C152.997 151.547 153.903 151.827 154.597 152.2C154.89 152.36 155.117 152.587 155.277 152.88C155.437 153.147 155.437 153.467 155.277 153.84C155.143 154.16 154.917 154.347 154.597 154.4C154.277 154.427 153.89 154.373 153.437 154.24C152.797 154.053 152.077 153.867 151.277 153.68C150.477 153.493 149.503 153.4 148.357 153.4C147.237 153.4 146.303 153.467 145.557 153.6C144.837 153.733 144.25 153.92 143.797 154.16C143.343 154.4 143.023 154.693 142.837 155.04C142.65 155.36 142.557 155.72 142.557 156.12C142.557 156.68 142.703 157.16 142.997 157.56C143.317 157.933 143.757 158.267 144.317 158.56C144.903 158.853 145.597 159.12 146.397 159.36C147.223 159.6 148.157 159.84 149.197 160.08C149.997 160.267 150.81 160.507 151.637 160.8C152.49 161.093 153.25 161.48 153.917 161.96C154.61 162.413 155.17 162.987 155.597 163.68C156.05 164.373 156.277 165.213 156.277 166.2C156.277 167.8 155.597 169.08 154.237 170.04C152.877 171.027 150.797 171.52 147.997 171.52C146.157 171.52 144.53 171.32 143.117 170.92C141.703 170.547 140.583 170.067 139.757 169.48C139.543 169.347 139.41 169.107 139.357 168.76C139.303 168.44 139.343 168.16 139.477 167.92C139.663 167.573 139.903 167.373 140.197 167.32C140.517 167.267 140.783 167.293 140.997 167.4C141.45 167.64 141.903 167.867 142.357 168.08C142.81 168.32 143.303 168.52 143.837 168.68C144.37 168.867 144.97 169.013 145.637 169.12C146.303 169.227 147.077 169.28 147.957 169.28ZM164.848 161.76C164.848 162.907 164.941 163.947 165.128 164.88C165.341 165.787 165.701 166.573 166.208 167.24C166.741 167.88 167.448 168.373 168.328 168.72C169.234 169.093 170.381 169.28 171.768 169.28C172.968 169.28 173.981 169.093 174.808 168.72C175.661 168.347 176.354 167.867 176.888 167.28C177.421 166.667 177.808 166 178.048 165.28C178.314 164.533 178.461 163.787 178.488 163.04V152.44C178.488 152.04 178.608 151.747 178.848 151.56C179.114 151.347 179.434 151.24 179.807 151.24C180.181 151.24 180.488 151.347 180.727 151.56C180.968 151.747 181.088 152.04 181.088 152.44V169.64C181.088 170.04 180.968 170.333 180.727 170.52C180.488 170.733 180.181 170.84 179.807 170.84C179.434 170.84 179.114 170.733 178.848 170.52C178.608 170.333 178.488 170.04 178.488 169.64V168.88C176.941 170.64 174.701 171.52 171.768 171.52C168.648 171.52 166.274 170.707 164.648 169.08C163.048 167.453 162.248 165.067 162.248 161.92V152.44C162.248 152.04 162.368 151.747 162.608 151.56C162.874 151.347 163.194 151.24 163.568 151.24C163.941 151.24 164.248 151.347 164.488 151.56C164.728 151.747 164.848 152.04 164.848 152.44V161.76ZM199.316 153.4C198.089 153.4 197.049 153.64 196.196 154.12C195.369 154.573 194.689 155.147 194.156 155.84C193.649 156.533 193.276 157.293 193.036 158.12C192.796 158.947 192.676 159.733 192.676 160.48V169.64C192.676 170.04 192.543 170.333 192.276 170.52C192.036 170.733 191.729 170.84 191.356 170.84C190.983 170.84 190.676 170.733 190.436 170.52C190.196 170.333 190.076 170.04 190.076 169.64V152.52C190.076 152.12 190.196 151.827 190.436 151.64C190.676 151.427 190.983 151.32 191.356 151.32C191.729 151.32 192.036 151.427 192.276 151.64C192.543 151.827 192.676 152.12 192.676 152.52V153.96C193.369 153.08 194.223 152.387 195.236 151.88C196.249 151.347 197.503 151.08 198.996 151.08H203.436C203.756 151.08 204.023 151.187 204.236 151.4C204.476 151.587 204.596 151.867 204.596 152.24C204.596 152.613 204.476 152.907 204.236 153.12C204.023 153.307 203.756 153.4 203.436 153.4H199.316ZM219.082 153.4C217.855 153.4 216.815 153.64 215.962 154.12C215.135 154.573 214.455 155.147 213.922 155.84C213.415 156.533 213.042 157.293 212.802 158.12C212.562 158.947 212.442 159.733 212.442 160.48V169.64C212.442 170.04 212.308 170.333 212.042 170.52C211.802 170.733 211.495 170.84 211.122 170.84C210.748 170.84 210.442 170.733 210.202 170.52C209.962 170.333 209.842 170.04 209.842 169.64V152.52C209.842 152.12 209.962 151.827 210.202 151.64C210.442 151.427 210.748 151.32 211.122 151.32C211.495 151.32 211.802 151.427 212.042 151.64C212.308 151.827 212.442 152.12 212.442 152.52V153.96C213.135 153.08 213.988 152.387 215.002 151.88C216.015 151.347 217.268 151.08 218.762 151.08H223.202C223.522 151.08 223.788 151.187 224.002 151.4C224.242 151.587 224.362 151.867 224.362 152.24C224.362 152.613 224.242 152.907 224.002 153.12C223.788 153.307 223.522 153.4 223.202 153.4H219.082ZM237.076 151.08C239.903 151.08 242.143 151.813 243.796 153.28C245.476 154.72 246.423 156.693 246.636 159.2C246.69 159.867 246.716 160.573 246.716 161.32C246.716 162.067 246.69 162.76 246.636 163.4C246.476 165.907 245.636 167.88 244.116 169.32C242.596 170.787 240.25 171.52 237.076 171.52C235.503 171.52 234.143 171.32 232.996 170.92C231.85 170.547 230.89 170 230.116 169.28C229.343 168.587 228.743 167.747 228.316 166.76C227.916 165.747 227.663 164.627 227.556 163.4C227.503 162.733 227.476 162.027 227.476 161.28C227.476 160.533 227.503 159.84 227.556 159.2C227.77 156.667 228.65 154.68 230.196 153.24C231.743 151.8 234.036 151.08 237.076 151.08ZM243.956 158.36C243.823 156.84 243.196 155.64 242.076 154.76C240.956 153.853 239.29 153.4 237.076 153.4C235.983 153.4 235.036 153.533 234.236 153.8C233.436 154.04 232.756 154.387 232.196 154.84C231.663 155.267 231.236 155.787 230.916 156.4C230.596 156.987 230.383 157.64 230.276 158.36C230.143 159.293 230.076 160.267 230.076 161.28C230.103 162.293 230.17 163.253 230.276 164.16C230.356 164.907 230.53 165.6 230.796 166.24C231.09 166.853 231.503 167.387 232.036 167.84C232.596 168.293 233.276 168.64 234.076 168.88C234.903 169.147 235.903 169.28 237.076 169.28C238.223 169.28 239.196 169.147 239.996 168.88C240.823 168.64 241.503 168.293 242.036 167.84C242.596 167.387 243.023 166.853 243.316 166.24C243.61 165.6 243.823 164.907 243.956 164.16C244.09 163.227 244.143 162.24 244.116 161.2C244.09 160.16 244.036 159.213 243.956 158.36ZM256.215 161.76C256.215 162.907 256.308 163.947 256.495 164.88C256.708 165.787 257.068 166.573 257.575 167.24C258.108 167.88 258.815 168.373 259.695 168.72C260.601 169.093 261.748 169.28 263.135 169.28C264.335 169.28 265.348 169.093 266.175 168.72C267.028 168.347 267.721 167.867 268.255 167.28C268.788 166.667 269.175 166 269.415 165.28C269.681 164.533 269.828 163.787 269.855 163.04V152.44C269.855 152.04 269.975 151.747 270.215 151.56C270.481 151.347 270.801 151.24 271.175 151.24C271.548 151.24 271.855 151.347 272.095 151.56C272.335 151.747 272.455 152.04 272.455 152.44V169.64C272.455 170.04 272.335 170.333 272.095 170.52C271.855 170.733 271.548 170.84 271.175 170.84C270.801 170.84 270.481 170.733 270.215 170.52C269.975 170.333 269.855 170.04 269.855 169.64V168.88C268.308 170.64 266.068 171.52 263.135 171.52C260.015 171.52 257.641 170.707 256.015 169.08C254.415 167.453 253.615 165.067 253.615 161.92V152.44C253.615 152.04 253.735 151.747 253.975 151.56C254.241 151.347 254.561 151.24 254.935 151.24C255.308 151.24 255.615 151.347 255.855 151.56C256.095 151.747 256.215 152.04 256.215 152.44V161.76ZM297.683 160.64C297.683 159.493 297.576 158.467 297.363 157.56C297.176 156.653 296.816 155.88 296.283 155.24C295.776 154.6 295.07 154.12 294.163 153.8C293.283 153.453 292.15 153.28 290.763 153.28C289.563 153.28 288.536 153.44 287.683 153.76C286.856 154.08 286.176 154.507 285.643 155.04C285.11 155.573 284.71 156.187 284.443 156.88C284.203 157.573 284.07 158.293 284.043 159.04V169.64C284.043 170.04 283.91 170.333 283.643 170.52C283.403 170.733 283.096 170.84 282.723 170.84C282.35 170.84 282.043 170.733 281.803 170.52C281.563 170.333 281.443 170.04 281.443 169.64V152.44C281.443 152.04 281.563 151.747 281.803 151.56C282.043 151.347 282.35 151.24 282.723 151.24C283.096 151.24 283.403 151.347 283.643 151.56C283.91 151.747 284.043 152.04 284.043 152.44V153.64C284.79 152.813 285.71 152.16 286.803 151.68C287.923 151.2 289.243 150.96 290.763 150.96C293.883 150.96 296.243 151.787 297.843 153.44C299.47 155.093 300.283 157.493 300.283 160.64V169.64C300.283 170.04 300.15 170.333 299.883 170.52C299.643 170.733 299.336 170.84 298.963 170.84C298.59 170.84 298.283 170.733 298.043 170.52C297.803 170.333 297.683 170.04 297.683 169.64V160.64ZM317.032 151.08C318.498 151.08 319.805 151.307 320.952 151.76C322.098 152.213 323.072 152.84 323.872 153.64V142.24C323.872 141.84 323.992 141.547 324.232 141.36C324.472 141.147 324.778 141.04 325.152 141.04C325.525 141.04 325.832 141.147 326.072 141.36C326.338 141.547 326.472 141.84 326.472 142.24V169.64C326.472 170.04 326.338 170.333 326.072 170.52C325.832 170.733 325.525 170.84 325.152 170.84C324.778 170.84 324.472 170.733 324.232 170.52C323.992 170.333 323.872 170.04 323.872 169.64V169.28C323.098 169.973 322.152 170.52 321.032 170.92C319.912 171.32 318.578 171.52 317.032 171.52C315.458 171.52 314.098 171.32 312.952 170.92C311.832 170.547 310.898 170 310.152 169.28C309.432 168.587 308.872 167.747 308.472 166.76C308.072 165.747 307.818 164.627 307.712 163.4C307.658 162.733 307.632 162.027 307.632 161.28C307.632 160.533 307.658 159.84 307.712 159.2C307.925 156.667 308.765 154.68 310.232 153.24C311.725 151.8 313.992 151.08 317.032 151.08ZM323.712 158.36C323.632 157.72 323.445 157.107 323.152 156.52C322.858 155.907 322.432 155.373 321.872 154.92C321.338 154.44 320.672 154.067 319.872 153.8C319.072 153.533 318.125 153.4 317.032 153.4C315.938 153.4 315.005 153.533 314.232 153.8C313.458 154.04 312.805 154.387 312.272 154.84C311.765 155.267 311.352 155.787 311.032 156.4C310.738 156.987 310.538 157.64 310.432 158.36C310.298 159.293 310.232 160.267 310.232 161.28C310.258 162.293 310.325 163.253 310.432 164.16C310.512 164.907 310.685 165.6 310.952 166.24C311.218 166.853 311.605 167.387 312.112 167.84C312.618 168.293 313.272 168.64 314.072 168.88C314.872 169.147 315.858 169.28 317.032 169.28C318.178 169.28 319.138 169.133 319.912 168.84C320.712 168.547 321.365 168.16 321.872 167.68C322.405 167.2 322.805 166.653 323.072 166.04C323.365 165.427 323.578 164.8 323.712 164.16C323.738 164.08 323.765 163.84 323.792 163.44C323.818 163.013 323.832 162.52 323.832 161.96C323.858 161.373 323.858 160.76 323.832 160.12C323.832 159.48 323.792 158.893 323.712 158.36ZM363.711 170.04C363.711 170.84 363.311 171.24 362.511 171.24C361.604 171.24 361.151 170.787 361.151 169.88C360.511 170.28 359.778 170.587 358.951 170.8C358.151 171.04 357.351 171.213 356.551 171.32C355.751 171.427 354.991 171.48 354.271 171.48C353.578 171.507 353.031 171.52 352.631 171.52C351.218 171.52 350.031 171.347 349.071 171C348.111 170.68 347.324 170.24 346.711 169.68C346.124 169.147 345.698 168.533 345.431 167.84C345.191 167.147 345.071 166.453 345.071 165.76C345.071 164.667 345.218 163.72 345.511 162.92C345.804 162.12 346.311 161.467 347.031 160.96C347.751 160.453 348.711 160.08 349.911 159.84C351.111 159.6 352.618 159.48 354.431 159.48H361.111C361.138 158.333 361.044 157.413 360.831 156.72C360.618 156 360.244 155.413 359.711 154.96C359.178 154.48 358.471 154.133 357.591 153.92C356.711 153.68 355.618 153.56 354.311 153.56C352.738 153.56 351.471 153.72 350.511 154.04C349.551 154.36 348.804 154.627 348.271 154.84C348.058 154.92 347.778 154.933 347.431 154.88C347.111 154.827 346.871 154.64 346.711 154.32C346.578 154.027 346.538 153.733 346.591 153.44C346.671 153.12 346.858 152.88 347.151 152.72C347.578 152.48 348.084 152.267 348.671 152.08C349.258 151.893 349.858 151.747 350.471 151.64C351.111 151.507 351.751 151.413 352.391 151.36C353.031 151.28 353.631 151.24 354.191 151.24C356.058 151.24 357.604 151.44 358.831 151.84C360.058 152.213 361.031 152.747 361.751 153.44C362.471 154.107 362.978 154.893 363.271 155.8C363.564 156.68 363.711 157.72 363.711 158.92V170.04ZM361.111 161.8H354.311C352.898 161.8 351.751 161.88 350.871 162.04C350.018 162.173 349.351 162.4 348.871 162.72C348.391 163.04 348.071 163.44 347.911 163.92C347.751 164.4 347.671 164.96 347.671 165.6C347.671 166.853 348.151 167.76 349.111 168.32C350.098 168.907 351.524 169.2 353.391 169.2C354.218 169.2 355.031 169.16 355.831 169.08C356.658 169.027 357.418 168.893 358.111 168.68C358.804 168.493 359.418 168.227 359.951 167.88C360.484 167.507 360.871 167.04 361.111 166.48V161.8ZM371.345 146.2C371.345 145.533 371.572 145.013 372.025 144.64C372.479 144.267 373.052 144.08 373.745 144.08C374.412 144.08 374.972 144.267 375.425 144.64C375.879 145.013 376.105 145.533 376.105 146.2C376.105 146.867 375.879 147.4 375.425 147.8C374.972 148.173 374.412 148.36 373.745 148.36C373.052 148.36 372.479 148.173 372.025 147.8C371.572 147.4 371.345 146.867 371.345 146.2ZM372.505 152.24C372.505 151.84 372.625 151.547 372.865 151.36C373.132 151.147 373.452 151.04 373.825 151.04C374.199 151.04 374.519 151.147 374.785 151.36C375.052 151.547 375.185 151.84 375.185 152.24V169.64C375.185 170.04 375.052 170.333 374.785 170.52C374.519 170.733 374.199 170.84 373.825 170.84C373.452 170.84 373.132 170.733 372.865 170.52C372.625 170.333 372.505 170.04 372.505 169.64V152.24ZM393.222 153.4C391.996 153.4 390.956 153.64 390.102 154.12C389.276 154.573 388.596 155.147 388.062 155.84C387.556 156.533 387.182 157.293 386.942 158.12C386.702 158.947 386.582 159.733 386.582 160.48V169.64C386.582 170.04 386.449 170.333 386.182 170.52C385.942 170.733 385.636 170.84 385.262 170.84C384.889 170.84 384.582 170.733 384.342 170.52C384.102 170.333 383.982 170.04 383.982 169.64V152.52C383.982 152.12 384.102 151.827 384.342 151.64C384.582 151.427 384.889 151.32 385.262 151.32C385.636 151.32 385.942 151.427 386.182 151.64C386.449 151.827 386.582 152.12 386.582 152.52V153.96C387.276 153.08 388.129 152.387 389.142 151.88C390.156 151.347 391.409 151.08 392.902 151.08H397.342C397.662 151.08 397.929 151.187 398.142 151.4C398.382 151.587 398.502 151.867 398.502 152.24C398.502 152.613 398.382 152.907 398.142 153.12C397.929 153.307 397.662 153.4 397.342 153.4H393.222Z" fill="black"/>
</svg>
