<svg width="500" height="250" viewBox="0 0 500 250" fill="none" xmlns="http://www.w3.org/2000/svg">
<rect width="500" height="250" fill="white"/>
<path d="M140.441 83.42C139.421 83.72 138.461 84.08 137.501 84.5C142.421 86.84 145.721 91.4 145.661 96.8C145.541 104.66 139.181 108.26 131.921 108.44C123.221 108.68 116.561 103.64 117.701 94.1C118.241 89.54 120.701 84.68 126.641 81.26C131.681 78.32 139.781 78.98 140.441 83.42ZM152.501 83.6C152.501 80.06 152.081 78.02 150.401 77.24L150.701 76.52C155.621 76.52 158.201 76.94 159.461 78.5C160.541 79.76 161.081 81.32 160.961 84.26C160.961 85.04 160.601 88.58 160.541 89.54C160.481 90.68 160.421 91.88 160.421 93.02C161.921 92.6 162.881 92.18 164.561 91.82C165.281 91.7 166.181 91.76 166.721 92.12C168.401 93.38 169.301 96.44 169.001 97.76C168.821 98.72 168.041 99.8 166.721 99.74C164.261 99.5 162.701 99.2 160.361 99.14L160.481 103.7L160.661 109.04C160.781 112.22 159.161 114.26 156.941 114.98C155.681 115.4 153.701 115.58 152.381 115.46C152.561 114.56 152.741 112.64 152.681 111.2C152.561 108.38 152.501 105.32 152.501 102.14C152.441 96.32 152.441 89.66 152.501 83.6ZM161.501 120.2C163.181 119.54 163.721 120.38 162.821 122.12C161.141 125.3 157.241 130.58 152.981 130.82C150.641 131 148.361 130.58 146.561 130.04C143.561 129.26 139.541 128.42 135.521 128.42C132.641 128.42 130.361 129.44 128.561 130.04C127.421 130.4 126.041 129.98 125.741 129.14C125.261 127.94 124.301 125.36 124.421 123.86C124.481 123.38 124.961 122 125.621 121.82C126.641 119.84 126.641 116.06 124.061 113.36L124.601 111.86C126.881 111.68 129.761 112.04 131.321 113C134.201 114.8 133.841 118.46 132.641 121.88C134.321 121.82 136.301 121.7 138.101 121.76C142.241 121.88 146.501 121.88 150.941 121.94C154.601 122 158.441 121.34 161.501 120.2ZM138.641 96.8C138.581 93.74 137.261 90.26 132.101 87.92C129.461 90.08 127.541 92.78 127.181 95.6C126.521 100.7 129.461 102.98 133.721 102.56C136.361 102.32 138.701 100.4 138.641 96.8ZM209.045 113.3C212.285 114.8 214.445 117.86 214.565 121.1C214.805 127.22 210.305 132.38 202.265 132.38C192.605 132.38 188.165 126.8 188.165 120.74C188.165 113.54 194.465 108.8 201.605 108.8C205.145 108.8 208.745 110.42 209.045 113.3ZM171.365 108.92C168.965 108.92 167.705 107.6 167.885 106.34C167.885 106.1 168.305 105.98 168.485 105.98C169.805 105.92 172.205 104.54 174.245 102.68C178.265 98.96 181.085 94.4 183.545 87.14C184.925 83 184.925 80.18 183.485 79.46L183.725 78.86C188.765 78.86 190.985 79.64 192.305 81.62C193.385 83.24 193.325 84.98 192.305 88.1C191.705 89.9 190.865 91.88 189.905 93.86C193.325 96.2 197.525 98.36 200.585 99.56C201.485 104.36 197.225 109.28 194.345 105.92C192.845 104.18 189.305 100.64 187.025 98.66C183.125 104.3 177.725 108.92 171.365 108.92ZM208.565 83.6C208.625 80.06 208.145 78.02 206.465 77.24L206.765 76.52C211.685 76.52 214.265 76.94 215.525 78.5C216.605 79.76 217.205 81.32 217.025 84.26C216.665 89.96 216.725 95.96 216.905 102.74C217.025 105.92 215.405 107.96 213.125 108.68C211.925 109.1 209.945 109.28 208.565 109.16C208.805 108.26 208.985 106.34 208.925 104.9C208.745 101.06 208.625 97.16 208.565 93.2C207.065 94.28 204.785 95.18 202.565 95.18C199.745 95.18 197.285 93.92 196.325 91.82C195.365 89.66 196.205 88.46 197.165 88.52C200.045 88.7 204.365 88.76 208.565 88.1V83.6ZM202.805 114.98C199.625 116.24 197.705 118.76 197.705 121.82C197.705 124.94 199.925 126.5 202.745 126.5C205.685 126.5 208.205 124.64 207.965 120.8C207.785 117.98 206.285 115.94 202.805 114.98ZM235.228 86.36C235.708 86.66 236.008 87.02 236.068 87.56L236.368 91.04C240.388 90.8 247.948 90.08 251.248 90.2C252.028 90.26 253.708 94.04 252.628 95.72C251.968 96.74 249.628 96.44 247.948 96.26C245.788 96.02 238.708 96.02 236.368 96.26C236.368 97.82 236.368 98.9 236.248 100.52C239.908 100.46 243.088 100.52 247.888 100.4C251.788 100.28 256.468 99.86 260.488 98.3V95.84C260.488 91.88 260.488 87.2 260.548 83.6C260.608 80.06 260.128 78.02 258.448 77.24L258.748 76.52C263.668 76.52 266.248 76.94 267.508 78.5C268.588 79.76 269.128 81.32 269.008 84.26C269.008 86.18 268.588 88.28 268.468 90.26C269.908 89.9 271.228 89.6 272.608 89.36C273.328 89.3 274.228 89.3 274.768 89.66C276.448 90.98 277.348 93.38 277.048 94.76C276.868 95.72 276.088 97.4 274.768 97.28C272.668 97.1 270.568 96.86 268.528 96.62V97.4L268.708 103.4C268.768 106.58 267.148 108.62 264.928 109.34C263.728 109.76 261.688 109.88 260.368 109.82C260.608 108.92 260.788 107 260.728 105.56C260.668 104.66 260.608 103.64 260.608 102.62C258.448 104.48 255.268 105.56 252.328 105.92C246.088 106.76 244.528 106.1 239.008 106.52C237.028 106.7 234.508 106.88 233.008 107.06C230.008 107.42 228.868 106.58 228.148 105.2C227.608 104.18 227.428 102.8 227.728 100.88C228.268 97.34 228.508 90.8 227.728 86.66C227.728 86.6 227.668 86.54 227.728 86.42C225.328 86.24 224.728 83.78 225.268 79.94C231.148 80.72 235.408 80.84 243.688 80.48C245.728 80.42 248.968 80.12 250.648 79.88C253.948 80.3 254.368 86.36 251.548 86.36H235.228ZM261.148 113.9C264.388 115.4 266.548 118.16 266.668 121.4C266.908 127.52 262.408 132.38 254.368 132.38C244.708 132.38 240.268 127.1 240.268 121.04C240.268 113.84 246.568 109.4 253.708 109.4C257.248 109.4 260.848 111.02 261.148 113.9ZM254.908 115.58C251.728 116.84 249.808 118.94 249.808 121.82C249.808 124.76 252.028 126.5 254.848 126.5C257.788 126.5 260.308 124.94 260.068 121.1C259.888 118.28 257.548 116.36 254.908 115.58ZM324.772 89.54C324.472 94.64 324.532 100.04 324.712 104.18L324.892 109.52C325.012 112.7 323.392 114.8 321.172 115.52C319.912 115.88 317.932 116.06 316.552 115.94C316.792 115.04 316.972 113.18 316.912 111.68C316.792 109.28 316.732 106.64 316.672 103.94C315.172 104.78 313.012 105.32 310.732 105.32C308.872 105.26 306.952 104.36 305.932 102.86C305.632 104.84 305.032 106.82 303.772 107.72C299.812 106.94 292.792 107.36 288.832 108.08C287.992 109.1 286.432 109.58 285.172 109.64C282.892 109.82 282.052 108.8 282.112 106.52C282.352 96.74 279.652 81.92 279.652 81.92C280.072 79.82 286.012 79.1 286.852 80.3C287.152 80.6 287.332 81.2 287.392 81.74C288.832 81.86 293.212 81.74 296.212 81.5L300.172 81.08C301.252 80.66 303.592 80.3 305.872 81.26C306.652 81.62 307.252 82.22 307.432 83.12C307.492 83.72 307.552 84.44 307.552 85.22C310.432 85.34 313.972 85.34 316.672 84.98C316.672 84.5 316.732 84.08 316.732 83.6C316.732 80.06 316.312 78.02 314.632 77.24L314.932 76.52C319.852 76.52 322.432 76.94 323.692 78.5C324.772 79.76 325.312 81.32 325.192 84.26L324.772 89.54ZM325.372 120.2C327.592 119.36 327.412 120.86 326.752 122.12C325.072 125.3 321.172 130.58 316.912 130.82C314.572 131 312.292 130.58 310.492 130.04C307.492 129.26 303.472 128.42 299.392 128.42C296.572 128.42 294.292 129.44 292.492 130.04C291.292 130.4 289.972 129.98 289.672 129.14C289.192 127.94 288.172 125.36 288.292 123.86C288.352 123.38 288.892 122 289.552 121.82C290.512 119.84 290.512 116.48 287.992 113.78L288.532 112.28C290.812 112.04 293.692 112.4 295.252 113.36C298.132 115.1 297.712 118.46 296.572 121.88C298.252 121.82 300.172 121.7 302.032 121.76C306.172 121.88 310.432 121.88 314.812 121.94C318.532 122 322.372 121.34 325.372 120.2ZM289.372 102.56C291.832 101.9 296.152 101.48 298.372 101.48C299.812 100.16 299.512 91.58 299.152 88.52C299.032 87.68 298.672 87.2 297.892 87.26C295.552 87.38 291.592 87.44 288.892 87.5C289.312 92.18 289.312 97.52 289.372 100.22V102.56ZM307.252 90.62C306.892 93.74 306.412 96.86 306.292 98.66C309.412 98.84 313.612 98.78 316.612 98.36V90.92C315.172 91.7 313.072 92.3 310.912 92.3C309.472 92.3 308.152 91.7 307.252 90.62ZM349.995 93.38C350.115 95.48 349.695 98.48 348.735 101.66C351.555 104.54 356.415 109.04 358.635 110.12C359.535 114.92 355.215 120.5 352.395 116.48C351.315 114.98 348.435 110.36 346.515 107.42C343.635 113.36 339.195 118.64 333.495 118.94C331.095 119.06 329.835 117.56 330.015 116.36C330.015 116.12 330.375 115.94 330.615 115.94C331.935 115.88 333.855 114.56 335.475 112.4C340.035 106.22 342.075 100.76 342.735 93.74C340.815 93.74 339.015 94.46 336.975 94.34C334.215 94.1 332.775 92.12 332.415 87.62C335.535 87.8 338.835 88.04 342.855 87.98C343.215 85.4 341.655 82.46 339.735 81.38V80.84C342.375 79.64 348.255 78.74 350.175 81.98C350.835 83.12 350.355 85.82 349.695 87.56C351.975 87.26 354.015 86.84 355.035 86.96C359.595 87.56 359.955 94.16 357.195 93.8C355.455 93.56 352.575 93.32 349.995 93.38ZM373.335 102.98C373.275 98.18 373.095 86.78 373.155 83.6C373.155 80.06 372.675 78.02 371.055 77.24L371.355 76.52C376.155 76.52 378.675 76.94 379.935 78.5C380.955 79.76 381.615 81.32 381.375 84.26C380.415 97.22 381.615 110.9 381.075 123.92C380.835 129.2 377.835 131.3 374.295 131.6C373.695 131.66 373.155 131.66 372.555 131.6C373.395 128.36 373.335 123.32 373.395 117.56C373.455 112.94 373.395 107.9 373.335 102.98ZM369.555 103.52C369.555 106.64 369.495 109.52 369.495 111.62C369.495 114.26 369.495 117.32 369.555 120.92C369.615 123.14 369.135 125.24 368.355 126.2C366.735 127.94 364.635 128.48 362.175 128.36C362.175 120.38 362.175 111.62 362.115 103.04C360.855 103.52 359.415 103.82 358.335 103.82C356.235 103.82 354.615 103.22 353.655 101.12C352.755 98.96 352.995 97.16 353.775 97.22C356.055 97.4 359.295 97.46 362.055 97.28C362.055 93.74 361.995 90.26 361.935 86.9C361.875 83.36 361.515 81.32 360.315 80.54L360.615 79.82C364.995 79.82 367.335 80.24 368.595 81.8C369.675 83 370.035 84.62 369.915 87.56C369.495 92.48 369.615 97.4 369.555 103.52ZM102.751 149.72C105.551 156.12 108.711 163.36 111.471 169.84C112.951 173.36 111.351 176.24 107.911 176.44C107.911 174.96 107.511 173.68 106.871 172.04L105.591 168.76C102.431 168.68 98.5114 168.76 95.3514 168.88C94.7914 170.32 94.1914 171.72 93.5914 173.08C92.1114 176.48 89.2714 177.12 86.5914 175C87.4714 174.2 88.4714 172.6 89.2714 170.84C91.7914 165.44 94.7914 156.96 96.9914 149.72C96.1514 148.8 95.1914 148.28 94.3514 148.28V147.76C98.1114 145.6 101.231 146.24 102.751 149.72ZM100.031 155.68C99.0314 158.84 97.9914 161.96 96.8714 165C99.2314 165.04 101.751 165 104.031 164.88C102.711 161.76 101.311 158.56 100.031 155.68ZM127.881 166.92C127.881 163.52 127.081 161.76 125.361 161.6C122.721 161.44 121.361 163.56 121.161 168.64V172C121.161 175.36 117.961 176.68 115.121 176.4C115.521 174.16 115.601 171.64 115.641 169.48C115.681 167.52 115.961 159.64 114.041 158.56L114.321 158.04C118.001 157.96 119.921 158.56 120.721 160.28C122.121 158.64 124.601 157.72 127.121 158.04C131.321 158.6 133.561 161.48 133.401 166.32C133.361 167.92 133.401 170.52 133.361 172.12C133.281 174.6 131.481 176.24 128.921 176.4C128.641 176.44 127.921 176.44 127.601 176.4C127.801 173.52 127.881 170.08 127.881 166.92ZM151.089 164.32C150.849 162.8 150.169 161.84 147.049 161.84C144.449 161.84 143.409 162.72 143.529 163.6C143.649 164.44 145.129 164.96 147.009 165.64C150.409 166.84 154.849 168 154.849 171.36C154.849 174.76 150.969 176.4 146.009 176.4C143.129 176.4 140.609 175.92 138.929 174.88C137.649 174.12 136.849 172.08 136.889 170.52C136.929 169.88 137.289 169.56 138.049 170C140.049 171.36 141.489 172.24 145.249 172.48C147.809 172.64 148.929 172.28 148.929 171.24C148.929 170.2 147.049 169.6 145.049 168.88C141.889 167.76 137.609 166.56 137.449 163.6C137.289 159.76 141.449 158.04 146.009 158.04C150.809 158.04 153.289 159.08 153.889 161.16C154.209 162.24 153.889 163.88 151.089 164.32ZM171.95 165.28C172.07 162.56 171.99 160.12 171.23 158.32L171.51 158C176.35 158 177.59 159.64 177.43 163.2C177.39 164.36 177.27 167.12 177.27 168.64C177.31 170.52 177.35 174.4 178.11 176.4C174.71 176.72 172.91 175.84 172.51 173.6C172.35 172.56 172.35 172.12 172.35 171.16C171.55 174.72 169.27 176.48 165.55 176.4C161.59 176.28 159.11 173.68 159.47 169C159.51 168.4 159.51 166.36 159.51 165.36C159.47 162.8 159.19 159.36 157.83 158.56L158.03 158.04C163.31 157.92 164.99 159.12 164.91 163.08C164.87 164.08 164.87 165.88 164.91 168.2C164.99 171.72 165.99 172.56 167.47 172.76C169.67 173 171.83 169.44 171.95 165.28ZM195.538 166.92C195.538 163.52 194.738 161.76 193.018 161.6C190.378 161.44 189.018 163.56 188.818 168.64V172C188.818 175.36 185.618 176.68 182.778 176.4C183.178 174.16 183.258 171.64 183.298 169.48C183.338 167.52 183.618 159.64 181.698 158.56L181.978 158.04C185.658 157.96 187.578 158.56 188.378 160.28C189.778 158.64 192.258 157.72 194.778 158.04C198.978 158.6 201.218 161.48 201.058 166.32C201.018 167.92 201.058 170.52 201.018 172.12C200.938 174.6 199.138 176.24 196.578 176.4C196.298 176.44 195.578 176.44 195.258 176.4C195.458 173.52 195.538 170.08 195.538 166.92ZM217.985 175.72C217.945 175 217.945 174.28 217.945 173.52C216.505 175.8 214.105 176.48 211.425 176.4C207.025 176.24 204.305 172.64 204.545 167.84C204.825 160.88 209.945 158.04 214.305 158.04C216.145 158.04 218.265 158.8 219.065 160.12C221.425 159.84 223.505 160.68 223.545 163.32C223.225 169.12 223.305 171.2 223.345 175.6C223.345 180.84 219.865 184.6 214.305 185C211.865 185.2 209.745 184.76 208.025 183.44C206.825 182.56 206.345 180.44 206.425 179.28C206.465 178.32 206.985 177.76 207.825 178.56C209.865 180.56 211.625 181.16 214.105 180.8C216.665 180.48 218.025 178.64 217.985 175.72ZM217.785 166.68C217.785 165.24 217.745 163.84 217.745 162.48C217.705 162.36 217.665 162.2 217.665 162.04C216.665 161.76 215.665 161.76 214.705 161.96C212.185 162.44 210.745 164.68 210.425 167.84C210.145 170.6 210.985 172.76 212.945 172.76C215.505 172.76 217.305 170.12 217.785 166.68ZM236.597 169.88C236.597 172.44 238.557 173 241.957 171.44C242.997 170.96 243.317 171.6 243.077 172.6C242.797 173.64 241.637 175.48 240.317 176.04C239.437 176.4 238.037 176.48 237.037 176.44C233.517 176.28 231.037 174.04 231.277 169.4C231.437 166.52 231.397 163.12 231.357 162.04C230.437 162.24 230.037 162.4 229.357 162.36C227.477 162.28 226.437 160.88 226.357 158.04C228.077 158.2 229.717 158.4 231.437 158.48L231.277 155.16C231.117 152.8 230.757 151.48 229.677 150.96L229.877 150.48C235.477 150.48 236.957 151.64 236.717 155.64C236.637 156.52 236.597 157.28 236.557 158.04C237.517 157.88 238.917 157.72 239.437 157.76C242.517 158.24 242.717 162.44 240.917 162.12C240.157 162 238.197 161.68 236.637 161.52C236.557 163.68 236.597 167.64 236.597 169.88ZM264.694 163.4C264.694 165.92 264.694 167 264.774 168.48C264.854 170.4 264.894 174.36 265.654 176.4C262.894 176.64 260.534 176.4 260.094 173.2C259.894 172.2 259.854 171.68 259.854 170.76C258.894 175.28 255.854 176.48 252.294 176.4C247.854 176.24 244.774 172.6 245.014 167.8C245.294 160.88 250.414 158.04 255.174 158.04C257.054 158.04 259.134 158.8 259.894 160.16C262.334 159.88 264.654 160.76 264.694 163.4ZM255.574 161.96C252.654 162.44 251.214 164.64 250.934 167.8C250.614 170.6 251.454 172.76 253.814 172.76C257.414 172.68 259.534 167.44 258.534 162.08C257.534 161.8 256.534 161.8 255.574 161.96ZM283.077 166.92C283.077 163.52 282.277 161.76 280.557 161.6C277.917 161.44 276.557 163.56 276.357 168.64V172C276.357 175.36 273.157 176.68 270.317 176.4C270.717 174.16 270.797 171.64 270.837 169.48C270.877 167.52 271.157 159.64 269.237 158.56L269.517 158.04C273.197 157.96 275.117 158.56 275.917 160.28C277.317 158.64 279.797 157.72 282.317 158.04C286.517 158.6 288.757 161.48 288.597 166.32C288.557 167.92 288.597 170.52 288.557 172.12C288.477 174.6 286.677 176.24 284.117 176.4C283.837 176.44 283.117 176.44 282.797 176.4C282.997 173.52 283.077 170.08 283.077 166.92ZM305.525 175.72C305.485 175 305.485 174.28 305.485 173.52C304.045 175.8 301.645 176.48 298.965 176.4C294.565 176.24 291.845 172.64 292.085 167.84C292.365 160.88 297.485 158.04 301.845 158.04C303.685 158.04 305.805 158.8 306.605 160.12C308.965 159.84 311.045 160.68 311.085 163.32C310.765 169.12 310.845 171.2 310.885 175.6C310.885 180.84 307.405 184.6 301.845 185C299.405 185.2 297.285 184.76 295.565 183.44C294.365 182.56 293.885 180.44 293.965 179.28C294.005 178.32 294.525 177.76 295.365 178.56C297.405 180.56 299.165 181.16 301.645 180.8C304.205 180.48 305.565 178.64 305.525 175.72ZM305.325 166.68C305.325 165.24 305.285 163.84 305.285 162.48C305.245 162.36 305.205 162.2 305.205 162.04C304.205 161.76 303.205 161.76 302.245 161.96C299.725 162.44 298.285 164.68 297.965 167.84C297.685 170.6 298.525 172.76 300.485 172.76C303.045 172.76 304.845 170.12 305.325 166.68ZM327.016 166.92C327.016 164.12 326.896 161.88 325.336 161.6C322.536 161.2 322.016 163.88 321.896 167.96C321.896 169.52 321.936 171.04 321.936 172C321.936 175.36 318.976 176.68 316.136 176.4C316.536 174.16 316.616 171.64 316.656 169.48C316.696 167.52 316.976 159.64 315.096 158.56L315.336 158.04C318.896 157.96 320.736 158.48 321.496 160.12C322.736 158.48 324.776 157.76 327.096 158.04C329.016 158.32 330.416 159.28 331.296 160.92C332.456 158.76 334.736 157.72 337.416 158.04C340.976 158.52 342.736 161.48 342.656 166.32C342.616 167.92 342.656 170.52 342.616 172.12C342.536 174.6 340.936 176.24 338.376 176.4C338.056 176.44 337.376 176.44 337.096 176.4C337.256 173.52 337.336 170.08 337.336 166.92C337.336 164.12 337.256 161.92 335.656 161.6C333.336 161.2 332.576 163 332.336 165.92V166.32C332.296 167.92 332.336 170.52 332.296 172.12C332.216 174.6 330.616 176.24 328.056 176.4C327.736 176.44 327.056 176.44 326.736 176.4C326.936 173.52 327.016 170.08 327.016 166.92ZM355.726 181.6C353.926 185.28 350.926 185.72 347.606 184.52C346.806 184.2 346.686 183.8 347.406 183.44C348.766 182.72 349.686 181.52 350.646 180C351.646 178.52 352.646 176.84 353.686 175.12C351.886 171.32 349.406 166.72 347.766 163.88C346.446 161.44 345.366 160.56 344.366 160.44L344.326 160.12C347.006 157.88 350.886 157.52 352.526 161.72C353.406 163.96 355.126 167.48 356.366 170.12C357.726 167.4 358.926 164.64 359.846 162.12C360.646 159.92 360.806 158.4 360.246 157.56L360.566 157.28C364.886 157.6 366.886 160.64 364.446 164.52C361.086 170 358.486 175.92 355.726 181.6ZM382.654 165.28C382.774 162.56 382.694 160.12 381.934 158.32L382.214 158C387.054 158 388.294 159.64 388.134 163.2C388.094 164.36 387.974 167.12 387.974 168.64C388.014 170.52 388.054 174.4 388.814 176.4C385.414 176.72 383.614 175.84 383.214 173.6C383.054 172.56 383.054 172.12 383.054 171.16C382.254 174.72 379.974 176.48 376.254 176.4C372.294 176.28 369.814 173.68 370.174 169C370.214 168.4 370.214 166.36 370.214 165.36C370.174 162.8 369.894 159.36 368.534 158.56L368.734 158.04C374.014 157.92 375.694 159.12 375.614 163.08C375.574 164.08 375.574 165.88 375.614 168.2C375.694 171.72 376.694 172.56 378.174 172.76C380.374 173 382.534 169.44 382.654 165.28ZM406.241 166.92C406.241 163.52 405.441 161.76 403.721 161.6C401.081 161.44 399.721 163.56 399.521 168.64V172C399.521 175.36 396.321 176.68 393.481 176.4C393.881 174.16 393.961 171.64 394.001 169.48C394.041 167.52 394.321 159.64 392.401 158.56L392.681 158.04C396.361 157.96 398.281 158.56 399.081 160.28C400.481 158.64 402.961 157.72 405.481 158.04C409.681 158.6 411.921 161.48 411.761 166.32C411.721 167.92 411.761 170.52 411.721 172.12C411.641 174.6 409.841 176.24 407.281 176.4C407.001 176.44 406.281 176.44 405.961 176.4C406.161 173.52 406.241 170.08 406.241 166.92Z" fill="black"/>
</svg>
