<svg width="500" height="250" viewBox="0 0 500 250" fill="none" xmlns="http://www.w3.org/2000/svg">
<rect width="500" height="250" fill="white"/>
<path d="M137.078 87.9659C137.488 88.5122 137.693 89.013 137.693 89.4683C137.693 89.8325 137.579 90.1512 137.351 90.4244C137.124 90.6976 136.76 91.039 136.259 91.4488C137.078 91.813 139.15 92.2455 142.473 92.7463C145.842 93.2016 147.527 94.6813 147.527 97.1854C147.527 98.1415 147.322 98.8699 146.912 99.3707C146.548 99.826 146.07 100.054 145.478 100.054C144.568 100.054 143.68 99.5984 142.815 98.6878C141.995 97.7317 140.994 96.8211 139.81 95.9561C138.125 94.7268 136.373 93.7707 134.551 93.0878C131.82 95.3642 128.747 97.2992 125.332 98.8927C121.325 100.759 117.797 101.693 114.747 101.693C114.382 101.693 114.132 101.67 113.995 101.624C113.95 101.579 113.904 101.533 113.859 101.488C113.904 101.397 113.95 101.351 113.995 101.351C114.314 101.124 114.792 100.896 115.429 100.668C118.434 99.6211 121.599 97.9138 124.922 95.5463C129.156 92.5415 131.273 89.878 131.273 87.5561C131.273 86.4634 131.091 85.735 130.727 85.3707C128.587 85.3707 126.834 85.6667 125.468 86.2585C124.103 86.8049 123.374 87.078 123.283 87.078C122.509 87.078 121.029 86.4634 118.844 85.2341C116.659 83.9593 115.566 83.0033 115.566 82.3659C115.566 82.0016 116.09 81.8195 117.137 81.8195H120.278C124.012 81.8195 127.107 81.6829 129.566 81.4098C133.527 80.9545 136.464 80.1805 138.376 79.0878C139.423 78.5415 140.265 78.2683 140.903 78.2683C141.904 78.2683 142.997 78.6325 144.181 79.361C145.364 80.0894 145.956 80.9317 145.956 81.8878C145.956 82.4341 145.751 82.9122 145.342 83.322C144.977 83.6862 144.499 83.8683 143.907 83.8683H140.903C139.992 83.8683 139.059 83.8911 138.103 83.9366C137.192 83.9821 136.281 84.0732 135.371 84.2098C135.371 84.7561 135.53 85.348 135.849 85.9854C136.168 86.6228 136.577 87.2829 137.078 87.9659ZM104.707 118.971C103.433 118.151 102.795 117.491 102.795 116.99C102.795 116.535 103.41 116.307 104.639 116.307L110.034 116.376C114.177 116.376 118.252 116.33 122.259 116.239C126.265 116.102 130.044 115.943 133.595 115.761C133.595 114.213 133.163 112.506 132.298 110.639C131.296 108.636 130.317 106.633 129.361 104.629C129.361 104.037 129.703 103.741 130.386 103.741C131.524 103.741 133.117 104.356 135.166 105.585C137.26 106.815 138.307 107.907 138.307 108.863C138.08 109.956 137.875 111.072 137.693 112.21C137.511 113.348 137.42 114.418 137.42 115.42H138.376C139.56 115.42 141.586 115.215 144.454 114.805C146.047 114.577 147.254 114.463 148.073 114.463C149.394 114.463 150.714 114.85 152.034 115.624C153.355 116.398 154.015 117.4 154.015 118.629C154.015 119.312 153.81 119.881 153.4 120.337C152.99 120.792 152.444 121.02 151.761 121.02L151.215 120.951C149.621 120.587 147.96 120.268 146.229 119.995C144.499 119.676 143.02 119.517 141.79 119.517C135.553 119.517 129.999 119.654 125.127 119.927C120.255 120.2 116.659 120.724 114.337 121.498C113.517 121.771 112.834 122.021 112.288 122.249C111.787 122.476 111.377 122.59 111.059 122.59C110.33 122.59 109.238 122.112 107.781 121.156C106.733 120.428 105.709 119.699 104.707 118.971ZM180.222 80.1805C181.451 80.6813 182.749 81.5919 184.115 82.9122C185.754 84.4602 186.573 85.7577 186.573 86.8049C186.573 87.1236 186.482 87.465 186.3 87.8293C186.209 87.9659 185.959 88.3301 185.549 88.922L182.271 92.8829C183.5 93.7024 184.729 94.4992 185.959 95.2732C187.051 96.0927 187.598 96.8667 187.598 97.5951L187.734 101.761C187.734 102.854 187.529 104.265 187.12 105.995C186.573 108.226 185.959 109.341 185.276 109.341C184.82 109.341 184.502 108.476 184.32 106.746C184.137 104.971 183.728 103.104 183.09 101.146C182.134 98.187 180.951 96.3431 179.539 95.6146C177.035 97.5724 174.531 99.2569 172.027 100.668C168.476 102.672 165.63 103.673 163.49 103.673C163.399 103.673 163.285 103.628 163.149 103.537C163.285 103.4 163.377 103.309 163.422 103.263C163.695 103.036 163.946 102.876 164.173 102.785C167.042 101.465 169.955 99.3024 172.915 96.2976C175.92 93.2472 178.173 90.2423 179.676 87.2829C179.676 86.3724 179.175 85.0976 178.173 83.4585C177.172 81.8195 176.671 80.8634 176.671 80.5902C176.671 79.9984 177.103 79.7024 177.968 79.7024C178.56 79.7024 179.311 79.8618 180.222 80.1805ZM181.042 116.444C180.677 116.08 180.495 115.738 180.495 115.42C180.495 114.737 181.201 114.395 182.612 114.395C183.933 114.395 185.458 114.782 187.188 115.556C188.964 116.285 189.851 117.195 189.851 118.288C189.851 118.47 189.806 118.857 189.715 119.449C189.624 120.041 189.578 120.564 189.578 121.02V124.161C189.578 125.163 189.897 125.777 190.534 126.005C191.172 126.233 192.151 126.346 193.471 126.346C194.882 126.346 196.567 126.233 198.524 126.005C200.528 125.777 202.076 125.504 203.168 125.185C204.261 124.912 205.012 124.776 205.422 124.776C206.651 124.776 207.266 125.276 207.266 126.278C207.266 128.008 205.764 129.42 202.759 130.512C200.391 131.377 198.206 131.81 196.203 131.81C194.336 131.81 192.56 131.15 190.876 129.829C189.237 128.554 188.007 126.961 187.188 125.049C186.733 124.002 186.095 122.863 185.276 121.634C184.229 120.041 182.817 118.311 181.042 116.444ZM197.295 75.2634C196.339 74.3528 195.861 73.6699 195.861 73.2146C195.861 72.5772 196.453 72.2585 197.637 72.2585C199.412 72.2585 201.37 72.8049 203.51 73.8976C206.059 75.1724 207.334 76.6065 207.334 78.2L207.129 81.0683V100.395C207.129 104.083 206.833 107.338 206.242 110.161C205.695 112.984 204.967 115.124 204.056 116.58C203.373 117.764 202.895 118.356 202.622 118.356C202.349 118.356 202.212 117.673 202.212 116.307L202.007 93.6341C201.006 93.7252 199.913 94.0439 198.729 94.5902C197.546 95.0911 196.362 95.6146 195.178 96.161C194.541 96.161 193.357 95.6146 191.627 94.522C189.897 93.3837 189.032 92.5415 189.032 91.9951C189.032 91.4943 189.646 91.2439 190.876 91.2439C192.833 91.2439 194.472 91.1528 195.793 90.9707C198.115 90.652 200.141 90.0829 201.871 89.2634V80.6585C201.598 79.9301 200.983 79.0195 200.027 77.9268C199.071 76.8341 198.16 75.9463 197.295 75.2634ZM261.815 111.937C260.995 112.938 260.472 113.439 260.244 113.439C259.925 113.439 259.766 112.779 259.766 111.459V107.088C259.766 103.354 259.629 100.759 259.356 99.3024C259.128 97.8 258.719 96.7984 258.127 96.2976C254.985 96.2976 251.161 96.5024 246.654 96.9122C242.192 97.322 239.05 97.9138 237.229 98.6878C236.728 98.8699 236.114 99.1886 235.385 99.6439C234.839 99.9626 234.384 100.122 234.02 100.122C233.063 100.122 231.265 99.4618 228.624 98.1415C225.984 96.8211 224.663 95.7967 224.663 95.0683C224.663 94.7951 224.891 94.5675 225.346 94.3854C225.847 94.1577 226.667 94.0439 227.805 94.0439L231.766 94.1805C235.226 94.1805 240.234 93.9301 246.79 93.4293C248.976 93.2927 251.912 93.0423 255.6 92.678C257.968 89.9463 259.675 87.6927 260.722 85.9171C261.815 84.1415 262.361 82.7528 262.361 81.7512C262.361 81.0683 261.951 80.226 261.132 79.2244C260.358 78.2228 259.652 77.722 259.015 77.722C257.512 77.722 255.486 78.4732 252.937 79.9756C250.387 81.478 248.611 82.2293 247.61 82.2293C246.563 82.2293 245.106 81.7512 243.239 80.7951C241.372 79.839 240.439 78.9512 240.439 78.1317C240.439 77.722 240.712 77.3805 241.259 77.1073C241.805 76.8341 242.693 76.6976 243.922 76.6976C245.424 76.6976 246.813 76.5837 248.088 76.3561C249.408 76.0829 250.933 75.6504 252.663 75.0585C255.076 74.0114 256.693 73.3285 257.512 73.0098C258.833 72.4634 259.857 72.1902 260.585 72.1902C261.678 72.1902 263.181 73.374 265.093 75.7415C267.05 78.0634 268.029 79.7935 268.029 80.9317C268.029 82.5252 265.798 85.1431 261.337 88.7854C258.833 90.7431 257.307 91.9268 256.761 92.3366C259.083 92.3366 260.995 92.1772 262.498 91.8585C264.41 91.3122 266.14 90.8341 267.688 90.4244C268.598 90.1967 269.236 90.0602 269.6 90.0146C269.964 89.9236 270.374 89.878 270.829 89.878C271.922 89.878 272.992 90.265 274.039 91.039C275.086 91.813 275.61 92.7236 275.61 93.7707C275.61 94.4992 275.382 95.0911 274.927 95.5463C274.517 95.9561 273.88 96.161 273.015 96.161C272.013 96.161 270.351 96.0699 268.029 95.8878C265.707 95.7057 264.182 95.6146 263.454 95.6146C263.636 96.2976 263.886 97.0715 264.205 97.9366C264.524 98.8016 264.683 99.5073 264.683 100.054C264.683 102.33 264.478 104.515 264.068 106.61C263.659 108.704 262.907 110.48 261.815 111.937ZM254.644 113.234C257.831 113.234 260.449 114.167 262.498 116.034C264.592 117.855 265.639 120.132 265.639 122.863C265.639 125.231 264.82 127.371 263.181 129.283C261.314 131.468 258.878 132.561 255.873 132.561C252.777 132.561 250.114 131.491 247.883 129.351C245.652 127.211 244.537 124.821 244.537 122.18C244.537 118.993 245.629 116.626 247.815 115.078C249.545 113.849 251.821 113.234 254.644 113.234ZM255.395 117.4C253.392 117.4 251.707 117.946 250.341 119.039C249.021 120.086 248.361 121.315 248.361 122.727C248.361 124.093 248.953 125.276 250.137 126.278C251.366 127.28 253.028 127.78 255.122 127.78C256.761 127.78 258.195 127.416 259.424 126.688C261.018 125.777 261.815 124.525 261.815 122.932C261.815 121.247 261.223 119.904 260.039 118.902C258.855 117.901 257.307 117.4 255.395 117.4ZM300.998 82.5024C301.999 82.7756 303.342 83.8228 305.027 85.6439C306.711 87.465 307.554 88.8764 307.554 89.878C307.554 90.2423 307.372 90.6293 307.007 91.039C306.643 91.4033 306.393 91.6537 306.256 91.7902L302.09 95.2049C303.82 96.161 305.118 97.026 305.983 97.8C307.076 98.8016 307.622 99.8033 307.622 100.805C307.622 103.764 307.531 106.132 307.349 107.907C307.167 109.683 306.916 111.026 306.598 111.937C305.732 114.304 305.027 115.488 304.48 115.488C303.843 115.488 303.524 114.486 303.524 112.483C303.524 110.298 303.251 107.771 302.705 104.902C301.931 100.85 300.884 98.4146 299.563 97.5951C297.196 99.5073 294.942 100.941 292.802 101.898C290.162 103.081 287.544 103.673 284.949 103.673C284.858 103.673 284.744 103.65 284.607 103.605C284.562 103.605 284.516 103.582 284.471 103.537C284.562 103.491 284.63 103.468 284.676 103.468C285.358 103.104 285.791 102.899 285.973 102.854C288.067 102.125 290.913 100.19 294.51 97.0488C298.425 93.6341 300.383 91.0618 300.383 89.3317C300.383 88.3756 300.11 87.3512 299.563 86.2585C299.017 85.1659 298.448 84.0276 297.856 82.8439C297.856 82.3886 298.243 82.161 299.017 82.161C299.609 82.161 300.269 82.2748 300.998 82.5024ZM319.505 99.3707C318.685 99.9171 318.048 100.19 317.593 100.19C316.864 100.19 315.589 99.6894 313.768 98.6878C311.947 97.6407 311.037 96.8667 311.037 96.3659C311.037 95.9106 311.879 95.6146 313.563 95.478C316.341 95.1138 318.002 94.8634 318.549 94.7268C320.324 94.3626 321.918 93.8163 323.329 93.0878V81.4098C323.011 80.6358 321.508 78.7691 318.822 75.8098C317.638 74.4894 317.046 73.6699 317.046 73.3512C317.046 72.6228 317.889 72.2585 319.573 72.2585C320.985 72.2585 322.942 72.987 325.446 74.4439C327.996 75.8553 329.271 77.2211 329.271 78.5415C329.271 78.8146 329.202 79.2927 329.066 79.9756C328.929 80.6585 328.861 81.2504 328.861 81.7512V112.141C328.861 117.059 328.519 120.974 327.837 123.888C327.427 125.663 326.676 127.667 325.583 129.898C325.037 131.172 324.604 131.81 324.285 131.81C324.103 131.81 323.967 131.491 323.876 130.854C323.785 130.216 323.739 129.579 323.739 128.941L323.329 98.0732C322.692 98.1642 322.214 98.2553 321.895 98.3463C320.893 98.6195 320.097 98.961 319.505 99.3707ZM379.654 74.5805C379.107 73.9431 378.834 73.4423 378.834 73.0781C378.834 72.5772 379.358 72.3268 380.405 72.3268C381.998 72.3268 383.979 73.078 386.346 74.5805C388.759 76.0374 389.966 77.4943 389.966 78.9512C389.966 79.1333 389.92 79.5431 389.829 80.1805C389.738 80.8179 389.693 81.3642 389.693 81.8195V107.224C389.693 110.275 389.647 112.688 389.556 114.463C389.51 116.193 389.283 118.06 388.873 120.063C388.19 123.25 387.439 126.005 386.619 128.327C385.845 130.694 385.231 131.878 384.776 131.878C384.639 131.878 384.548 131.673 384.502 131.263C384.457 130.899 384.434 130.421 384.434 129.829V81.7512C384.297 80.8407 383.683 79.6341 382.59 78.1317C381.816 77.039 380.837 75.8553 379.654 74.5805ZM368.112 103.605C367.611 103.286 366.928 102.74 366.063 101.966C365.016 101.01 364.493 100.35 364.493 99.9854C364.493 99.6667 364.834 99.5073 365.517 99.5073H366.473C367.884 99.5073 369.25 99.3935 370.571 99.1659C371.936 98.8927 373.052 98.5285 373.917 98.0732V87.2146C373.917 86.3041 373.416 85.052 372.415 83.4585C371.413 81.8195 370.389 80.1577 369.341 78.4732C369.341 77.9268 369.751 77.6537 370.571 77.6537C371.891 77.6537 373.598 78.3594 375.693 79.7707C377.832 81.1821 378.902 82.4569 378.902 83.5951C378.902 84.0049 378.834 84.4829 378.697 85.0293C378.606 85.5301 378.561 85.8033 378.561 85.8488V103.605C378.561 107.338 378.31 110.343 377.81 112.62C377.354 114.896 376.74 116.74 375.966 118.151C375.693 118.789 375.397 119.312 375.078 119.722C374.987 119.859 374.85 120.018 374.668 120.2C374.577 119.836 374.532 119.54 374.532 119.312L374.327 102.239C373.28 102.239 372.232 102.58 371.185 103.263C370.138 103.901 369.523 104.22 369.341 104.22C369.023 104.22 368.613 104.015 368.112 103.605ZM353.019 84.4146C352.564 83.8228 352.336 83.3902 352.336 83.1171C352.336 82.7073 352.701 82.5024 353.429 82.5024L354.522 82.639C355.842 82.8667 357.049 83.0033 358.141 83.0488C359.234 83.0943 360.759 83.1171 362.717 83.1171C364.402 83.1171 365.244 83.6407 365.244 84.6878C365.244 85.5984 364.47 86.4862 362.922 87.3512C361.374 88.2163 360.099 88.6488 359.097 88.6488H358.278C357.367 88.6488 356.548 88.3756 355.819 87.8293C355.455 87.5561 354.522 86.4179 353.019 84.4146ZM362.649 98.278C362.967 98.8244 363.127 99.2797 363.127 99.6439C363.127 100.463 362.353 101.556 360.805 102.922C362.125 103.969 362.808 104.515 362.854 104.561C363.628 105.289 364.015 106.018 364.015 106.746C364.015 107.839 363.673 109.751 362.99 112.483C362.307 115.215 361.647 116.58 361.01 116.58C360.873 116.216 360.805 115.875 360.805 115.556C360.805 113.872 360.6 111.982 360.19 109.888C359.598 106.928 358.847 105.312 357.936 105.039C356.662 105.904 354.613 106.951 351.79 108.18C348.967 109.364 346.964 109.956 345.78 109.956L345.507 109.888C345.644 109.751 345.758 109.637 345.849 109.546C346.167 109.273 346.645 108.977 347.283 108.659C349.058 107.702 351.084 106.2 353.361 104.151C356.275 101.556 357.732 99.5528 357.732 98.1415C357.732 97.5951 357.527 97.0715 357.117 96.5707C356.252 96.5707 355.41 96.7528 354.59 97.1171C354.089 97.3447 353.748 97.4585 353.566 97.4585C352.974 97.4585 351.881 96.935 350.288 95.8878C348.74 94.7951 347.966 93.9984 347.966 93.4976C347.966 93.0878 348.421 92.8829 349.332 92.8829H351.312C353.771 92.8829 355.819 92.7691 357.458 92.5415C359.097 92.2683 360.554 91.9041 361.829 91.4488C362.558 91.1756 363.081 90.9935 363.4 90.9024C363.719 90.8114 363.992 90.7659 364.219 90.7659C364.766 90.7659 365.403 91.0163 366.132 91.5171C366.86 91.9724 367.224 92.4732 367.224 93.0195C367.224 93.6114 366.473 94.1577 364.971 94.6585C363.923 94.9772 362.876 95.2959 361.829 95.6146C361.829 96.2976 361.852 96.7301 361.897 96.9122C361.989 97.1854 362.239 97.6407 362.649 98.278ZM178.296 172.829C178.296 174.13 177.109 175.48 174.735 176.878C172.849 177.984 170.67 178.537 168.198 178.537C164.361 178.537 161.223 177.187 158.784 174.488C156.345 171.789 155.125 168.309 155.125 164.049C155.125 159.366 156.572 155.626 159.467 152.829C162.393 150 166.28 148.585 171.125 148.585C173.109 148.585 175.402 149.089 178.003 150.098L178.345 157.756C178.345 158.179 178.231 158.39 178.003 158.39H177.076C176.881 158.39 176.735 158.049 176.637 157.366C176.345 155.382 175.532 153.724 174.198 152.39C172.898 151.024 171.353 150.341 169.564 150.341C166.735 150.341 164.426 151.496 162.637 153.805C160.849 156.081 159.954 159.057 159.954 162.732C159.954 166.439 160.898 169.561 162.784 172.098C164.702 174.602 167.076 175.854 169.906 175.854C171.467 175.854 172.865 175.447 174.101 174.634C175.109 173.724 176.117 172.813 177.125 171.902L178.101 172.488C178.231 172.585 178.296 172.699 178.296 172.829ZM204.468 177.659C204.468 177.886 204.305 178 203.98 178H194.224C193.931 178 193.785 177.854 193.785 177.561V176.78C193.785 176.585 194.045 176.488 194.565 176.488C195.899 176.488 196.728 176.081 197.053 175.268C197.411 174.423 197.59 172.195 197.59 168.585C197.59 165.496 197.346 163.35 196.858 162.146C196.207 160.553 194.972 159.756 193.151 159.756C191.037 159.756 189.134 161.089 187.443 163.756L187.394 169.756C187.394 171.805 187.411 173.35 187.443 174.39C187.508 175.431 187.606 176.033 187.736 176.195C187.801 176.26 188.11 176.341 188.663 176.439C189.216 176.504 189.768 176.537 190.321 176.537C190.777 176.537 191.053 176.553 191.151 176.585C191.281 176.65 191.346 176.764 191.346 176.927V177.61C191.346 177.87 191.216 178 190.955 178H180.516C180.159 178 179.98 177.854 179.98 177.561C179.98 177.073 179.996 176.78 180.029 176.683C180.094 176.553 180.24 176.488 180.468 176.488C181.964 176.488 182.89 176.195 183.248 175.61C183.638 175.024 183.833 173.415 183.833 170.78V153.805C183.833 152.179 183.801 150.862 183.736 149.854C183.671 148.813 183.525 148.179 183.297 147.951C183.102 147.691 182.403 147.561 181.199 147.561C180.809 147.561 180.581 147.545 180.516 147.512C180.419 147.48 180.37 147.366 180.37 147.171C180.37 146.943 180.37 146.699 180.37 146.439C180.435 146.244 180.728 146.146 181.248 146.146H181.687C182.305 146.146 183.248 146.081 184.516 145.951C185.785 145.821 186.744 145.756 187.394 145.756C187.622 145.756 187.736 145.902 187.736 146.195C187.736 147.203 187.687 148.65 187.59 150.537C187.492 152.423 187.443 153.902 187.443 154.976V161.073C190.11 158.407 192.809 157.073 195.541 157.073C199.411 157.073 201.346 159.236 201.346 163.561L201.102 171.024C201.102 171.805 201.102 172.52 201.102 173.171C201.102 173.821 201.167 174.813 201.297 176.146C201.557 176.244 201.801 176.341 202.029 176.439C202.289 176.504 202.793 176.537 203.541 176.537C204.159 176.537 204.468 176.634 204.468 176.829V177.659ZM222.493 167.951C222.493 164.439 221.843 161.902 220.542 160.341C219.566 159.171 218.314 158.585 216.786 158.585C215.127 158.618 213.81 159.301 212.834 160.634C211.696 162.195 211.127 164.537 211.127 167.659C211.127 170.585 211.615 172.894 212.591 174.585C213.599 176.276 215.046 177.122 216.932 177.122C218.786 177.122 220.168 176.341 221.078 174.78C222.021 173.187 222.493 170.911 222.493 167.951ZM226.688 167.073C226.688 170.455 225.712 173.236 223.761 175.415C221.843 177.561 219.322 178.634 216.2 178.634C213.338 178.634 211.078 177.707 209.42 175.854C207.761 174 206.932 171.561 206.932 168.537C206.932 165.154 207.891 162.39 209.81 160.244C211.729 158.098 214.265 157.024 217.42 157.024C220.249 157.024 222.493 157.951 224.151 159.805C225.843 161.659 226.688 164.081 226.688 167.073ZM244.71 172.39C244.71 174.276 243.914 175.789 242.32 176.927C240.727 178.065 238.597 178.634 235.93 178.634C233.784 178.634 231.832 178.244 230.076 177.463V172.439L230.369 172.195H231.198C231.393 172.195 231.491 172.276 231.491 172.439C231.491 173.902 231.979 175.073 232.954 175.951C233.832 176.732 234.938 177.122 236.271 177.122C237.54 177.122 238.58 176.78 239.393 176.098C240.206 175.415 240.613 174.537 240.613 173.463C240.613 171.837 238.84 170.228 235.296 168.634C231.751 167.041 229.979 165.057 229.979 162.683C229.979 161.024 230.759 159.675 232.32 158.634C233.914 157.561 235.962 157.024 238.467 157.024C240.027 157.024 241.881 157.317 244.027 157.902V162.537C244.027 162.732 243.897 162.829 243.637 162.829H242.906C242.678 162.829 242.564 162.667 242.564 162.341C242.564 161.236 242.158 160.325 241.345 159.61C240.532 158.894 239.54 158.537 238.369 158.537C237.198 158.537 236.223 158.846 235.442 159.463C234.662 160.081 234.271 160.878 234.271 161.854C234.271 163.317 236.011 164.862 239.491 166.488C242.971 168.114 244.71 170.081 244.71 172.39ZM271.069 177.61C271.069 177.837 270.809 177.951 270.289 177.951C266.386 178.146 264.337 178.244 264.142 178.244C263.85 178.244 263.703 178.098 263.703 177.805V174.683C262.435 175.919 261.427 176.764 260.679 177.22C259.15 178.163 257.476 178.634 255.654 178.634C253.963 178.634 252.646 178.195 251.703 177.317C250.5 176.211 249.898 174.407 249.898 171.902C249.898 171.187 249.915 170.488 249.947 169.805C250.11 166.455 250.191 164.439 250.191 163.756C250.191 161.61 250.061 160.325 249.801 159.902C249.541 159.48 248.728 159.268 247.362 159.268C246.874 159.268 246.63 159.154 246.63 158.927V158.049C246.63 157.886 246.874 157.805 247.362 157.805L253.898 157.463C253.996 157.463 254.094 157.577 254.191 157.805C254.126 158.715 254.077 159.463 254.045 160.049C253.785 163.919 253.654 166.715 253.654 168.439C253.654 171.041 253.947 172.943 254.533 174.146C255.15 175.35 256.256 175.951 257.85 175.951C259.02 175.951 260.142 175.577 261.215 174.829C262.321 174.049 263.118 173.073 263.606 171.902C263.606 170.179 263.622 168.569 263.654 167.073C263.72 165.545 263.752 164.634 263.752 164.341C263.752 162 263.622 160.569 263.362 160.049C263.134 159.528 262.386 159.268 261.118 159.268C260.825 159.268 260.679 159.122 260.679 158.829V158.098C260.679 157.902 260.988 157.805 261.606 157.805C262.614 157.805 263.606 157.772 264.581 157.707C265.557 157.61 266.386 157.528 267.069 157.463C267.362 157.463 267.508 157.577 267.508 157.805C267.443 159.041 267.378 160.618 267.313 162.537C267.281 164.423 267.264 165.902 267.264 166.976C267.264 169.187 267.297 171.236 267.362 173.122C267.459 174.976 267.589 175.984 267.752 176.146C267.915 176.309 268.256 176.407 268.776 176.439C269.297 176.472 269.866 176.488 270.484 176.488C270.874 176.488 271.069 176.602 271.069 176.829V177.61ZM297.094 177.61C297.094 177.87 296.981 178 296.753 178H287.046C286.688 178 286.509 177.854 286.509 177.561V176.829C286.509 176.602 286.883 176.488 287.631 176.488C288.802 176.488 289.533 176 289.826 175.024C290.151 174.049 290.314 171.74 290.314 168.098C290.314 165.593 290.168 163.837 289.875 162.829C289.29 160.78 288.038 159.756 286.119 159.756C284.851 159.756 283.599 160.276 282.363 161.317C280.769 162.65 279.973 164.407 279.973 166.585L280.168 176.244C280.818 176.374 281.387 176.455 281.875 176.488C282.363 176.52 282.883 176.537 283.436 176.537C283.924 176.537 284.168 176.667 284.168 176.927V177.707C284.168 177.902 284.038 178 283.777 178H273.192C272.802 178 272.607 177.902 272.607 177.707V176.878C272.607 176.683 272.672 176.569 272.802 176.537C272.932 176.504 273.29 176.488 273.875 176.488C274.688 176.488 275.257 176.341 275.582 176.049C275.94 175.496 276.184 174.602 276.314 173.366C276.444 172.13 276.509 170 276.509 166.976C276.509 162.488 276.314 160.049 275.924 159.659C275.761 159.463 275.452 159.35 274.997 159.317C274.574 159.252 273.989 159.22 273.241 159.22C273.013 159.22 272.899 159.122 272.899 158.927V158.098C272.899 158.033 272.916 157.967 272.948 157.902C272.948 157.87 272.964 157.837 272.997 157.805L279.826 157.463C279.989 157.463 280.07 157.642 280.07 158V161.561C282.672 158.569 285.436 157.073 288.363 157.073C290.607 157.073 292.151 157.756 292.997 159.122C293.647 160.163 293.973 161.756 293.973 163.902L293.729 171.61L293.875 176.293C294.395 176.39 294.72 176.455 294.851 176.488C295.078 176.52 295.468 176.537 296.021 176.537C296.737 176.537 297.094 176.634 297.094 176.829V177.61ZM328.632 165.317C328.632 165.675 328.323 165.854 327.705 165.854C326.437 165.854 325.624 166.065 325.266 166.488C324.908 166.911 324.73 167.935 324.73 169.561L324.925 176.683C322.811 177.366 320.957 177.854 319.364 178.146C317.803 178.439 316.193 178.585 314.534 178.585C309.949 178.585 306.339 177.398 303.705 175.024C300.746 172.358 299.266 168.813 299.266 164.39C299.266 159.642 300.86 155.821 304.047 152.927C307.234 150.033 311.478 148.585 316.778 148.585C319.51 148.585 322.079 148.927 324.486 149.61V157.512C324.486 157.837 324.388 158 324.193 158H323.266C323.071 158 322.973 157.87 322.973 157.61C322.973 155.398 322.242 153.642 320.778 152.341C319.347 151.008 317.412 150.341 314.973 150.341C311.819 150.341 309.234 151.577 307.217 154.049C305.234 156.488 304.242 159.659 304.242 163.561C304.242 167.463 305.282 170.667 307.364 173.171C309.445 175.675 312.128 176.927 315.412 176.927C317.266 176.927 318.957 176.569 320.486 175.854C320.486 175.203 320.502 174.211 320.534 172.878C320.599 171.545 320.632 170.797 320.632 170.634C320.632 168.455 320.437 167.122 320.047 166.634C319.689 166.114 318.713 165.854 317.12 165.854C316.632 165.854 316.339 165.837 316.242 165.805C316.112 165.772 316.047 165.659 316.047 165.463V164.683C316.047 164.423 316.16 164.293 316.388 164.293H328.193C328.486 164.293 328.632 164.423 328.632 164.683V165.317ZM345.54 172.39C345.54 174.276 344.744 175.789 343.15 176.927C341.557 178.065 339.427 178.634 336.76 178.634C334.614 178.634 332.662 178.244 330.906 177.463V172.439L331.199 172.195H332.028C332.223 172.195 332.321 172.276 332.321 172.439C332.321 173.902 332.809 175.073 333.784 175.951C334.662 176.732 335.768 177.122 337.101 177.122C338.37 177.122 339.41 176.78 340.223 176.098C341.036 175.415 341.443 174.537 341.443 173.463C341.443 171.837 339.671 170.228 336.126 168.634C332.581 167.041 330.809 165.057 330.809 162.683C330.809 161.024 331.589 159.675 333.15 158.634C334.744 157.561 336.793 157.024 339.297 157.024C340.858 157.024 342.711 157.317 344.858 157.902V162.537C344.858 162.732 344.727 162.829 344.467 162.829H343.736C343.508 162.829 343.394 162.667 343.394 162.341C343.394 161.236 342.988 160.325 342.175 159.61C341.362 158.894 340.37 158.537 339.199 158.537C338.028 158.537 337.053 158.846 336.272 159.463C335.492 160.081 335.101 160.878 335.101 161.854C335.101 163.317 336.841 164.862 340.321 166.488C343.801 168.114 345.54 170.081 345.54 172.39Z" fill="black"/>
</svg>
