<svg width="500" height="250" viewBox="0 0 500 250" fill="none" xmlns="http://www.w3.org/2000/svg">
<rect width="500" height="250" fill="white"/>
<path d="M26.6391 109.34V96.53C30.4891 96.53 33.3591 94.36 33.3591 89.67V89.32H26.6391V76.51H30.6291C31.1891 78.82 34.7591 81.83 37.6291 81.97L38.5391 80.57C34.6891 79.94 32.0991 77.35 32.0991 74.97V71.82H55.6191V76.51H61.1491V89.32H54.3591V89.67C54.3591 92.96 57.0191 95.13 61.1491 95.13V106.54C53.3091 106.54 46.5891 105.21 40.2891 98.56L38.8191 99.82C40.4991 101.64 42.3891 103.11 44.8391 104.79C40.1491 108.01 32.6591 109.34 26.6391 109.34ZM83.1991 107.24H62.9691V74.41H83.1991V81.69H88.5191V98.21H83.1991V107.24ZM26.2191 120.54C26.2191 112.07 35.1791 108.22 55.4091 108.22C75.6391 108.22 84.5991 112.07 84.5991 120.54C84.5991 129.01 75.6391 132.86 55.4091 132.86C35.1791 132.86 26.2191 129.01 26.2191 120.54ZM46.9391 116.97L46.0291 119C51.5591 121.59 58.9791 122.5 65.1391 122.15V120.12C59.3291 120.47 52.2591 119.42 46.9391 116.97ZM90.4037 84.84C90.4037 78.82 95.3037 73.36 109.514 73.36C123.724 73.36 128.624 78.82 128.624 84.84C128.624 90.72 123.724 96.25 109.514 96.25C95.3037 96.25 90.4037 90.72 90.4037 84.84ZM120.014 116.41V108.71C125.754 108.71 131.004 108.08 134.364 107.73V106.05L130.164 106.33V74.41H150.394V113.4C139.894 115.57 130.724 116.55 120.014 116.41ZM103.144 82.11L102.234 84.14C106.714 85.68 111.334 86.45 116.444 86.45V84.42C111.684 84.42 107.414 83.51 103.144 82.11ZM119.314 132.86C107.904 132.86 100.344 132.16 96.2137 128.87C91.0337 124.74 92.8537 116.55 97.3337 113.4V107.24C95.3037 107.24 93.2037 107.24 91.0337 107.24V97.09C104.404 97.09 114.764 97.3 128.134 96.81V106.12C124.424 106.33 120.924 106.54 117.564 106.68V116.41C115.324 116.34 112.594 116.2 108.744 115.92C107.834 117.39 110.634 118.72 119.314 118.72C131.844 118.72 143.394 117.67 150.394 115.22V129.29C141.504 131.53 131.844 132.86 119.314 132.86ZM155.428 95.27V74.41H190.498V87.29C186.368 88.34 179.298 88.76 174.258 88.76V90.86C179.578 90.86 187.068 90.23 193.158 88.76V74.41H211.988V81.69H217.308V98.21H211.988V111.93C207.088 113.96 198.548 115.5 193.158 115.15V103.81C187.978 105.56 178.598 106.61 168.308 106.61C158.508 106.61 155.428 102.9 155.428 95.27ZM156.548 108.5H176.848C176.848 114.24 180.558 117.04 187.768 117.32C196.588 117.6 204.988 117.04 211.988 114.24V129.71C203.798 131.95 197.218 132.86 186.088 132.86C165.298 132.86 154.168 127.05 156.548 108.5ZM219.823 103.88V90.16C224.023 90.37 232.073 89.95 236.063 88.69V86.59C232.073 87.85 224.023 88.27 219.823 88.06V74.41H254.893V81.9C254.893 101.36 246.773 105.28 219.823 103.88ZM276.383 103.74H257.553V74.41H276.383V80.29H281.703V96.81H276.383V103.74ZM219.823 119.84V105.63H276.383V131.88H233.963C224.513 131.88 219.823 127.96 219.823 119.84ZM239.773 114.87L238.863 116.9C244.393 119.49 251.813 120.4 257.973 120.05V118.02C252.163 118.37 245.093 117.32 239.773 114.87ZM283.517 103.11C283.517 80.92 290.587 73.36 301.717 73.36C312.917 73.36 319.987 80.92 319.987 103.11C319.987 125.23 312.917 132.86 301.717 132.86C290.587 132.86 283.517 125.3 283.517 103.11ZM340.777 131.88H321.947V74.41H340.777V92.68H346.097V109.2H340.777V131.88ZM295.137 99.47L293.877 101.36C298.497 103.46 304.237 104.51 309.487 104.51V102.41C304.237 102.41 299.267 101.15 295.137 99.47ZM348.612 105.14V90.93C352.462 90.23 355.332 88.06 355.332 81.27V74.41H376.332V81.27C376.332 88.06 378.922 90.23 383.122 90.93V105.14C375.282 105.14 368.562 103.81 362.262 97.16L360.792 98.42C361.772 99.54 363.032 100.59 364.432 101.57C359.742 103.81 354.632 105.14 348.612 105.14ZM405.172 105.14H384.942V74.41H405.172V80.99H410.492V97.51H405.172V105.14ZM348.612 122.57V107.03H405.172V131.88H384.942V122.57H348.612ZM438.486 92.12H433.866V104.37C433.866 112.91 436.666 114.66 438.486 114.66V131.88C431.276 131.88 425.886 127.4 424.066 123.27L422.666 124.67C423.086 125.37 424.626 127.68 425.466 128.38C422.106 130.48 417.136 131.81 412.306 132.23V114.8C414.896 114.8 416.996 111.44 416.996 104.37V92.12H412.306V76.51H415.946C416.366 78.47 418.816 81.97 420.916 81.76L421.896 80.57C418.816 79.94 417.276 77 417.276 74.97V71.82H435.126V76.51H438.486V92.12ZM435.406 110.88V93.38C436.806 93.31 438.416 93.24 440.096 93.1V74.41H455.426V131.88H440.096V110.74C438.416 110.88 436.736 110.88 435.406 110.88ZM472.366 131.88H457.036V74.41H472.366V131.88ZM170.668 183.76H159.788V152.52H170.388C182.028 152.52 187.988 156.28 187.988 168.4C187.988 180.72 182.388 183.76 170.668 183.76ZM167.388 166.16L166.668 167.24C170.508 168.48 175.788 169.04 179.988 169.04V167.84C175.788 167.84 170.948 167.16 167.388 166.16ZM189.338 177.2C189.338 173.04 190.898 170.96 194.418 169.72C197.058 168.8 201.498 168.16 204.978 168.16V166.88C200.938 166.88 195.978 167.6 191.418 169.16V160.84C194.818 159.32 198.898 158.56 204.498 158.56C212.778 158.56 216.098 161.36 216.098 169.6V183.8H206.098V182.44C206.098 179.32 205.138 176.28 203.818 174.4L202.618 174.84C203.978 176.4 204.818 180.2 204.818 183.12C202.738 183.88 200.178 184.4 196.738 184.4C191.818 184.4 189.338 181.52 189.338 177.2ZM228.577 159.36L229.977 160.76C232.697 159.28 235.217 158.56 237.937 158.56C242.177 158.56 245.657 161.68 245.657 167.08V183.8H232.857V169.72L231.377 170.28V183.8H218.577V159.36H228.577ZM247.347 170.68C247.347 162.88 251.907 158.56 258.147 158.56C261.387 158.56 263.067 159.04 265.107 160.32L266.027 159.36H274.827V180.2C274.827 188 270.467 192.16 261.667 192.16C257.587 192.16 253.027 191.6 250.027 190.52V181.4C254.187 183.36 259.507 183.8 262.827 182.6V181.36C254.267 183.72 247.347 179.64 247.347 170.68ZM265.467 169.76L264.747 168.76C262.787 169.96 258.947 170.84 255.947 170.84V171.96C258.947 171.96 263.227 171.2 265.467 169.76ZM276.448 177.2C276.448 173.04 278.008 170.96 281.528 169.72C284.168 168.8 288.608 168.16 292.088 168.16V166.88C288.048 166.88 283.088 167.6 278.528 169.16V160.84C281.928 159.32 286.008 158.56 291.608 158.56C299.888 158.56 303.208 161.36 303.208 169.6V183.8H293.208V182.44C293.208 179.32 292.248 176.28 290.928 174.4L289.728 174.84C291.088 176.4 291.928 180.2 291.928 183.12C289.848 183.88 287.288 184.4 283.848 184.4C278.928 184.4 276.448 181.52 276.448 177.2ZM327.566 170.2V183.8H317.366V169.72L316.086 170.28V183.8H305.686V159.36H313.286L314.686 160.76C316.806 159.08 318.126 158.56 320.846 158.56C322.926 158.56 324.486 159.2 325.566 160.36C327.566 159.4 330.086 158.56 332.686 158.56C337.326 158.56 339.606 161.68 339.606 167.08V183.8H328.806V169.72L327.566 170.2Z" fill="black"/>
</svg>
