<svg width="500" height="250" viewBox="0 0 500 250" fill="none" xmlns="http://www.w3.org/2000/svg">
<rect width="500" height="250" fill="white"/>
<path d="M130.269 95.9C137.769 95.9 142.689 92.12 142.689 86.42C142.689 81.14 138.429 77.42 131.769 76.94C132.009 76.28 132.429 75.32 132.429 74.96C132.429 74.24 128.049 72.92 128.049 74.24C128.829 74.84 129.009 75.5 129.009 76.1C129.009 76.4 128.889 76.64 128.769 76.94C122.109 77.42 117.849 81.08 117.849 86.42C117.849 92.12 122.769 95.9 130.269 95.9ZM130.269 79.58C135.189 79.58 138.489 82.28 138.489 86.18C138.489 90.26 135.189 92.96 130.269 92.96C125.349 92.96 122.049 90.26 122.049 86.18C122.049 82.28 125.349 79.58 130.269 79.58ZM152.349 98.24C151.929 98.24 148.329 100.34 147.129 100.34H113.289C109.389 100.34 105.309 100.28 104.169 99.98C103.929 99.92 103.629 100.7 103.689 100.88C103.929 101.54 106.929 103.94 109.329 104.36C110.589 103.82 111.969 103.1 113.469 103.1H155.829C156.309 103.1 156.549 102.92 156.549 102.62C156.549 101.3 153.069 98.24 152.349 98.24ZM145.149 124.46C144.729 124.46 141.729 126.2 140.529 126.2H123.369C121.569 126.2 120.609 126.08 120.609 123.8V120.08H137.949C141.069 120.08 144.849 120.14 145.449 120.26C145.809 120.32 145.989 120.08 145.989 119.72C145.989 119.48 145.209 117.98 143.949 117.08L145.629 109.16C145.809 108.32 142.209 107.66 141.429 107.96C140.709 108.62 139.689 108.74 137.769 108.74H123.249C119.349 108.74 116.649 108.86 114.489 108.32C114.249 108.26 114.009 108.92 114.129 109.34C114.249 109.82 117.129 112.28 119.529 112.64C120.849 111.98 122.169 111.44 124.269 111.44H141.369L140.949 117.38H119.469C117.729 117.02 115.509 116.84 114.489 116.84C114.009 116.84 113.469 117.98 113.529 118.34C114.669 118.76 116.649 119.66 116.649 120.32L116.769 123.86C116.889 127.34 117.849 128.9 122.349 128.9H141.189C144.309 128.9 147.609 128.96 148.269 128.96C148.749 128.96 148.989 128.78 148.989 128.48C148.989 127.22 145.869 124.46 145.149 124.46ZM187.687 99.08C195.787 99.08 201.187 94.88 201.187 88.58C201.187 82.76 196.507 78.68 189.367 78.14C189.607 77.48 189.967 76.7 189.967 76.4C189.967 75.68 185.467 74.3 185.467 75.68C186.307 76.28 186.487 76.94 186.487 77.54C186.487 77.72 186.427 77.9 186.367 78.14C178.927 78.56 174.127 82.64 174.127 88.58C174.127 94.88 179.527 99.08 187.687 99.08ZM187.567 80.78C193.207 80.78 196.867 83.84 196.867 88.4C196.867 93.02 193.147 96.14 187.447 96.14C181.987 96.14 178.447 93.02 178.447 88.4C178.447 83.84 182.047 80.78 187.567 80.78ZM209.827 102.98C209.407 102.98 205.807 105.08 204.607 105.08H170.767C166.867 105.08 162.787 105.02 161.647 104.72C161.407 104.66 161.107 105.44 161.167 105.62C161.407 106.28 164.407 108.68 166.807 109.1C168.067 108.56 169.447 107.84 170.947 107.84H176.467V114.2C176.467 122.3 176.647 127.4 176.827 129.08C177.607 129.26 178.807 129.02 179.347 128.42C179.767 125.96 180.427 120.44 180.427 112.7V107.84H194.347V115.4C194.347 123.5 194.527 128.6 194.707 130.28C195.487 130.46 196.687 130.22 197.227 129.62C197.647 127.16 198.307 121.64 198.307 113.9V107.84H213.307C213.787 107.84 214.027 107.66 214.027 107.36C214.027 106.04 210.547 102.98 209.827 102.98ZM240.664 119.36C235.264 118.76 233.464 118.4 233.464 115.1V88.28L234.064 81.38L233.464 81.14L220.084 89.18L220.804 90.5L229.264 87.44V115.1C229.264 118.4 227.644 118.7 221.524 119.36C221.344 119.9 221.284 120.86 221.284 121.4H240.904C240.904 120.86 240.844 119.9 240.664 119.36ZM260.692 80.48C253.072 80.48 247.192 86.84 247.192 94.58C247.192 100.34 251.092 105.92 258.832 105.92C260.812 105.92 264.472 105.14 266.692 102.8L265.852 101.66C264.412 102.68 262.672 103.28 260.452 103.28C254.632 103.28 251.572 99.56 251.572 93.92C251.572 86.72 255.652 82.58 260.332 82.58C265.972 82.58 269.932 88.34 269.932 95.96C269.932 106.82 263.992 117.32 250.732 120.62C250.732 121.16 251.272 122.18 251.872 122.6C267.652 119.96 274.612 107.54 274.612 96.74C274.612 86.42 268.552 80.48 260.692 80.48ZM307.072 119.66C302.452 118.82 301.252 118.64 301.252 116.6V109.52H307.732C308.212 109.52 308.752 107 308.392 107H301.312V91.52C300.112 91.58 298.012 93.26 297.232 94.34V107H282.472L303.472 80.84C303.232 79.82 299.752 79.22 298.732 79.4L278.812 108.32V109.58L297.292 109.52V116.6C297.292 118.64 296.032 118.82 291.472 119.66C291.232 120.2 291.172 120.8 291.232 121.4H307.252C307.312 120.8 307.252 120.2 307.072 119.66ZM324.753 94.46C322.653 94.46 319.953 95 317.433 96.38L319.593 85.46H335.673C336.333 84.98 337.053 82.58 336.873 81.56L317.973 81.62L314.133 100.64L314.733 100.88C317.733 98.48 320.613 97.22 324.093 97.22C329.493 97.22 333.513 101.3 333.513 108.5C333.513 114.92 329.613 120.02 324.333 120.02C318.753 120.02 316.593 115.58 315.753 113C314.313 113.24 312.513 116.06 312.693 117.44C314.373 120.44 318.693 122.3 323.313 122.3C331.953 122.3 338.433 115.64 338.433 107.36C338.433 99.74 332.733 94.46 324.753 94.46ZM382.753 74.12C382.213 74.12 381.133 75.26 381.493 75.44C382.933 76.16 386.713 78.26 386.713 78.92V114.74C386.713 123.44 386.893 128.66 387.133 130.34C387.853 130.52 389.053 130.16 389.593 129.56C390.013 127.1 390.673 121.58 390.673 113.24V79.58C390.673 78.38 390.793 77.24 390.913 76.34C391.033 75.5 384.613 74.12 382.753 74.12ZM373.813 77.6C373.273 77.6 372.193 78.74 372.553 78.92C373.993 79.64 376.513 81.08 376.513 81.74V99.8H374.173C370.273 99.8 368.713 99.62 366.553 99.62C366.373 99.62 366.013 100.4 366.253 100.64C366.613 101 368.713 103.28 370.213 103.64C371.533 102.98 372.853 102.44 374.953 102.44H376.513V111.92C376.513 119.42 376.693 124.64 376.933 126.32C377.653 126.5 378.853 126.14 379.393 125.54C379.813 123.08 380.473 117.56 380.473 110.42V83.24C380.473 82.04 380.593 80.9 380.713 80C380.833 79.16 375.673 77.6 373.813 77.6ZM365.353 85.4C366.493 85.4 365.113 82.64 364.513 82.58L357.673 82.16C354.793 81.98 352.633 81.5 350.353 81.02C350.053 80.96 349.633 82.04 349.753 82.16C350.113 82.52 353.893 85.4 355.693 85.4H365.353ZM361.453 102.2C364.393 98.78 367.273 95 369.793 91.1C370.333 90.26 367.093 89.3 365.713 89.24C364.993 89.9 363.973 90.44 361.813 90.44H355.273C351.373 90.44 347.293 90.38 346.153 90.08C345.913 90.02 345.613 90.8 345.673 90.98C345.913 91.64 348.913 94.04 351.313 94.46C352.573 93.92 353.953 93.2 355.453 93.2H363.673C359.833 99.38 350.713 110.3 342.853 115.28C342.913 116.06 343.693 116.78 344.413 117.2C348.133 115.34 354.013 110.42 359.833 104C363.133 108.08 366.613 112.76 368.833 115.82C369.493 116.72 371.293 112.04 370.393 110.84C369.073 109.1 365.113 105.74 361.453 102.2ZM212.817 166.48C211.537 172.52 210.017 173 205.097 173H198.897V161.92H202.257C205.777 161.92 206.057 162.24 206.937 165.72H207.977V156.52H206.777C205.937 159.96 205.777 160.32 202.257 160.32H198.897V149.8H206.057C210.017 149.8 210.297 150.48 211.697 155.44H212.817L212.457 147.8L208.177 148.2H192.337C192.257 148.8 192.257 149.04 192.337 149.64C195.457 150.04 195.937 150.32 195.937 151.24V171.56C195.937 172.48 195.457 172.76 192.337 173.16C192.257 173.76 192.257 174 192.337 174.6H213.177L214.017 166.48C213.617 166.4 213.217 166.4 212.817 166.48ZM234.672 172.44C233.952 172.12 233.752 172 233.752 171.16V155.6C233.752 155.36 233.552 155.28 233.312 155.36L228.232 156.84C228.152 157.08 228.152 157.52 228.232 157.72L230.192 158.36C230.952 158.6 231.112 158.8 231.112 159.64V170.04C229.992 171.24 227.392 172.52 225.272 172.52C222.992 172.52 221.832 171.2 221.832 168.4V155.6C221.832 155.36 221.632 155.28 221.392 155.36L216.312 156.84C216.232 157.08 216.232 157.52 216.312 157.72L218.272 158.36C219.032 158.6 219.192 158.8 219.192 159.64V168.32C219.192 171.88 220.312 175 224.192 175C226.912 175 229.912 173.04 231.112 171.48V175H231.672L236.512 173.76V173.28L234.672 172.44ZM246.973 173.28C244.773 172.88 244.573 172.8 244.573 172.12V146.4C244.573 146.16 244.373 146.08 244.133 146.16L239.053 147.64C238.973 147.88 238.973 148.32 239.053 148.52L241.013 149.16C241.773 149.4 241.933 149.6 241.933 150.44V172.12C241.933 172.8 241.733 172.88 239.533 173.28C239.333 173.64 239.293 174.24 239.333 174.6H247.173C247.213 174.16 247.173 173.64 246.973 173.28ZM261.569 155.8C261.489 156.24 261.489 156.68 261.769 157.12C263.689 157.44 264.129 157.64 264.129 158.04C264.129 158.2 264.049 158.44 263.969 158.64L259.009 171.2L253.849 158.64C253.769 158.44 253.689 158.2 253.689 158.04C253.689 157.64 253.929 157.6 256.209 157.12C256.609 156.68 256.609 156.24 256.529 155.8H248.329C248.249 156.24 248.249 156.68 248.649 157.12C250.209 157.52 250.449 157.64 250.729 158.28L257.649 174.64C255.729 179.36 254.009 181.2 249.969 179.04C249.329 179.4 248.569 181 248.529 181.8C249.209 182.16 250.129 182.4 250.969 182.4C254.889 182.4 257.249 179.8 259.049 175.36L266.009 158.28C266.289 157.64 266.489 157.52 268.049 157.12C268.449 156.68 268.449 156.24 268.369 155.8H261.569ZM269.415 165.2C269.415 171.08 272.895 175 278.135 175C283.375 175 286.855 171.08 286.855 165.2C286.855 159.32 283.375 155.4 278.135 155.4C272.895 155.4 269.415 159.32 269.415 165.2ZM278.695 173.4C274.895 173.4 272.375 169.64 272.375 163.96C272.375 159.8 274.575 157 277.895 157C281.535 157 283.935 160.64 283.935 166.08C283.935 170.48 281.855 173.4 278.695 173.4ZM290.079 165.2C290.079 171.08 293.559 175 298.799 175C304.039 175 307.519 171.08 307.519 165.2C307.519 159.32 304.039 155.4 298.799 155.4C293.559 155.4 290.079 159.32 290.079 165.2ZM299.359 173.4C295.559 173.4 293.039 169.64 293.039 163.96C293.039 159.8 295.239 157 298.559 157C302.199 157 304.599 160.64 304.599 166.08C304.599 170.48 302.519 173.4 299.359 173.4Z" fill="black"/>
</svg>
