<svg width="500" height="250" viewBox="0 0 500 250" fill="none" xmlns="http://www.w3.org/2000/svg">
<rect width="500" height="250" fill="white"/>
<path d="M121.535 76V127.24H127.475V76H121.535ZM101.555 83.32H114.695V77.86H81.9955V83.32H95.5555C95.3155 102.34 89.9155 116.62 80.7955 118.3V124.18C88.5355 123.28 94.6555 116.92 98.1955 106.18L111.995 123.76L116.675 120.22L99.9355 99.52C100.895 94.72 101.495 89.26 101.555 83.32ZM190.95 96.76H183.75V76H177.81V127.24H183.75V102.46H190.95V96.76ZM139.77 124.18H168.27V77.86H139.77V124.18ZM145.71 83.38H162.33V118.66H145.71V83.38ZM244.345 76H238.705V112.48H244.345V76ZM216.925 94.66H225.745V104.62H231.325V76.3H225.745V89.2H217.945C218.005 88.54 218.005 87.82 218.005 87.1V77.26H196.105V82.3H212.365V87.16C212.365 88 212.305 88.84 212.245 89.62H196.105V94.6H211.165C208.945 100.72 203.545 103.36 196.105 103.42V108.58C205.885 108.58 214.105 103.96 216.925 94.66ZM245.965 122.02L224.425 112.96C225.565 111.16 226.405 109.12 227.005 106.9L220.945 105.58C218.425 115.18 208.765 121 197.845 121V126.58C206.785 126.58 215.545 123.28 221.245 117.16L243.865 127.18L245.965 122.02ZM299.18 87.64V76H293.24V114.04H299.18V93.34H306.38V87.64H299.18ZM269.96 94.24L284.9 105.76L288.5 101.5L272.3 89.26C273.68 85.42 274.4 81.22 274.4 76.84L268.46 76.48C268.34 88.42 262.64 98.98 252.92 100.72V106.3C260.36 105.34 266.24 100.72 269.96 94.24ZM262.34 110.26H256.34V126.58H300.56V121.18H262.34V110.26ZM335.415 93.22L357.315 108.4L360.555 103.66L337.995 88.48C339.675 85.06 340.875 81.28 341.595 77.32L335.475 76.24C332.835 90.58 322.635 102.58 311.535 102.58V108.22C320.955 108.22 329.655 102.28 335.415 93.22ZM310.515 119.2V124.78H361.695V119.2H310.515ZM384.19 89.02H393.49V83.62H384.19V75.88H378.49V83.62H369.01V89.02H378.49C378.25 105.46 375.13 117.04 368.47 118.54V124.18C375.01 123.22 379.51 117.76 381.97 108.28L391.03 123.64L395.77 120.82L383.41 100.42C383.89 97 384.13 93.16 384.19 89.02ZM411.85 76V127.24H417.49V76H411.85ZM398.59 96.76H391.45V102.34H398.59V126.34H404.23V76.3H398.59V96.76ZM111.58 177.04C120.94 177.04 128.14 170.4 128.14 160.96V159.52H110.9V163.16H123.66C123.18 168.96 118.3 173.28 111.74 173.28C104.26 173.28 98.9803 167.84 98.9803 160.28C98.9803 152.76 104.26 147.36 111.66 147.36C117.14 147.36 121.66 150.36 122.98 154.4H127.54C125.86 148.28 119.74 143.52 111.58 143.52C101.78 143.52 94.7803 150.6 94.7803 160.28C94.7803 169.96 101.78 177.04 111.58 177.04ZM133.287 153.44V176.32H137.407V163.96C137.407 159.84 139.927 156.48 143.327 156.48C146.527 156.48 148.567 158.96 148.567 163.24V176.32H152.687V164C152.687 159.84 155.167 156.48 158.607 156.48C161.847 156.48 163.847 158.96 163.847 163.08V176.32H167.967V162.4C167.967 156.6 164.447 152.88 159.567 152.88C155.687 152.88 152.807 154.8 151.447 157.68C150.327 154.76 147.727 152.88 144.327 152.88C140.487 152.88 138.447 155 137.407 156.68V153.44H133.287ZM183.954 176.88C188.114 176.88 190.914 174.88 192.074 172.92V176.32H196.194V153.44H192.074V156.84C190.914 154.88 188.114 152.88 183.954 152.88C177.474 152.88 172.634 158.04 172.634 164.88C172.634 171.72 177.474 176.88 183.954 176.88ZM184.314 173.24C179.714 173.24 176.674 169.64 176.674 164.88C176.674 160.12 179.714 156.52 184.314 156.52C188.954 156.52 192.154 160.12 192.154 164.88C192.154 169.64 188.954 173.24 184.314 173.24ZM202.662 153.44V176.32H206.782V164.48C206.782 160.32 210.062 156.56 214.742 156.56C216.142 156.56 217.262 156.8 218.142 157.2V153.28C217.342 153 216.422 152.88 215.022 152.88C210.542 152.88 207.782 155.24 206.782 156.96V153.44H202.662ZM238.432 176.32H243.312L233.232 163.08L242.352 153.44H237.512L226.112 165.68V143.28H221.992V176.32H226.112V170.6L230.632 165.84L238.432 176.32ZM255.676 176.88C260.916 176.88 265.036 174.04 266.276 170.08H262.076C261.236 171.96 258.796 173.4 255.676 173.4C251.596 173.4 248.756 170.48 248.316 166.56H267.036C267.116 166 267.116 165.4 267.116 164.88C267.116 158 262.356 152.88 255.676 152.88C248.996 152.88 244.196 158 244.196 164.88C244.196 171.76 248.996 176.88 255.676 176.88ZM263.076 163.2H248.316C248.756 159.24 251.556 156.36 255.676 156.36C259.796 156.36 262.596 159.2 263.076 163.2ZM283.607 153.44H278.527V146.48H274.407V153.44H269.327V157.08H274.407V176.32H278.527V157.08H283.607V153.44ZM311.068 143.52C303.988 143.52 298.748 146.76 298.748 152.08C298.748 157.4 302.428 160 309.668 161.52C316.628 163 319.548 164.44 319.548 168C319.548 171.2 316.148 173.4 311.348 173.4C305.988 173.4 302.508 170.64 302.068 166.76H297.748C298.188 172.96 303.588 177.04 311.068 177.04C318.188 177.04 323.828 173.52 323.828 167.76C323.828 163 320.668 159.96 312.788 158.28C305.948 156.84 302.988 155.4 302.988 152.08C302.988 149.2 305.828 147.12 310.868 147.12C315.868 147.12 318.948 149.72 319.388 153.12H323.708C323.308 147.52 318.108 143.52 311.068 143.52ZM339.071 176.88C343.231 176.88 346.031 174.88 347.191 172.92V176.32H351.311V153.44H347.191V156.84C346.031 154.88 343.231 152.88 339.071 152.88C332.591 152.88 327.751 158.04 327.751 164.88C327.751 171.72 332.591 176.88 339.071 176.88ZM339.431 173.24C334.831 173.24 331.791 169.64 331.791 164.88C331.791 160.12 334.831 156.52 339.431 156.52C344.071 156.52 347.271 160.12 347.271 164.88C347.271 169.64 344.071 173.24 339.431 173.24ZM357.779 153.44V176.32H361.899V164.48C361.899 160.24 364.779 156.48 368.779 156.48C372.499 156.48 374.739 159 374.739 163.64V176.32H378.859V162.92C378.859 156.76 375.059 152.88 369.659 152.88C365.459 152.88 362.859 155.24 361.899 156.92V153.44H357.779ZM393.693 152.88C388.093 152.88 383.813 155.48 383.813 159.52C383.813 163.52 386.693 165.52 392.933 166.36C398.413 167.08 400.173 168.16 400.173 170.04C400.173 172.08 397.493 173.52 393.973 173.52C389.893 173.52 387.813 171.72 387.573 169.92H383.533C383.813 173.92 387.733 176.88 393.853 176.88C399.533 176.88 404.213 174.24 404.213 169.8C404.213 166.24 401.773 164 394.893 163.08C389.293 162.32 387.853 161.16 387.853 159.28C387.853 157.56 390.253 156.24 393.573 156.24C396.893 156.24 399.493 157.6 399.653 159.52H403.693C403.493 155.64 399.293 152.88 393.693 152.88Z" fill="black"/>
</svg>
