<svg width="500" height="250" viewBox="0 0 500 250" fill="none" xmlns="http://www.w3.org/2000/svg">
<rect width="500" height="250" fill="white"/>
<path d="M181.868 89.2C183.228 89.2 184.588 89.22 185.948 89.26C187.308 89.26 188.668 89.28 190.028 89.32H190.808L192.368 89.44H193.148C193.908 89.44 194.588 89.16 195.188 88.6C195.828 88.04 196.148 87.36 196.148 86.56C196.148 85.96 196.028 85.52 195.788 85.24C195.548 84.92 195.228 84.68 194.828 84.52C194.468 84.36 194.048 84.26 193.568 84.22C193.128 84.18 192.688 84.16 192.248 84.16C191.048 84.12 189.828 84.08 188.588 84.04C187.388 84 186.188 83.98 184.988 83.98C184.948 83.42 184.908 82.86 184.868 82.3C184.828 81.7 184.788 81.1 184.748 80.5C184.708 79.94 184.688 79.28 184.688 78.52C184.688 77.72 184.628 77.04 184.508 76.48C184.348 75.92 184.028 75.48 183.548 75.16C183.108 74.84 182.608 74.68 182.048 74.68C181.248 74.68 180.528 74.96 179.888 75.52C179.288 76.08 178.988 76.76 178.988 77.56C178.988 78.44 179.008 79.32 179.048 80.2C179.128 81.08 179.208 81.96 179.288 82.84C179.288 83 179.288 83.18 179.288 83.38C179.328 83.58 179.348 83.78 179.348 83.98H171.548C170.708 83.98 169.928 84.24 169.208 84.76C168.528 85.24 168.188 85.94 168.188 86.86C168.188 87.46 168.308 87.94 168.548 88.3C168.828 88.62 169.148 88.86 169.508 89.02C169.908 89.14 170.348 89.22 170.828 89.26C171.308 89.26 171.768 89.26 172.208 89.26L175.088 89.2H181.868ZM214.748 129.16C215.508 129.16 216.188 128.88 216.788 128.32C217.428 127.76 217.748 127.08 217.748 126.28C217.748 123.64 217.708 121.04 217.628 118.48C217.548 115.88 217.468 113.28 217.388 110.68C217.228 105.4 217.068 100.16 216.908 94.96C216.748 89.72 216.608 84.48 216.488 79.24C216.448 78.4 216.268 77.68 215.948 77.08C215.668 76.48 215.008 76.18 213.968 76.18C213.168 76.18 212.448 76.46 211.808 77.02C211.208 77.58 210.908 78.26 210.908 79.06C210.908 79.9 210.928 80.74 210.968 81.58C211.008 82.42 211.048 83.28 211.088 84.16L211.388 94.42C211.428 95.34 211.448 96.24 211.448 97.12C211.448 98 211.468 98.9 211.508 99.82L211.868 110.56C211.908 111.48 211.928 112.38 211.928 113.26C211.928 114.14 211.948 115.04 211.988 115.96C212.028 117.64 212.048 119.32 212.048 121C212.088 122.72 212.148 124.44 212.228 126.16C212.268 127.04 212.448 127.76 212.768 128.32C213.088 128.88 213.748 129.16 214.748 129.16ZM201.368 79.12C201.368 81.52 201.368 83.88 201.368 86.2C201.408 88.52 201.428 90.88 201.428 93.28C201.068 93.36 200.708 93.42 200.348 93.46C199.988 93.5 199.628 93.54 199.268 93.58L196.808 93.88C196.488 93.92 196.148 93.96 195.788 94C195.468 94.04 195.148 94.1 194.828 94.18C194.268 94.38 193.768 94.72 193.328 95.2C192.888 95.68 192.668 96.24 192.668 96.88C192.668 97.6 192.908 98.18 193.388 98.62C193.908 99.06 194.508 99.28 195.188 99.28C195.988 99.28 196.768 99.22 197.528 99.1C198.328 98.94 199.128 98.82 199.928 98.74L201.428 98.56C201.428 100.36 201.428 102.16 201.428 103.96C201.468 105.76 201.488 107.56 201.488 109.36L201.248 109.42H200.348L197.948 109.48C197.188 109.52 196.508 109.6 195.908 109.72C195.308 109.8 194.788 110.18 194.348 110.86C194.028 111.38 193.868 111.9 193.868 112.42C193.868 113.1 194.108 113.66 194.588 114.1C195.108 114.54 195.708 114.76 196.388 114.76C197.108 114.76 197.828 114.76 198.548 114.76C199.268 114.72 200.008 114.68 200.768 114.64H201.548V124.78C201.548 125.58 201.748 126.22 202.148 126.7C202.548 127.22 203.188 127.48 204.068 127.48C204.828 127.48 205.508 127.2 206.108 126.64C206.748 126.08 207.068 125.4 207.068 124.6C207.068 116.96 207.048 109.36 207.008 101.8C206.968 94.24 206.948 86.62 206.948 78.94C206.948 78.14 206.728 77.5 206.288 77.02C205.888 76.5 205.248 76.24 204.368 76.24C203.608 76.24 202.908 76.52 202.268 77.08C201.668 77.64 201.368 78.32 201.368 79.12ZM170.228 106.48C170.228 108.36 170.368 110.32 170.648 112.36C170.928 114.4 171.468 116.26 172.268 117.94C173.068 119.62 174.188 121 175.628 122.08C177.108 123.2 179.048 123.76 181.448 123.76C183.608 123.76 185.428 123.2 186.908 122.08C188.388 121 189.568 119.64 190.448 118C191.368 116.32 192.008 114.5 192.368 112.54C192.768 110.54 192.968 108.64 192.968 106.84C192.968 105.76 192.868 104.56 192.668 103.24C192.508 101.92 192.228 100.74 191.828 99.7C190.828 97.14 189.308 95.06 187.268 93.46C185.228 91.86 182.808 91.06 180.008 91.06C178.168 91.06 176.608 91.6 175.328 92.68C174.088 93.72 173.088 95.02 172.328 96.58C171.568 98.14 171.028 99.82 170.708 101.62C170.388 103.42 170.228 105.04 170.228 106.48ZM179.528 96.34C181.208 96.34 182.668 96.9 183.908 98.02C185.148 99.1 186.048 100.4 186.608 101.92C186.888 102.72 187.088 103.64 187.208 104.68C187.368 105.68 187.448 106.6 187.448 107.44C187.448 108.28 187.368 109.34 187.208 110.62C187.088 111.86 186.808 113.08 186.368 114.28C185.968 115.44 185.408 116.44 184.688 117.28C183.968 118.12 183.048 118.54 181.928 118.54C180.448 118.54 179.228 118.02 178.268 116.98C177.788 116.46 177.388 115.72 177.068 114.76C176.748 113.8 176.488 112.8 176.288 111.76C176.088 110.72 175.948 109.68 175.868 108.64C175.788 107.6 175.748 106.72 175.748 106C175.748 105.36 175.788 104.64 175.868 103.84C175.948 103.04 176.068 102.24 176.228 101.44C176.428 100.64 176.668 99.88 176.948 99.16C177.228 98.44 177.588 97.82 178.028 97.3C178.228 97.02 178.428 96.8 178.628 96.64C178.868 96.44 179.168 96.34 179.528 96.34ZM265.189 93.82V97.42L265.369 106.36V109.96C265.369 110.68 265.609 111.26 266.089 111.7C266.609 112.14 267.209 112.36 267.889 112.36C268.969 112.36 269.749 112 270.229 111.28C270.709 110.52 270.949 109.66 270.949 108.7C270.949 107.78 270.929 106.78 270.889 105.7C270.889 104.58 270.869 103.46 270.829 102.34C270.829 101.18 270.809 100.06 270.769 98.98C270.729 97.86 270.709 96.84 270.709 95.92V88.42C270.709 87.94 270.689 87.1 270.649 85.9C270.649 84.7 270.609 83.46 270.529 82.18C270.449 80.9 270.349 79.72 270.229 78.64C270.109 77.52 269.969 76.82 269.809 76.54C269.329 75.74 268.589 75.34 267.589 75.34C266.789 75.34 266.089 75.62 265.489 76.18C264.889 76.74 264.589 77.42 264.589 78.22C264.589 78.58 264.609 78.94 264.649 79.3C264.689 79.66 264.729 80.02 264.769 80.38C264.849 81.02 264.909 81.64 264.949 82.24C264.989 82.84 265.029 83.46 265.069 84.1C265.149 85.74 265.189 87.36 265.189 88.96C265.189 90.56 265.189 92.18 265.189 93.82ZM240.289 129.64C240.969 129.64 241.669 129.62 242.389 129.58C243.109 129.58 243.809 129.56 244.489 129.52C245.409 129.48 246.309 129.46 247.189 129.46C248.069 129.46 248.969 129.46 249.889 129.46H254.689L264.229 129.64H268.969C269.769 129.64 270.469 129.36 271.069 128.8C271.669 128.24 271.969 127.56 271.969 126.76C271.969 126.08 271.789 125.56 271.429 125.2C271.109 124.88 270.689 124.64 270.169 124.48C269.689 124.36 269.169 124.3 268.609 124.3C268.049 124.3 267.529 124.3 267.049 124.3H266.269L264.649 124.36H260.809L254.689 124.24H251.689C250.529 124.24 249.409 124.24 248.329 124.24C247.249 124.24 246.129 124.26 244.969 124.3C244.289 124.3 243.609 124.32 242.929 124.36C242.249 124.4 241.569 124.42 240.889 124.42C240.769 124.42 240.629 124.42 240.469 124.42C240.309 124.42 240.169 124.38 240.049 124.3C239.729 124.14 239.489 123.46 239.329 122.26C239.169 121.06 239.049 119.74 238.969 118.3C238.889 116.82 238.829 115.42 238.789 114.1C238.749 112.78 238.669 111.9 238.549 111.46C238.429 110.9 238.129 110.46 237.649 110.14C237.169 109.78 236.649 109.6 236.089 109.6C235.289 109.6 234.589 109.88 233.989 110.44C233.389 111 233.089 111.68 233.089 112.48C233.089 113.72 233.129 114.92 233.209 116.08C233.289 117.24 233.369 118.38 233.449 119.5C233.529 120.66 233.629 121.84 233.749 123.04C233.869 124.24 234.149 125.32 234.589 126.28C235.029 127.28 235.689 128.08 236.569 128.68C237.449 129.32 238.689 129.64 240.289 129.64ZM231.949 77.02C230.269 77.02 228.949 77.48 227.989 78.4C227.069 79.28 226.609 80.56 226.609 82.24C226.609 83.04 226.629 83.82 226.669 84.58C226.749 85.34 226.809 86.12 226.849 86.92C227.009 89.28 227.169 91.62 227.329 93.94C227.489 96.26 227.669 98.6 227.869 100.96C227.909 101.76 228.029 102.38 228.229 102.82C228.429 103.22 228.709 103.52 229.069 103.72C229.429 103.88 229.849 103.98 230.329 104.02C230.849 104.02 231.449 104.04 232.129 104.08C235.169 104.2 238.229 104.26 241.309 104.26C243.109 104.26 244.709 104.2 246.109 104.08C247.509 103.96 248.669 103.62 249.589 103.06C250.549 102.5 251.269 101.64 251.749 100.48C252.229 99.28 252.469 97.62 252.469 95.5V93.94C252.469 93.18 252.449 92.16 252.409 90.88C252.409 89.56 252.369 88.22 252.289 86.86C252.249 85.5 252.129 84.22 251.929 83.02C251.769 81.78 251.549 80.84 251.269 80.2C250.669 78.96 249.769 78.12 248.569 77.68C247.929 77.4 247.069 77.26 245.989 77.26C244.949 77.26 244.069 77.26 243.349 77.26C241.429 77.26 239.529 77.22 237.649 77.14C235.769 77.06 233.869 77.02 231.949 77.02ZM246.049 82.6V82.54C246.249 83.1 246.389 83.82 246.469 84.7C246.589 85.58 246.669 86.5 246.709 87.46C246.789 88.42 246.829 89.38 246.829 90.34C246.869 91.26 246.889 92.02 246.889 92.62C246.889 92.98 246.889 93.44 246.889 94C246.889 94.56 246.889 95.16 246.889 95.8C246.889 96.4 246.869 96.98 246.829 97.54C246.829 98.1 246.789 98.52 246.709 98.8C246.149 98.92 245.549 98.98 244.909 98.98C244.309 98.98 243.729 98.98 243.169 98.98C241.489 98.98 239.829 98.98 238.189 98.98C236.589 98.94 234.949 98.9 233.269 98.86C233.069 96.1 232.849 93.34 232.609 90.58C232.409 87.82 232.269 85.06 232.189 82.3C233.349 82.3 234.509 82.32 235.669 82.36C236.829 82.36 237.989 82.38 239.149 82.42L246.049 82.6ZM300.931 90.1C300.451 92.34 299.831 94.56 299.071 96.76C298.311 98.92 297.291 100.96 296.011 102.88C295.371 103.84 294.611 104.82 293.731 105.82C292.891 106.82 291.991 107.8 291.031 108.76C290.071 109.72 289.091 110.66 288.091 111.58C287.131 112.46 286.211 113.28 285.331 114.04C285.011 114.28 284.711 114.52 284.431 114.76C284.151 115 283.851 115.22 283.531 115.42C283.211 115.62 282.891 115.82 282.571 116.02C282.291 116.22 282.011 116.46 281.731 116.74C281.211 117.26 280.951 117.9 280.951 118.66C280.951 119.34 281.191 119.9 281.671 120.34C282.191 120.78 282.791 121 283.471 121C284.111 121 284.971 120.62 286.051 119.86C287.171 119.1 288.311 118.22 289.471 117.22C290.631 116.22 291.731 115.22 292.771 114.22C293.811 113.22 294.571 112.46 295.051 111.94C295.331 111.62 295.611 111.34 295.891 111.1C296.171 110.82 296.431 110.54 296.671 110.26C297.191 111.18 297.691 112.1 298.171 113.02C298.651 113.9 299.111 114.8 299.551 115.72C299.671 116 299.851 116.42 300.091 116.98C300.331 117.5 300.571 118.04 300.811 118.6C301.051 119.16 301.271 119.68 301.471 120.16C301.711 120.64 301.891 120.96 302.011 121.12C302.531 121.72 303.211 122.02 304.051 122.02C304.811 122.02 305.491 121.74 306.091 121.18C306.731 120.66 307.051 120 307.051 119.2C307.051 118.84 306.791 118.08 306.271 116.92C305.791 115.72 305.211 114.42 304.531 113.02C303.851 111.58 303.131 110.16 302.371 108.76C301.651 107.36 301.031 106.26 300.511 105.46C301.671 103.78 302.631 102.02 303.391 100.18C304.191 98.34 304.931 96.2 305.611 93.76C305.891 92.8 306.171 91.78 306.451 90.7C306.731 89.62 306.871 88.58 306.871 87.58C306.871 86.54 306.511 85.8 305.791 85.36C305.111 84.92 304.311 84.7 303.391 84.7C302.711 84.7 302.011 84.74 301.291 84.82C300.611 84.9 299.931 84.98 299.251 85.06C298.931 85.1 298.631 85.12 298.351 85.12C298.111 85.12 297.831 85.14 297.511 85.18L297.571 83.14V81.7L297.631 78.76V77.32C297.631 76.6 297.371 76.02 296.851 75.58C296.371 75.14 295.791 74.92 295.111 74.92C294.511 74.92 293.971 75.1 293.491 75.46C292.771 75.9 292.351 76.42 292.231 77.02C292.151 77.58 292.111 78.24 292.111 79L292.051 81.64C292.011 82.28 291.971 82.92 291.931 83.56C291.931 84.16 291.931 84.78 291.931 85.42C291.491 85.46 291.031 85.48 290.551 85.48C290.111 85.48 289.671 85.5 289.231 85.54C288.471 85.58 287.711 85.6 286.951 85.6C286.191 85.6 285.451 85.64 284.731 85.72C284.331 85.8 284.051 85.88 283.891 85.96C283.371 86.2 282.931 86.56 282.571 87.04C282.211 87.48 282.031 88 282.031 88.6C282.031 89.28 282.271 89.84 282.751 90.28C283.271 90.72 283.871 90.94 284.551 90.94C286.031 90.94 287.491 90.9 288.931 90.82C290.411 90.74 291.871 90.66 293.311 90.58C294.591 90.5 295.851 90.46 297.091 90.46C298.371 90.42 299.651 90.3 300.931 90.1ZM326.311 129.16C327.071 129.16 327.751 128.88 328.351 128.32C328.991 127.76 329.311 127.08 329.311 126.28C329.311 123.64 329.271 121.04 329.191 118.48C329.111 115.88 329.031 113.28 328.951 110.68C328.791 105.4 328.611 100.16 328.411 94.96C328.251 89.72 328.111 84.48 327.991 79.24C327.951 78.4 327.771 77.68 327.451 77.08C327.131 76.48 326.451 76.18 325.411 76.18C324.651 76.18 323.951 76.46 323.311 77.02C322.711 77.58 322.411 78.26 322.411 79.06C322.411 79.9 322.431 80.74 322.471 81.58C322.511 82.42 322.551 83.28 322.591 84.16L322.891 94.42C322.971 98.06 323.071 101.66 323.191 105.22C323.311 108.74 323.411 112.3 323.491 115.9C323.571 117.62 323.611 119.32 323.611 121C323.651 122.72 323.711 124.44 323.791 126.16C323.831 127.04 324.011 127.76 324.331 128.32C324.651 128.88 325.311 129.16 326.311 129.16ZM312.811 79.12C312.811 82.76 312.811 86.36 312.811 89.92C312.811 93.44 312.831 97.02 312.871 100.66C312.471 100.7 312.071 100.74 311.671 100.78C311.311 100.78 310.931 100.78 310.531 100.78C310.051 100.78 309.531 100.78 308.971 100.78C308.411 100.78 307.871 100.82 307.351 100.9C306.831 100.94 306.331 101.08 305.851 101.32C305.371 101.52 304.991 101.84 304.711 102.28C304.551 102.48 304.411 102.72 304.291 103C304.211 103.24 304.171 103.5 304.171 103.78C304.171 104.46 304.411 105.02 304.891 105.46C305.411 105.9 306.011 106.12 306.691 106.12C307.491 106.12 308.291 106.1 309.091 106.06C309.931 106.02 310.751 105.98 311.551 105.94H312.931C312.971 109.1 312.991 112.24 312.991 115.36C312.991 118.48 312.991 121.62 312.991 124.78C312.991 125.58 313.191 126.22 313.591 126.7C314.031 127.22 314.671 127.48 315.511 127.48C316.311 127.48 317.011 127.2 317.611 126.64C318.251 126.08 318.571 125.4 318.571 124.6C318.571 116.96 318.531 109.36 318.451 101.8C318.411 94.24 318.391 86.62 318.391 78.94C318.391 78.14 318.171 77.5 317.731 77.02C317.331 76.5 316.711 76.24 315.871 76.24C315.071 76.24 314.351 76.52 313.711 77.08C313.111 77.64 312.811 78.32 312.811 79.12ZM188.143 150.16C188.143 154.667 188.156 159.133 188.183 163.56C188.236 167.987 188.29 172.453 188.343 176.96L188.303 177.36C188.303 177.893 188.45 178.333 188.743 178.68C189.036 179.053 189.463 179.24 190.023 179.24C190.556 179.24 191.023 179.04 191.423 178.64C191.823 178.24 192.023 177.773 192.023 177.24C192.023 175.907 192.01 174.587 191.983 173.28C191.956 171.947 191.93 170.6 191.903 169.24C191.903 168.573 191.89 167.92 191.863 167.28C191.863 166.613 191.863 165.933 191.863 165.24C191.89 165.24 191.903 165.24 191.903 165.24C191.93 165.213 191.956 165.2 191.983 165.2L193.103 165.08L197.743 164.84L203.863 164.48C204.076 164.453 204.356 164.44 204.703 164.44C205.076 164.44 205.45 164.427 205.823 164.4C205.85 165.333 205.863 166.28 205.863 167.24C205.89 168.173 205.903 169.12 205.903 170.08C205.903 171.973 205.863 173.88 205.783 175.8C205.756 176.333 205.73 176.853 205.703 177.36C205.676 177.867 205.663 178.387 205.663 178.92C205.663 179.427 205.823 179.827 206.143 180.12C206.49 180.413 206.89 180.56 207.343 180.56C207.796 180.56 208.21 180.4 208.583 180.08C208.956 179.787 209.196 179.413 209.303 178.96C209.356 178.693 209.383 178.427 209.383 178.16C209.383 177.92 209.396 177.653 209.423 177.36C209.476 176.08 209.516 174.813 209.543 173.56C209.596 172.307 209.623 171.04 209.623 169.76C209.623 169.36 209.61 168.6 209.583 167.48C209.583 166.333 209.57 165.027 209.543 163.56C209.516 162.093 209.49 160.547 209.463 158.92C209.436 157.293 209.396 155.787 209.343 154.4C209.316 153.013 209.276 151.853 209.223 150.92C209.17 149.96 209.116 149.413 209.063 149.28C208.77 148.587 208.236 148.24 207.463 148.24C206.93 148.24 206.463 148.44 206.063 148.84C205.663 149.24 205.463 149.707 205.463 150.24C205.463 151.44 205.476 152.64 205.503 153.84C205.556 155.013 205.61 156.2 205.663 157.4C205.69 157.96 205.703 158.52 205.703 159.08C205.703 159.613 205.716 160.16 205.743 160.72C205.583 160.747 205.423 160.773 205.263 160.8C205.13 160.8 204.983 160.8 204.823 160.8L200.183 161.08L194.063 161.44C193.823 161.467 193.49 161.48 193.063 161.48C192.663 161.48 192.25 161.507 191.823 161.56V150C191.823 149.467 191.676 149.027 191.383 148.68C191.09 148.333 190.676 148.16 190.143 148.16C189.61 148.16 189.143 148.36 188.743 148.76C188.343 149.16 188.143 149.627 188.143 150.16ZM213.511 184.04L212.791 183.92H212.471C211.938 183.92 211.471 184.12 211.071 184.52C210.671 184.92 210.471 185.387 210.471 185.92C210.471 186.347 210.578 186.667 210.791 186.88C210.978 187.12 211.218 187.293 211.511 187.4C211.805 187.533 212.125 187.613 212.471 187.64C212.818 187.667 213.138 187.68 213.431 187.68C215.431 187.68 217.151 187.293 218.591 186.52C220.058 185.747 221.338 184.72 222.431 183.44C223.525 182.187 224.458 180.76 225.231 179.16C226.031 177.56 226.778 175.92 227.471 174.24C227.685 173.76 227.885 173.28 228.071 172.8C228.258 172.32 228.445 171.827 228.631 171.32L230.871 165.4C231.058 164.893 231.245 164.4 231.431 163.92C231.618 163.44 231.818 162.96 232.031 162.48C232.218 162.027 232.405 161.587 232.591 161.16C232.805 160.707 232.978 160.253 233.111 159.8C233.165 159.587 233.191 159.4 233.191 159.24C233.191 158.733 233.018 158.333 232.671 158.04C232.351 157.747 231.965 157.6 231.511 157.6C231.165 157.6 230.845 157.68 230.551 157.84C230.285 158 230.045 158.213 229.831 158.48C229.671 158.72 229.538 158.987 229.431 159.28C229.351 159.573 229.258 159.853 229.151 160.12C229.098 160.253 229.045 160.387 228.991 160.52C228.938 160.653 228.885 160.787 228.831 160.92L228.191 162.52C228.138 162.653 228.085 162.787 228.031 162.92C227.978 163.053 227.925 163.187 227.871 163.32L225.111 170.52C224.978 170.333 224.845 170.16 224.711 170C224.578 169.813 224.445 169.627 224.311 169.44C223.618 168.48 222.951 167.507 222.311 166.52C221.671 165.507 221.045 164.493 220.431 163.48C220.138 163 219.845 162.52 219.551 162.04C219.285 161.56 219.018 161.093 218.751 160.64C218.618 160.373 218.485 160.107 218.351 159.84C218.218 159.547 218.045 159.293 217.831 159.08C217.485 158.68 217.058 158.48 216.551 158.48C216.018 158.48 215.551 158.68 215.151 159.08C214.751 159.48 214.551 159.947 214.551 160.48C214.551 160.773 214.578 160.987 214.631 161.12C214.765 161.467 214.925 161.787 215.111 162.08C215.298 162.373 215.485 162.68 215.671 163C216.765 164.867 217.885 166.707 219.031 168.52C220.205 170.333 221.458 172.093 222.791 173.8C222.898 173.933 222.991 174.093 223.071 174.28C223.178 174.44 223.298 174.587 223.431 174.72C223.191 175.333 222.911 175.987 222.591 176.68C222.271 177.373 221.911 178.053 221.511 178.72C221.138 179.387 220.725 180.013 220.271 180.6C219.818 181.213 219.338 181.747 218.831 182.2C218.031 182.893 217.205 183.373 216.351 183.64C215.498 183.907 214.551 184.04 213.511 184.04ZM238.993 170.52H242.993L246.953 170.6H248.913C249.313 170.6 249.726 170.6 250.153 170.6C250.606 170.573 251.033 170.507 251.433 170.4C251.859 170.267 252.246 170.08 252.593 169.84C252.939 169.6 253.206 169.253 253.393 168.8C253.579 168.347 253.673 167.92 253.673 167.52C253.673 166.267 253.473 165.093 253.073 164C252.673 162.88 252.113 161.907 251.393 161.08C250.699 160.253 249.859 159.6 248.873 159.12C247.913 158.64 246.859 158.4 245.713 158.4C244.939 158.4 244.179 158.48 243.433 158.64C242.713 158.8 242.006 159.027 241.313 159.32C239.099 160.28 237.539 161.707 236.633 163.6C235.726 165.467 235.273 167.6 235.273 170C235.273 170.667 235.299 171.373 235.353 172.12C235.433 172.84 235.593 173.52 235.833 174.16C236.179 175.12 236.673 175.96 237.313 176.68C237.953 177.4 238.673 178.013 239.473 178.52C240.273 179.027 241.139 179.4 242.073 179.64C243.006 179.907 243.953 180.04 244.913 180.04C246.379 180.04 247.726 179.827 248.953 179.4C250.206 178.973 251.353 178.253 252.393 177.24C252.659 176.973 252.913 176.693 253.153 176.4C253.419 176.08 253.566 175.707 253.593 175.28C253.619 174.773 253.473 174.36 253.153 174.04C252.833 173.72 252.446 173.547 251.993 173.52C251.699 173.493 251.446 173.533 251.233 173.64C251.019 173.72 250.819 173.84 250.633 174C250.446 174.16 250.273 174.347 250.113 174.56C249.953 174.747 249.766 174.92 249.553 175.08C248.939 175.587 248.273 175.947 247.553 176.16C246.833 176.347 246.059 176.44 245.233 176.44C244.619 176.44 244.006 176.36 243.393 176.2C242.806 176.04 242.246 175.8 241.713 175.48C241.179 175.16 240.699 174.76 240.273 174.28C239.873 173.8 239.566 173.253 239.353 172.64C239.219 172.293 239.126 171.947 239.073 171.6C239.046 171.253 239.019 170.893 238.993 170.52ZM245.313 162.08C245.873 162.08 246.419 162.2 246.953 162.44C247.486 162.68 247.966 163.013 248.393 163.44C248.819 163.867 249.153 164.373 249.393 164.96C249.659 165.547 249.793 166.2 249.793 166.92H246.233L240.913 166.8H239.233C239.313 166.48 239.406 166.16 239.513 165.84C239.619 165.52 239.753 165.213 239.913 164.92C240.473 163.933 241.233 163.213 242.193 162.76C243.153 162.307 244.193 162.08 245.313 162.08ZM257.713 177.88C257.713 178.36 257.873 178.747 258.193 179.04C258.54 179.333 258.94 179.48 259.393 179.48C259.74 179.48 260.1 179.36 260.473 179.12C260.927 178.827 261.193 178.507 261.273 178.16C261.353 177.813 261.407 177.387 261.433 176.88V173.44C261.433 173.173 261.42 172.707 261.393 172.04C261.393 171.373 261.38 170.6 261.353 169.72C261.353 168.84 261.327 167.907 261.273 166.92C261.247 165.907 261.22 164.96 261.193 164.08C261.54 163.893 261.9 163.72 262.273 163.56C262.673 163.373 263.127 163.28 263.633 163.28C264.06 163.28 264.5 163.373 264.953 163.56C265.407 163.747 265.74 164.027 265.953 164.4C266.033 164.533 266.113 164.867 266.193 165.4C266.3 165.933 266.38 166.573 266.433 167.32C266.513 168.067 266.58 168.88 266.633 169.76C266.687 170.613 266.727 171.44 266.753 172.24C266.807 173.013 266.847 173.72 266.873 174.36C266.9 175 266.927 175.453 266.953 175.72C266.953 175.88 266.953 176.12 266.953 176.44C266.98 176.733 266.993 177.04 266.993 177.36C267.02 177.68 267.047 177.987 267.073 178.28C267.1 178.573 267.14 178.773 267.193 178.88C267.487 179.52 268.007 179.84 268.753 179.84C269.287 179.84 269.753 179.653 270.153 179.28C270.553 178.907 270.753 178.453 270.753 177.92C270.753 177.467 270.74 177.013 270.713 176.56C270.687 176.08 270.66 175.613 270.633 175.16C270.553 173.667 270.473 172.187 270.393 170.72C270.313 169.253 270.207 167.773 270.073 166.28C270.047 165.933 270.02 165.613 269.993 165.32C269.967 165 269.927 164.693 269.873 164.4C270.22 164.107 270.607 163.827 271.033 163.56C271.46 163.293 272.02 163.16 272.713 163.16C273.14 163.16 273.54 163.213 273.913 163.32C274.287 163.427 274.62 163.653 274.913 164C275.153 164.32 275.353 164.813 275.513 165.48C275.7 166.12 275.847 166.867 275.953 167.72C276.06 168.573 276.14 169.48 276.193 170.44C276.247 171.373 276.287 172.293 276.313 173.2C276.34 174.107 276.353 174.947 276.353 175.72C276.353 176.493 276.353 177.107 276.353 177.56C276.353 177.88 276.367 178.187 276.393 178.48C276.42 178.8 276.487 179.08 276.593 179.32C276.7 179.587 276.873 179.8 277.113 179.96C277.353 180.12 277.673 180.2 278.073 180.2C278.607 180.2 279.073 180.013 279.473 179.64C279.873 179.267 280.073 178.813 280.073 178.28C280.073 176.813 280.06 175.36 280.033 173.92C280.007 172.453 279.94 171 279.833 169.56C279.753 168.387 279.633 167.213 279.473 166.04C279.313 164.867 279.007 163.813 278.553 162.88C278.127 161.92 277.487 161.147 276.633 160.56C275.78 159.947 274.593 159.64 273.073 159.64C272.22 159.64 271.38 159.787 270.553 160.08C269.727 160.373 268.967 160.773 268.273 161.28C267.74 160.8 267.06 160.427 266.233 160.16C265.407 159.893 264.647 159.76 263.953 159.76C263.607 159.76 263.153 159.813 262.593 159.92C262.06 160.027 261.513 160.187 260.953 160.4C260.9 160.187 260.873 160.08 260.873 160.08C260.74 159.787 260.527 159.56 260.233 159.4C259.94 159.213 259.633 159.12 259.313 159.12C258.78 159.12 258.313 159.307 257.913 159.68C257.513 160.053 257.313 160.507 257.313 161.04C257.313 161.52 257.327 162 257.353 162.48C257.38 162.933 257.407 163.4 257.433 163.88L257.673 169.64C257.727 171.027 257.74 172.4 257.713 173.76C257.713 175.12 257.713 176.493 257.713 177.88ZM288.989 151.8C288.989 151.213 288.789 150.707 288.389 150.28C287.989 149.853 287.523 149.64 286.989 149.64C286.456 149.64 286.016 149.787 285.669 150.08C285.349 150.373 285.056 150.76 284.789 151.24C284.683 151.427 284.576 151.613 284.469 151.8C284.389 151.987 284.349 152.213 284.349 152.48C284.349 153.04 284.523 153.493 284.869 153.84C285.243 154.16 285.683 154.32 286.189 154.32C286.429 154.32 286.643 154.28 286.829 154.2C287.043 154.12 287.256 154.013 287.469 153.88C287.923 153.64 288.283 153.373 288.549 153.08C288.843 152.76 288.989 152.333 288.989 151.8ZM288.309 180.16C288.843 180.16 289.309 179.96 289.709 179.56C290.109 179.16 290.309 178.68 290.309 178.12C290.309 177.853 290.269 177.573 290.189 177.28C290.136 177.013 290.083 176.747 290.029 176.48C289.869 175.413 289.749 174.4 289.669 173.44C289.483 171.387 289.349 169.387 289.269 167.44C289.216 165.493 289.189 163.52 289.189 161.52C289.189 161.2 289.176 160.88 289.149 160.56C289.123 160.213 289.043 159.92 288.909 159.68C288.803 159.413 288.629 159.2 288.389 159.04C288.176 158.853 287.856 158.76 287.429 158.76C286.896 158.76 286.429 158.96 286.029 159.36C285.629 159.76 285.429 160.227 285.429 160.76C285.429 161.267 285.429 162.04 285.429 163.08C285.456 164.093 285.496 165.24 285.549 166.52C285.603 167.773 285.656 169.093 285.709 170.48C285.789 171.84 285.883 173.12 285.989 174.32C286.096 175.52 286.216 176.573 286.349 177.48C286.483 178.387 286.643 179 286.829 179.32C287.149 179.88 287.643 180.16 288.309 180.16ZM297.334 179.84C297.868 179.84 298.334 179.653 298.734 179.28C299.134 178.907 299.334 178.453 299.334 177.92C299.334 177.627 299.321 177.347 299.294 177.08C299.268 176.813 299.241 176.547 299.214 176.28C299.161 175.827 299.121 175.387 299.094 174.96C299.068 174.533 299.041 174.093 299.014 173.64C299.014 173.373 299.001 172.933 298.974 172.32C298.948 171.707 298.921 171 298.894 170.2C298.868 169.373 298.828 168.507 298.774 167.6C298.748 166.667 298.721 165.773 298.694 164.92C298.961 164.707 299.281 164.507 299.654 164.32C300.028 164.107 300.414 163.933 300.814 163.8C301.214 163.64 301.614 163.52 302.014 163.44C302.414 163.333 302.774 163.28 303.094 163.28C304.614 163.28 305.788 163.707 306.614 164.56C307.468 165.413 308.014 166.56 308.254 168C308.361 168.613 308.414 169.227 308.414 169.84C308.414 170.427 308.428 171.027 308.454 171.64C308.481 172.707 308.494 173.773 308.494 174.84C308.521 175.907 308.534 176.973 308.534 178.04C308.534 178.36 308.548 178.667 308.574 178.96C308.601 179.253 308.668 179.507 308.774 179.72C308.908 179.96 309.081 180.147 309.294 180.28C309.534 180.44 309.854 180.52 310.254 180.52C310.788 180.52 311.254 180.333 311.654 179.96C312.054 179.587 312.254 179.133 312.254 178.6C312.254 177.507 312.241 176.427 312.214 175.36C312.214 174.293 312.201 173.227 312.174 172.16C312.148 171.307 312.134 170.467 312.134 169.64C312.134 168.787 312.054 167.947 311.894 167.12C311.441 164.827 310.508 163.04 309.094 161.76C307.681 160.453 305.788 159.8 303.414 159.8C302.588 159.8 301.734 159.933 300.854 160.2C300.001 160.467 299.201 160.773 298.454 161.12C298.428 160.96 298.414 160.84 298.414 160.76C298.414 160.653 298.401 160.573 298.374 160.52C298.028 159.853 297.494 159.52 296.774 159.52C296.241 159.52 295.774 159.707 295.374 160.08C294.974 160.453 294.774 160.907 294.774 161.44C294.774 162.08 294.788 162.72 294.814 163.36C294.868 164 294.908 164.64 294.934 165.28C294.934 165.6 294.948 166.147 294.974 166.92C295.001 167.667 295.028 168.52 295.054 169.48C295.108 170.44 295.161 171.44 295.214 172.48C295.268 173.52 295.321 174.493 295.374 175.4C295.428 176.307 295.481 177.08 295.534 177.72C295.614 178.36 295.694 178.747 295.774 178.88C296.121 179.52 296.641 179.84 297.334 179.84Z" fill="black"/>
</svg>
