<svg width="500" height="250" viewBox="0 0 500 250" fill="none" xmlns="http://www.w3.org/2000/svg">
<rect width="500" height="250" fill="white"/>
<path d="M213.696 93.28C214.456 93.68 215.196 94.16 215.916 94.72C216.636 95.24 217.316 95.8 217.956 96.4C218.276 96.72 218.496 97.12 218.616 97.6C218.736 98.08 218.736 98.56 218.616 99.04C218.536 99.52 218.336 99.96 218.016 100.36C217.736 100.72 217.356 100.96 216.876 101.08C215.596 101.4 214.256 101.38 212.856 101.02C211.496 100.66 210.236 100.2 209.076 99.64C207.996 99.08 206.996 98.56 206.076 98.08C205.156 97.56 204.236 97.02 203.316 96.46C203.036 96.26 202.656 96.04 202.176 95.8C201.736 95.52 201.296 95.24 200.856 94.96C200.336 94.64 199.776 94.32 199.176 94C198.496 94.36 197.836 94.7 197.196 95.02C196.636 95.3 196.076 95.58 195.516 95.86C194.996 96.1 194.576 96.32 194.256 96.52C193.216 97.12 192.256 97.64 191.376 98.08C190.496 98.52 189.536 99.02 188.496 99.58C187.696 99.98 186.876 100.42 186.036 100.9C185.236 101.34 184.376 101.52 183.456 101.44C182.736 101.36 182.036 101.14 181.356 100.78C180.676 100.42 180.256 99.8 180.096 98.92C180.016 98.44 180.056 97.92 180.216 97.36C180.376 96.68 180.636 96.12 180.996 95.68C181.396 95.24 181.876 94.84 182.436 94.48L186.576 92.14C187.256 91.74 187.856 91.42 188.376 91.18C188.896 90.9 189.516 90.56 190.236 90.16C190.916 89.76 191.696 89.32 192.576 88.84C193.496 88.32 194.356 87.9 195.156 87.58V82.72H188.796C188.156 82.72 187.596 82.74 187.116 82.78C186.676 82.78 186.156 82.74 185.556 82.66C185.116 82.58 184.636 82.54 184.116 82.54C183.596 82.54 183.116 82.42 182.676 82.18C182.236 81.94 181.876 81.52 181.596 80.92C181.356 80.48 181.216 79.96 181.176 79.36C181.136 78.76 181.216 78.22 181.416 77.74C181.736 77.02 182.256 76.48 182.976 76.12C183.696 75.76 184.436 75.58 185.196 75.58H186.576C187.216 75.62 187.676 75.64 187.956 75.64C188.276 75.6 188.756 75.58 189.396 75.58H210.156C210.796 75.58 211.536 75.56 212.376 75.52C213.216 75.48 214.016 75.54 214.776 75.7C215.576 75.86 216.276 76.16 216.876 76.6C217.516 77.04 217.936 77.74 218.136 78.7C218.376 79.82 218.196 80.68 217.596 81.28C217.036 81.84 216.296 82.26 215.376 82.54C214.496 82.78 213.556 82.92 212.556 82.96C211.556 82.96 210.736 82.94 210.096 82.9C209.456 82.86 208.776 82.84 208.056 82.84C207.376 82.8 206.716 82.78 206.076 82.78C205.356 82.78 204.636 82.8 203.916 82.84V87.7C204.476 88.02 204.996 88.3 205.476 88.54C205.716 88.66 205.936 88.8 206.136 88.96C206.376 89.08 206.616 89.22 206.856 89.38C207.256 89.58 207.636 89.78 207.996 89.98C208.396 90.18 208.796 90.4 209.196 90.64C209.956 91.08 210.696 91.52 211.416 91.96C212.176 92.4 212.936 92.84 213.696 93.28ZM182.796 112.18C181.876 112.14 180.996 112.02 180.156 111.82C179.356 111.58 178.696 111.06 178.176 110.26C177.736 109.58 177.516 108.86 177.516 108.1C177.556 107.3 177.856 106.62 178.416 106.06C178.736 105.74 179.136 105.5 179.616 105.34C180.096 105.18 180.556 105.06 180.996 104.98C181.436 104.9 181.816 104.86 182.136 104.86C182.496 104.86 182.696 104.86 182.736 104.86H215.436C216.076 104.82 216.756 104.82 217.476 104.86C218.236 104.9 218.936 105.04 219.576 105.28C220.216 105.48 220.756 105.84 221.196 106.36C221.636 106.84 221.856 107.52 221.856 108.4C221.856 109.4 221.516 110.16 220.836 110.68C220.156 111.16 219.336 111.52 218.376 111.76C217.456 111.96 216.496 112.08 215.496 112.12C214.496 112.12 213.676 112.12 213.036 112.12H210.696C209.896 112.16 209.116 112.18 208.356 112.18C207.596 112.14 206.816 112.12 206.016 112.12H203.736C203.776 113.24 203.816 114.42 203.856 115.66C203.896 116.9 203.836 118 203.676 118.96C203.596 119.72 203.396 120.44 203.076 121.12C202.796 121.84 202.316 122.42 201.636 122.86C201.036 123.26 200.336 123.46 199.536 123.46C198.736 123.5 198.016 123.34 197.376 122.98C196.856 122.66 196.456 122.2 196.176 121.6C195.936 121 195.776 120.42 195.696 119.86C195.616 119.42 195.576 118.94 195.576 118.42C195.616 117.9 195.636 117.42 195.636 116.98C195.596 116.26 195.576 115.48 195.576 114.64C195.576 113.76 195.576 112.9 195.576 112.06H194.076C192.956 112.06 191.936 112.08 191.016 112.12C190.136 112.12 189.276 112.14 188.436 112.18C187.596 112.18 186.716 112.18 185.796 112.18C184.916 112.18 183.916 112.18 182.796 112.18ZM238.014 74.68C238.534 74.68 239.034 74.7 239.514 74.74C239.994 74.78 240.474 74.84 240.954 74.92C242.474 75.16 243.814 75.86 244.974 77.02C245.934 78.06 246.714 79.26 247.314 80.62C247.914 81.94 248.374 83.34 248.694 84.82C249.054 86.3 249.294 87.82 249.414 89.38C249.534 90.9 249.634 92.38 249.714 93.82C249.794 95.66 249.814 97.5 249.774 99.34C249.774 101.18 249.674 103 249.474 104.8C249.274 106.68 248.974 108.58 248.574 110.5C248.214 112.38 247.534 114.08 246.534 115.6C245.694 116.88 244.674 117.94 243.474 118.78C242.314 119.58 241.054 120.12 239.694 120.4C238.454 120.64 237.194 120.68 235.914 120.52C234.634 120.36 233.414 119.94 232.254 119.26C231.174 118.62 230.294 117.82 229.614 116.86C228.974 115.9 228.374 114.78 227.814 113.5C227.014 111.58 226.554 109.6 226.434 107.56C226.274 105.88 226.154 104.2 226.074 102.52C226.034 100.84 226.014 99.16 226.014 97.48C226.014 95.24 226.134 93 226.374 90.76C226.454 89.84 226.534 88.94 226.614 88.06C226.694 87.14 226.814 86.24 226.974 85.36C227.134 84.64 227.274 83.96 227.394 83.32C227.514 82.68 227.734 82.02 228.054 81.34C228.374 80.66 228.714 80.02 229.074 79.42C229.474 78.82 229.934 78.28 230.454 77.8C232.134 76.12 234.154 75.12 236.514 74.8C236.754 74.76 236.994 74.74 237.234 74.74C237.514 74.74 237.774 74.72 238.014 74.68ZM268.014 93.1C268.214 93.1 268.394 93.12 268.554 93.16C268.754 93.2 268.954 93.22 269.154 93.22C269.354 93.26 269.574 93.3 269.814 93.34C270.054 93.34 270.294 93.36 270.534 93.4C270.974 93.48 271.414 93.64 271.854 93.88C272.294 94.08 272.614 94.4 272.814 94.84C273.094 95.28 273.234 95.8 273.234 96.4C273.234 96.72 273.214 97.02 273.174 97.3C273.174 97.54 273.134 97.82 273.054 98.14C272.974 98.46 272.874 98.8 272.754 99.16C272.674 99.52 272.494 99.8 272.214 100C271.654 100.4 271.114 100.66 270.594 100.78C269.954 100.86 269.174 100.88 268.254 100.84C267.334 100.8 266.554 100.8 265.914 100.84C265.874 100.84 265.834 100.86 265.794 100.9H265.734L265.674 100.96V101.14C265.674 101.62 265.674 102.2 265.674 102.88C265.674 103.56 265.674 104.26 265.674 104.98C265.674 105.66 265.674 106.34 265.674 107.02C265.674 107.66 265.674 108.24 265.674 108.76C265.754 110.84 265.754 112.88 265.674 114.88V115.72C265.674 116.24 265.654 116.82 265.614 117.46C265.614 118.06 265.574 118.66 265.494 119.26C265.414 119.86 265.274 120.44 265.074 121C264.874 121.52 264.594 121.96 264.234 122.32C263.754 122.88 263.114 123.16 262.314 123.16C262.314 123.16 262.274 123.14 262.194 123.1C261.234 123.06 260.454 122.78 259.854 122.26C259.294 121.74 258.854 121.1 258.534 120.34C258.254 119.58 258.074 118.8 257.994 118C257.914 117.16 257.874 116.42 257.874 115.78V80.14C257.874 80.1 257.874 79.92 257.874 79.6C257.874 79.24 257.914 78.84 257.994 78.4C258.074 77.92 258.194 77.44 258.354 76.96C258.554 76.44 258.814 76.02 259.134 75.7C259.414 75.42 259.814 75.22 260.334 75.1C260.894 74.94 261.394 74.86 261.834 74.86C262.714 74.86 263.454 75.16 264.054 75.76C264.614 76.32 264.934 76.92 265.014 77.56C265.134 78.16 265.234 78.8 265.314 79.48C265.354 79.64 265.374 79.88 265.374 80.2C265.454 80.88 265.494 81.58 265.494 82.3C265.534 83.02 265.574 83.74 265.614 84.46C265.614 84.9 265.614 85.34 265.614 85.78C265.654 86.18 265.674 86.6 265.674 87.04C265.634 87.28 265.614 87.52 265.614 87.76C265.654 87.96 265.674 88.16 265.674 88.36V91.66C265.674 91.86 265.674 92.08 265.674 92.32C265.674 92.56 265.714 92.78 265.794 92.98C265.794 93.02 265.994 93.04 266.394 93.04C266.794 93.04 267.014 93.04 267.054 93.04C267.414 93.12 267.694 93.14 267.894 93.1H268.014ZM237.834 112.42C238.594 112.42 239.334 112.18 240.054 111.7C240.734 111.22 241.214 110.58 241.494 109.78C241.774 108.98 242.014 108.1 242.214 107.14C242.534 105.3 242.714 103.34 242.754 101.26C242.794 99.18 242.774 97.18 242.694 95.26C242.694 94.5 242.674 93.7 242.634 92.86C242.594 91.98 242.514 91.12 242.394 90.28C242.314 89.44 242.174 88.64 241.974 87.88C241.774 87.08 241.494 86.38 241.134 85.78C240.734 85.1 240.254 84.58 239.694 84.22C239.134 83.86 238.534 83.72 237.894 83.8C237.214 83.88 236.574 84.12 235.974 84.52C235.414 84.92 234.954 85.52 234.594 86.32L234.054 87.58C233.814 88.34 233.634 89.14 233.514 89.98C233.394 90.78 233.294 91.58 233.214 92.38C233.134 93.18 233.074 94 233.034 94.84C232.994 95.68 232.974 96.5 232.974 97.3C233.014 98.1 232.994 98.88 232.914 99.64C232.874 100.4 232.894 101.18 232.974 101.98C233.054 103.02 233.154 104.14 233.274 105.34C233.434 106.54 233.674 107.68 233.994 108.76C234.354 109.8 234.834 110.68 235.434 111.4C236.034 112.08 236.834 112.42 237.834 112.42ZM298.499 101.02C298.139 101.02 297.759 100.98 297.359 100.9C296.999 100.78 296.639 100.6 296.279 100.36C295.959 100.12 295.679 99.8 295.439 99.4C295.199 99 295.059 98.5 295.019 97.9C294.939 97.18 294.979 96.42 295.139 95.62C295.339 94.78 295.899 94.14 296.819 93.7C297.179 93.5 297.619 93.38 298.139 93.34C298.699 93.3 299.179 93.3 299.579 93.34H302.459V80.8C302.459 80.28 302.459 79.76 302.459 79.24C302.459 78.68 302.519 78.14 302.639 77.62C302.719 77.42 302.779 77.24 302.819 77.08C302.899 76.92 302.979 76.74 303.059 76.54C303.299 76.14 303.539 75.84 303.779 75.64C304.019 75.4 304.359 75.2 304.799 75.04C304.999 74.96 305.199 74.92 305.399 74.92C305.639 74.88 305.859 74.86 306.059 74.86C307.379 74.86 308.379 75.46 309.059 76.66C309.219 76.9 309.319 77.24 309.359 77.68C309.439 78.12 309.499 78.58 309.539 79.06C309.579 79.5 309.599 79.9 309.599 80.26C309.599 80.58 309.599 80.78 309.599 80.86V109.24V115.78C309.599 116.78 309.559 117.58 309.479 118.18C309.439 118.78 309.259 119.54 308.939 120.46C308.739 121.06 308.399 121.56 307.919 121.96C307.439 122.36 306.759 122.56 305.879 122.56C305.639 122.56 305.339 122.52 304.979 122.44C304.619 122.4 304.339 122.3 304.139 122.14C303.739 121.9 303.419 121.52 303.179 121C302.979 120.44 302.819 119.86 302.699 119.26C302.579 118.66 302.499 118.08 302.459 117.52C302.459 116.96 302.459 116.52 302.459 116.2V101.2L298.499 101.02ZM319.979 82.24C320.059 85.28 320.079 88.32 320.039 91.36C319.999 94.4 319.979 97.34 319.979 100.18V115.18C319.979 116.22 319.939 117.22 319.859 118.18C319.819 119.14 319.599 120.04 319.199 120.88C318.959 121.4 318.579 121.84 318.059 122.2C317.619 122.48 317.219 122.64 316.859 122.68C316.539 122.76 316.119 122.74 315.599 122.62C314.999 122.5 314.519 122.24 314.159 121.84C313.799 121.48 313.519 121.06 313.319 120.58C313.159 120.1 313.059 119.58 313.019 119.02C312.979 118.46 312.959 117.92 312.959 117.4V81.34C312.959 80.9 312.959 80.4 312.959 79.84C312.959 79.24 312.999 78.68 313.079 78.16C313.159 77.6 313.259 77.08 313.379 76.6C313.539 76.12 313.759 75.74 314.039 75.46C314.479 75.06 314.899 74.82 315.299 74.74C315.699 74.62 316.179 74.56 316.739 74.56C317.419 74.56 317.939 74.76 318.299 75.16C318.699 75.52 319.019 76.02 319.259 76.66C319.619 77.5 319.799 78.42 319.799 79.42C319.839 80.42 319.899 81.36 319.979 82.24ZM294.359 80.38C295.719 80.38 296.859 80.48 297.779 80.68C298.699 80.88 299.439 81.52 299.999 82.6C300.279 83.12 300.439 83.68 300.479 84.28C300.519 84.84 300.439 85.34 300.239 85.78C299.799 86.82 298.999 87.44 297.839 87.64C297.039 87.72 296.219 87.78 295.379 87.82C294.579 87.86 293.379 87.84 291.779 87.76C291.739 89.04 291.719 89.98 291.719 90.58C291.759 91.14 291.779 91.52 291.779 91.72V98.62C291.779 98.94 291.799 99.36 291.839 99.88C291.879 100.36 291.899 100.72 291.899 100.96C292.179 101.28 292.419 101.74 292.619 102.34C292.859 102.9 293.139 103.36 293.459 103.72C293.779 104.16 294.099 104.64 294.419 105.16C294.779 105.64 295.159 106.16 295.559 106.72C295.759 107.04 295.959 107.38 296.159 107.74C296.399 108.06 296.599 108.36 296.759 108.64C297.319 109.64 297.919 110.74 298.559 111.94C299.239 113.1 299.699 114.26 299.939 115.42C300.019 115.94 300.019 116.52 299.939 117.16C299.859 117.76 299.619 118.26 299.219 118.66C298.779 119.22 298.159 119.5 297.359 119.5C296.639 119.5 295.939 119.26 295.259 118.78C294.579 118.3 294.019 117.82 293.579 117.34C292.979 116.58 292.419 115.8 291.899 115C291.379 114.2 290.839 113.4 290.279 112.6C289.959 112.04 289.559 111.42 289.079 110.74C288.639 110.06 288.179 109.48 287.699 109C287.299 109.6 286.879 110.22 286.439 110.86C286.039 111.46 285.659 112.1 285.299 112.78C284.859 113.58 284.399 114.36 283.919 115.12C283.439 115.84 282.919 116.54 282.359 117.22C280.999 118.82 279.699 119.62 278.459 119.62C278.099 119.62 277.799 119.56 277.559 119.44C276.839 119.28 276.319 118.76 275.999 117.88C275.799 117.28 275.719 116.6 275.759 115.84C275.839 115.08 275.999 114.42 276.239 113.86C276.519 113.26 276.819 112.68 277.139 112.12C277.459 111.56 277.779 111 278.099 110.44C278.299 110.12 278.499 109.8 278.699 109.48C278.939 109.12 279.159 108.78 279.359 108.46C279.639 107.9 280.019 107.24 280.499 106.48C280.979 105.72 281.439 104.98 281.879 104.26C282.359 103.54 282.799 102.88 283.199 102.28C283.599 101.68 283.899 101.26 284.099 101.02V87.76H281.819C280.619 87.76 279.679 87.76 278.999 87.76C278.359 87.76 277.919 87.72 277.679 87.64C277.119 87.52 276.619 87.26 276.179 86.86C275.779 86.42 275.479 85.86 275.279 85.18C274.919 84.06 275.019 83.04 275.579 82.12C275.899 81.68 276.259 81.32 276.659 81.04C277.059 80.72 277.479 80.52 277.919 80.44C278.079 80.4 278.259 80.38 278.459 80.38C278.699 80.38 278.919 80.38 279.119 80.38H284.339C284.339 80.02 284.359 79.58 284.399 79.06C284.439 78.5 284.479 77.96 284.519 77.44C284.599 76.88 284.679 76.36 284.759 75.88C284.839 75.36 284.959 74.94 285.119 74.62C285.319 74.26 285.599 73.94 285.959 73.66C286.319 73.38 286.699 73.18 287.099 73.06C287.539 72.9 287.959 72.84 288.359 72.88C288.799 72.88 289.199 72.98 289.559 73.18C290.359 73.66 290.899 74.48 291.179 75.64C291.499 76.76 291.659 78.34 291.659 80.38H294.359ZM240.101 145.68C240.368 146.027 240.501 146.373 240.501 146.72C240.528 146.88 240.528 147.08 240.501 147.32C240.501 147.56 240.488 147.747 240.461 147.88C240.381 148.147 240.195 148.413 239.901 148.68C239.821 148.76 239.728 148.84 239.621 148.92C239.515 148.973 239.381 149.027 239.221 149.08C239.061 149.133 238.901 149.173 238.741 149.2C238.581 149.2 238.408 149.213 238.221 149.24C238.035 149.267 237.861 149.293 237.701 149.32C237.541 149.32 237.368 149.32 237.181 149.32H234.901V150C234.875 152.4 234.915 154.8 235.021 157.2C235.155 159.6 235.141 162 234.981 164.4C234.901 165.2 234.781 166.027 234.621 166.88C234.461 167.707 234.195 168.493 233.821 169.24C233.475 169.96 233.008 170.627 232.421 171.24C231.835 171.853 231.088 172.333 230.181 172.68C229.328 173 228.395 173.227 227.381 173.36C226.368 173.493 225.341 173.507 224.301 173.4C223.288 173.293 222.315 173.067 221.381 172.72C220.448 172.373 219.661 171.893 219.021 171.28C218.675 170.96 218.355 170.573 218.061 170.12C217.768 169.64 217.568 169.147 217.461 168.64C217.355 168.107 217.381 167.6 217.541 167.12C217.701 166.613 218.075 166.2 218.661 165.88C219.168 165.587 219.621 165.52 220.021 165.68C220.448 165.84 220.848 166.093 221.221 166.44C221.621 166.787 222.021 167.147 222.421 167.52C222.848 167.893 223.315 168.133 223.821 168.24C224.915 168.507 225.808 168.52 226.501 168.28C227.195 168.013 227.741 167.6 228.141 167.04C228.541 166.48 228.821 165.8 228.981 165C229.168 164.2 229.275 163.387 229.301 162.56C229.355 161.733 229.368 160.933 229.341 160.16C229.315 159.387 229.315 158.733 229.341 158.2C229.368 156.787 229.368 155.4 229.341 154.04C229.315 152.68 229.301 151.293 229.301 149.88V149.72C229.328 149.667 229.341 149.587 229.341 149.48H229.221C229.061 149.453 228.728 149.44 228.221 149.44C227.715 149.413 227.168 149.4 226.581 149.4C225.995 149.4 225.435 149.4 224.901 149.4C224.395 149.373 224.061 149.36 223.901 149.36H223.341V149.32C223.128 149.293 222.915 149.253 222.701 149.2C222.488 149.147 222.275 149.093 222.061 149.04C221.555 148.88 221.168 148.627 220.901 148.28C220.768 148.147 220.661 147.933 220.581 147.64C220.528 147.347 220.501 147.093 220.501 146.88C220.501 146.747 220.501 146.6 220.501 146.44C220.501 146.28 220.528 146.133 220.581 146C220.635 145.707 220.821 145.44 221.141 145.2C221.355 145.04 221.608 144.92 221.901 144.84C222.088 144.787 222.275 144.747 222.461 144.72C222.648 144.693 222.848 144.667 223.061 144.64C223.248 144.613 223.435 144.6 223.621 144.6C223.808 144.6 224.008 144.6 224.221 144.6H228.061C228.221 144.6 228.408 144.6 228.621 144.6C228.835 144.6 229.075 144.587 229.341 144.56C230.381 144.56 231.408 144.56 232.421 144.56C233.435 144.56 234.421 144.573 235.381 144.6H235.621C235.915 144.6 236.195 144.613 236.461 144.64C236.755 144.64 237.048 144.64 237.341 144.64C237.955 144.667 238.528 144.787 239.061 145C239.488 145.107 239.835 145.333 240.101 145.68ZM257.364 163.48C257.311 164.36 257.258 165.253 257.204 166.16C257.151 167.04 257.004 167.893 256.764 168.72C256.551 169.547 256.204 170.293 255.724 170.96C255.271 171.627 254.618 172.16 253.764 172.56C253.018 172.933 252.218 173.187 251.364 173.32C250.511 173.48 249.658 173.547 248.804 173.52C247.951 173.493 247.124 173.36 246.324 173.12C245.524 172.907 244.804 172.6 244.164 172.2C243.524 171.8 243.004 171.28 242.604 170.64C242.204 170 241.884 169.307 241.644 168.56C241.431 167.813 241.284 167.04 241.204 166.24C241.124 165.44 241.071 164.693 241.044 164C240.938 162.16 240.938 160.347 241.044 158.56C241.044 158.213 241.044 157.827 241.044 157.4C241.044 156.947 241.071 156.507 241.124 156.08C241.204 155.653 241.324 155.267 241.484 154.92C241.644 154.547 241.911 154.267 242.284 154.08C243.084 153.653 243.818 153.627 244.484 154C245.178 154.373 245.591 155.147 245.724 156.32C245.804 156.933 245.831 157.613 245.804 158.36C245.804 159.107 245.831 159.787 245.884 160.4C245.911 161.307 245.938 162.293 245.964 163.36C245.991 164.4 246.138 165.333 246.404 166.16C246.698 166.987 247.164 167.613 247.804 168.04C248.471 168.44 249.458 168.453 250.764 168.08C251.378 167.893 251.778 167.427 251.964 166.68C252.178 165.933 252.284 164.827 252.284 163.36C252.284 162.72 252.271 162.013 252.244 161.24C252.218 160.467 252.204 159.707 252.204 158.96C252.204 158.187 252.218 157.48 252.244 156.84C252.298 156.173 252.378 155.667 252.484 155.32C252.618 154.84 252.898 154.48 253.324 154.24C253.751 154 254.204 153.88 254.684 153.88C255.164 153.853 255.618 153.947 256.044 154.16C256.471 154.373 256.764 154.72 256.924 155.2C257.084 155.627 257.191 156.173 257.244 156.84C257.324 157.48 257.378 158.187 257.404 158.96C257.431 159.707 257.431 160.48 257.404 161.28C257.404 162.053 257.391 162.787 257.364 163.48ZM265.331 156.16C266.131 155.76 266.971 155.48 267.851 155.32C268.731 155.133 269.597 155.093 270.451 155.2C271.331 155.28 272.171 155.507 272.971 155.88C273.771 156.227 274.517 156.733 275.211 157.4C275.904 158.093 276.437 158.853 276.811 159.68C277.184 160.507 277.451 161.427 277.611 162.44C277.717 163.133 277.891 163.773 278.131 164.36C278.371 164.947 278.624 165.533 278.891 166.12C279.184 166.707 279.451 167.293 279.691 167.88C279.957 168.467 280.171 169.08 280.331 169.72C280.464 170.333 280.411 170.933 280.171 171.52C279.957 172.08 279.504 172.427 278.811 172.56C278.411 172.64 278.024 172.613 277.651 172.48C277.304 172.32 276.984 172.107 276.691 171.84C276.397 171.547 276.131 171.24 275.891 170.92C275.677 170.573 275.477 170.253 275.291 169.96C274.677 170.76 274.011 171.387 273.291 171.84C272.571 172.267 271.704 172.547 270.691 172.68C269.837 172.787 269.024 172.813 268.251 172.76C267.477 172.707 266.651 172.56 265.771 172.32C264.624 172.027 263.677 171.52 262.931 170.8C262.211 170.053 261.651 169.2 261.251 168.24C260.877 167.253 260.677 166.2 260.651 165.08C260.624 163.96 260.757 162.853 261.051 161.76C261.424 160.32 261.984 159.147 262.731 158.24C263.477 157.333 264.344 156.64 265.331 156.16ZM266.331 160.84C265.957 161.213 265.664 161.653 265.451 162.16C265.237 162.667 265.104 163.2 265.051 163.76C265.024 164.32 265.077 164.88 265.211 165.44C265.344 166 265.557 166.493 265.851 166.92C266.117 167.293 266.571 167.613 267.211 167.88C267.851 168.12 268.517 168.267 269.211 168.32C270.011 168.373 270.704 168.16 271.291 167.68C271.904 167.2 272.357 166.6 272.651 165.88C272.971 165.133 273.117 164.347 273.091 163.52C273.064 162.667 272.837 161.893 272.411 161.2C272.091 160.693 271.664 160.32 271.131 160.08C270.624 159.84 270.077 159.72 269.491 159.72C268.904 159.693 268.317 159.787 267.731 160C267.171 160.187 266.704 160.467 266.331 160.84Z" fill="black"/>
</svg>
