<svg width="500" height="250" viewBox="0 0 500 250" fill="none" xmlns="http://www.w3.org/2000/svg">
<rect width="500" height="250" fill="white"/>
<path d="M184.628 76.73C182.808 76.73 181.618 77.36 181.128 78.62C180.848 79.32 180.358 79.6 179.658 79.6H171.748C171.188 79.6 170.978 79.39 170.978 78.97C170.978 77.01 167.688 75.96 162.648 75.96C160.548 75.96 159.498 76.45 159.498 78.13V82.26C159.498 83.24 159.148 83.73 158.308 84.15C156.768 84.99 156.208 85.48 156.208 86.04C156.208 86.67 156.628 87.02 157.958 87.58C159.078 88.07 159.498 88.49 159.498 89.26V116.28C159.498 118.87 158.728 120.48 157.048 121.32C156.418 121.67 156.208 121.88 156.208 122.23C156.208 122.79 156.768 123.28 157.958 123.7C159.358 124.19 159.498 124.33 159.498 124.96V127.69C159.498 128.88 160.338 129.72 162.228 129.72C168.808 129.72 170.978 127.76 170.978 125.8V124.82H180.918V126.08C180.918 127.27 181.758 128.11 183.648 128.11C190.088 128.11 192.258 126.15 192.258 124.19V89.96C192.258 89.12 194.288 87.37 194.288 84.36C194.288 81.14 192.468 80.23 191.278 79.74C190.648 79.46 189.668 76.73 184.628 76.73ZM170.978 114.18V90.24C170.978 89.68 171.258 89.4 171.818 89.4H180.078C180.638 89.4 180.918 89.68 180.918 90.24V114.18C180.918 114.74 180.638 115.02 180.078 115.02H171.818C171.258 115.02 170.978 114.74 170.978 114.18ZM195.408 73.37C195.408 74.28 196.458 74.7 198.068 76.38C199.678 78.06 200.098 79.39 200.098 81.42V133.57C200.098 135.25 201.148 136.09 203.248 136.09C208.288 136.09 211.858 134.27 211.858 131.89V81.63C211.858 80.79 213.468 79.95 213.468 77.43C213.468 75.19 211.788 74.21 210.738 73.79C209.968 73.51 208.778 70.5 204.858 70.5C202.758 70.5 201.778 71.27 201.078 71.97C200.728 72.32 200.448 72.39 199.328 72.25C197.508 72.04 195.408 72.32 195.408 73.37ZM240.203 98.01C249.513 98.01 256.723 93.95 256.723 86.25C256.723 78.27 249.443 74.77 242.373 75.12C241.953 74.07 240.693 73.3 239.223 73.3C238.383 73.3 238.663 74.14 236.983 74.42C235.863 74.56 234.183 74.84 231.943 75.61C226.623 77.36 223.613 81.14 223.613 86.25C223.613 93.95 230.823 98.01 240.203 98.01ZM220.603 103.68C220.603 106.76 222.633 108.02 223.753 108.58C224.663 109 225.573 111.59 228.443 111.59C231.243 111.59 231.943 109.35 233.763 109.21C234.603 109.14 237.123 109.14 239.923 109.14V117.12C239.923 118.8 240.973 119.64 243.073 119.64C244.473 119.64 247.133 119.5 248.533 119.15C250.353 118.66 251.683 117.61 251.683 116.14V109.07C252.733 109.07 253.083 109.35 254.553 109.35C256.583 109.35 258.123 107.67 258.123 104.8C258.123 103.4 257.913 102 257.423 100.88C256.863 99.69 255.953 98.85 255.113 98.85C254.273 98.85 253.853 99.34 252.383 99.48C249.583 99.76 235.093 99.69 231.663 99.48C229.143 99.34 227.253 98.64 225.643 97.59C224.033 96.54 223.473 95.84 222.703 96.26C222.073 96.61 222.143 97.52 222.493 98.99C222.633 99.48 222.563 99.76 222.003 100.25C221.233 100.95 220.603 102.07 220.603 103.68ZM222.563 116.49C222.563 117.61 225.013 117.96 225.013 120.76V132.73C225.013 134.55 226.413 135.53 229.493 135.53C234.603 135.53 234.953 134.13 237.963 134.13H273.453C276.883 134.13 278.213 131.54 278.213 129.16C278.213 127.62 277.723 126.71 277.443 126.08C277.093 125.31 277.723 123.14 276.113 123.14C274.713 123.14 273.803 124.68 269.883 124.68H237.823C237.123 124.68 236.773 124.4 236.773 123.7V120.9C236.773 119.43 237.753 119.08 237.753 117.82C237.753 116.84 236.983 116.28 235.793 115.86C234.883 115.51 233.623 113.69 229.843 113.69C228.023 113.69 226.833 114.46 226.273 114.88C225.853 115.23 225.573 115.37 224.943 115.37C223.613 115.37 222.563 115.72 222.563 116.49ZM234.603 86.25C234.603 84.5 236.423 83.52 238.943 83.73C240.413 83.87 240.623 82.75 241.113 82.75C243.423 82.75 245.733 83.87 245.733 86.11C245.733 88.28 243.423 89.33 240.203 89.33C236.913 89.33 234.603 88.28 234.603 86.25ZM255.673 95.56C255.673 97.45 257.213 98.71 258.053 99.13C258.473 99.34 258.753 99.62 258.893 99.97C259.103 100.46 259.663 102.28 261.203 102.28C262.743 102.28 263.163 101.3 263.723 101.3H264.493V117.89C264.493 119.57 265.543 120.41 267.643 120.41C272.683 120.41 276.253 119.29 276.253 116.91V81.63C276.253 80.79 277.863 79.95 277.863 77.43C277.863 75.19 276.183 74.21 275.133 73.79C274.363 73.51 273.173 70.5 269.253 70.5C267.153 70.5 266.173 71.27 265.473 71.97C265.123 72.32 264.843 72.39 263.723 72.25C261.903 72.04 259.803 72.32 259.803 73.37C259.803 74.28 260.853 74.7 262.463 76.38C264.073 78.06 264.493 79.39 264.493 81.42V90.24H262.743C261.413 90.24 260.643 90.03 259.873 89.68C259.243 89.4 258.963 89.12 258.473 89.12C257.773 89.12 257.283 89.89 257.283 90.94C257.283 91.71 257.563 92.06 257.073 92.55C256.373 93.32 255.673 94.09 255.673 95.56ZM334.697 136.09C338.827 136.09 342.467 135.04 342.467 132.66V81.63C342.467 80.79 344.077 79.95 344.077 77.43C344.077 75.19 342.677 74.21 341.627 73.79C340.857 73.51 339.457 70.5 336.447 70.5C334.347 70.5 333.367 71.27 332.667 71.97C332.317 72.32 332.037 72.39 331.057 72.32C329.797 72.25 328.257 72.46 328.257 73.37C328.257 74 328.747 74.21 329.797 75.26C331.407 76.8 331.827 79.39 331.827 81.42L331.897 133.71C331.897 135.39 332.807 136.09 334.697 136.09ZM284.507 120.41C284.507 121.39 285.977 121.46 285.977 122.51C285.977 123.14 285.417 123.84 285.417 125.59C285.417 127.62 286.957 128.74 289.477 128.74C295.147 128.74 299.137 119.99 300.467 113.97C300.537 113.27 301.237 113.27 301.377 113.97C302.287 119.29 305.997 128.39 311.667 128.39C314.257 128.39 315.377 126.85 315.377 124.89C315.377 123.49 314.887 123 314.887 122.16C314.887 121.11 316.007 121.25 316.007 120.2C316.007 119.71 315.797 119.43 315.097 119.08C314.257 118.66 313.487 118.38 312.367 117.12C307.957 112.15 306.067 103.26 306.067 97.38C306.067 96.96 306.207 96.82 306.557 96.82H307.327C308.657 96.82 309.357 97.94 311.177 97.94C313.137 97.94 315.237 95.98 315.237 92.55C315.237 90.45 314.537 89.19 313.767 88.42C312.927 87.58 312.437 87.3 312.227 86.53C312.017 85.69 311.597 85.41 311.037 85.41C309.357 85.41 309.007 86.81 307.187 86.88C304.947 86.95 296.547 87.02 294.307 86.88C292.207 86.74 290.947 86.46 289.617 85.69C288.637 85.13 288.287 84.57 287.727 84.78C287.027 84.99 287.027 86.25 287.167 87.09C287.307 87.86 285.347 88.42 285.347 91.29C285.347 94.58 287.727 95.07 288.147 95.84C288.707 96.68 289.477 98.22 291.087 98.22C293.117 98.22 293.537 96.82 294.447 96.82H294.937C295.217 96.82 295.287 96.96 295.287 97.38C295.287 104.38 292.487 112.99 288.497 117.47C287.377 118.73 286.257 119.15 285.417 119.43C284.787 119.64 284.507 119.92 284.507 120.41ZM290.737 79.04C290.737 81.84 292.417 82.89 292.837 83.45C293.257 84.01 293.957 84.92 295.357 84.92C296.197 84.92 296.407 84.64 297.107 84.57C298.787 84.43 302.217 84.43 303.897 84.57C304.737 84.64 305.297 84.92 306.417 84.92C308.377 84.92 309.707 82.05 309.707 79.88C309.707 77.99 309.287 76.87 308.587 76.1C308.097 75.61 307.887 75.33 307.677 74.77C307.467 74.21 307.117 74 306.697 74C305.577 74 305.437 74.49 303.897 74.7C302.427 74.84 298.927 74.84 297.107 74.7C295.847 74.56 295.077 74.49 294.377 74.21C293.677 74 293.397 73.65 292.837 73.86C292.417 74.07 292.277 74.7 292.347 75.47C292.417 76.03 290.737 76.59 290.737 79.04ZM310.687 104.66C310.687 106.55 312.157 107.74 312.997 108.16C313.417 108.37 313.697 108.65 313.837 109C314.047 109.49 314.607 111.17 316.147 111.17C317.407 111.17 317.827 110.61 318.317 110.33V132.66C318.317 134.34 319.227 135.04 321.117 135.04C325.247 135.04 328.677 133.99 328.677 131.61V83.8C328.677 82.96 330.287 82.12 330.287 79.6C330.287 77.36 329.097 76.38 328.047 75.96C327.277 75.68 325.807 72.67 322.797 72.67C320.697 72.67 319.717 73.44 319.017 74.14C318.667 74.49 318.387 74.56 317.407 74.49C316.147 74.42 314.747 74.63 314.747 75.54C314.747 76.17 315.237 76.38 316.287 77.43C317.897 78.97 318.317 81.56 318.317 83.59V99.48H317.687C316.357 99.48 315.587 99.27 314.817 98.92C314.187 98.64 313.907 98.36 313.417 98.36C312.787 98.36 312.297 99.13 312.297 100.18C312.297 100.88 312.507 101.23 312.087 101.72C311.387 102.42 310.687 103.19 310.687 104.66ZM205.504 184.2L209.064 173.52L210.904 167.08L210.704 172.64V185.12C210.704 186.12 211.304 186.56 212.664 186.56C215.464 186.56 217.264 185.52 217.264 184.16V160.88C217.264 160 217.824 159.68 217.824 158.64C217.824 157.76 217.224 157.2 216.424 156.92C215.784 156.68 215.424 155.2 213.344 155.2C211.504 155.2 211.304 156.56 210.624 156.56C209.784 156.56 209.064 156.72 208.664 157.92L201.904 178.56L195.184 158.6C194.704 157.24 194.144 156.56 192.664 156.56C192.224 156.56 191.984 156.36 191.824 156.2C191.304 155.68 190.584 155.2 189.464 155.2C188.264 155.2 187.624 155.76 187.224 156.16C187.024 156.36 186.864 156.48 186.464 156.48C185.704 156.48 184.784 156.92 184.784 157.56C184.784 158.08 185.224 158 185.664 158.64C186.104 159.24 186.184 160.28 186.184 161.48V185.12C186.184 186.12 186.784 186.56 188.144 186.56C190.944 186.56 192.744 185.52 192.744 184.16V172.64L192.544 166.64L194.344 173.12L198.064 184.16C198.664 185.96 199.144 186.32 200.224 186.32C201.064 186.32 201.464 186.16 202.144 185.92C202.464 185.8 202.584 185.8 202.744 185.8C202.984 185.8 203.104 185.92 203.624 185.92C204.664 185.92 205.024 185.68 205.504 184.2ZM224.324 186.4C227.124 186.4 229.164 185.36 229.164 184V169.68C229.164 168.8 229.844 168.48 229.844 167.24C229.844 166.16 229.124 165.6 228.324 165.32C227.684 165.08 227.244 163.68 225.244 163.68C224.044 163.68 223.404 164.16 223.004 164.56C222.804 164.76 222.644 164.8 222.244 164.76C221.364 164.68 220.564 164.96 220.564 165.48C220.564 166 221.164 166.32 221.604 166.96C222.164 167.76 222.364 168.68 222.364 169.88V184.96C222.364 185.96 222.964 186.4 224.324 186.4ZM221.444 157.84C221.444 160.04 223.044 161.72 225.524 161.72C228.044 161.72 229.644 159.96 229.644 157.68C229.644 155.36 227.884 153.68 225.364 153.68C224.164 153.68 223.004 154 222.164 154.64C222.004 154.76 221.964 154.88 222.044 155.04C222.484 155.92 221.444 156.16 221.444 157.84ZM231.718 166C231.718 166.2 231.878 166.44 232.198 166.72C232.638 167.12 233.078 167.6 233.358 168.52L238.318 184.56C238.718 185.88 239.238 186.36 240.198 186.36C240.798 186.36 241.918 186.2 242.398 185.96C242.558 185.88 242.678 185.88 242.878 185.92C243.118 185.96 243.438 186 244.158 186C245.398 186 245.878 185.64 246.238 184.2L249.078 173.2L252.158 184.56C252.518 185.88 253.038 186.36 254.038 186.36C254.638 186.36 255.198 186.2 255.838 185.96C255.998 185.88 256.118 185.88 256.318 185.92C256.558 185.96 257.198 186 257.758 186C258.958 186 259.438 185.64 259.878 184.2L264.798 168.28C265.678 165.44 264.598 163.92 262.518 163.8C261.878 163.76 261.198 163.84 260.798 164.08C260.238 164.4 260.118 164.4 259.398 164.2C258.598 163.96 258.158 164.2 258.158 164.64C258.158 165 258.478 165.56 258.558 165.88C258.718 166.52 258.558 167.04 258.318 168.04L255.838 178.52L252.678 166.76C252.078 164.52 250.838 163.76 248.838 163.76C247.998 163.76 247.438 163.92 246.838 164.36C246.358 164.72 246.158 164.68 245.558 164.64C244.838 164.6 244.518 164.84 244.518 165.2C244.518 165.52 244.678 165.72 244.998 166.04C245.358 166.44 245.558 166.88 245.398 167.52L242.518 178.48L239.678 166.52C239.118 164.12 237.638 163.76 236.198 163.76C234.958 163.76 234.318 164.12 233.878 164.76C233.558 165.24 233.398 165.36 232.838 165.32C232.198 165.28 231.718 165.52 231.718 166ZM277.834 180.24C275.074 180.24 273.234 178.32 273.234 175.24C273.234 172.2 275.354 170.4 277.034 170.48C277.874 170.52 277.674 169.92 278.594 169.92C280.274 169.92 282.434 171.92 282.434 175.24C282.434 178.32 280.594 180.24 277.834 180.24ZM266.514 175.24C266.514 182.08 271.074 186.56 277.834 186.56C284.594 186.56 289.154 182.08 289.154 175.24C289.154 169.08 285.514 164.88 279.554 164.2C279.034 163.4 278.234 162.96 277.154 162.96C276.554 162.96 276.274 163.76 275.114 164.12C273.714 164.56 273.074 164.8 272.514 165.08C268.474 167.04 266.514 170.88 266.514 175.24ZM305.55 163.52C303.31 163.52 300.87 164.52 299.43 166.32C298.83 164.96 297.75 163.68 295.75 163.68C294.55 163.68 293.91 164.16 293.51 164.56C293.31 164.76 293.15 164.8 292.75 164.76C291.87 164.68 291.07 164.96 291.07 165.48C291.07 166 291.67 166.32 292.11 166.96C292.67 167.76 292.87 168.68 292.87 169.88V184.96C292.87 185.96 293.47 186.4 294.83 186.4C297.63 186.4 299.67 185.36 299.67 184V175.04C299.67 171.8 302.03 169.92 303.95 169.92C306.27 169.92 307.15 171.28 307.15 174.12V184.96C307.15 185.96 307.75 186.4 309.11 186.4C311.91 186.4 313.95 185.36 313.95 184V172.52C313.95 166.72 310.59 163.52 305.55 163.52Z" fill="black"/>
</svg>
