<svg width="500" height="250" viewBox="0 0 500 250" fill="none" xmlns="http://www.w3.org/2000/svg">
<rect width="500" height="250" fill="white"/>
<path d="M147.999 117.92C146.919 117.86 146.079 117.5 145.359 116.78C144.639 116.06 144.279 115.22 144.279 114.14V100.82H159.459V78.26H134.379V80.72H149.559V98.42H134.379V117.5C134.379 119.24 134.979 120.74 136.239 121.94C137.439 123.14 138.939 123.74 140.679 123.74C140.799 123.74 141.279 123.8 141.999 123.8C142.719 123.8 143.319 123.8 143.679 123.8C144.039 123.8 144.639 123.74 145.599 123.62C146.499 123.5 147.459 123.32 148.419 123.02C149.379 122.78 150.639 122.42 152.139 121.94C153.579 121.52 155.319 120.92 157.359 120.14C159.339 119.42 161.559 118.52 164.019 117.44V131.24H173.199V77.78H164.019V106.52H154.179V108.98H164.019V114.8C155.619 116.96 150.279 118.04 147.999 117.92ZM175.419 132.08H184.599V76.94H175.419V132.08ZM213.347 117.38C211.007 117.86 209.447 117.86 208.607 117.5C206.807 116.84 205.967 115.7 205.967 114.14V99.62H213.347V117.38ZM213.347 78.26V97.16H205.967V78.26H196.067V117.5C196.067 119.24 196.667 120.74 197.867 121.94C199.067 123.14 200.567 123.74 202.307 123.74C202.427 123.74 202.787 123.8 203.327 123.8C203.807 123.8 204.167 123.8 204.287 123.8C204.407 123.8 204.767 123.74 205.307 123.68C205.787 123.62 206.267 123.5 206.627 123.38C206.987 123.26 207.527 123.14 208.307 122.9C209.027 122.66 209.867 122.42 210.707 122.06C211.547 121.76 212.567 121.34 213.827 120.86C215.027 120.38 216.407 119.84 217.967 119.18C219.467 118.52 221.207 117.74 223.187 116.9H223.247V100.1H227.387V131.24H236.567V77.78H227.387V97.7H223.247V78.26H213.347ZM238.787 132.08H247.967V76.94H238.787V132.08ZM257.787 78.26V80.72L278.427 80.72V89.48C278.367 92.18 278.127 94.82 277.647 97.46H257.787V99.92H277.107C276.507 102.38 275.667 104.66 274.647 106.82C273.567 108.98 272.487 110.84 271.407 112.28C270.327 113.78 269.127 115.16 267.807 116.42C266.487 117.68 265.287 118.64 264.327 119.36C263.307 120.08 262.287 120.74 261.267 121.28C260.187 121.88 259.527 122.24 259.167 122.36C258.807 122.48 258.507 122.6 258.327 122.66L259.647 124.7C263.547 123.62 267.087 122.06 270.207 120.14C273.327 118.22 275.907 116.18 277.827 114.14C279.747 112.1 281.427 109.82 282.867 107.3C284.307 104.84 285.327 102.68 285.987 100.82C286.647 98.9 287.187 96.98 287.547 95C287.907 93.02 288.147 91.7 288.147 91.04C288.207 90.38 288.207 89.9 288.207 89.54V78.32L257.787 78.26ZM304.647 99.98V77H294.807V132.14H304.647V102.44H312.807V99.98H304.647ZM347.502 86.66V84.2H337.662V76.94H327.762V84.2H317.922V86.66H327.402L317.322 123.74L327.222 123.74L333.162 101.72C334.182 102.08 335.022 102.8 335.682 103.76C336.402 104.78 336.882 105.92 337.122 107.18C337.422 108.38 337.602 109.82 337.662 111.5C337.662 113.12 337.662 114.56 337.542 115.82C337.422 117.14 337.302 118.46 337.122 119.84C336.942 121.28 336.822 122.18 336.702 122.66C336.582 123.14 336.522 123.5 336.462 123.74H346.302C346.302 120.2 346.002 117.02 345.402 114.2C344.802 111.32 344.022 109.1 343.122 107.42C342.222 105.74 341.142 104.3 339.942 103.1C338.742 101.9 337.662 101.06 336.702 100.58C335.742 100.1 334.782 99.68 333.762 99.44L337.182 86.72L347.502 86.66ZM348.642 97.76H338.802V100.16H348.642V131.3H357.822V77.84H348.642V97.76ZM360.042 132.14H369.222V77H360.042V132.14ZM166.266 164.52H157.906V147.16H166.266H166.546C166.746 147.16 167.026 147.24 167.346 147.32C167.666 147.4 168.026 147.56 168.426 147.72C168.826 147.88 169.186 148.2 169.586 148.6C169.986 149.04 170.346 149.56 170.666 150.12C170.986 150.72 171.266 151.52 171.466 152.52C171.666 153.48 171.786 154.6 171.786 155.84C171.786 157.08 171.666 158.2 171.466 159.2C171.226 160.16 170.986 160.96 170.666 161.56C170.346 162.16 169.986 162.68 169.546 163.08C169.146 163.48 168.746 163.8 168.386 164C168.066 164.16 167.706 164.32 167.306 164.4C166.906 164.48 166.666 164.56 166.506 164.56L166.266 164.52ZM175.586 167.32C175.106 166.92 174.586 166.56 174.026 166.24C173.306 165.8 172.506 165.48 171.666 165.24C171.746 165.2 171.786 165.2 171.786 165.2C172.746 164.76 173.626 164.2 174.426 163.52C175.626 162.56 176.586 161.48 177.226 160.2C177.946 158.84 178.306 157.4 178.306 155.84C178.306 154.32 177.946 152.84 177.226 151.48C176.586 150.2 175.626 149.12 174.426 148.16C172.106 146.24 169.266 145.28 165.986 145.28H151.306V182.04H157.866V166.4H162.586C164.986 166.4 167.026 167.12 168.706 168.48C170.386 169.88 171.226 171.56 171.226 173.52V182.08H178.666V173.52C178.666 171.08 177.666 169 175.586 167.32ZM189.382 169.92C189.382 168.64 189.502 167.52 189.742 166.48C189.942 165.44 190.182 164.64 190.462 164C190.742 163.36 191.062 162.84 191.462 162.4C191.862 161.96 192.182 161.64 192.502 161.44C192.822 161.28 193.142 161.12 193.502 161.04C193.822 160.96 194.062 160.88 194.182 160.88H194.462C194.862 160.88 195.342 160.96 195.902 161.16C198.222 162.2 199.422 165.12 199.542 169.92H189.382ZM207.182 169.92C207.102 168.56 206.742 167.24 206.142 165.96C205.422 164.52 204.502 163.28 203.342 162.2C200.862 160 197.902 158.88 194.462 158.88C191.022 158.88 188.062 160 185.622 162.2C184.422 163.28 183.462 164.52 182.782 165.96C182.062 167.48 181.742 169.04 181.742 170.68C181.742 172.36 182.062 173.96 182.782 175.44C183.462 176.88 184.422 178.16 185.622 179.2C188.062 181.4 191.022 182.48 194.462 182.48C197.902 182.48 200.862 181.4 203.342 179.2C204.462 178.16 205.382 176.96 206.062 175.6H199.062C198.822 176.56 198.462 177.4 198.062 178.12C197.662 178.84 197.262 179.32 196.902 179.6C196.502 179.92 196.102 180.12 195.702 180.28C195.262 180.44 194.982 180.52 194.822 180.52H194.462C194.062 180.56 193.582 180.44 193.062 180.2C190.742 179.2 189.502 176.32 189.382 171.56H207.182C207.182 171.36 207.222 171.12 207.222 170.88V170.68V170.52C207.222 170.36 207.182 170.16 207.182 169.92ZM225.061 180.72H224.941H224.861H224.821C224.181 180.72 223.501 180.64 222.861 180.4C222.221 180.16 221.661 179.92 221.261 179.64C220.821 179.36 220.381 179.04 219.981 178.68C219.581 178.36 219.301 178.12 219.181 177.96C219.061 177.84 218.981 177.72 218.941 177.6V163.44C219.701 162.72 220.581 162.2 221.621 161.8C222.661 161.44 223.421 161.24 223.901 161.2C224.381 161.16 224.781 161.12 225.141 161.12C225.301 161.12 225.501 161.16 225.741 161.16C225.941 161.2 226.261 161.28 226.661 161.44C227.061 161.6 227.461 161.8 227.821 162.04C228.221 162.28 228.621 162.64 229.021 163.12C229.421 163.6 229.781 164.2 230.101 164.88C230.421 165.52 230.661 166.4 230.861 167.44C231.061 168.48 231.141 169.68 231.141 170.96C231.141 172.36 231.021 173.6 230.781 174.72C230.541 175.84 230.261 176.72 229.941 177.4C229.621 178.04 229.181 178.64 228.701 179.12C228.221 179.6 227.821 179.92 227.421 180.16C227.021 180.36 226.621 180.52 226.221 180.6C225.821 180.68 225.541 180.76 225.381 180.76C225.221 180.76 225.141 180.76 225.061 180.72ZM225.701 159.32H224.741C224.101 159.32 223.221 159.44 222.101 159.68C220.981 159.92 219.901 160.28 218.901 160.76V145.24H212.301V182H218.901V181.12C219.901 181.6 220.981 181.96 222.181 182.2C223.381 182.44 224.221 182.56 224.661 182.56C225.141 182.56 225.461 182.56 225.701 182.56H226.421C226.901 182.56 227.541 182.52 228.301 182.36C229.061 182.24 229.901 182.04 230.821 181.8C231.741 181.56 232.661 181.16 233.581 180.6C234.501 180.04 235.341 179.4 236.101 178.6C236.861 177.8 237.461 176.76 237.941 175.4C238.421 174.08 238.621 172.6 238.621 170.92C238.621 169.28 238.381 167.8 237.901 166.48C237.421 165.16 236.821 164.12 236.101 163.32C235.381 162.52 234.541 161.84 233.541 161.28C232.581 160.72 231.661 160.32 230.861 160.08C230.061 159.84 229.181 159.64 228.261 159.52C227.381 159.4 226.781 159.32 226.461 159.32H225.701ZM250.319 169.92C250.319 168.64 250.439 167.52 250.679 166.48C250.879 165.44 251.119 164.64 251.399 164C251.679 163.36 251.999 162.84 252.399 162.4C252.799 161.96 253.119 161.64 253.439 161.44C253.759 161.28 254.079 161.12 254.439 161.04C254.759 160.96 254.999 160.88 255.119 160.88H255.399C255.799 160.88 256.279 160.96 256.839 161.16C259.159 162.2 260.359 165.12 260.479 169.92H250.319ZM268.119 169.92C268.039 168.56 267.679 167.24 267.079 165.96C266.359 164.52 265.439 163.28 264.279 162.2C261.799 160 258.839 158.88 255.399 158.88C251.959 158.88 248.999 160 246.559 162.2C245.359 163.28 244.399 164.52 243.719 165.96C242.999 167.48 242.679 169.04 242.679 170.68C242.679 172.36 242.999 173.96 243.719 175.44C244.399 176.88 245.359 178.16 246.559 179.2C248.999 181.4 251.959 182.48 255.399 182.48C258.839 182.48 261.799 181.4 264.279 179.2C265.399 178.16 266.319 176.96 266.999 175.6H259.999C259.759 176.56 259.399 177.4 258.999 178.12C258.599 178.84 258.199 179.32 257.839 179.6C257.439 179.92 257.039 180.12 256.639 180.28C256.199 180.44 255.919 180.52 255.759 180.52H255.399C254.999 180.56 254.519 180.44 253.999 180.2C251.679 179.2 250.439 176.32 250.319 171.56H268.119C268.119 171.36 268.159 171.12 268.159 170.88V170.68V170.52C268.159 170.36 268.119 170.16 268.119 169.92ZM285.158 161H285.518C285.758 161 286.078 161.08 286.478 161.24C286.878 161.4 287.278 161.64 287.718 161.92C288.118 162.24 288.558 162.72 288.998 163.4C289.398 164.12 289.758 164.96 290.038 165.92H297.078C296.358 164.52 295.398 163.32 294.198 162.28C291.678 160.12 288.678 159 285.158 159C281.638 159 278.638 160.12 276.118 162.28C274.878 163.32 273.918 164.56 273.198 166C272.438 167.52 272.078 169.12 272.078 170.8C272.078 172.52 272.438 174.12 273.198 175.6C273.918 177.08 274.878 178.32 276.118 179.36C278.638 181.52 281.638 182.6 285.158 182.6C288.678 182.6 291.678 181.52 294.198 179.36C295.398 178.36 296.358 177.16 297.078 175.76H290.038C289.758 176.72 289.398 177.52 288.958 178.24C288.518 178.96 288.118 179.44 287.718 179.76C287.318 180.04 286.918 180.28 286.478 180.44C285.998 180.6 285.718 180.68 285.558 180.68H285.158H284.878C284.638 180.68 284.398 180.6 284.078 180.52C283.758 180.4 283.438 180.24 283.038 180.04C282.638 179.84 282.278 179.52 281.878 179.04C281.478 178.56 281.158 177.96 280.838 177.32C280.518 176.64 280.238 175.76 280.038 174.64C279.838 173.52 279.758 172.24 279.758 170.84C279.758 169.44 279.838 168.2 280.038 167.08C280.238 165.96 280.478 165.04 280.798 164.4C281.118 163.72 281.478 163.16 281.878 162.68C282.278 162.2 282.678 161.84 283.038 161.64C283.358 161.44 283.718 161.28 284.118 161.2C284.478 161.08 284.718 161.04 284.838 161.04L285.158 161ZM312.853 161H313.213C313.453 161 313.773 161.08 314.173 161.24C314.573 161.4 314.973 161.64 315.413 161.92C315.813 162.24 316.253 162.72 316.693 163.4C317.093 164.12 317.453 164.96 317.733 165.92H324.773C324.053 164.52 323.093 163.32 321.893 162.28C319.373 160.12 316.373 159 312.853 159C309.333 159 306.333 160.12 303.813 162.28C302.573 163.32 301.613 164.56 300.893 166C300.133 167.52 299.773 169.12 299.773 170.8C299.773 172.52 300.133 174.12 300.893 175.6C301.613 177.08 302.573 178.32 303.813 179.36C306.333 181.52 309.333 182.6 312.853 182.6C316.373 182.6 319.373 181.52 321.893 179.36C323.093 178.36 324.053 177.16 324.773 175.76H317.733C317.453 176.72 317.093 177.52 316.653 178.24C316.213 178.96 315.813 179.44 315.413 179.76C315.013 180.04 314.613 180.28 314.173 180.44C313.693 180.6 313.413 180.68 313.253 180.68H312.853H312.573C312.333 180.68 312.093 180.6 311.773 180.52C311.453 180.4 311.133 180.24 310.733 180.04C310.333 179.84 309.973 179.52 309.573 179.04C309.173 178.56 308.853 177.96 308.533 177.32C308.213 176.64 307.933 175.76 307.733 174.64C307.533 173.52 307.453 172.24 307.453 170.84C307.453 169.44 307.533 168.2 307.733 167.08C307.933 165.96 308.173 165.04 308.493 164.4C308.813 163.72 309.173 163.16 309.573 162.68C309.973 162.2 310.373 161.84 310.733 161.64C311.053 161.44 311.413 161.28 311.813 161.2C312.173 161.08 312.413 161.04 312.533 161.04L312.853 161ZM343.149 171.08V178.08L342.589 178.56C342.189 178.88 341.629 179.24 340.909 179.6C340.189 179.96 339.469 180.16 338.749 180.2C338.589 180.24 338.429 180.24 338.269 180.24H337.909C337.869 180.24 337.669 180.24 337.309 180.16C336.909 180.08 336.629 180 336.429 179.88C336.189 179.76 335.909 179.56 335.549 179.28C335.149 179 334.869 178.64 334.669 178.24C334.429 177.84 334.229 177.28 334.069 176.6C333.909 175.96 333.789 175.2 333.789 174.32V174.24V174.12V173.96C333.789 171.76 334.349 170.12 335.469 169.08C335.629 168.92 335.869 168.72 336.149 168.56C336.869 168.12 337.549 167.92 338.269 167.96C340.149 168.12 341.789 169.16 343.149 171.08ZM336.109 166C335.149 166.16 334.189 166.44 333.309 166.76C332.629 167.04 331.989 167.36 331.389 167.76C331.109 167.92 330.869 168.12 330.629 168.28C330.309 168.52 329.989 168.8 329.749 169.08C328.309 170.56 327.589 172.24 327.589 174.12C327.589 175.36 327.909 176.52 328.589 177.64C329.229 178.76 330.189 179.72 331.389 180.44C333.309 181.72 335.629 182.36 338.269 182.36C339.989 182.36 341.589 182.08 343.109 181.48V182.08H349.709V167.8C349.629 166.52 349.269 165.28 348.709 164.08C348.069 162.88 347.269 161.84 346.229 160.96C344.149 159.24 341.709 158.36 338.909 158.36C336.069 158.36 333.629 159.24 331.589 160.96C330.629 161.76 329.829 162.72 329.229 163.84H334.069C334.389 163.24 334.749 162.72 335.189 162.28C335.629 161.88 336.029 161.56 336.429 161.36C336.829 161.2 337.229 161.04 337.669 160.96C338.069 160.88 338.389 160.8 338.549 160.8C338.709 160.8 338.829 160.8 338.909 160.84H339.309C339.549 160.84 339.829 160.92 340.229 161.12C340.589 161.32 340.949 161.6 341.349 161.96C341.749 162.28 342.109 162.88 342.429 163.72C342.749 164.56 342.949 165.56 343.069 166.72C341.549 166.16 339.949 165.88 338.269 165.88C337.549 165.88 336.829 165.92 336.109 166Z" fill="black"/>
</svg>
