<svg width="500" height="250" viewBox="0 0 500 250" fill="none" xmlns="http://www.w3.org/2000/svg">
<rect width="500" height="250" fill="white"/>
<path d="M45.1849 119.55C46.8649 119.737 48.1483 119.503 49.0349 118.85C49.9216 118.15 50.5749 117.217 50.9949 116.05C51.4149 114.883 51.6483 113.577 51.6949 112.13C51.7883 110.683 51.8349 109.307 51.8349 108C51.8349 106.507 51.7883 105.06 51.6949 103.66C51.6483 102.26 51.4149 100.977 50.9949 99.81C50.5749 98.6433 49.9216 97.6633 49.0349 96.87C48.1483 96.03 46.8649 95.4233 45.1849 95.05V119.55ZM51.2049 136.7L46.7949 120.88C46.5616 120.833 46.3049 120.81 46.0249 120.81C45.7449 120.763 45.4649 120.693 45.1849 120.6V136.7L47.2849 143H32.5849L34.6849 136.7V100.3L32.5849 94H45.1849C47.4716 94 49.6416 94.3033 51.6949 94.91C53.7949 95.5167 55.6149 96.4033 57.1549 97.57C58.7416 98.7367 60.0016 100.207 60.9349 101.98C61.8683 103.707 62.3349 105.713 62.3349 108C62.3349 110.1 61.7749 112.083 60.6549 113.95C59.5816 115.817 58.1116 117.357 56.2449 118.57L62.4049 136.7L65.9049 143H49.1049L51.2049 136.7ZM76.5504 107.65C80.8437 107.65 84.1104 109.167 86.3504 112.2C88.5904 115.233 89.7104 119.667 89.7104 125.5H73.9604C73.9604 126.667 74.0537 128.067 74.2404 129.7C74.4737 131.333 74.8704 132.897 75.4304 134.39C75.9904 135.837 76.7604 137.073 77.7404 138.1C78.7671 139.127 80.0737 139.64 81.6604 139.64C82.5937 139.64 83.5971 139.43 84.6704 139.01C85.7904 138.59 86.8871 137.82 87.9604 136.7H89.0104C88.4037 138.053 87.5637 139.173 86.4904 140.06C85.4171 140.9 84.2737 141.577 83.0604 142.09C81.8937 142.557 80.6804 142.883 79.4204 143.07C78.2071 143.257 77.1104 143.35 76.1304 143.35C74.5437 143.35 72.9804 143 71.4404 142.3C69.9471 141.553 68.5937 140.433 67.3804 138.94C66.2137 137.447 65.2571 135.58 64.5104 133.34C63.8104 131.053 63.4604 128.37 63.4604 125.29C63.4604 119.457 64.5571 115.07 66.7504 112.13C68.9437 109.143 72.2104 107.65 76.5504 107.65ZM79.2104 124.38C79.2104 122.467 79.1871 120.577 79.1404 118.71C79.0937 116.843 78.9771 115.187 78.7904 113.74C78.6504 112.247 78.3937 111.033 78.0204 110.1C77.6937 109.167 77.2037 108.7 76.5504 108.7C75.9437 108.7 75.4537 109.167 75.0804 110.1C74.7537 111.033 74.4971 112.247 74.3104 113.74C74.1237 115.233 74.0071 116.913 73.9604 118.78C73.9604 120.647 73.9604 122.513 73.9604 124.38H79.2104ZM104.733 107.65C107.393 107.65 109.679 108.187 111.593 109.26C113.506 110.333 114.999 111.92 116.073 114.02L107.883 118.99C107.836 117.59 107.743 116.26 107.603 115C107.509 113.74 107.346 112.643 107.113 111.71C106.879 110.777 106.553 110.053 106.133 109.54C105.713 108.98 105.199 108.7 104.593 108.7C103.753 108.7 103.099 109.213 102.633 110.24C102.213 111.22 101.886 112.503 101.653 114.09C101.466 115.677 101.349 117.45 101.303 119.41C101.303 121.37 101.303 123.307 101.303 125.22C101.303 126.433 101.396 127.88 101.583 129.56C101.769 131.193 102.143 132.757 102.703 134.25C103.263 135.743 104.033 137.027 105.013 138.1C106.039 139.127 107.393 139.64 109.073 139.64C110.099 139.64 111.243 139.407 112.503 138.94C113.763 138.473 114.929 137.633 116.003 136.42H117.053C116.446 137.773 115.583 138.893 114.463 139.78C113.389 140.667 112.223 141.39 110.963 141.95C109.749 142.463 108.513 142.813 107.253 143C105.993 143.233 104.849 143.35 103.823 143.35C102.189 143.35 100.579 143 98.9925 142.3C97.4525 141.553 96.0758 140.433 94.8625 138.94C93.6492 137.447 92.6692 135.58 91.9225 133.34C91.1758 131.053 90.8025 128.37 90.8025 125.29C90.8025 119.457 91.9692 115.07 94.3025 112.13C96.6358 109.143 100.113 107.65 104.733 107.65ZM120.051 136.7V120.53L118.371 115.35L130.551 108V136.7L132.651 143H117.951L120.051 136.7ZM119.701 101.28C119.701 99.74 120.238 98.4333 121.311 97.36C122.384 96.2867 123.691 95.75 125.231 95.75C126.771 95.75 128.078 96.2867 129.151 97.36C130.224 98.4333 130.761 99.74 130.761 101.28C130.761 102.82 130.224 104.127 129.151 105.2C128.078 106.273 126.771 106.81 125.231 106.81C123.691 106.81 122.384 106.273 121.311 105.2C120.238 104.127 119.701 102.82 119.701 101.28ZM133.584 136.42C133.584 135.16 133.817 133.993 134.284 132.92C134.751 131.8 135.381 130.797 136.174 129.91C136.967 128.977 137.901 128.16 138.974 127.46C140.047 126.76 141.214 126.2 142.474 125.78L149.334 123.4V111.5C149.334 110.567 149.077 109.89 148.564 109.47C148.051 109.05 147.514 108.84 146.954 108.84C146.254 108.84 145.671 109.12 145.204 109.68C144.784 110.193 144.434 110.917 144.154 111.85C143.874 112.783 143.664 113.88 143.524 115.14C143.431 116.4 143.384 117.73 143.384 119.13L135.124 114.16C135.777 112.9 136.617 111.85 137.644 111.01C138.671 110.17 139.767 109.517 140.934 109.05C142.147 108.537 143.407 108.187 144.714 108C146.067 107.767 147.397 107.65 148.704 107.65C150.011 107.65 151.317 107.86 152.624 108.28C153.977 108.653 155.167 109.377 156.194 110.45C157.267 111.477 158.131 112.9 158.784 114.72C159.484 116.54 159.834 118.873 159.834 121.72V136.63L161.934 143H149.334V137.05C148.307 138.777 147.141 140.27 145.834 141.53C144.527 142.743 142.847 143.35 140.794 143.35C140.047 143.35 139.254 143.233 138.414 143C137.574 142.767 136.781 142.393 136.034 141.88C135.334 141.367 134.751 140.667 134.284 139.78C133.817 138.847 133.584 137.727 133.584 136.42ZM146.464 137.89C147.024 137.89 147.537 137.703 148.004 137.33C148.517 136.91 148.961 136.467 149.334 136V124.45C148.447 124.823 147.677 125.337 147.024 125.99C146.371 126.643 145.811 127.39 145.344 128.23C144.924 129.07 144.597 129.957 144.364 130.89C144.177 131.823 144.084 132.757 144.084 133.69C144.084 134.017 144.107 134.437 144.154 134.95C144.247 135.417 144.364 135.883 144.504 136.35C144.691 136.77 144.947 137.143 145.274 137.47C145.601 137.75 145.997 137.89 146.464 137.89ZM175.264 129.35L182.824 141.95H185.484C185.904 141.95 186.347 141.833 186.814 141.6C187.327 141.367 187.794 141.04 188.214 140.62C188.634 140.153 188.984 139.57 189.264 138.87C189.591 138.17 189.754 137.353 189.754 136.42C189.754 135.58 189.591 134.647 189.264 133.62C188.984 132.593 188.471 131.38 187.724 129.98C187.024 128.58 186.067 126.97 184.854 125.15C183.687 123.283 182.217 121.113 180.444 118.64C179.184 116.867 178.157 115.303 177.364 113.95C176.571 112.597 175.917 111.383 175.404 110.31C174.937 109.19 174.611 108.187 174.424 107.3C174.237 106.413 174.144 105.55 174.144 104.71C174.144 103.217 174.377 101.84 174.844 100.58C175.357 99.2733 176.011 98.13 176.804 97.15C177.597 96.17 178.507 95.4 179.534 94.84C180.607 94.28 181.727 94 182.894 94H195.074L195.774 107.65L188.214 95.05H185.554C184.901 95.05 184.341 95.3533 183.874 95.96C183.407 96.52 183.174 97.3367 183.174 98.41C183.174 99.9033 183.687 101.63 184.714 103.59C185.787 105.55 187.444 107.883 189.684 110.59L190.314 111.36C192.134 113.6 193.674 115.583 194.934 117.31C196.194 119.037 197.197 120.623 197.944 122.07C198.737 123.517 199.297 124.893 199.624 126.2C199.951 127.46 200.114 128.743 200.114 130.05C200.114 132.15 199.741 134.017 198.994 135.65C198.247 137.237 197.291 138.59 196.124 139.71C195.004 140.783 193.744 141.6 192.344 142.16C190.944 142.72 189.567 143 188.214 143H173.164L175.264 129.35ZM213.748 107.65C218.041 107.65 221.308 109.167 223.548 112.2C225.788 115.233 226.908 119.667 226.908 125.5H211.158C211.158 126.667 211.251 128.067 211.438 129.7C211.671 131.333 212.068 132.897 212.628 134.39C213.188 135.837 213.958 137.073 214.938 138.1C215.964 139.127 217.271 139.64 218.858 139.64C219.791 139.64 220.794 139.43 221.868 139.01C222.988 138.59 224.084 137.82 225.158 136.7H226.208C225.601 138.053 224.761 139.173 223.688 140.06C222.614 140.9 221.471 141.577 220.258 142.09C219.091 142.557 217.878 142.883 216.618 143.07C215.404 143.257 214.308 143.35 213.328 143.35C211.741 143.35 210.178 143 208.638 142.3C207.144 141.553 205.791 140.433 204.578 138.94C203.411 137.447 202.454 135.58 201.708 133.34C201.008 131.053 200.658 128.37 200.658 125.29C200.658 119.457 201.754 115.07 203.948 112.13C206.141 109.143 209.408 107.65 213.748 107.65ZM216.408 124.38C216.408 122.467 216.384 120.577 216.338 118.71C216.291 116.843 216.174 115.187 215.988 113.74C215.848 112.247 215.591 111.033 215.218 110.1C214.891 109.167 214.401 108.7 213.748 108.7C213.141 108.7 212.651 109.167 212.278 110.1C211.951 111.033 211.694 112.247 211.508 113.74C211.321 115.233 211.204 116.913 211.158 118.78C211.158 120.647 211.158 122.513 211.158 124.38H216.408ZM228.42 143L230.52 136.7V120.53L228.84 115.35L241.02 108V113.74C241.953 112.2 243.12 110.87 244.52 109.75C245.966 108.583 247.483 108 249.07 108C249.863 108 250.563 108.093 251.17 108.28L246.27 120.53C246.176 118.29 245.873 116.68 245.36 115.7C244.893 114.72 244.193 114.23 243.26 114.23C242.7 114.23 241.953 114.463 241.02 114.93V136.7L243.12 143H228.42ZM252.053 136.7V120.53L250.373 115.35L262.553 108V136.7L264.653 143H249.953L252.053 136.7ZM251.703 101.28C251.703 99.74 252.24 98.4333 253.313 97.36C254.386 96.2867 255.693 95.75 257.233 95.75C258.773 95.75 260.08 96.2867 261.153 97.36C262.226 98.4333 262.763 99.74 262.763 101.28C262.763 102.82 262.226 104.127 261.153 105.2C260.08 106.273 258.773 106.81 257.233 106.81C255.693 106.81 254.386 106.273 253.313 105.2C252.24 104.127 251.703 102.82 251.703 101.28ZM279.381 110.45V136.7L281.481 143H266.781L268.881 136.7V110.45H266.081V109.4H268.881V108C268.881 104.967 269.184 102.353 269.791 100.16C270.444 97.9667 271.331 96.1467 272.451 94.7C273.618 93.2533 275.018 92.2033 276.651 91.55C278.284 90.85 280.081 90.5 282.041 90.5C286.148 90.5 289.344 91.9467 291.631 94.84L284.491 99.18C284.444 98.1533 284.351 97.1967 284.211 96.31C284.118 95.3767 283.978 94.56 283.791 93.86C283.604 93.16 283.371 92.6 283.091 92.18C282.811 91.76 282.461 91.55 282.041 91.55C281.294 91.55 280.734 92.18 280.361 93.44C279.988 94.7 279.731 96.2167 279.591 97.99C279.451 99.7167 279.381 101.513 279.381 103.38C279.381 105.247 279.381 106.787 279.381 108V109.4H284.631V110.45H279.381ZM308.574 141.95C310.067 141.95 311.257 141.483 312.144 140.55C313.03 139.617 313.707 138.193 314.174 136.28C314.64 134.367 314.944 131.94 315.084 129C315.224 126.06 315.294 122.56 315.294 118.5C315.294 114.44 315.224 110.94 315.084 108C314.944 105.06 314.64 102.633 314.174 100.72C313.707 98.8067 313.03 97.3833 312.144 96.45C311.257 95.5167 310.067 95.05 308.574 95.05V141.95ZM308.574 94C314.734 94 319.26 95.96 322.154 99.88C325.047 103.753 326.494 109.89 326.494 118.29C326.494 126.737 325 132.967 322.014 136.98C319.074 140.993 314.594 143 308.574 143H295.974L298.074 136.7V100.3L295.974 94H308.574ZM330.256 136.7V120.53L328.576 115.35L340.756 108V136.7L342.856 143H328.156L330.256 136.7ZM329.906 101.28C329.906 99.74 330.443 98.4333 331.516 97.36C332.589 96.2867 333.896 95.75 335.436 95.75C336.976 95.75 338.283 96.2867 339.356 97.36C340.429 98.4333 340.966 99.74 340.966 101.28C340.966 102.82 340.429 104.127 339.356 105.2C338.283 106.273 336.976 106.81 335.436 106.81C333.896 106.81 332.589 106.273 331.516 105.2C330.443 104.127 329.906 102.82 329.906 101.28ZM353.454 108H366.334V121.65L358.774 109.05H356.114C355.461 109.05 354.901 109.307 354.434 109.82C353.967 110.287 353.734 110.963 353.734 111.85C353.734 112.597 353.921 113.367 354.294 114.16C354.714 114.953 355.251 115.77 355.904 116.61C356.557 117.403 357.281 118.22 358.074 119.06C358.914 119.853 359.754 120.647 360.594 121.44C361.667 122.42 362.694 123.423 363.674 124.45C364.701 125.43 365.587 126.433 366.334 127.46C367.127 128.487 367.757 129.537 368.224 130.61C368.691 131.683 368.924 132.78 368.924 133.9C368.924 135.16 368.621 136.35 368.014 137.47C367.454 138.59 366.684 139.57 365.704 140.41C364.771 141.203 363.697 141.833 362.484 142.3C361.271 142.767 360.011 143 358.704 143H345.824L346.524 129.35L354.084 141.95H356.044C357.117 141.95 357.887 141.577 358.354 140.83C358.821 140.083 359.054 139.243 359.054 138.31C359.054 137.657 358.937 137.027 358.704 136.42C358.517 135.767 358.167 135.067 357.654 134.32C357.141 133.527 356.464 132.687 355.624 131.8C354.831 130.867 353.804 129.793 352.544 128.58C351.051 127.133 349.791 125.85 348.764 124.73C347.784 123.563 346.991 122.513 346.384 121.58C345.777 120.647 345.334 119.783 345.054 118.99C344.821 118.15 344.704 117.333 344.704 116.54C344.704 115.373 344.937 114.277 345.404 113.25C345.917 112.177 346.571 111.267 347.364 110.52C348.157 109.727 349.067 109.12 350.094 108.7C351.167 108.233 352.287 108 353.454 108ZM370.187 160.5L372.287 154.2V120.53L370.607 115.35L382.787 108V113.67C384.141 111.663 385.284 110.17 386.217 109.19C387.197 108.163 388.271 107.65 389.437 107.65C390.511 107.65 391.607 108.047 392.727 108.84C393.894 109.587 394.944 110.707 395.877 112.2C396.857 113.693 397.651 115.56 398.257 117.8C398.911 120.04 399.237 122.63 399.237 125.57C399.237 128.463 398.957 131.03 398.397 133.27C397.837 135.463 397.091 137.307 396.157 138.8C395.271 140.293 394.244 141.437 393.077 142.23C391.911 142.977 390.721 143.35 389.507 143.35C388.667 143.35 387.897 143.21 387.197 142.93C386.497 142.603 385.844 142.207 385.237 141.74C384.677 141.227 384.187 140.69 383.767 140.13C383.347 139.523 383.021 138.94 382.787 138.38V154.2L384.887 160.5H370.187ZM382.787 114.93V136.07C383.907 136.91 384.841 137.33 385.587 137.33C386.707 137.33 387.501 136.397 387.967 134.53C388.481 132.617 388.737 129.607 388.737 125.5C388.737 123.26 388.644 121.393 388.457 119.9C388.317 118.36 388.107 117.147 387.827 116.26C387.547 115.327 387.197 114.673 386.777 114.3C386.404 113.927 385.961 113.74 385.447 113.74C385.074 113.74 384.654 113.857 384.187 114.09C383.767 114.277 383.301 114.557 382.787 114.93ZM402.785 136.7V103.03L401.105 97.85L413.285 90.5V136.7L415.385 143H400.685L402.785 136.7ZM416.113 136.42C416.113 135.16 416.347 133.993 416.813 132.92C417.28 131.8 417.91 130.797 418.703 129.91C419.497 128.977 420.43 128.16 421.503 127.46C422.577 126.76 423.743 126.2 425.003 125.78L431.863 123.4V111.5C431.863 110.567 431.607 109.89 431.093 109.47C430.58 109.05 430.043 108.84 429.483 108.84C428.783 108.84 428.2 109.12 427.733 109.68C427.313 110.193 426.963 110.917 426.683 111.85C426.403 112.783 426.193 113.88 426.053 115.14C425.96 116.4 425.913 117.73 425.913 119.13L417.653 114.16C418.307 112.9 419.147 111.85 420.173 111.01C421.2 110.17 422.297 109.517 423.463 109.05C424.677 108.537 425.937 108.187 427.243 108C428.597 107.767 429.927 107.65 431.233 107.65C432.54 107.65 433.847 107.86 435.153 108.28C436.507 108.653 437.697 109.377 438.723 110.45C439.797 111.477 440.66 112.9 441.313 114.72C442.013 116.54 442.363 118.873 442.363 121.72V136.63L444.463 143H431.863V137.05C430.837 138.777 429.67 140.27 428.363 141.53C427.057 142.743 425.377 143.35 423.323 143.35C422.577 143.35 421.783 143.233 420.943 143C420.103 142.767 419.31 142.393 418.563 141.88C417.863 141.367 417.28 140.667 416.813 139.78C416.347 138.847 416.113 137.727 416.113 136.42ZM428.993 137.89C429.553 137.89 430.067 137.703 430.533 137.33C431.047 136.91 431.49 136.467 431.863 136V124.45C430.977 124.823 430.207 125.337 429.553 125.99C428.9 126.643 428.34 127.39 427.873 128.23C427.453 129.07 427.127 129.957 426.893 130.89C426.707 131.823 426.613 132.757 426.613 133.69C426.613 134.017 426.637 134.437 426.683 134.95C426.777 135.417 426.893 135.883 427.033 136.35C427.22 136.77 427.477 137.143 427.803 137.47C428.13 137.75 428.527 137.89 428.993 137.89ZM442.889 108H457.729L455.629 114.3L461.229 140.69L466.899 114.3L465.989 108H471.239L467.949 114.3L461.789 143C461.322 145.287 460.645 147.457 459.759 149.51C458.919 151.61 457.822 153.453 456.469 155.04C455.162 156.673 453.552 157.98 451.639 158.96C449.772 159.94 447.555 160.453 444.989 160.5V150C446.529 150 448.139 149.907 449.819 149.72C451.545 149.533 453.155 149.16 454.649 148.6C456.189 148.087 457.495 147.363 458.569 146.43C459.689 145.543 460.412 144.4 460.739 143H451.079L444.989 114.3L442.889 108Z" fill="black"/>
</svg>
