<svg width="360" height="294" viewBox="0 0 360 294" fill="none" xmlns="http://www.w3.org/2000/svg">
<g style="mix-blend-mode:multiply">
<g style="mix-blend-mode:multiply" opacity="0.01">
<path d="M156.65 132.263C224.15 94.7291 337.593 98.3001 340.7 170.153C342.342 206.09 306.792 236.961 268.559 252.967C246.53 262.169 222.958 269.512 200.236 272.235C179.498 274.758 159.374 273.423 142.002 266.052C117.896 255.819 95.3512 232.175 95.8453 205.651C96.3042 177.243 128.02 148.196 156.628 132.28L156.65 132.263Z" fill="#F5B330"/>
</g>
<g style="mix-blend-mode:multiply" opacity="0.03">
<path d="M156.408 132.608C223.47 95.4132 335.724 98.9901 339.059 170.001C340.733 205.686 305.38 236.404 267.503 252.258C245.722 261.373 222.343 268.602 199.833 271.372C178.99 273.941 158.62 272.674 141.302 265.191C117.519 254.9 95.3948 231.528 95.9783 205.233C96.6163 177.125 127.996 148.39 156.425 132.63L156.408 132.608Z" fill="#F4B331"/>
</g>
<g style="mix-blend-mode:multiply" opacity="0.04">
<path d="M156.224 132.96C222.844 96.1243 333.975 99.6758 337.477 169.838C339.245 205.258 304.012 235.813 266.508 251.536C244.955 260.562 221.803 267.722 199.468 270.515C178.518 273.149 157.921 271.951 140.623 264.312C117.165 253.964 95.3994 230.876 96.1331 204.798C96.9088 177.004 127.995 148.548 156.227 132.941L156.224 132.96Z" fill="#F4B332"/>
</g>
<g style="mix-blend-mode:multiply" opacity="0.06">
<path d="M156.06 133.315C222.26 96.821 332.261 100.386 335.913 169.697C337.771 204.871 302.678 235.266 265.529 250.837C244.206 259.774 221.263 266.841 199.12 269.679C176.977 272.516 157.223 271.229 139.978 263.478C116.841 253.092 95.4574 230.27 96.3217 204.407C97.2376 176.908 128.026 148.77 156.06 133.315V133.315Z" fill="#F3B433"/>
</g>
<g style="mix-blend-mode:multiply" opacity="0.07">
<path d="M155.876 133.667C221.637 97.5126 330.531 101.074 334.331 169.533C336.261 204.459 301.309 234.675 264.531 250.136C243.437 258.983 220.723 265.961 198.772 268.843C176.821 271.725 156.541 270.528 139.314 262.641C116.52 252.2 95.498 229.642 96.4906 204.013C97.5467 176.809 128.037 148.989 155.876 133.667V133.667Z" fill="#F3B434"/>
</g>
<g style="mix-blend-mode:multiply" opacity="0.08">
<path d="M155.715 134.003C221.034 98.2067 328.821 101.764 332.75 169.37C334.773 204.031 299.939 234.103 263.536 249.414C242.69 258.175 220.164 265.078 198.41 267.965C176.657 270.853 155.845 269.786 138.636 261.763C116.163 251.284 95.5224 228.993 96.6627 203.6C97.8784 176.693 128.032 149.186 155.715 134.003V134.003Z" fill="#F3B435"/>
</g>
<g style="mix-blend-mode:multiply" opacity="0.1">
<path d="M155.55 134.358C220.431 98.9009 327.11 102.455 331.188 169.209C333.302 203.625 298.609 233.517 262.559 248.696C241.943 257.367 219.646 264.181 198.065 267.11C176.484 270.039 155.166 269.066 137.993 260.909C115.842 250.392 95.563 228.365 96.8534 203.189C98.2094 176.578 128.068 149.369 155.55 134.358V134.358Z" fill="#F2B436"/>
</g>
<g style="mix-blend-mode:multiply" opacity="0.11">
<path d="M155.386 134.712C219.827 99.595 325.397 103.165 329.624 169.068C331.809 203.236 297.255 232.968 261.581 247.997C241.196 256.559 219.123 263.322 197.737 266.277C176.35 269.231 154.504 268.368 137.349 260.074C115.519 249.52 95.6209 227.759 97.0421 202.798C98.5383 176.481 128.099 149.59 155.386 134.712V134.712Z" fill="#F2B437"/>
</g>
<g style="mix-blend-mode:multiply" opacity="0.13">
<path d="M155.205 135.045C219.224 100.289 323.669 103.834 328.045 168.885C330.321 202.807 295.889 232.357 260.588 247.256C240.451 255.732 218.566 262.42 197.374 265.399C176.182 268.379 153.788 267.623 136.692 259.179C115.184 248.586 95.6692 227.073 97.2187 202.346C98.8525 176.344 128.117 149.751 155.227 135.028L155.205 135.045Z" fill="#F2B438"/>
</g>
<g style="mix-blend-mode:multiply" opacity="0.14">
<path d="M155.041 135.4C218.621 100.983 321.956 104.544 326.461 168.742C328.83 202.399 294.536 231.808 259.588 246.574C239.68 254.96 218.024 261.559 197.005 264.58C175.986 267.601 153.085 266.939 136.006 258.359C114.819 247.729 95.6667 226.479 97.3663 201.969C99.1404 176.262 128.107 149.987 155.021 135.398L155.041 135.4Z" fill="#F1B439"/>
</g>
<g style="mix-blend-mode:multiply" opacity="0.15">
<path d="M154.876 135.755C218.017 101.677 320.262 105.256 324.899 168.581C327.34 201.99 293.187 231.22 258.611 245.855C238.933 254.152 217.484 260.679 196.681 263.708C175.878 266.737 152.427 266.202 135.366 257.486C114.498 246.837 95.7292 225.834 97.5765 201.561C99.4239 177.287 128.143 150.17 154.876 135.755V135.755Z" fill="#F1B53A"/>
</g>
<g style="mix-blend-mode:multiply" opacity="0.17">
<path d="M154.715 136.09C217.414 102.371 318.554 105.927 323.337 168.42C325.869 201.583 291.855 230.653 257.635 245.136C238.206 253.347 216.964 259.801 196.336 262.853C174.396 266.112 151.768 265.485 134.724 256.632C114.175 245.965 95.7898 225.209 97.7678 201.15C99.8393 176.055 128.176 150.372 154.715 136.09V136.09Z" fill="#F0B53B"/>
</g>
<g style="mix-blend-mode:multiply" opacity="0.18">
<path d="M154.551 136.445C216.83 103.068 316.86 106.64 321.775 168.259C324.398 201.177 290.506 230.065 256.659 244.418C237.459 252.539 216.443 258.923 195.991 261.997C173.944 265.322 151.089 264.764 134.063 255.775C113.832 245.09 95.8113 224.579 97.9395 200.737C100.068 176.895 128.19 150.571 154.551 136.445Z" fill="#F0B53C"/>
</g>
<g style="mix-blend-mode:multiply" opacity="0.2">
<path d="M154.389 136.78C216.229 103.743 315.153 107.311 320.214 168.099C322.929 200.752 289.155 229.496 255.681 243.719C236.71 251.75 215.901 258.063 195.663 261.164C173.508 264.554 150.427 264.066 133.438 254.944C113.526 244.239 95.8914 223.956 98.1479 200.348C100.5 175.843 128.241 150.796 154.406 136.802L154.389 136.78Z" fill="#F0B53D"/>
</g>
<g style="mix-blend-mode:multiply" opacity="0.21">
<path d="M154.205 137.133C215.604 104.454 313.439 108.021 318.613 167.933C321.419 200.34 287.787 228.905 254.666 242.995C235.943 250.94 215.341 257.18 195.278 260.304C173.014 263.778 149.706 263.361 132.739 254.063C113.146 243.34 95.8955 223.304 98.2827 199.91C100.67 176.517 128.221 150.951 154.186 137.13L154.205 137.133Z" fill="#EFB53E"/>
</g>
<g style="mix-blend-mode:multiply" opacity="0.23">
<path d="M154.041 137.487C215.001 105.148 311.748 108.714 317.049 167.792C319.946 199.953 286.433 228.355 253.688 242.296C235.196 250.132 214.819 256.321 194.933 259.448C172.562 262.988 149.027 262.64 132.078 253.206C112.802 242.485 95.9175 222.673 98.4718 199.519C101.026 176.365 128.252 151.173 154.022 137.485L154.041 137.487Z" fill="#EFB53F"/>
</g>
<g style="mix-blend-mode:multiply" opacity="0.24">
<path d="M153.88 137.823C214.419 105.825 310.057 109.407 315.489 167.611C318.458 199.525 285.106 227.75 252.714 241.558C234.452 249.304 214.281 255.421 194.61 258.576C172.131 262.181 148.367 261.923 131.458 252.335C112.481 241.593 95.9997 222.031 98.6848 199.092C101.37 176.152 128.288 151.355 153.902 137.806L153.88 137.823Z" fill="#EFB540"/>
</g>
<g style="mix-blend-mode:multiply" opacity="0.25">
<path d="M153.715 138.178C213.814 106.539 308.366 110.1 313.925 167.47C316.984 199.138 283.753 227.2 251.733 240.878C233.7 248.535 213.756 254.583 194.26 257.76C171.671 261.45 147.703 261.244 130.791 251.518C112.13 240.776 96.0163 221.44 98.8515 198.717C101.759 175.431 128.297 151.594 153.713 138.197L153.715 138.178Z" fill="#EEB641"/>
</g>
<g style="mix-blend-mode:multiply" opacity="0.27">
<path d="M153.573 138.516C213.232 107.216 306.694 110.796 312.365 167.29C315.518 198.693 282.406 226.593 250.759 240.14C232.974 247.71 213.238 253.685 193.917 256.885C171.221 260.64 147.023 260.524 130.151 250.645C111.807 239.904 96.0789 220.795 99.0448 198.287C102.093 175.295 128.335 151.757 153.553 138.513L153.573 138.516Z" fill="#EEB642"/>
</g>
<g style="mix-blend-mode:multiply" opacity="0.28">
<path d="M153.409 138.87C212.629 107.91 305.003 111.489 310.801 167.148C314.044 198.306 281.072 226.045 249.781 239.441C232.225 246.922 212.715 252.827 193.591 256.032C170.785 259.872 146.361 259.826 129.509 249.791C111.481 239.051 96.1198 220.167 99.236 197.876C102.352 175.586 128.368 151.959 153.389 138.868L153.409 138.87Z" fill="#EDB643"/>
</g>
<g style="mix-blend-mode:multiply" opacity="0.3">
<path d="M153.247 139.206C212.045 108.607 303.331 112.185 309.242 166.968C312.576 197.881 279.726 225.438 248.808 238.702C231.481 246.094 212.178 251.927 193.248 255.157C170.335 259.063 145.704 259.089 128.853 248.896C111.139 238.176 96.1661 219.5 99.43 197.446C102.694 175.392 128.405 152.142 153.25 139.186L153.247 139.206Z" fill="#EDB644"/>
</g>
<g style="mix-blend-mode:multiply" opacity="0.31">
<path d="M153.085 139.541C211.444 109.281 301.642 112.858 307.679 166.807C311.105 197.474 278.394 224.871 247.831 237.984C230.753 245.289 211.655 251.069 192.922 254.304C169.899 258.295 145.042 258.39 128.23 248.044C111.417 237.698 96.2261 218.875 99.6402 197.038C103.054 175.201 128.457 152.347 153.105 139.543L153.085 139.541Z" fill="#EDB645"/>
</g>
<g style="mix-blend-mode:multiply" opacity="0.32">
<path d="M152.921 139.896C210.841 109.975 299.968 113.573 306.118 166.647C309.634 197.068 277.045 224.283 246.853 237.285C230.004 244.5 211.132 250.21 192.575 253.468C169.445 257.524 144.358 257.709 127.566 247.207C110.773 236.705 96.2454 218.264 99.8097 196.644C103.374 175.024 128.452 152.544 152.921 139.896V139.896Z" fill="#ECB646"/>
</g>
<g style="mix-blend-mode:multiply" opacity="0.34">
<path d="M152.779 140.234C210.257 110.672 298.297 114.269 304.556 166.486C308.182 196.664 275.694 223.714 245.877 236.566C229.259 243.673 210.612 249.333 192.23 252.613C168.99 256.754 143.696 257.011 126.924 246.353C110.151 235.696 96.3059 217.639 100.001 196.234C103.696 174.828 128.485 152.746 152.777 140.253L152.779 140.234Z" fill="#ECB647"/>
</g>
<g style="mix-blend-mode:multiply" opacity="0.35">
<path d="M152.615 140.588C209.654 111.366 296.625 114.964 302.994 166.325C306.711 196.258 274.365 223.128 244.901 235.847C228.532 242.867 210.069 248.472 191.906 251.74C168.559 255.947 143.034 256.313 126.284 245.48C109.534 234.647 96.3493 216.992 100.194 195.803C104.04 174.615 128.521 152.928 152.617 140.569L152.615 140.588Z" fill="#EBB748"/>
</g>
<g style="mix-blend-mode:multiply" opacity="0.37">
<path d="M152.473 140.926C209.092 112.046 294.973 115.662 301.452 166.167C305.26 195.854 273.033 222.561 243.945 235.131C227.804 242.062 209.568 247.596 191.581 250.888C168.124 255.179 142.391 255.617 125.642 244.626C108.892 233.635 96.3879 216.383 100.383 195.412C104.379 174.441 128.552 153.15 152.451 140.943L152.473 140.926Z" fill="#EBB749"/>
</g>
<g style="mix-blend-mode:multiply" opacity="0.38">
<path d="M152.311 141.262C208.488 112.74 293.304 116.339 299.892 165.987C303.791 195.428 271.687 221.953 242.969 234.412C227.057 241.254 209.045 246.738 191.235 250.032C167.668 254.408 141.71 254.916 125.002 243.753C108.295 232.589 96.4508 215.739 100.596 194.985C104.742 174.23 128.61 153.316 152.311 141.262Z" fill="#EBB74A"/>
</g>
<g style="mix-blend-mode:multiply" opacity="0.39">
<path d="M152.166 141.619C207.904 113.437 291.649 117.056 298.328 165.845C302.318 195.042 270.352 221.406 241.99 233.713C226.308 240.465 208.522 245.88 190.907 249.199C167.23 253.66 141.042 254.257 124.357 242.918C108.782 232.335 96.489 215.13 100.785 194.593C105.08 174.056 128.621 153.535 152.164 141.638L152.166 141.619Z" fill="#EAB74B"/>
</g>
<g style="mix-blend-mode:multiply" opacity="0.41">
<path d="M152.024 141.957C207.323 114.114 290.018 117.737 296.788 165.668C300.888 194.621 269.025 220.801 241.036 232.978C225.602 239.643 208.021 245.004 190.583 248.327C166.8 252.853 140.402 253.542 123.737 242.048C108.454 231.502 96.5518 214.486 100.998 194.166C105.357 174.211 128.677 153.72 152.024 141.957V141.957Z" fill="#EAB74C"/>
</g>
<g style="mix-blend-mode:multiply" opacity="0.42">
<path d="M151.882 142.295C206.759 114.813 288.366 118.435 295.246 165.509C299.436 194.217 267.713 220.237 240.079 232.262C224.875 238.838 207.501 244.127 190.26 247.454C166.367 252.065 139.74 252.844 123.097 241.174C108.106 230.666 96.5954 213.838 101.192 193.736C105.689 174.095 128.713 153.902 151.865 142.273L151.882 142.295Z" fill="#EAB74D"/>
</g>
<g style="mix-blend-mode:multiply" opacity="0.44">
<path d="M151.74 142.632C206.177 115.49 286.736 119.116 293.706 165.332C297.987 193.794 266.386 219.632 239.123 231.545C224.147 238.032 206.998 243.271 189.954 246.604C165.95 251.3 139.114 252.17 122.475 240.323C107.795 229.854 96.6535 213.233 101.402 193.327C106.018 173.999 128.768 154.088 151.72 142.63L151.74 142.632Z" fill="#E9B74E"/>
</g>
<g style="mix-blend-mode:multiply" opacity="0.45">
<path d="M151.597 142.97C205.596 116.167 285.103 119.817 292.163 165.173C296.555 193.392 265.054 219.065 238.166 230.829C223.442 237.21 206.494 242.415 189.628 245.751C165.515 250.532 138.45 251.491 121.852 239.471C107.464 229.04 96.7137 212.607 101.63 192.941C106.366 173.905 128.838 154.314 151.614 142.992L151.597 142.97Z" fill="#E9B84F"/>
</g>
<g style="mix-blend-mode:multiply" opacity="0.46">
<path d="M151.452 143.328C205.009 116.883 283.47 120.517 290.601 165.013C295.084 192.986 263.725 218.479 237.19 230.111C222.695 236.402 205.974 241.537 189.283 244.896C165.06 249.761 137.766 250.81 121.193 238.596C107.094 228.222 96.7378 211.958 101.804 192.509C106.87 173.059 128.854 154.494 151.433 143.325L151.452 143.328Z" fill="#E8B850"/>
</g>
<g style="mix-blend-mode:multiply" opacity="0.48">
<path d="M151.31 143.665C204.447 117.563 281.84 121.199 289.059 164.854C293.652 192.585 262.393 217.913 236.233 229.394C221.967 235.596 205.47 240.681 188.976 244.045C164.643 248.996 137.12 250.134 120.589 237.747C106.783 227.41 96.8174 211.335 102.034 192.103C107.25 172.871 128.907 154.699 151.31 143.665V143.665Z" fill="#E8B851"/>
</g>
<g style="mix-blend-mode:multiply" opacity="0.49">
<path d="M151.187 144.006C203.885 118.243 280.227 121.902 287.538 164.679C292.242 192.167 261.105 217.312 235.299 228.661C221.281 234.776 204.989 239.808 188.675 243.156C164.232 248.191 136.5 249.421 119.972 236.856C106.454 226.577 96.8804 210.69 102.249 191.656C107.618 172.621 128.967 154.845 151.19 143.986L151.187 144.006Z" fill="#E8B852"/>
</g>
<g style="mix-blend-mode:multiply" opacity="0.51">
<path d="M151.065 144.346C203.321 118.942 278.616 122.585 286.015 164.523C290.81 191.765 259.793 216.749 234.359 227.967C220.571 233.993 204.502 238.974 188.366 242.325C163.814 247.445 135.849 248.784 119.347 236.025C106.119 225.802 96.9385 210.084 102.458 191.267C107.689 173.461 129.018 155.069 151.045 144.344L151.065 144.346Z" fill="#E7B852"/>
</g>
<g style="mix-blend-mode:multiply" opacity="0.52">
<path d="M150.922 144.684C202.74 119.619 277.002 123.288 284.456 164.343C289.36 191.342 258.447 216.141 233.386 227.229C219.826 233.165 203.962 238.094 188.043 241.453C163.381 246.657 135.187 248.086 118.726 235.154C105.788 224.988 97.0012 209.439 102.688 190.861C108.037 173.367 129.09 155.276 150.92 144.703L150.922 144.684Z" fill="#E7B853"/>
</g>
<g style="mix-blend-mode:multiply" opacity="0.54">
<path d="M150.8 145.024C202.197 120.301 275.411 123.974 282.933 164.187C287.948 190.943 257.154 215.579 232.469 226.518C219.157 232.367 203.501 237.224 187.756 240.605C162.984 245.894 134.559 247.432 118.123 234.305C105.474 224.196 97.0815 208.817 102.918 190.455C108.388 173.254 129.163 155.483 150.797 145.044L150.8 145.024Z" fill="#E7B854"/>
</g>
<g style="mix-blend-mode:multiply" opacity="0.55">
<path d="M150.677 145.365C201.633 121 273.82 124.661 281.413 164.012C286.538 190.525 255.881 215.02 231.534 225.785C218.469 231.567 203.019 236.351 187.455 239.716C162.573 245.09 133.917 246.736 117.508 233.395C105.148 223.343 97.1273 208.15 103.136 189.989C108.724 173.099 129.226 155.61 150.679 145.345L150.677 145.365Z" fill="#E6B855"/>
</g>
<g style="mix-blend-mode:multiply" opacity="0.56">
<path d="M150.574 145.707C201.091 121.682 272.246 125.369 279.909 163.859C285.145 190.129 254.588 214.459 230.614 225.093C217.778 230.786 202.552 235.519 187.185 238.89C162.191 244.368 133.305 246.104 116.941 232.571C104.852 222.573 97.2437 207.552 103.403 189.608C109.109 173.03 129.315 155.839 150.593 145.71L150.574 145.707Z" fill="#E6B956"/>
</g>
<g style="mix-blend-mode:multiply" opacity="0.58">
<path d="M150.451 146.048C200.528 122.362 270.654 126.055 278.389 163.684C283.734 189.711 253.278 213.875 229.679 224.36C217.072 229.963 202.07 234.647 186.881 238.02C161.797 243.586 132.66 245.428 116.321 231.7C104.518 221.778 97.287 206.904 103.615 189.18C109.421 172.912 129.37 156.024 150.451 146.048V146.048Z" fill="#E5B957"/>
</g>
<g style="mix-blend-mode:multiply" opacity="0.59">
<path d="M150.348 146.391C200.003 123.066 269.082 126.743 276.866 163.528C282.322 189.312 251.987 213.294 228.742 223.646C216.383 229.163 201.587 233.793 186.575 237.17C161.381 242.82 131.993 244.768 115.718 230.851C104.185 220.984 97.3645 206.301 103.863 188.796C109.789 172.82 129.46 156.254 150.345 146.41L150.348 146.391Z" fill="#E5B958"/>
</g>
<g style="mix-blend-mode:multiply" opacity="0.61">
<path d="M150.225 146.731C199.441 123.746 267.51 127.432 275.345 163.353C280.912 188.893 250.677 212.711 227.807 222.913C215.68 228.321 201.105 232.92 186.29 236.302C160.984 242.057 131.365 244.114 115.117 229.982C103.871 220.192 97.4273 205.656 104.095 188.371C110.139 172.707 129.537 156.422 150.244 146.733L150.225 146.731Z" fill="#E5B959"/>
</g>
<g style="mix-blend-mode:multiply" opacity="0.62">
<path d="M150.144 147.057C198.921 124.411 265.98 128.106 273.864 163.182C279.56 188.483 249.429 212.116 226.909 222.204C215.011 227.523 200.66 232.072 186.026 235.437C160.609 241.277 130.737 243.46 114.536 229.117C103.557 219.4 97.5099 205.014 104.347 187.948C110.491 172.594 129.631 156.612 150.141 147.076L150.144 147.057Z" fill="#E4B95A"/>
</g>
<g style="mix-blend-mode:multiply" opacity="0.63">
<path d="M150.04 147.4C198.375 125.113 264.427 128.797 272.363 163.01C278.169 188.067 248.138 211.535 225.994 221.474C214.325 226.703 200.198 231.202 185.741 234.57C160.212 240.514 130.111 242.786 113.957 228.231C103.265 218.591 97.6113 204.374 104.601 187.506C110.846 172.442 129.708 156.78 150.042 147.38L150.04 147.4Z" fill="#E4B95B"/>
</g>
<g style="mix-blend-mode:multiply" opacity="0.65">
<path d="M149.956 147.745C197.852 125.797 262.894 129.491 270.859 162.856C276.795 187.673 246.848 210.954 225.076 220.763C213.656 225.905 199.731 230.37 185.473 233.725C159.855 239.756 129.48 242.151 113.373 227.385C102.949 217.818 97.6912 203.752 104.851 187.103C111.214 172.35 129.8 156.99 149.937 147.742L149.956 147.745Z" fill="#E4B95C"/>
</g>
<g style="mix-blend-mode:multiply" opacity="0.66">
<path d="M149.853 148.088C197.33 126.482 261.361 130.184 269.358 162.684C275.405 187.257 245.577 210.375 224.161 220.032C212.97 225.085 199.269 229.5 185.189 232.857C159.458 238.993 128.83 241.514 112.792 226.519C102.635 217.027 97.7739 203.109 105.101 186.7C111.562 172.257 129.895 157.18 149.853 148.088V148.088Z" fill="#E3BA5D"/>
</g>
<g style="mix-blend-mode:multiply" opacity="0.68">
<path d="M149.789 148.436C196.826 127.169 259.848 130.88 267.894 162.535C274.07 186.869 244.326 209.799 223.283 219.326C212.32 224.29 198.844 228.654 184.961 232.017C159.118 238.257 128.239 240.884 112.247 225.678C102.356 216.279 97.8928 202.492 105.409 186.304C111.972 172.151 130.045 157.397 149.806 148.458L149.789 148.436Z" fill="#E3BA5E"/>
</g>
<g style="mix-blend-mode:multiply" opacity="0.69">
<path d="M149.707 148.761C196.303 127.854 258.337 131.557 266.415 162.346C272.721 186.438 243.076 209.204 222.387 218.598C211.673 223.475 198.401 227.786 184.698 231.133C158.765 237.46 127.61 240.23 111.668 224.792C102.044 215.467 97.9554 201.847 105.663 185.862C112.325 172.018 130.141 157.567 149.707 148.761V148.761Z" fill="#E2BA5F"/>
</g>
<g style="mix-blend-mode:multiply" opacity="0.7">
<path d="M149.643 149.109C195.8 128.541 256.843 132.256 264.95 162.197C271.388 186.03 241.825 208.628 221.508 217.892C211.024 222.679 197.975 226.94 184.451 230.29C158.405 236.722 126.977 239.614 111.126 223.932C101.769 214.68 98.0769 201.209 105.954 185.444C112.717 171.89 130.275 157.763 149.662 149.112L149.643 149.109Z" fill="#E2BA60"/>
</g>
<g style="mix-blend-mode:multiply" opacity="0.72">
<path d="M149.581 149.438C195.318 129.211 255.373 132.918 263.471 162.008C270.058 185.602 240.559 208.01 220.615 217.144C210.362 221.823 197.532 226.072 184.207 229.408C158.068 235.946 126.368 238.963 110.566 223.049C101.475 213.891 98.181 200.55 106.228 185.005C113.09 171.76 130.374 157.914 149.583 149.418L149.581 149.438Z" fill="#E2BA61"/>
</g>
<g style="mix-blend-mode:multiply" opacity="0.73">
<path d="M149.516 149.785C194.812 129.918 253.879 133.616 262.006 161.859C268.724 185.213 239.324 207.457 219.736 216.438C209.731 221.03 197.107 225.227 183.959 228.565C157.708 235.208 125.735 238.347 110.022 222.207C101.175 213.14 98.2804 199.93 106.514 184.626C113.477 171.671 130.502 158.148 149.514 149.805L149.516 149.785Z" fill="#E1BA62"/>
</g>
<g style="mix-blend-mode:multiply" opacity="0.75">
<path d="M149.471 150.136C194.328 130.607 252.424 134.32 260.564 161.694C267.433 184.791 238.095 206.864 218.877 215.734C209.101 220.237 196.72 224.386 183.733 227.705C157.389 234.455 125.124 237.715 109.479 221.346C100.9 212.353 98.4017 199.293 106.824 184.211C113.886 171.566 130.655 158.346 149.471 150.136V150.136Z" fill="#E1BA63"/>
</g>
<g style="mix-blend-mode:multiply" opacity="0.76">
<path d="M149.448 150.469C193.866 131.28 250.993 134.987 259.141 161.531C266.159 184.39 236.882 206.293 218.04 215.013C208.493 219.427 196.333 223.545 183.546 226.85C157.09 233.704 124.529 237.105 108.976 220.491C100.642 211.588 98.5423 198.658 107.154 183.798C114.317 171.443 130.827 158.546 149.465 150.491L149.448 150.469Z" fill="#E0BB64"/>
</g>
<g style="mix-blend-mode:multiply" opacity="0.77">
<path d="M149.404 150.819C193.399 131.991 249.541 135.671 257.698 161.366C264.868 183.967 235.672 205.702 217.183 214.29C207.866 218.614 195.93 222.682 183.32 225.99C156.769 232.971 123.916 236.492 108.453 219.632C100.385 210.823 98.6639 198.021 107.465 183.383C114.707 171.335 130.983 158.724 149.423 150.822L149.404 150.819Z" fill="#E0BB65"/>
</g>
<g style="mix-blend-mode:multiply" opacity="0.79">
<path d="M149.381 151.153C192.936 132.664 248.129 136.341 256.255 161.201C263.574 183.564 234.44 205.129 216.326 213.567C207.257 217.804 195.526 221.819 183.094 225.131C156.43 232.215 123.282 235.876 107.913 218.752C100.09 210.033 98.768 197.361 107.758 182.946C115.102 171.187 131.118 158.899 149.364 151.131L149.381 151.153Z" fill="#E0BB66"/>
</g>
<g style="mix-blend-mode:multiply" opacity="0.8">
<path d="M149.377 151.489C192.494 133.339 246.738 137.013 254.854 161.021C262.345 183.129 233.272 204.524 215.509 212.849C206.669 216.997 195.159 220.981 182.927 224.278C156.168 231.489 122.705 235.288 107.449 217.901C99.8714 209.273 98.9505 196.712 108.125 182.558C115.55 171.087 131.307 159.122 149.375 151.508L149.377 151.489Z" fill="#DFBB67"/>
</g>
<g style="mix-blend-mode:multiply" opacity="0.82">
<path d="M149.371 151.844C192.046 134.053 245.343 137.704 253.448 160.88C261.09 182.731 232.076 203.975 214.688 212.15C206.08 216.19 194.792 220.142 182.74 223.423C155.888 230.741 122.089 234.695 106.945 217.045C99.6133 208.508 99.0912 196.077 108.474 182.147C115.981 170.964 131.499 159.324 149.391 151.846L149.371 151.844Z" fill="#DFBB68"/>
</g>
<g style="mix-blend-mode:multiply" opacity="0.83">
<path d="M149.368 152.18C191.623 134.731 243.952 138.377 252.047 160.701C259.86 182.296 230.888 203.368 213.873 211.413C205.513 215.365 194.427 219.285 182.555 222.549C155.589 229.99 121.475 234.082 106.444 216.17C99.358 207.724 99.237 195.404 108.806 181.715C116.415 170.822 131.676 159.485 149.368 152.18V152.18Z" fill="#DFBB69"/>
</g>
<g style="mix-blend-mode:multiply" opacity="0.85">
<path d="M149.381 152.538C191.197 135.428 242.579 139.051 250.641 160.56C258.702 182.069 229.714 202.802 213.053 210.714C204.922 214.577 194.079 218.449 182.385 221.716C155.325 229.264 120.876 233.51 105.977 215.338C99.1363 206.983 99.414 194.793 109.172 181.327C116.863 170.721 131.884 159.71 149.381 152.538V152.538Z" fill="#DEBB6A"/>
</g>
<g style="mix-blend-mode:multiply" opacity="0.86">
<path d="M149.397 152.876C190.772 136.125 241.226 139.728 249.259 160.383C257.292 181.037 228.543 202.216 212.257 209.979C204.355 213.753 193.734 217.593 182.22 220.844C155.065 228.519 120.26 232.917 105.496 214.466C98.9003 206.201 99.5597 194.12 109.524 180.897C117.296 170.579 132.079 159.893 149.397 152.876V152.876Z" fill="#DEBC6B"/>
</g>
<g style="mix-blend-mode:multiply" opacity="0.87">
<path d="M149.432 153.217C190.368 136.806 239.895 140.388 247.894 160.227C255.893 180.066 227.392 201.633 211.475 209.285C203.802 212.97 193.406 216.76 182.069 220.014C154.819 227.815 119.658 232.365 105.051 213.617C98.6788 205.461 99.7614 193.473 109.912 180.492C117.766 170.461 132.29 160.098 149.432 153.217Z" fill="#DDBC6C"/>
</g>
<g style="mix-blend-mode:multiply" opacity="0.89">
<path d="M149.465 153.577C189.981 137.508 238.562 141.068 246.53 160.072C255.115 180.58 226.257 201.072 210.696 208.572C203.274 212.15 193.078 215.926 181.943 219.147C154.598 227.074 119.061 231.774 104.608 212.749C98.4818 204.684 99.9462 192.804 110.32 180.089C118.259 170.326 132.542 160.289 149.485 153.58L149.465 153.577Z" fill="#DDBC6D"/>
</g>
<g style="mix-blend-mode:multiply" opacity="0.9">
<path d="M149.52 153.92C189.594 138.21 237.27 141.733 245.184 159.919C253.982 180.158 225.125 200.492 209.937 207.861C202.744 211.35 192.771 215.076 181.814 218.3C154.374 226.353 118.44 231.22 104.163 211.901C98.2627 203.924 100.128 192.155 110.708 179.684C118.729 170.209 132.773 160.496 149.52 153.92V153.92Z" fill="#DDBC6E"/>
</g>
<g style="mix-blend-mode:multiply" opacity="0.92">
<path d="M149.575 154.264C189.21 138.892 235.961 142.376 243.822 159.745C252.855 179.696 223.959 199.867 209.161 207.129C202.199 210.509 192.465 214.226 181.669 217.43C154.13 225.629 117.821 230.646 103.721 211.033C98.0463 203.144 100.313 191.486 111.099 179.26C119.204 170.052 133.006 160.685 149.575 154.264V154.264Z" fill="#DCBC6F"/>
</g>
<g style="mix-blend-mode:multiply" opacity="0.93">
<path d="M149.647 154.629C188.843 139.597 234.689 143.044 242.494 159.614C251.763 179.26 222.86 199.331 208.416 206.459C201.683 209.75 192.173 213.417 181.574 216.627C153.94 224.952 117.214 230.133 103.309 210.229C97.8611 202.428 100.531 190.862 111.521 178.898C119.708 169.978 133.27 160.936 149.644 154.649L149.647 154.629Z" fill="#DCBC70"/>
</g>
<g style="mix-blend-mode:multiply" opacity="0.94">
<path d="M149.721 154.975C188.475 140.302 233.419 143.692 241.17 159.444C250.677 178.784 221.75 198.734 207.678 205.732C201.175 208.933 191.886 212.569 181.47 215.743C153.738 224.214 116.596 229.559 102.908 209.346C97.6859 201.634 100.758 190.178 111.953 178.459C120.224 169.807 133.547 161.09 149.721 154.975V154.975Z" fill="#DCBC71"/>
</g>
<g style="mix-blend-mode:multiply" opacity="0.96">
<path d="M149.796 155.321C188.13 140.989 232.151 144.321 239.844 159.294C249.627 178.333 220.637 198.156 206.938 205.024C200.683 208.138 191.616 211.743 181.36 214.898C153.553 223.498 115.952 229.021 102.485 208.481C97.4889 200.857 100.964 189.493 112.381 178.059C120.736 169.675 133.797 161.3 149.796 155.321V155.321Z" fill="#DBBD72"/>
</g>
<g style="mix-blend-mode:multiply" opacity="0.97">
<path d="M149.887 155.689C187.782 141.696 230.9 144.972 238.518 159.144C248.563 177.84 219.541 197.6 206.198 204.316C200.172 207.341 191.329 210.895 181.27 214.056C153.365 222.801 115.329 228.486 102.079 207.638C97.2893 200.1 101.188 188.829 112.808 177.659C121.247 169.542 134.066 161.513 149.889 155.669L149.887 155.689Z" fill="#DBBD73"/>
</g>
<g style="mix-blend-mode:multiply" opacity="0.99">
<path d="M149.981 156.037C187.434 142.404 229.672 145.605 237.212 158.996C247.557 177.355 218.448 197.024 205.475 203.629C199.678 206.565 191.057 210.089 181.178 213.233C153.195 222.127 114.683 227.968 101.69 206.816C97.1263 199.366 101.431 188.168 113.252 177.281C121.776 169.432 134.353 161.748 149.978 156.056L149.981 156.037Z" fill="#DABD74"/>
</g>
<g style="mix-blend-mode:multiply">
<path d="M181.111 212.374C153.029 221.413 114.02 227.428 101.306 205.956C93.8263 193.325 113.06 169.679 150.072 156.405C187.087 143.111 228.424 146.237 235.906 158.848C246.573 176.853 217.372 196.471 204.755 202.924C199.206 205.773 190.806 209.265 181.089 212.391L181.111 212.374Z" fill="#DABD75"/>
</g>
</g>
<path d="M231.552 127.864C231.552 127.864 231.574 127.689 231.587 127.592C231.649 127.105 231.868 124.166 231.838 119.77C231.83 119.374 231.838 118.999 231.83 118.602C231.822 118.047 231.797 117.47 231.794 116.877C231.38 102.679 228.155 88.952 222.511 76.3586L222.462 76.2733C221.846 74.9084 221.211 73.541 220.531 72.2076C217.303 65.7599 213.436 59.6655 208.981 53.9903C206.914 51.2919 204.29 48.3046 201.998 45.973C200.463 44.3715 198.862 42.8209 197.214 41.3238C197.144 41.2554 197.056 41.1651 196.967 41.0942L196.753 40.9085C196.469 40.6545 196.185 40.4005 195.901 40.1465C194.836 39.1988 193.678 38.1997 192.406 37.1661C192.406 37.1661 192.317 37.0952 192.263 37.0488C191.654 36.5552 191.025 36.0592 190.341 35.5362C190.035 35.2991 189.726 35.0815 189.44 34.8469C189.187 34.6563 188.935 34.4657 188.663 34.2725C188.464 34.1283 188.245 33.9816 188.049 33.8179C184.179 30.9872 180.098 28.4065 175.789 26.0733C174.681 25.4565 173.828 25.0108 173.325 24.7682L172.545 24.3715L171.782 23.9966C171.782 23.9966 171.707 23.9672 171.67 23.9427L171.503 23.8619C171.131 23.6757 170.628 23.4332 170.254 23.2665L170.086 23.1856C170.086 23.1856 169.974 23.1317 169.899 23.1023L169.039 22.715C168.703 22.5533 168.234 22.3547 167.897 22.2124L166.903 21.7882C166.715 21.7049 166.528 21.6215 166.339 21.5576C166.28 21.5501 166.227 21.5037 166.169 21.4962L165.962 21.4104L165.644 21.2706L164.535 20.8119C164.253 20.6966 163.913 20.5739 163.612 20.4561C163.31 20.3383 163.028 20.223 162.725 20.1247L162.686 20.1197C162.499 20.0364 162.309 19.9725 162.122 19.8891C161.781 19.7663 161.366 19.6142 161.045 19.4939L160.289 19.2188C159.949 19.096 159.608 18.9733 159.246 18.8675L159.056 18.8036C158.792 18.7103 158.546 18.6194 158.278 18.5455L157.824 18.3883L157.255 18.1967L157.158 18.1842L156.971 18.1009C156.873 18.0884 156.762 18.0345 156.647 18.0001C156.363 17.9042 156.076 17.8278 155.811 17.7345C155.621 17.6706 155.429 17.6262 155.278 17.5673C154.975 17.469 154.649 17.3876 154.345 17.2893L153.545 17.0482C153.392 17.0088 153.219 16.9669 153.066 16.9275C152.818 16.8561 152.589 16.7872 152.339 16.7353L151.631 16.5456C151.25 16.4373 150.846 16.346 150.462 16.2571L149.387 16.0006C149.27 15.9856 149.156 15.9512 149.042 15.9167L148.964 15.9067C148.657 15.8279 148.312 15.744 147.964 15.6796C147.483 15.5783 146.982 15.4745 146.5 15.3731C146.152 15.3087 145.807 15.2249 145.498 15.1655C145.111 15.0961 144.744 15.0292 144.358 14.9598C143.971 14.8904 143.565 14.8185 143.158 14.7467C142.905 14.7142 142.672 14.6843 142.421 14.6324L141.765 14.5086C141.59 14.4861 141.434 14.4661 141.259 14.4437C141.064 14.4187 140.889 14.3963 140.694 14.3713C138.559 14.0578 136.435 13.8052 134.304 13.611C133.817 13.5486 133.364 13.5301 132.934 13.4946C132.464 13.4542 131.975 13.4112 131.503 13.3903C131.211 13.3528 130.914 13.3543 130.659 13.3413C129.951 13.3098 129.262 13.2809 128.593 13.2544C128.357 13.2439 128.121 13.2334 127.885 13.2229C126.899 13.1954 125.931 13.1899 125.021 13.1919C124.585 13.1953 124.13 13.1963 123.694 13.1998C123.694 13.1998 123.514 13.2162 123.417 13.2037C122.704 13.2112 122.01 13.2211 121.372 13.258C120.856 13.271 120.34 13.284 119.822 13.3164C118.649 13.3637 117.712 13.4216 117.091 13.4804C113.936 13.7088 110.803 14.0784 107.691 14.5893C105.836 14.8657 104.172 15.1865 102.117 15.635C93.5495 17.5035 85.2025 20.429 77.2391 24.3729L77.2197 24.3705C76.4348 24.7841 75.6328 25.1758 74.8673 25.592C74.7625 25.6379 74.6552 25.7032 74.5699 25.7516C73.2121 26.4677 71.8687 27.2251 70.5423 28.0046C70.435 28.0699 70.3277 28.1353 70.2204 28.2007L70.0937 28.2636C70.0937 28.2636 70.0278 28.3145 69.9863 28.3289C69.923 28.3604 69.8791 28.3943 69.8352 28.4282C69.7913 28.4622 69.7499 28.4766 69.7059 28.5106C69.3402 28.7406 68.9768 28.9512 68.6111 29.1812C67.8795 29.6413 67.1504 30.0819 66.4772 30.5495C66.0895 30.7965 65.6993 31.0629 65.3115 31.3099C64.531 31.8429 63.7725 32.3588 63.0774 32.8433L62.97 32.9087L62.8823 32.9766C62.7091 33.0929 62.5554 33.2116 62.3822 33.3279C58.7014 35.9616 56.4098 37.9427 56.2561 38.0614C55.1043 39.0215 53.9426 40.0594 52.7978 41.1193C51.9924 41.8469 51.1406 42.6278 50.2812 43.4672C50.2153 43.5181 50.1469 43.5884 50.1005 43.6418L49.9638 43.7825C48.2476 45.4417 46.4211 47.344 44.384 49.6544L44.3377 49.7078L44.2913 49.7612C44.2913 49.7612 44.2423 49.8341 44.2009 49.8485C43.2752 50.897 42.3101 52.0986 41.3374 53.3586C40.487 54.4364 39.6586 55.4974 38.9086 56.4101L36.4218 60.0674C35.5979 61.2476 34.8179 62.3938 34.1062 63.4697C32.7588 65.4927 31.2461 68.1869 29.7619 71.1221L29.7544 71.1805C28.4613 73.7051 27.2261 76.3953 26.0982 79.0202L26.0468 79.1125C26.0468 79.1125 26.0368 79.1903 26.0123 79.2268C24.5875 82.6246 23.3797 85.8723 22.6779 88.4134C20.0186 98.0426 19.7995 98.8255 18.8685 105.313C17.7033 113.473 17.7912 119.419 17.8405 122.274C17.9722 130.5 19.127 136.919 19.4902 139.023C20.824 146.514 22.3088 150.977 23.7526 155.297C24.6372 157.962 25.3442 159.853 26.3131 162.015C27.4387 164.652 28.72 167.309 30.1061 169.92C30.2633 170.237 30.4204 170.554 30.5776 170.871C31.9292 173.596 34.0134 177.088 35.7917 179.571C37.0999 181.4 38.7979 183.893 40.1695 185.691C41.5437 187.47 43.4028 189.785 44.9307 191.445C46.6087 193.322 47.2998 194.103 48.901 195.654C50.8245 197.622 52.819 199.5 54.8309 201.241L54.8503 201.244C55.5079 201.823 56.1681 202.382 56.8308 202.922C57.6197 203.557 58.3891 204.19 59.0932 204.716C59.4719 205.002 59.9963 205.386 60.5911 205.838L60.863 206.031C61.4773 206.485 62.2008 207.014 63.0191 207.573C63.2013 207.696 63.3834 207.818 63.5461 207.938C65.9427 209.61 68.9711 211.601 72.3866 213.503C73.1251 213.914 74.1406 214.48 75.3651 215.111C75.6979 215.293 76.0502 215.476 76.383 215.657L78.1859 216.561C78.5577 216.747 79.0631 216.971 79.4348 217.157L79.8819 217.372L79.9792 217.385L80.6473 217.728C80.9826 217.889 81.4518 218.088 81.7896 218.23L82.9148 218.711L83.0121 218.723C87.3962 220.631 91.6382 222.105 95.745 223.245L96.1266 223.353C96.4694 223.456 96.8732 223.548 97.2939 223.661C97.3328 223.666 97.3717 223.671 97.4106 223.676C97.7559 223.76 98.1181 223.866 98.4245 223.944L100.727 224.497C101.766 224.729 103.152 225.026 104.212 225.241C105.176 225.443 106.355 225.654 107.479 225.838L107.537 225.845C108.099 225.937 108.661 226.029 109.148 226.091C110.602 226.317 112.553 226.528 114.032 226.718C115.531 226.91 117.558 226.992 119.066 227.106C122.295 227.224 126.583 227.259 129.803 227.138C132.327 227.046 135.682 226.804 138.163 226.43C138.788 226.332 139.456 226.22 140.123 226.108C142.08 225.805 144.123 225.454 145.821 225.177L147.82 224.701C149.427 224.354 151.018 223.984 152.594 223.573L153.39 223.378C155.248 222.924 157.519 222.187 159.551 221.458C160.421 221.154 161.29 220.85 162.163 220.527C164.487 219.678 167.401 218.548 169.537 217.477C169.6 217.445 169.685 217.397 169.768 217.368C171.725 216.452 173.671 215.475 175.584 214.434C176.009 214.212 176.43 214.009 176.813 213.801L178.915 212.527C179.473 212.184 180.049 211.862 180.607 211.518L183.801 209.593C185.023 208.86 187.23 207.382 190.553 204.762C190.597 204.728 190.663 204.677 190.726 204.646L191.058 204.372C192.778 202.99 194.75 201.344 197.066 199.326C197.112 199.273 197.178 199.222 197.222 199.188C199.477 197.183 203.31 193.52 207.608 188.235L207.725 188.092C208.712 186.873 209.729 185.579 210.736 184.205C211.168 183.608 211.601 183.011 212.036 182.394C212.64 181.541 213.241 180.709 213.735 179.941C213.885 179.703 214.058 179.429 214.23 179.174C215.09 177.86 215.961 176.468 216.818 175.035C217.999 173.07 219.145 171.08 220.005 169.311C221.533 166.342 222.989 163.166 224.331 159.797C225.186 157.75 225.948 155.672 226.531 153.748C227.214 151.66 227.868 149.489 228.45 147.269C228.595 146.753 228.716 146.274 228.839 145.775C229.581 142.765 230.202 139.62 230.697 136.38C230.712 136.263 230.727 136.146 230.742 136.029L230.772 135.796C231.14 133.232 231.436 130.619 231.644 127.916L231.552 127.864Z" fill="url(#paint0_radial_40_552)"/>
<path d="M228.216 91.4128C228.069 90.7017 227.884 89.9855 227.677 89.2864C227.848 89.9611 228.033 90.6772 228.216 91.4128Z" fill="url(#paint1_linear_40_552)"/>
<path d="M16.9396 124.057C16.9027 123.419 16.8633 122.801 16.8384 122.224C16.8583 122.84 16.8977 123.458 16.9396 124.057Z" fill="url(#paint2_linear_40_552)"/>
<path d="M215.263 134.103C193.831 204.035 112.277 180.103 99.1553 148.845C95.2476 139.521 96.2438 129.441 94.5373 119.767C130.8 117.118 188.245 108.165 212.648 99.5842C218.062 124.927 216.161 131.113 215.265 134.084" fill="white"/>
<path d="M128.352 72.9663C128.883 75.7644 127.603 77.262 127.023 77.7809C125.033 79.5634 122.053 81.5154 119.911 83.1003C117.465 84.9032 108.631 91.4655 98.1102 99.9282C93.6384 103.331 88.7544 99.4601 89.5631 94.6974C90.0518 91.8125 90.1013 91.5815 114.278 73.812C100.379 69.596 97.4854 68.7106 88.5754 65.8467C83.8684 63.6802 86.5484 58.2079 89.8524 56.97C90.0181 56.9121 90.2446 56.8422 90.4297 56.7869C91.0807 56.6462 102.163 59.6963 123.675 65.9372C125.717 66.6739 126.773 67.6994 127.475 69.6292C127.787 70.7376 128.1 71.846 128.391 72.9713" fill="#412121"/>
<path d="M206.614 77.9992C207.347 80.9221 206.294 82.8048 204.225 82.2823C203.88 82.1984 203.603 82.0442 203.36 81.9339C194.803 77.5525 188.847 74.6324 174.781 70.0192C172.576 69.1627 171.286 67.9685 170.176 65.8281C169.683 64.7361 169.19 63.6443 168.694 62.5718C167.931 60.7067 169.133 57.9134 172.301 54.1917C174.514 51.5874 177.609 47.3552 179.743 41.9712C179.976 41.546 180.066 41.4587 180.692 41.361C184.079 41.4789 188.656 46.2004 188.613 48.2325C188.596 48.3687 188.434 51.7901 180.191 62.5429C188.956 65.7641 193.358 67.3772 202.299 72.0056C205.33 73.977 206.304 76.8714 206.59 78.0356" fill="#412121"/>
<path d="M230.267 149.599C227.022 162.1 222.333 167.968 219.599 162.909C217.219 158.489 217.136 150.348 217.084 143.813C216.954 128.781 216.318 112.3 210.397 90.611C229.889 90.2426 231.35 100.598 232.63 109.743L233.256 116.273C233.452 124 233.367 129.805 233 133.688C232.375 138.257 231.396 144.343 230.44 148.869C230.393 149.081 230.317 149.368 230.27 149.579" fill="#87A8DC"/>
<path d="M92.9084 110.873C103.37 164.717 100.37 172.068 98.9254 175.621C92.2532 192.016 75.9148 190.929 63.5654 182.955C45.9872 171.64 40.7859 150.657 46.0452 137.721C51.074 125.349 74.42 115.445 92.8894 110.713L92.9279 110.876" fill="#87A8DC"/>
<defs>
<radialGradient id="paint0_radial_40_552" cx="0" cy="0" r="1" gradientUnits="userSpaceOnUse" gradientTransform="translate(128.684 137.91) rotate(7.07887) scale(123.001 123.008)">
<stop stop-color="#F79F40"/>
<stop offset="0.16" stop-color="#F7A442"/>
<stop offset="0.37" stop-color="#F8B449"/>
<stop offset="0.6" stop-color="#F9CE55"/>
<stop offset="0.77" stop-color="#FBE660"/>
<stop offset="0.91" stop-color="#FBF36F"/>
<stop offset="0.93" stop-color="#FBF672"/>
<stop offset="0.95" stop-color="#FBF676"/>
<stop offset="0.96" stop-color="#FBF782"/>
<stop offset="0.98" stop-color="#FBF897"/>
<stop offset="0.99" stop-color="#FCFAB4"/>
<stop offset="1" stop-color="#FDFBC2"/>
</radialGradient>
<linearGradient id="paint1_linear_40_552" x1="227.515" y1="90.368" x2="228.312" y2="90.4722" gradientUnits="userSpaceOnUse">
<stop stop-color="#19B79C"/>
<stop offset="0.4" stop-color="#1DBB9D"/>
<stop offset="0.82" stop-color="#29C7A2"/>
<stop offset="1" stop-color="#31CFA6"/>
</linearGradient>
<linearGradient id="paint2_linear_40_552" x1="16.6582" y1="123.151" x2="17.0085" y2="123.197" gradientUnits="userSpaceOnUse">
<stop stop-color="#19B79C"/>
<stop offset="0.4" stop-color="#1DBB9D"/>
<stop offset="0.82" stop-color="#29C7A2"/>
<stop offset="1" stop-color="#31CFA6"/>
</linearGradient>
</defs>
</svg>
