<svg width="1645" height="1221" viewBox="0 0 1645 1221" fill="none" xmlns="http://www.w3.org/2000/svg">
<path d="M875.657 956.147C875.657 956.147 875.676 955.992 875.685 955.914C875.736 955.505 875.901 953.034 875.859 949.352C875.86 949.016 875.84 948.697 875.839 948.381C875.836 947.926 875.818 947.429 875.8 946.933C875.385 935.021 872.607 923.51 867.814 912.958L867.785 912.875C867.254 911.723 866.721 910.59 866.147 909.472C863.409 904.075 860.142 898.968 856.355 894.233C854.595 891.981 852.392 889.477 850.456 887.539C849.158 886.193 847.795 884.899 846.408 883.641C846.337 883.573 846.266 883.506 846.215 883.44L846.037 883.28C845.805 883.073 845.556 882.845 845.325 882.639C844.435 881.837 843.447 881.024 842.387 880.163L842.26 880.068C841.738 879.648 841.214 879.248 840.654 878.823C840.4 878.634 840.147 878.444 839.893 878.255C839.676 878.09 839.479 877.927 839.24 877.78C839.057 877.658 838.894 877.539 838.713 877.399C835.445 875.04 832.014 872.879 828.395 870.952C827.47 870.443 826.744 870.077 826.315 869.867L825.662 869.549L825.028 869.234L824.936 869.183L824.787 869.106C824.47 868.948 824.039 868.757 823.723 868.599L823.574 868.522C823.574 868.522 823.481 868.471 823.425 868.444L822.695 868.117C822.414 867.984 822.02 867.817 821.737 867.703L820.911 867.345C820.76 867.287 820.592 867.207 820.441 867.149L820.31 867.093L820.139 867.032L819.876 866.921L818.953 866.551C818.727 866.464 818.425 866.348 818.179 866.258C817.933 866.169 817.687 866.079 817.443 865.97L817.404 865.965C817.253 865.907 817.083 865.847 816.932 865.789C816.649 865.675 816.308 865.554 816.023 865.46L815.378 865.242C815.093 865.148 814.808 865.053 814.506 864.937L814.355 864.879C814.145 864.814 813.919 864.727 813.69 864.659L813.31 864.533L812.835 864.376L812.757 864.367L812.587 864.306C812.587 864.306 812.416 864.246 812.319 864.234C812.09 864.166 811.842 864.096 811.613 864.028C811.459 863.99 811.289 863.929 811.155 863.893C810.887 863.821 810.639 863.751 810.371 863.678L809.701 863.497C809.584 863.483 809.433 863.425 809.299 863.389C809.087 863.343 808.898 863.28 808.686 863.234C808.474 863.188 808.284 863.125 808.092 863.082C807.765 863.002 807.439 862.923 807.113 862.843L806.209 862.634C806.112 862.622 806.017 862.59 805.922 862.559L805.864 862.551C805.615 862.481 805.326 862.426 805.036 862.371C804.632 862.282 804.208 862.19 803.801 862.12C803.512 862.065 803.222 862.01 802.954 861.937C802.625 861.877 802.316 861.819 802.007 861.762C801.676 861.721 801.35 861.642 801.002 861.579C800.787 861.553 800.593 861.529 800.381 861.483L799.816 861.414C799.684 861.358 799.526 861.358 799.392 861.322C799.237 861.303 799.081 861.284 798.925 861.265C797.138 861.006 795.344 860.805 793.545 860.644C793.136 860.593 792.762 860.587 792.392 860.542C791.98 860.511 791.588 860.482 791.177 860.452C790.924 860.421 790.666 860.429 790.471 860.405C789.882 860.372 789.31 860.361 788.741 860.33C788.546 860.307 788.346 860.322 788.13 860.315C787.302 860.292 786.492 860.292 785.72 860.296C785.346 860.289 784.968 860.302 784.613 860.298C784.613 860.298 784.455 860.298 784.375 860.308C783.761 860.312 783.204 860.343 782.669 860.356C782.231 860.381 781.795 860.387 781.357 860.412C780.362 860.468 779.586 860.511 779.065 860.566C776.43 860.776 773.8 861.105 771.177 861.535C769.625 861.779 768.229 862.043 766.499 862.443C759.324 864.053 752.318 866.534 745.659 869.887C745.003 870.242 744.33 870.574 743.673 870.928C743.588 870.977 743.503 871.026 743.418 871.075C742.276 871.686 741.15 872.319 740.04 872.993C739.955 873.042 739.869 873.091 739.763 873.157L739.658 873.203C739.658 873.203 739.595 873.235 739.573 873.252C739.529 873.286 739.488 873.301 739.444 873.335L739.337 873.401C739.038 873.582 738.717 873.779 738.418 873.96C737.799 874.339 737.196 874.739 736.618 875.103C736.294 875.32 735.971 875.538 735.648 875.755C734.98 876.207 734.353 876.644 733.767 877.066L733.682 877.115L733.617 877.166C733.485 877.269 733.335 877.369 733.204 877.471C730.123 879.703 728.199 881.364 728.085 881.489C727.115 882.299 726.158 883.17 725.199 884.06C724.509 884.687 723.817 885.334 723.098 886.036C723.052 886.09 722.987 886.141 722.943 886.175L722.831 886.28C721.393 887.685 719.871 889.297 718.189 891.245L718.145 891.28L718.101 891.314L718.031 891.404C717.269 892.299 716.453 893.306 715.65 894.373C714.946 895.275 714.243 896.177 713.633 896.953L711.554 900.038C710.878 901.043 710.225 902.01 709.621 902.905C708.503 904.606 707.235 906.882 706.002 909.36L705.997 909.399C704.926 911.521 703.897 913.787 702.972 916.006L702.962 916.084C702.962 916.084 702.916 916.137 702.892 916.174C701.71 919.034 700.704 921.757 700.124 923.9C697.925 931.992 697.744 932.662 696.996 938.105C696.055 944.968 696.153 949.962 696.215 952.362C696.354 959.278 697.356 964.64 697.691 966.421C698.856 972.712 700.117 976.445 701.334 980.054C702.086 982.301 702.706 983.86 703.51 985.678C704.464 987.891 705.557 990.101 706.73 992.301C706.854 992.573 707.001 992.828 707.126 993.101C708.269 995.376 710.045 998.303 711.529 1000.38C712.645 1001.92 714.071 1004 715.23 1005.5C716.391 1006.99 717.953 1008.92 719.265 1010.31C720.673 1011.88 721.266 1012.53 722.61 1013.82C724.246 1015.47 725.912 1017.03 727.611 1018.49L727.631 1018.49C728.184 1018.97 728.74 1019.44 729.296 1019.9C729.961 1020.44 730.61 1020.95 731.207 1021.4C731.514 1021.64 731.968 1021.97 732.458 1022.33L732.694 1022.49C733.22 1022.87 733.82 1023.3 734.512 1023.78C734.659 1023.88 734.802 1024 734.968 1024.1C736.991 1025.49 739.555 1027.15 742.406 1028.73C743.034 1029.08 743.887 1029.54 744.91 1030.06C745.188 1030.22 745.485 1030.37 745.763 1030.52L747.273 1031.26C747.59 1031.42 748.021 1031.61 748.338 1031.77L748.713 1031.93L748.791 1031.94L749.349 1032.23C749.629 1032.36 750.024 1032.53 750.306 1032.64L751.244 1033.05L751.322 1033.06C755.003 1034.64 758.59 1035.85 762.031 1036.81L762.355 1036.91C762.642 1036.98 762.985 1037.09 763.331 1037.17L763.429 1037.18C763.714 1037.27 764.02 1037.35 764.269 1037.42L766.209 1037.88C767.074 1038.08 768.252 1038.31 769.138 1038.49C769.949 1038.65 770.935 1038.83 771.887 1038.97L771.926 1038.97C772.413 1039.03 772.856 1039.13 773.284 1039.18C774.509 1039.35 776.147 1039.53 777.374 1039.68C778.64 1039.84 780.331 1039.91 781.587 1039.98C784.286 1040.06 787.9 1040.09 790.604 1039.96C792.709 1039.89 795.526 1039.64 797.621 1039.32C798.144 1039.25 798.711 1039.14 799.275 1039.05C800.929 1038.78 802.627 1038.47 804.06 1038.23L805.751 1037.83C807.091 1037.54 808.436 1037.21 809.764 1036.86L810.436 1036.7C811.985 1036.32 813.882 1035.68 815.599 1035.06C816.321 1034.82 817.065 1034.55 817.77 1034.28C819.715 1033.57 822.169 1032.59 823.941 1031.68C824.004 1031.65 824.067 1031.62 824.131 1031.59C825.767 1030.82 827.391 1029.99 829.002 1029.1C829.34 1028.92 829.7 1028.73 830.035 1028.57L831.809 1027.49C832.279 1027.21 832.75 1026.91 833.219 1026.63L835.89 1025C836.916 1024.38 838.77 1023.12 841.532 1020.91C841.576 1020.88 841.62 1020.84 841.683 1020.81L841.948 1020.59C843.396 1019.42 845.028 1018.04 846.959 1016.32C847.003 1016.29 847.049 1016.23 847.092 1016.2C848.98 1014.51 852.168 1011.4 855.758 1006.96L855.85 1006.85C856.668 1005.83 857.513 1004.75 858.367 1003.59C858.726 1003.08 859.102 1002.59 859.463 1002.06C859.966 1001.35 860.468 1000.64 860.883 1000C861.006 999.798 861.152 999.578 861.297 999.359C862.028 998.242 862.743 997.085 863.446 995.867C864.44 994.209 865.378 992.526 866.093 991.052C867.37 988.54 868.567 985.879 869.685 983.051C870.392 981.319 871.021 979.578 871.516 977.958C872.089 976.19 872.608 974.376 873.096 972.498C873.207 972.077 873.318 971.656 873.407 971.251C874.015 968.717 874.515 966.089 874.93 963.353C874.942 963.256 874.954 963.158 874.966 963.061L874.99 962.866C875.294 960.709 875.526 958.504 875.684 956.25L875.657 956.147Z" fill="url(#paint0_radial_79_2055)"/>
<path d="M872.69 925.576C872.565 924.987 872.4 924.394 872.236 923.8C872.383 924.372 872.528 924.963 872.69 925.576Z" fill="url(#paint1_linear_79_2055)"/>
<path d="M695.469 953.93C695.436 953.393 695.401 952.874 695.361 952.395C695.377 952.911 695.412 953.429 695.469 953.93Z" fill="url(#paint2_linear_79_2055)"/>
<path d="M823.981 937.98C826.292 934.291 830.175 928.105 824.058 925.12C823.605 924.946 823.022 924.697 817.468 923.085C813.593 930.814 809.198 939.566 800.06 939.768C788.287 940.023 777.289 935.569 765.785 934.116C756.089 932.906 746.223 934.047 736.586 932.034C731.498 930.974 729.702 926.76 729.165 925.014C729.109 924.829 727.822 920.5 728.45 911.839C708.382 913.645 723.315 946.259 735.831 957.344C765.642 983.739 807.938 963.509 823.964 937.959" fill="#412121"/>
<path d="M817.468 923.086C813.593 930.814 809.197 939.566 800.06 939.768C788.286 940.023 777.289 935.569 765.784 934.117C756.088 932.906 746.223 934.047 736.586 932.034C731.497 930.974 729.702 926.76 729.165 925.014C729.109 924.829 727.822 920.5 728.45 911.839C767.505 908.668 809.446 920.638 817.448 923.083" fill="white"/>
<path d="M761.572 882.615C761.223 883.205 760.398 884.606 757.745 885.605C749.519 888.687 742.433 891.336 731.981 898.217C729.578 899.76 727.868 899.195 728.316 896.996C729.32 892.039 741.796 886.058 752.072 881.903C747.782 879.815 745.823 878.863 741.622 877.339C740.493 876.548 744.619 873.535 747.664 872.565C749.789 871.996 760 877.065 762.029 878.085C763.002 878.698 763.156 879.37 762.614 880.568C762.255 881.236 761.894 881.923 761.552 882.613" fill="#412121"/>
<path d="M828.256 909.603C827.235 911.316 824.78 911.667 822.787 910.355C822.275 910.015 822.009 909.765 821.76 909.537C814.59 902.568 809.516 897.853 799.523 890.853C798.009 889.659 797.542 888.633 797.879 887.172C798.126 886.451 798.348 885.767 798.59 885.085C800.143 881.618 816.899 881.837 826.748 882.275C827.432 882.34 827.873 882.453 828.623 882.782C832.178 884.583 832.922 887.541 831.344 888.316C831.049 888.464 828.95 888.496 825.046 888.412C823.055 888.365 818.385 888.405 809.48 889.13C816.001 894.142 819.596 896.896 827.096 904.242C829.394 906.936 828.658 908.901 828.234 909.62" fill="#412121"/>
<defs>
<radialGradient id="paint0_radial_79_2055" cx="0" cy="0" r="1" gradientUnits="userSpaceOnUse" gradientTransform="translate(789.357 965.054) rotate(6.76999) scale(103.263 103.269)">
<stop stop-color="#F79F40"/>
<stop offset="0.16" stop-color="#F7A442"/>
<stop offset="0.37" stop-color="#F8B449"/>
<stop offset="0.6" stop-color="#F9CE55"/>
<stop offset="0.77" stop-color="#FBE660"/>
<stop offset="0.91" stop-color="#FBF36F"/>
<stop offset="0.93" stop-color="#FBF672"/>
<stop offset="0.95" stop-color="#FBF676"/>
<stop offset="0.96" stop-color="#FBF782"/>
<stop offset="0.98" stop-color="#FBF897"/>
<stop offset="0.99" stop-color="#FCFAB4"/>
<stop offset="1" stop-color="#FDFBC2"/>
</radialGradient>
<linearGradient id="paint1_linear_79_2055" x1="872.066" y1="924.697" x2="872.728" y2="924.78" gradientUnits="userSpaceOnUse">
<stop stop-color="#19B79C"/>
<stop offset="0.4" stop-color="#1DBB9D"/>
<stop offset="0.82" stop-color="#29C7A2"/>
<stop offset="1" stop-color="#31CFA6"/>
</linearGradient>
<linearGradient id="paint2_linear_79_2055" x1="695.209" y1="953.178" x2="695.482" y2="953.212" gradientUnits="userSpaceOnUse">
<stop stop-color="#19B79C"/>
<stop offset="0.4" stop-color="#1DBB9D"/>
<stop offset="0.82" stop-color="#29C7A2"/>
<stop offset="1" stop-color="#31CFA6"/>
</linearGradient>
</defs>
</svg>
