<svg width="1645" height="1221" viewBox="0 0 1645 1221" fill="none" xmlns="http://www.w3.org/2000/svg">
<g style="mix-blend-mode:multiply">
<g style="mix-blend-mode:multiply" opacity="0.01">
<path d="M1081.26 558.791C1148.56 520.894 1262.02 523.853 1265.52 595.688C1267.35 631.616 1231.97 662.678 1193.82 678.89C1171.84 688.211 1148.31 695.68 1125.6 698.527C1104.88 701.161 1084.75 699.935 1067.34 692.657C1043.18 682.554 1020.51 659.033 1020.86 632.506C1021.16 604.096 1052.72 574.878 1081.24 558.809L1081.26 558.791Z" fill="#F5B330"/>
</g>
<g style="mix-blend-mode:multiply" opacity="0.03">
<path d="M1081.02 559.138C1147.88 521.582 1260.16 524.553 1263.87 595.546C1265.74 631.221 1230.55 662.129 1192.76 678.186C1171.03 687.419 1147.69 694.774 1125.2 697.666C1104.37 700.347 1083.99 699.19 1066.63 691.8C1042.8 681.637 1020.54 658.385 1020.99 632.087C1021.47 603.976 1052.7 575.073 1081.04 559.16L1081.02 559.138Z" fill="#F4B331"/>
</g>
<g style="mix-blend-mode:multiply" opacity="0.04">
<path d="M1080.84 559.491C1147.26 522.296 1258.41 525.249 1262.29 595.391C1264.25 630.8 1229.18 661.545 1191.76 677.471C1170.26 686.613 1147.15 693.897 1124.83 696.81C1103.89 699.557 1083.29 698.471 1065.95 690.925C1042.44 680.704 1020.55 657.733 1021.14 631.651C1021.77 603.854 1052.7 575.231 1080.84 559.471L1080.84 559.491Z" fill="#F4B332"/>
</g>
<g style="mix-blend-mode:multiply" opacity="0.06">
<path d="M1080.68 559.847C1146.68 522.996 1256.7 525.968 1260.73 595.258C1262.77 630.421 1227.85 661.005 1190.78 676.777C1169.51 685.828 1146.6 693.019 1124.47 695.976C1102.35 698.933 1082.59 697.752 1065.3 690.094C1042.11 679.833 1020.6 657.127 1021.33 631.259C1022.09 603.756 1052.73 575.452 1080.68 559.847V559.847Z" fill="#F3B433"/>
</g>
<g style="mix-blend-mode:multiply" opacity="0.07">
<path d="M1080.5 560.2C1146.06 523.691 1254.97 526.665 1259.14 595.103C1261.26 630.018 1226.47 660.422 1189.78 676.08C1168.73 685.041 1146.06 692.142 1124.12 695.142C1102.19 698.142 1081.9 697.055 1064.63 689.261C1041.78 678.943 1020.64 656.499 1021.49 630.864C1022.4 603.655 1052.74 575.671 1080.5 560.2V560.2Z" fill="#F3B434"/>
</g>
<g style="mix-blend-mode:multiply" opacity="0.08">
<path d="M1080.34 560.536C1145.46 524.388 1253.27 527.365 1257.56 594.949C1259.77 629.598 1225.1 659.858 1188.78 675.365C1167.98 684.238 1145.49 691.262 1123.76 694.267C1102.02 697.271 1081.2 696.317 1063.95 688.386C1041.42 678.029 1020.66 655.849 1021.66 630.45C1022.73 603.538 1052.74 575.868 1080.34 560.536V560.536Z" fill="#F3B435"/>
</g>
<g style="mix-blend-mode:multiply" opacity="0.1">
<path d="M1080.18 560.892C1144.86 525.086 1251.56 528.065 1256 594.796C1258.3 629.2 1223.77 659.279 1187.8 674.651C1167.23 683.434 1144.97 690.367 1123.41 693.413C1101.84 696.459 1080.52 695.6 1063.3 687.536C1041.09 677.139 1020.7 655.221 1021.85 630.039C1023.06 603.42 1052.77 576.051 1080.18 560.892V560.892Z" fill="#F2B436"/>
</g>
<g style="mix-blend-mode:multiply" opacity="0.11">
<path d="M1080.01 561.247C1144.26 525.783 1249.85 528.784 1254.43 594.663C1256.8 628.819 1222.41 658.737 1186.82 673.957C1166.48 682.63 1144.44 689.512 1123.07 692.581C1101.7 695.651 1079.85 694.905 1062.65 686.705C1040.77 676.268 1020.75 654.615 1022.04 629.646C1023.39 603.322 1052.81 576.272 1080.01 561.247V561.247Z" fill="#F2B437"/>
</g>
<g style="mix-blend-mode:multiply" opacity="0.13">
<path d="M1079.83 561.581C1143.66 526.48 1248.13 529.462 1252.85 594.489C1255.31 628.398 1221.04 658.134 1185.82 673.222C1165.73 681.806 1143.88 688.613 1122.71 691.706C1101.53 694.8 1079.13 694.165 1061.99 685.813C1040.43 675.337 1020.8 653.928 1022.21 629.193C1023.71 603.183 1052.83 576.433 1079.86 561.564L1079.83 561.581Z" fill="#F2B438"/>
</g>
<g style="mix-blend-mode:multiply" opacity="0.14">
<path d="M1079.67 561.937C1143.07 527.178 1246.42 530.181 1251.27 594.354C1253.82 627.998 1219.68 657.591 1184.82 672.545C1164.95 681.039 1143.33 687.755 1122.33 690.889C1101.33 694.024 1078.42 693.485 1061.3 684.997C1040.06 674.481 1020.79 653.335 1022.36 628.816C1023.99 603.099 1052.82 576.669 1079.65 561.935L1079.67 561.937Z" fill="#F1B439"/>
</g>
<g style="mix-blend-mode:multiply" opacity="0.15">
<path d="M1079.51 562.293C1142.47 527.875 1244.73 530.903 1249.71 594.202C1252.33 627.597 1218.33 657.01 1183.84 671.832C1164.2 680.235 1142.79 686.877 1122 690.019C1101.22 693.16 1077.76 692.751 1060.66 684.127C1039.73 673.591 1020.85 652.689 1022.57 628.406C1024.28 604.123 1052.85 576.851 1079.51 562.293V562.293Z" fill="#F1B53A"/>
</g>
<g style="mix-blend-mode:multiply" opacity="0.17">
<path d="M1079.35 562.629C1141.87 528.573 1243.02 531.583 1248.14 594.049C1250.85 627.198 1217 656.451 1182.86 671.119C1163.47 679.433 1142.26 686.002 1121.65 689.165C1099.73 692.543 1077.1 692.037 1060.01 683.276C1039.4 672.72 1020.91 652.064 1022.75 627.995C1024.69 602.889 1052.89 577.053 1079.35 562.629V562.629Z" fill="#F0B53B"/>
</g>
<g style="mix-blend-mode:multiply" opacity="0.18">
<path d="M1079.19 562.985C1141.29 529.272 1241.33 532.305 1246.58 593.897C1249.38 626.8 1215.65 655.87 1181.88 670.405C1162.72 678.629 1141.74 685.127 1121.3 688.312C1099.28 691.755 1076.42 691.321 1059.34 682.424C1039.06 671.847 1020.92 651.433 1022.92 627.581C1024.92 603.728 1052.9 577.253 1079.19 562.985Z" fill="#F0B53C"/>
</g>
<g style="mix-blend-mode:multiply" opacity="0.2">
<path d="M1079.03 563.321C1140.69 529.95 1239.63 532.985 1245.02 593.745C1247.91 626.382 1214.29 655.308 1180.89 669.711C1161.97 677.845 1141.19 684.27 1120.97 687.48C1098.84 690.989 1075.75 690.626 1058.71 681.595C1038.74 670.998 1021 650.81 1023.13 627.191C1025.35 602.673 1052.96 577.477 1079.04 563.343L1079.03 563.321Z" fill="#F0B53D"/>
</g>
<g style="mix-blend-mode:multiply" opacity="0.21">
<path d="M1078.85 563.674C1140.07 530.665 1237.92 533.704 1243.42 593.587C1246.4 625.979 1212.92 654.725 1179.88 668.993C1161.2 677.039 1140.63 683.39 1120.58 686.622C1098.34 690.216 1075.03 689.924 1058.01 680.718C1038.36 670.101 1021 650.158 1023.26 626.752C1025.52 603.347 1052.94 577.632 1078.83 563.672L1078.85 563.674Z" fill="#EFB53E"/>
</g>
<g style="mix-blend-mode:multiply" opacity="0.23">
<path d="M1078.68 564.03C1139.47 531.362 1236.23 534.407 1241.85 593.455C1244.92 625.6 1211.56 654.182 1178.89 668.299C1160.44 676.235 1140.1 682.534 1120.23 685.768C1097.88 689.429 1074.34 689.208 1057.34 679.865C1038.01 669.248 1021.02 649.528 1023.45 626.36C1025.88 603.193 1052.97 577.854 1078.66 564.027L1078.68 564.03Z" fill="#EFB53F"/>
</g>
<g style="mix-blend-mode:multiply" opacity="0.24">
<path d="M1078.52 564.366C1138.89 532.042 1234.55 535.109 1240.29 593.283C1243.43 625.18 1210.23 653.584 1177.92 667.566C1159.7 675.411 1139.56 681.637 1119.9 684.898C1097.45 688.624 1073.68 688.494 1056.72 678.998C1037.69 668.358 1021.1 648.885 1023.66 625.931C1026.22 602.978 1053.01 578.036 1078.55 564.349L1078.52 564.366Z" fill="#EFB540"/>
</g>
<g style="mix-blend-mode:multiply" opacity="0.25">
<path d="M1078.36 564.722C1138.29 532.759 1232.86 535.811 1238.73 593.15C1241.96 624.801 1208.88 653.042 1176.93 666.892C1158.94 674.646 1139.03 680.801 1119.55 684.083C1096.98 687.895 1073.01 687.819 1056.05 678.184C1037.33 667.543 1021.11 648.293 1023.82 625.556C1026.61 602.254 1053.02 578.275 1078.36 564.741L1078.36 564.722Z" fill="#EEB641"/>
</g>
<g style="mix-blend-mode:multiply" opacity="0.27">
<path d="M1078.22 565.06C1137.71 533.44 1231.19 536.516 1237.17 592.978C1240.49 624.364 1207.53 652.441 1175.95 666.159C1158.21 673.825 1138.51 679.907 1119.2 683.21C1096.53 687.088 1072.33 687.102 1055.4 677.314C1037 666.673 1021.17 647.648 1024.02 625.125C1026.94 602.117 1053.05 578.438 1078.2 565.058L1078.22 565.06Z" fill="#EEB642"/>
</g>
<g style="mix-blend-mode:multiply" opacity="0.28">
<path d="M1078.06 565.416C1137.11 534.137 1229.5 537.218 1235.6 592.845C1239.01 623.985 1206.19 651.902 1174.97 665.465C1157.46 673.041 1137.98 679.051 1118.87 682.359C1096.09 686.322 1071.66 686.408 1054.76 676.464C1036.67 665.821 1021.21 647.02 1024.21 624.713C1027.2 602.406 1053.09 578.64 1078.04 565.414L1078.06 565.416Z" fill="#EDB643"/>
</g>
<g style="mix-blend-mode:multiply" opacity="0.3">
<path d="M1077.9 565.752C1136.53 534.837 1227.84 537.922 1234.04 592.673C1237.54 623.567 1204.84 651.301 1173.99 664.732C1156.71 672.217 1137.44 678.154 1118.52 681.486C1095.63 685.516 1071 685.674 1054.1 675.572C1036.32 664.948 1021.25 646.353 1024.4 624.282C1027.54 602.211 1053.13 578.822 1077.9 565.733L1077.9 565.752Z" fill="#EDB644"/>
</g>
<g style="mix-blend-mode:multiply" opacity="0.31">
<path d="M1077.74 566.088C1135.93 535.514 1226.15 538.605 1232.48 592.521C1236.07 623.169 1203.51 650.742 1173.01 664.019C1155.98 671.416 1136.91 677.299 1118.19 680.635C1095.19 684.75 1070.34 684.979 1053.47 674.724C1036.6 664.468 1021.31 645.728 1024.6 623.873C1027.9 602.018 1053.18 579.026 1077.76 566.091L1077.74 566.088Z" fill="#EDB645"/>
</g>
<g style="mix-blend-mode:multiply" opacity="0.32">
<path d="M1077.58 566.444C1135.33 536.212 1224.48 539.329 1230.92 592.369C1234.6 622.771 1202.15 650.161 1172.03 663.325C1155.22 670.632 1136.38 676.443 1117.84 679.801C1094.73 683.982 1069.65 684.302 1052.8 673.891C1035.95 663.479 1021.32 645.117 1024.77 623.478C1028.22 601.839 1053.18 579.224 1077.58 566.444V566.444Z" fill="#ECB646"/>
</g>
<g style="mix-blend-mode:multiply" opacity="0.34">
<path d="M1077.44 566.783C1134.75 536.912 1222.81 540.034 1229.35 592.216C1233.14 622.375 1200.8 649.599 1171.05 662.612C1154.47 669.808 1135.86 675.568 1117.49 678.948C1094.27 683.214 1068.98 683.607 1052.15 673.04C1035.32 662.473 1021.38 644.491 1024.96 623.066C1028.54 601.641 1053.21 579.426 1077.43 566.802L1077.44 566.783Z" fill="#ECB647"/>
</g>
<g style="mix-blend-mode:multiply" opacity="0.35">
<path d="M1077.27 567.138C1134.15 537.609 1221.14 540.738 1227.79 592.064C1231.67 621.976 1199.47 649.02 1170.07 661.898C1153.74 669.007 1135.31 674.71 1117.16 678.077C1093.84 682.409 1068.32 682.913 1051.51 672.17C1034.7 661.428 1021.42 643.844 1025.15 622.635C1028.88 601.426 1053.25 579.608 1077.28 567.119L1077.27 567.138Z" fill="#EBB748"/>
</g>
<g style="mix-blend-mode:multiply" opacity="0.37">
<path d="M1077.13 567.477C1133.6 538.292 1219.5 541.445 1226.25 591.914C1230.21 621.58 1198.13 648.461 1169.11 661.187C1153.01 668.205 1134.8 673.838 1116.83 677.226C1093.4 681.643 1067.67 682.221 1050.86 671.32C1034.05 660.419 1021.46 643.235 1025.34 622.243C1029.22 601.251 1053.28 579.829 1077.11 567.494L1077.13 567.477Z" fill="#EBB749"/>
</g>
<g style="mix-blend-mode:multiply" opacity="0.38">
<path d="M1076.97 567.813C1133 538.989 1217.83 542.13 1224.69 591.742C1228.74 621.162 1196.78 647.86 1168.13 660.474C1152.26 667.401 1134.28 672.982 1116.48 676.372C1092.94 680.875 1066.99 681.524 1050.22 670.45C1033.45 659.377 1021.52 642.59 1025.55 621.814C1029.58 601.038 1053.34 579.995 1076.97 567.813Z" fill="#EBB74A"/>
</g>
<g style="mix-blend-mode:multiply" opacity="0.39">
<path d="M1076.83 568.171C1132.42 539.689 1216.18 542.857 1223.12 591.609C1227.27 620.784 1195.45 647.32 1167.15 659.78C1151.5 666.617 1133.75 672.127 1116.15 675.541C1092.5 680.129 1066.31 680.868 1049.57 669.619C1033.94 659.12 1021.55 641.982 1025.74 621.422C1029.92 600.862 1053.35 580.214 1076.83 568.191L1076.83 568.171Z" fill="#EAB74B"/>
</g>
<g style="mix-blend-mode:multiply" opacity="0.41">
<path d="M1076.69 568.51C1131.84 540.369 1214.55 543.547 1221.58 591.44C1225.84 620.371 1194.12 646.722 1166.19 659.05C1150.79 665.798 1133.24 671.254 1115.82 674.67C1092.06 679.325 1065.67 680.156 1048.94 668.752C1033.6 658.289 1021.61 641.337 1025.95 620.993C1030.2 601.015 1053.41 580.399 1076.69 568.51V568.51Z" fill="#EAB74C"/>
</g>
<g style="mix-blend-mode:multiply" opacity="0.42">
<path d="M1076.55 568.848C1131.28 541.071 1212.9 544.254 1220.04 591.29C1224.38 619.975 1192.8 646.165 1165.23 658.339C1150.06 664.996 1132.72 670.379 1115.5 673.8C1091.63 678.539 1065 679.462 1048.3 667.882C1033.25 657.454 1021.65 640.689 1026.14 620.562C1030.53 600.897 1053.44 580.581 1076.53 568.826L1076.55 568.848Z" fill="#EAB74D"/>
</g>
<g style="mix-blend-mode:multiply" opacity="0.44">
<path d="M1076.41 569.187C1130.7 541.752 1211.28 544.944 1218.5 591.121C1222.93 619.559 1191.47 645.567 1164.27 657.628C1149.33 664.195 1132.21 669.526 1115.18 672.951C1091.21 677.776 1064.38 678.791 1047.67 667.034C1032.94 656.645 1021.71 640.083 1026.35 620.153C1030.86 600.799 1053.5 580.766 1076.39 569.185L1076.41 569.187Z" fill="#E9B74E"/>
</g>
<g style="mix-blend-mode:multiply" opacity="0.45">
<path d="M1076.27 569.526C1130.12 542.432 1209.65 545.653 1216.95 590.971C1221.5 619.166 1190.14 645.008 1163.31 656.917C1148.62 663.376 1131.7 668.673 1114.85 672.1C1090.77 677.01 1063.71 678.116 1047.04 666.186C1032.6 655.832 1021.76 639.458 1026.57 619.765C1031.21 600.703 1053.57 580.992 1076.29 569.547L1076.27 569.526Z" fill="#E9B84F"/>
</g>
<g style="mix-blend-mode:multiply" opacity="0.46">
<path d="M1076.13 569.884C1129.54 543.151 1208.02 546.362 1215.39 590.818C1220.02 618.767 1188.8 644.429 1162.33 656.203C1147.87 662.572 1131.18 667.798 1114.5 671.246C1090.31 676.242 1063.02 677.439 1046.38 665.314C1032.23 655.016 1021.78 638.808 1026.74 619.332C1031.7 599.855 1053.59 581.172 1076.11 569.881L1076.13 569.884Z" fill="#E8B850"/>
</g>
<g style="mix-blend-mode:multiply" opacity="0.48">
<path d="M1075.99 570.222C1128.98 543.834 1206.39 547.052 1213.85 590.668C1218.59 618.374 1187.47 643.87 1161.37 655.492C1147.14 661.771 1130.67 666.945 1114.19 670.398C1089.89 675.479 1062.37 676.766 1045.77 664.468C1031.91 654.206 1021.86 638.184 1026.97 618.925C1032.08 599.665 1053.64 581.376 1075.99 570.222V570.222Z" fill="#E8B851"/>
</g>
<g style="mix-blend-mode:multiply" opacity="0.49">
<path d="M1075.86 570.563C1128.42 544.516 1204.78 547.764 1212.33 590.501C1217.18 617.963 1186.18 643.276 1160.43 654.764C1146.45 660.955 1130.18 666.074 1113.89 669.51C1089.47 674.677 1061.75 676.057 1045.15 663.581C1031.58 653.374 1021.92 637.539 1027.18 618.476C1032.45 599.413 1053.7 581.522 1075.87 570.544L1075.86 570.563Z" fill="#E8B852"/>
</g>
<g style="mix-blend-mode:multiply" opacity="0.51">
<path d="M1075.74 570.904C1127.86 545.219 1203.18 548.456 1210.8 590.354C1215.74 617.57 1184.86 642.719 1159.49 654.075C1145.73 660.175 1129.69 665.243 1113.57 668.681C1089.05 673.933 1061.09 675.423 1044.52 662.752C1031.24 652.601 1021.97 636.933 1027.39 618.086C1032.53 600.253 1053.76 581.746 1075.72 570.902L1075.74 570.904Z" fill="#E7B852"/>
</g>
<g style="mix-blend-mode:multiply" opacity="0.52">
<path d="M1075.6 571.243C1127.29 545.899 1201.57 549.168 1209.24 590.182C1214.29 617.154 1183.51 642.119 1158.51 653.342C1144.98 659.351 1129.15 664.366 1113.25 667.81C1088.61 673.148 1060.43 674.728 1043.9 661.885C1030.9 651.789 1022.03 636.288 1027.62 617.679C1032.87 600.157 1053.83 581.953 1075.6 571.262L1075.6 571.243Z" fill="#E7B853"/>
</g>
<g style="mix-blend-mode:multiply" opacity="0.54">
<path d="M1075.48 571.584C1126.75 546.584 1199.98 549.863 1207.72 590.034C1212.88 616.763 1182.22 641.564 1157.59 652.636C1144.31 658.557 1128.68 663.498 1112.95 666.964C1088.21 672.387 1059.79 674.077 1043.29 661.039C1030.58 650.999 1022.11 635.665 1027.85 617.273C1033.22 600.042 1053.9 582.16 1075.48 571.603L1075.48 571.584Z" fill="#E7B854"/>
</g>
<g style="mix-blend-mode:multiply" opacity="0.55">
<path d="M1075.36 571.925C1126.19 547.286 1198.39 550.557 1206.2 589.867C1211.46 616.352 1180.94 641.012 1156.65 651.908C1143.62 657.76 1128.19 662.628 1112.65 666.076C1087.8 671.585 1059.15 673.385 1042.67 660.133C1030.25 650.147 1022.15 634.998 1028.06 616.805C1033.56 599.885 1053.97 582.286 1075.36 571.905L1075.36 571.925Z" fill="#E6B855"/>
</g>
<g style="mix-blend-mode:multiply" opacity="0.56">
<path d="M1075.26 572.268C1125.65 547.971 1196.82 551.274 1204.69 589.722C1210.07 615.963 1179.64 640.458 1155.73 651.221C1142.92 656.983 1127.72 661.799 1112.37 665.252C1087.41 670.865 1058.53 672.756 1042.1 659.311C1029.95 649.379 1022.26 634.399 1028.33 616.422C1033.94 599.814 1054.06 582.515 1075.28 572.271L1075.26 572.268Z" fill="#E6B956"/>
</g>
<g style="mix-blend-mode:multiply" opacity="0.58">
<path d="M1075.14 572.609C1125.09 548.654 1195.23 551.968 1203.17 589.555C1208.66 615.553 1178.33 639.881 1154.79 650.493C1142.21 656.164 1127.24 660.929 1112.06 664.384C1087.01 670.085 1057.88 672.083 1041.47 658.444C1029.62 648.586 1022.3 633.752 1028.54 615.993C1034.25 599.694 1054.11 582.699 1075.14 572.609V572.609Z" fill="#E5B957"/>
</g>
<g style="mix-blend-mode:multiply" opacity="0.59">
<path d="M1075.04 572.953C1124.57 549.361 1193.66 552.665 1201.65 589.408C1207.24 615.162 1177.04 639.307 1153.85 649.784C1141.52 655.368 1126.75 660.078 1111.75 663.535C1086.59 669.321 1057.21 671.428 1040.86 657.598C1029.28 647.794 1022.38 633.148 1028.78 615.608C1034.62 599.601 1054.2 582.928 1075.04 572.972L1075.04 572.953Z" fill="#E5B958"/>
</g>
<g style="mix-blend-mode:multiply" opacity="0.61">
<path d="M1074.92 573.294C1124.01 550.043 1192.1 553.363 1200.13 589.241C1205.83 614.751 1175.72 638.731 1152.91 649.056C1140.81 654.53 1126.26 659.208 1111.47 662.669C1086.19 668.561 1056.58 670.777 1040.26 656.733C1028.96 647.003 1022.44 632.503 1029.01 615.182C1034.97 599.486 1054.28 583.096 1074.94 573.296L1074.92 573.294Z" fill="#E5B959"/>
</g>
<g style="mix-blend-mode:multiply" opacity="0.62">
<path d="M1074.84 573.62C1123.49 550.711 1190.57 554.045 1198.64 589.078C1204.48 614.348 1174.47 638.142 1152.01 648.353C1140.14 653.735 1125.81 658.362 1111.2 661.806C1085.81 667.783 1055.95 670.126 1039.67 655.871C1028.64 646.213 1022.52 631.86 1029.26 614.758C1035.32 599.371 1054.38 583.285 1074.84 573.639L1074.84 573.62Z" fill="#E4B95A"/>
</g>
<g style="mix-blend-mode:multiply" opacity="0.63">
<path d="M1074.74 573.963C1122.95 551.416 1189.02 554.744 1197.14 588.914C1203.08 613.939 1173.18 637.568 1151.09 647.627C1139.45 652.919 1125.35 657.494 1110.91 660.94C1085.41 667.022 1055.32 669.456 1039.09 654.988C1028.35 645.406 1022.62 631.22 1029.51 614.314C1035.68 599.216 1054.46 583.453 1074.74 573.944L1074.74 573.963Z" fill="#E4B95B"/>
</g>
<g style="mix-blend-mode:multiply" opacity="0.65">
<path d="M1074.65 574.309C1122.43 552.103 1187.49 555.446 1195.64 588.768C1201.71 613.553 1171.88 636.994 1150.17 646.921C1138.77 652.125 1124.87 656.665 1110.63 660.096C1085.05 666.266 1054.69 668.824 1038.5 654.145C1028.03 644.635 1022.69 630.597 1029.76 613.91C1036.05 599.123 1054.55 583.662 1074.63 574.307L1074.65 574.309Z" fill="#E4B95C"/>
</g>
<g style="mix-blend-mode:multiply" opacity="0.66">
<path d="M1074.55 574.652C1121.91 552.791 1185.96 556.148 1194.13 588.604C1200.31 613.145 1170.61 636.423 1149.25 646.195C1138.08 651.308 1124.41 655.797 1110.35 659.23C1084.65 665.505 1054.03 668.191 1037.91 653.282C1027.71 643.845 1022.77 629.954 1030.01 613.505C1036.39 599.027 1054.64 583.852 1074.55 574.652V574.652Z" fill="#E3BA5D"/>
</g>
<g style="mix-blend-mode:multiply" opacity="0.68">
<path d="M1074.49 575.001C1121.41 553.481 1184.45 556.852 1192.67 588.463C1198.98 612.763 1169.36 635.854 1148.37 645.494C1137.43 650.516 1123.98 654.953 1110.11 658.391C1084.3 664.771 1053.44 667.564 1037.37 652.444C1027.42 643.098 1022.89 629.336 1030.31 613.108C1036.8 598.919 1054.79 584.068 1074.51 575.023L1074.49 575.001Z" fill="#E3BA5E"/>
</g>
<g style="mix-blend-mode:multiply" opacity="0.69">
<path d="M1074.41 575.327C1120.89 554.168 1182.95 557.537 1191.19 588.282C1197.63 612.34 1168.1 635.265 1147.47 644.77C1136.78 649.705 1123.53 654.088 1109.85 657.508C1083.95 663.975 1052.81 666.913 1036.78 651.562C1027.11 642.289 1022.95 628.69 1030.57 612.664C1037.15 598.785 1054.89 584.238 1074.41 575.327V575.327Z" fill="#E2BA5F"/>
</g>
<g style="mix-blend-mode:multiply" opacity="0.7">
<path d="M1074.35 575.675C1120.39 554.858 1181.46 558.244 1189.72 588.141C1196.29 611.939 1166.85 634.696 1146.58 644.069C1136.12 648.913 1123.1 653.244 1109.59 656.667C1083.58 663.239 1052.17 666.301 1036.24 650.704C1026.83 641.503 1023.06 628.053 1030.86 612.245C1037.55 598.655 1055.03 584.433 1074.37 575.677L1074.35 575.675Z" fill="#E2BA60"/>
</g>
<g style="mix-blend-mode:multiply" opacity="0.72">
<path d="M1074.29 576.004C1119.92 555.531 1179.99 558.914 1188.24 587.96C1194.96 611.518 1165.58 634.085 1145.69 643.326C1135.46 648.06 1122.65 652.379 1109.34 655.786C1083.24 662.466 1051.56 665.653 1035.67 649.824C1026.53 640.715 1023.16 627.393 1031.13 611.804C1037.92 598.523 1055.13 584.583 1074.29 575.984L1074.29 576.004Z" fill="#E2BA61"/>
</g>
<g style="mix-blend-mode:multiply" opacity="0.73">
<path d="M1074.23 576.352C1119.41 556.24 1178.5 559.62 1186.78 587.819C1193.62 611.137 1164.34 633.538 1144.8 642.625C1134.82 647.271 1122.22 651.535 1109.09 654.945C1082.88 661.729 1050.92 665.041 1035.12 648.986C1026.23 639.966 1023.26 626.772 1031.41 611.424C1038.3 598.432 1055.26 584.817 1074.22 576.371L1074.23 576.352Z" fill="#E1BA62"/>
</g>
<g style="mix-blend-mode:multiply" opacity="0.75">
<path d="M1074.18 576.702C1118.93 556.932 1177.05 560.332 1185.34 587.662C1192.33 610.721 1163.11 632.952 1143.94 641.926C1134.19 646.481 1121.83 650.697 1108.86 654.086C1082.55 660.978 1050.31 664.412 1034.57 648.128C1025.95 639.181 1023.38 626.134 1031.72 611.007C1038.71 598.324 1055.41 585.014 1074.18 576.702V576.702Z" fill="#E1BA63"/>
</g>
<g style="mix-blend-mode:multiply" opacity="0.76">
<path d="M1074.16 577.036C1118.47 557.608 1175.62 561.007 1183.91 587.507C1191.05 610.327 1161.89 632.387 1143.1 641.21C1133.58 645.674 1121.44 649.858 1108.67 653.232C1082.25 660.229 1049.71 663.805 1034.07 647.275C1025.69 638.417 1023.52 625.498 1032.05 610.592C1039.14 598.199 1055.58 585.213 1074.18 577.058L1074.16 577.036Z" fill="#E0BB64"/>
</g>
<g style="mix-blend-mode:multiply" opacity="0.77">
<path d="M1074.12 577.387C1118.01 558.322 1174.17 561.698 1182.47 587.349C1189.76 609.911 1160.68 631.803 1142.24 640.491C1132.94 644.865 1121.03 648.997 1108.44 652.374C1081.93 659.497 1049.09 663.195 1033.54 646.419C1025.42 637.653 1023.63 624.861 1032.36 610.176C1039.53 598.088 1055.74 585.39 1074.14 577.389L1074.12 577.387Z" fill="#E0BB65"/>
</g>
<g style="mix-blend-mode:multiply" opacity="0.79">
<path d="M1074.1 577.72C1117.55 558.997 1172.76 562.376 1181.02 587.192C1188.46 609.515 1159.45 631.237 1141.38 639.772C1132.33 644.059 1120.62 648.137 1108.21 651.515C1081.58 658.743 1048.46 662.583 1032.99 645.542C1025.12 636.865 1023.73 624.201 1032.65 609.737C1039.93 597.939 1055.88 585.565 1074.08 577.698L1074.1 577.72Z" fill="#E0BB66"/>
</g>
<g style="mix-blend-mode:multiply" opacity="0.8">
<path d="M1074.1 578.056C1117.11 559.674 1171.38 563.055 1179.62 587.02C1187.23 609.087 1158.27 630.638 1140.56 639.059C1131.74 643.254 1120.25 647.3 1108.04 650.663C1081.32 658.018 1047.88 661.998 1032.53 644.693C1024.9 636.107 1023.91 623.551 1033.01 609.347C1040.37 597.836 1056.07 585.786 1074.09 578.075L1074.1 578.056Z" fill="#DFBB67"/>
</g>
<g style="mix-blend-mode:multiply" opacity="0.82">
<path d="M1074.09 578.411C1116.67 560.391 1169.99 563.754 1178.21 586.886C1185.97 608.695 1157.08 630.095 1139.73 638.364C1131.15 642.45 1119.88 646.464 1107.84 649.81C1081.03 657.272 1047.26 661.408 1032.02 643.84C1024.64 635.343 1024.05 622.915 1033.36 608.935C1040.8 597.711 1056.26 585.988 1074.11 578.414L1074.09 578.411Z" fill="#DFBB68"/>
</g>
<g style="mix-blend-mode:multiply" opacity="0.83">
<path d="M1074.09 578.747C1116.25 561.071 1168.6 564.434 1176.81 586.714C1184.74 608.267 1155.88 629.495 1138.91 637.631C1130.57 641.629 1119.51 645.608 1107.66 648.936C1080.73 656.523 1046.64 660.798 1031.51 642.968C1024.38 634.56 1024.19 622.241 1033.69 608.501C1041.24 597.566 1056.44 586.148 1074.09 578.747V578.747Z" fill="#DFBB69"/>
</g>
<g style="mix-blend-mode:multiply" opacity="0.85">
<path d="M1074.1 579.105C1115.83 561.77 1167.23 565.116 1175.41 586.581C1183.58 608.046 1154.71 628.935 1138.09 636.937C1129.98 640.844 1119.16 644.774 1107.48 648.104C1080.46 655.798 1046.04 660.23 1031.04 642.139C1024.15 633.821 1024.37 621.629 1034.05 608.11C1041.69 597.463 1056.65 586.371 1074.1 579.105V579.105Z" fill="#DEBB6A"/>
</g>
<g style="mix-blend-mode:multiply" opacity="0.86">
<path d="M1074.12 579.443C1115.41 562.47 1165.88 565.8 1174.02 586.411C1182.17 607.022 1153.53 628.356 1137.29 636.206C1129.41 640.023 1118.81 643.92 1107.31 647.233C1080.2 655.054 1045.42 659.64 1030.55 641.268C1023.91 633.04 1024.51 620.955 1034.4 607.679C1042.12 597.319 1056.84 586.553 1074.12 579.443V579.443Z" fill="#DEBC6B"/>
</g>
<g style="mix-blend-mode:multiply" opacity="0.87">
<path d="M1074.16 579.784C1115.01 563.152 1164.55 566.468 1172.66 586.263C1180.76 606.059 1152.38 627.779 1136.5 635.517C1128.85 639.243 1118.48 643.089 1107.16 646.404C1079.95 654.351 1044.81 659.091 1030.1 640.422C1023.69 632.3 1024.71 620.307 1034.79 607.272C1042.59 597.198 1057.05 586.757 1074.16 579.784Z" fill="#DDBC6C"/>
</g>
<g style="mix-blend-mode:multiply" opacity="0.89">
<path d="M1074.19 580.144C1114.62 563.856 1163.22 567.155 1171.29 586.115C1179.99 606.577 1151.24 627.224 1135.72 634.808C1128.32 638.426 1118.14 642.257 1107.03 645.538C1079.72 653.612 1044.21 658.504 1029.66 639.557C1023.49 631.525 1024.89 619.637 1035.19 606.867C1043.08 597.061 1057.31 586.947 1074.21 580.146L1074.19 580.144Z" fill="#DDBC6D"/>
</g>
<g style="mix-blend-mode:multiply" opacity="0.9">
<path d="M1074.25 580.487C1114.24 564.56 1161.93 567.827 1169.95 585.97C1178.85 606.16 1150.11 626.65 1134.96 634.101C1127.78 637.629 1117.83 641.408 1106.89 644.691C1079.5 652.892 1043.59 657.953 1029.21 638.711C1023.26 630.766 1025.07 618.987 1035.58 606.459C1043.55 596.941 1057.54 587.153 1074.25 580.487V580.487Z" fill="#DDBC6E"/>
</g>
<g style="mix-blend-mode:multiply" opacity="0.92">
<path d="M1074.31 580.83C1113.86 565.245 1160.63 568.477 1168.58 585.803C1177.72 605.705 1148.94 626.032 1134.18 633.373C1127.23 636.79 1117.52 640.56 1106.74 643.823C1079.25 652.17 1042.97 657.382 1028.76 637.846C1023.04 629.987 1025.25 618.317 1035.97 606.033C1044.02 596.781 1057.77 587.34 1074.31 580.83V580.83Z" fill="#DCBC6F"/>
</g>
<g style="mix-blend-mode:multiply" opacity="0.93">
<path d="M1074.38 581.195C1113.5 565.952 1159.36 569.151 1167.25 585.679C1176.63 605.275 1147.84 625.501 1133.43 632.708C1126.71 636.035 1117.22 639.752 1106.64 643.02C1079.05 651.494 1042.36 656.872 1028.34 637.043C1022.85 629.272 1025.46 617.692 1036.39 605.669C1044.53 596.705 1058.04 587.59 1074.38 581.214L1074.38 581.195Z" fill="#DCBC70"/>
</g>
<g style="mix-blend-mode:multiply" opacity="0.94">
<path d="M1074.46 581.54C1113.13 566.658 1158.09 569.807 1165.93 585.516C1175.54 604.805 1146.72 624.91 1132.69 631.984C1126.2 635.221 1116.93 638.906 1106.53 642.137C1078.85 650.757 1041.73 656.302 1027.94 636.163C1022.67 628.479 1025.68 617.007 1036.82 605.228C1045.04 596.531 1058.32 587.743 1074.46 581.54V581.54Z" fill="#DCBC71"/>
</g>
<g style="mix-blend-mode:multiply" opacity="0.96">
<path d="M1074.53 581.886C1112.79 567.348 1156.83 570.442 1164.6 585.373C1174.49 604.359 1145.61 624.338 1131.94 631.28C1125.71 634.428 1116.66 638.082 1106.42 641.292C1078.66 650.042 1041.09 655.768 1027.51 635.3C1022.47 627.703 1025.89 616.32 1037.24 604.825C1045.55 596.396 1058.57 587.951 1074.53 581.886V581.886Z" fill="#DBBD72"/>
</g>
<g style="mix-blend-mode:multiply" opacity="0.97">
<path d="M1074.63 582.253C1112.45 568.057 1155.58 571.099 1163.28 585.23C1173.42 603.872 1144.51 623.788 1131.2 630.576C1125.19 633.633 1116.37 637.235 1106.33 640.45C1078.47 649.346 1040.46 655.236 1027.1 634.459C1022.27 626.947 1026.11 615.656 1037.67 604.423C1046.06 596.261 1058.84 588.163 1074.63 582.233L1074.63 582.253Z" fill="#DBBD73"/>
</g>
<g style="mix-blend-mode:multiply" opacity="0.99">
<path d="M1074.72 582.601C1112.1 568.766 1154.36 571.74 1161.97 585.089C1172.41 603.393 1143.41 623.218 1130.47 629.893C1124.69 632.861 1116.09 636.43 1106.23 639.628C1078.29 648.672 1039.81 654.722 1026.71 633.64C1022.1 626.215 1026.35 614.993 1038.11 604.042C1046.59 596.148 1059.13 588.396 1074.72 582.62L1074.72 582.601Z" fill="#DABD74"/>
</g>
<g style="mix-blend-mode:multiply">
<path d="M1106.16 638.769C1078.12 647.959 1039.15 654.185 1026.32 632.781C1018.77 620.191 1037.88 596.442 1074.82 582.968C1111.76 569.475 1153.11 572.378 1160.66 584.949C1171.43 602.896 1142.33 622.671 1129.75 629.192C1124.22 632.071 1115.84 635.608 1106.13 638.786L1106.16 638.769Z" fill="#DABD75"/>
</g>
</g>
<path d="M1156.14 553.989C1156.14 553.989 1156.16 553.814 1156.17 553.716C1156.23 553.229 1156.44 550.289 1156.38 545.894C1156.37 545.497 1156.38 545.122 1156.37 544.725C1156.36 544.171 1156.33 543.594 1156.32 543C1155.83 528.805 1152.54 515.095 1146.82 502.533L1146.77 502.448C1146.15 501.086 1145.51 499.722 1144.82 498.392C1141.56 491.962 1137.66 485.889 1133.17 480.238C1131.09 477.55 1128.45 474.577 1126.15 472.258C1124.6 470.665 1122.99 469.123 1121.34 467.635C1121.27 467.567 1121.18 467.477 1121.09 467.406L1120.87 467.222C1120.59 466.969 1120.3 466.717 1120.02 466.464C1118.95 465.523 1117.79 464.53 1116.51 463.503C1116.51 463.503 1116.42 463.433 1116.36 463.386C1115.75 462.896 1115.12 462.404 1114.43 461.884C1114.13 461.649 1113.82 461.433 1113.53 461.2C1113.28 461.011 1113.02 460.821 1112.75 460.63C1112.55 460.486 1112.33 460.341 1112.13 460.178C1108.25 457.369 1104.15 454.81 1099.83 452.5C1098.72 451.889 1097.86 451.448 1097.36 451.208L1096.58 450.816L1095.81 450.445C1095.81 450.445 1095.74 450.416 1095.7 450.392L1095.53 450.312C1095.16 450.128 1094.66 449.888 1094.28 449.723L1094.11 449.643C1094.11 449.643 1094 449.59 1093.92 449.561L1093.06 449.178C1092.73 449.018 1092.26 448.822 1091.92 448.682L1090.92 448.263C1090.73 448.18 1090.55 448.098 1090.36 448.035C1090.3 448.028 1090.24 447.982 1090.19 447.975L1089.98 447.89L1089.66 447.752L1088.55 447.299C1088.27 447.186 1087.93 447.065 1087.62 446.948C1087.32 446.832 1087.04 446.719 1086.73 446.622L1086.7 446.617C1086.51 446.535 1086.32 446.472 1086.13 446.389C1085.79 446.269 1085.37 446.119 1085.05 446L1084.29 445.729C1083.95 445.608 1083.61 445.487 1083.25 445.383L1083.06 445.321C1082.79 445.229 1082.55 445.139 1082.28 445.067L1081.82 444.912L1081.25 444.723L1081.16 444.711L1080.97 444.629C1080.87 444.617 1080.76 444.564 1080.65 444.53C1080.36 444.436 1080.07 444.361 1079.81 444.269C1079.62 444.206 1079.43 444.163 1079.27 444.105C1078.97 444.008 1078.64 443.928 1078.34 443.832L1077.54 443.595C1077.39 443.556 1077.21 443.515 1077.06 443.477C1076.81 443.407 1076.58 443.339 1076.33 443.288L1075.62 443.103C1075.24 442.996 1074.84 442.907 1074.45 442.82L1073.37 442.57C1073.26 442.555 1073.14 442.522 1073.03 442.488L1072.95 442.478C1072.64 442.401 1072.3 442.319 1071.95 442.256C1071.47 442.158 1070.97 442.057 1070.48 441.958C1070.14 441.895 1069.79 441.813 1069.48 441.756C1069.09 441.688 1068.73 441.623 1068.34 441.556C1067.95 441.489 1067.55 441.419 1067.14 441.349C1066.89 441.318 1066.65 441.29 1066.4 441.239L1065.74 441.119C1065.57 441.097 1065.41 441.078 1065.24 441.057C1065.04 441.033 1064.87 441.011 1064.67 440.987C1062.54 440.685 1060.41 440.444 1058.28 440.261C1057.79 440.202 1057.34 440.186 1056.91 440.152C1056.44 440.115 1055.95 440.074 1055.48 440.056C1055.19 440.02 1054.89 440.023 1054.63 440.011C1053.92 439.984 1053.24 439.958 1052.57 439.936C1052.33 439.926 1052.09 439.917 1051.86 439.908C1050.87 439.886 1049.9 439.885 1048.99 439.892C1048.56 439.898 1048.1 439.902 1047.67 439.907C1047.67 439.907 1047.49 439.925 1047.39 439.913C1046.68 439.924 1045.98 439.938 1045.35 439.978C1044.83 439.994 1044.31 440.01 1043.8 440.045C1042.62 440.099 1041.69 440.161 1041.07 440.224C1037.91 440.469 1034.78 440.856 1031.67 441.383C1029.82 441.67 1028.16 441.999 1026.1 442.459C1017.55 444.374 1009.22 447.344 1001.27 451.331L1001.25 451.328C1000.47 451.746 999.671 452.142 998.908 452.563C998.803 452.609 998.697 452.675 998.611 452.724C997.258 453.447 995.918 454.212 994.596 454.999C994.489 455.064 994.382 455.13 994.275 455.196L994.149 455.26C994.149 455.26 994.083 455.311 994.042 455.326C993.979 455.358 993.935 455.392 993.891 455.426C993.847 455.46 993.806 455.475 993.762 455.509C993.398 455.741 993.036 455.954 992.671 456.186C991.942 456.65 991.215 457.094 990.545 457.565C990.158 457.814 989.77 458.083 989.383 458.332C988.606 458.869 987.85 459.389 987.157 459.877L987.05 459.943L986.963 460.012C986.79 460.129 986.637 460.249 986.465 460.366C982.798 463.019 980.517 465.013 980.364 465.132C979.218 466.099 978.062 467.143 976.923 468.209C976.121 468.941 975.273 469.726 974.419 470.57C974.353 470.621 974.285 470.692 974.239 470.746L974.103 470.887C972.396 472.556 970.579 474.468 968.555 476.789L968.509 476.843L968.463 476.896C968.463 476.896 968.414 476.969 968.373 476.984C967.453 478.038 966.494 479.244 965.528 480.51C964.684 481.592 963.861 482.657 963.116 483.574L960.649 487.245C959.831 488.429 959.058 489.58 958.352 490.66C957.015 492.69 955.517 495.392 954.049 498.335L954.041 498.394C952.762 500.925 951.541 503.622 950.428 506.253L950.377 506.346C950.377 506.346 950.367 506.423 950.343 506.46C948.936 509.866 947.746 513.12 947.058 515.664C944.451 525.308 944.236 526.092 943.34 532.585C942.219 540.75 942.339 546.696 942.403 549.55C942.579 557.776 943.769 564.189 944.143 566.291C945.517 573.774 947.026 578.229 948.493 582.541C949.392 585.202 950.109 587.089 951.09 589.245C952.23 591.876 953.525 594.526 954.925 597.13C955.084 597.446 955.243 597.762 955.402 598.078C956.768 600.796 958.871 604.276 960.663 606.75C961.981 608.572 963.692 611.056 965.074 612.847C966.458 614.618 968.329 616.923 969.866 618.575C971.554 620.443 972.249 621.22 973.859 622.762C975.793 624.719 977.798 626.587 979.819 628.317L979.838 628.32C980.499 628.895 981.162 629.451 981.828 629.988C982.62 630.619 983.393 631.247 984.1 631.769C984.48 632.053 985.006 632.434 985.604 632.883L985.877 633.074C986.493 633.526 987.22 634.05 988.041 634.605C988.224 634.727 988.407 634.848 988.57 634.967C990.976 636.626 994.015 638.601 997.44 640.484C998.181 640.891 999.2 641.451 1000.43 642.077C1000.76 642.256 1001.11 642.438 1001.45 642.617L1003.26 643.511C1003.63 643.695 1004.14 643.916 1004.51 644.1L1004.96 644.313L1005.05 644.325L1005.72 644.664C1006.06 644.824 1006.53 645.02 1006.87 645.161L1008 645.635L1008.09 645.647C1012.49 647.531 1016.74 648.982 1020.85 650.1L1021.23 650.206C1021.58 650.308 1021.98 650.397 1022.4 650.508C1022.44 650.513 1022.48 650.517 1022.52 650.522C1022.86 650.604 1023.23 650.708 1023.53 650.785L1025.84 651.325C1026.88 651.552 1028.27 651.841 1029.33 652.05C1030.29 652.248 1031.47 652.452 1032.6 652.63L1032.66 652.637C1033.22 652.726 1033.78 652.814 1034.27 652.874C1035.72 653.092 1037.68 653.293 1039.16 653.474C1040.66 653.658 1042.68 653.73 1044.19 653.836C1047.42 653.936 1051.71 653.948 1054.93 653.81C1057.45 653.704 1060.81 653.444 1063.29 653.057C1063.91 652.955 1064.58 652.839 1065.24 652.724C1067.2 652.41 1069.24 652.048 1070.94 651.762L1072.93 651.276C1074.54 650.919 1076.13 650.541 1077.7 650.122L1078.5 649.923C1080.35 649.459 1082.62 648.709 1084.65 647.969C1085.51 647.661 1086.38 647.352 1087.25 647.024C1089.57 646.163 1092.48 645.017 1094.61 643.934C1094.67 643.903 1094.76 643.854 1094.84 643.824C1096.79 642.898 1098.73 641.91 1100.64 640.859C1101.06 640.635 1101.49 640.429 1101.87 640.219L1103.96 638.934C1104.52 638.588 1105.09 638.263 1105.65 637.916L1108.83 635.974C1110.05 635.234 1112.25 633.745 1115.56 631.106C1115.6 631.072 1115.67 631.021 1115.73 630.989L1116.06 630.713C1117.77 629.322 1119.74 627.666 1122.04 625.636C1122.09 625.582 1122.15 625.531 1122.2 625.497C1124.44 623.479 1128.25 619.796 1132.52 614.488L1132.64 614.344C1133.62 613.12 1134.63 611.821 1135.63 610.441C1136.06 609.841 1136.49 609.242 1136.92 608.623C1137.52 607.767 1138.12 606.931 1138.61 606.161C1138.75 605.922 1138.93 605.647 1139.1 605.391C1139.95 604.072 1140.81 602.676 1141.66 601.238C1142.83 599.267 1143.97 597.271 1144.82 595.497C1146.33 592.52 1147.77 589.336 1149.09 585.96C1149.94 583.908 1150.69 581.826 1151.26 579.9C1151.93 577.808 1152.57 575.633 1153.14 573.41C1153.29 572.893 1153.4 572.414 1153.53 571.914C1154.25 568.9 1154.86 565.752 1155.33 562.509C1155.35 562.392 1155.36 562.275 1155.38 562.158L1155.4 561.925C1155.76 559.359 1156.04 556.744 1156.23 554.04L1156.14 553.989Z" fill="url(#paint0_radial_79_2055)"/>
<path d="M1152.61 517.556C1152.46 516.845 1152.27 516.13 1152.06 515.432C1152.23 516.106 1152.42 516.821 1152.61 517.556Z" fill="url(#paint1_linear_79_2055)"/>
<path d="M941.511 551.339C941.471 550.701 941.428 550.083 941.4 549.506C941.424 550.122 941.466 550.74 941.511 551.339Z" fill="url(#paint2_linear_79_2055)"/>
<path d="M1139.89 560.316C1118.83 630.362 1037.15 606.87 1023.86 575.683C1019.9 566.38 1020.84 556.295 1019.09 546.63C1055.33 543.786 1112.73 534.524 1137.09 525.811C1142.64 551.125 1140.77 557.32 1139.89 560.296" fill="white"/>
<path d="M1052.65 499.648C1053.19 502.443 1051.92 503.948 1051.34 504.47C1049.36 506.263 1046.4 508.231 1044.26 509.827C1041.82 511.643 1033.03 518.253 1022.55 526.772C1018.1 530.199 1013.19 526.355 1013.98 521.588C1014.45 518.7 1014.5 518.469 1038.58 500.569C1024.66 496.428 1021.76 495.559 1012.83 492.743C1008.11 490.602 1010.77 485.115 1014.06 483.859C1014.23 483.801 1014.45 483.73 1014.64 483.673C1015.29 483.529 1026.39 486.519 1047.93 492.644C1049.98 493.37 1051.04 494.39 1051.75 496.316C1052.07 497.422 1052.39 498.529 1052.69 499.653" fill="#412121"/>
<path d="M1130.94 504.259C1131.68 507.178 1130.64 509.066 1128.57 508.555C1128.22 508.473 1127.95 508.32 1127.7 508.211C1119.12 503.876 1113.15 500.988 1099.06 496.451C1096.85 495.606 1095.55 494.419 1094.43 492.284C1093.93 491.195 1093.43 490.106 1092.93 489.036C1092.16 487.175 1093.35 484.375 1096.49 480.637C1098.69 478.02 1101.77 473.772 1103.87 468.376C1104.1 467.95 1104.19 467.862 1104.82 467.761C1108.2 467.861 1112.81 472.557 1112.77 474.59C1112.76 474.726 1112.61 478.148 1104.43 488.945C1113.21 492.119 1117.62 493.708 1126.59 498.289C1129.63 500.244 1130.62 503.133 1130.91 504.295" fill="#412121"/>
<path d="M1154.97 575.73C1151.8 588.249 1147.14 594.141 1144.38 589.097C1141.97 584.69 1141.85 576.55 1141.76 570.015C1141.55 554.985 1140.82 538.507 1134.79 516.85C1154.28 516.377 1155.79 526.724 1157.12 535.862L1157.78 542.388C1158.02 550.114 1157.97 555.92 1157.62 559.805C1157.02 564.377 1156.08 570.468 1155.14 574.999C1155.1 575.211 1155.02 575.498 1154.98 575.71" fill="#87A8DC"/>
<path d="M1017.41 537.745C1028.16 591.532 1025.2 598.899 1023.77 602.46C1017.19 618.89 1000.85 617.891 988.455 609.985C970.816 598.765 965.502 577.809 970.691 564.845C975.653 552.447 998.945 542.417 1017.39 537.585L1017.43 537.748" fill="#87A8DC"/>
<defs>
<radialGradient id="paint0_radial_79_2055" cx="0" cy="0" r="1" gradientUnits="userSpaceOnUse" gradientTransform="translate(1053.33 564.589) rotate(6.76999) scale(123.001 123.008)">
<stop stop-color="#F79F40"/>
<stop offset="0.16" stop-color="#F7A442"/>
<stop offset="0.37" stop-color="#F8B449"/>
<stop offset="0.6" stop-color="#F9CE55"/>
<stop offset="0.77" stop-color="#FBE660"/>
<stop offset="0.91" stop-color="#FBF36F"/>
<stop offset="0.93" stop-color="#FBF672"/>
<stop offset="0.95" stop-color="#FBF676"/>
<stop offset="0.96" stop-color="#FBF782"/>
<stop offset="0.98" stop-color="#FBF897"/>
<stop offset="0.99" stop-color="#FCFAB4"/>
<stop offset="1" stop-color="#FDFBC2"/>
</radialGradient>
<linearGradient id="paint1_linear_79_2055" x1="1151.9" y1="516.515" x2="1152.7" y2="516.615" gradientUnits="userSpaceOnUse">
<stop stop-color="#19B79C"/>
<stop offset="0.4" stop-color="#1DBB9D"/>
<stop offset="0.82" stop-color="#29C7A2"/>
<stop offset="1" stop-color="#31CFA6"/>
</linearGradient>
<linearGradient id="paint2_linear_79_2055" x1="941.225" y1="550.434" x2="941.576" y2="550.478" gradientUnits="userSpaceOnUse">
<stop stop-color="#19B79C"/>
<stop offset="0.4" stop-color="#1DBB9D"/>
<stop offset="0.82" stop-color="#29C7A2"/>
<stop offset="1" stop-color="#31CFA6"/>
</linearGradient>
</defs>
</svg>
