<svg width="1645" height="1221" viewBox="0 0 1645 1221" fill="none" xmlns="http://www.w3.org/2000/svg">
<g clip-path="url(#clip0_79_2055)">
<g style="mix-blend-mode:multiply">
<g style="mix-blend-mode:multiply" opacity="0.01">
<path d="M1387.27 393.583C1487.51 337.134 1656.53 341.539 1661.74 448.555C1664.48 502.07 1611.77 548.342 1554.94 572.48C1522.2 586.371 1487.15 597.507 1453.34 601.718C1422.47 605.658 1392.47 603.813 1366.56 592.981C1330.58 577.946 1296.83 542.884 1297.31 503.365C1297.76 461.056 1344.78 417.525 1387.27 393.603L1387.27 393.583Z" fill="#F09725"/>
</g>
<g style="mix-blend-mode:multiply" opacity="0.03">
<path d="M1387.03 394.107C1486.63 338.173 1653.84 342.592 1659.4 448.327C1662.18 501.452 1609.76 547.502 1553.47 571.41C1521.08 585.166 1486.33 596.121 1452.81 600.427C1421.77 604.425 1391.43 602.696 1365.58 591.674C1330.08 576.54 1296.91 541.905 1297.59 502.727C1298.3 460.865 1344.82 417.788 1387.03 394.088L1387.03 394.107Z" fill="#EF9726"/>
</g>
<g style="mix-blend-mode:multiply" opacity="0.04">
<path d="M1386.77 394.628C1485.71 339.207 1651.28 343.641 1657.05 448.117C1659.96 500.882 1607.73 546.659 1551.99 570.379C1519.96 584 1485.52 594.835 1452.29 599.196C1421.1 603.295 1390.41 601.661 1364.58 590.444C1329.56 575.232 1296.96 541.002 1297.84 502.145C1298.77 460.725 1344.84 418.126 1386.77 394.628V394.628Z" fill="#EF9827"/>
</g>
<g style="mix-blend-mode:multiply" opacity="0.06">
<path d="M1386.53 395.152C1484.83 340.265 1648.72 344.691 1654.7 447.889C1657.74 500.274 1605.71 545.819 1550.5 569.326C1518.82 582.813 1484.69 593.508 1451.75 597.925C1418.81 602.341 1389.37 600.585 1363.59 589.176C1329.06 573.885 1297.02 540.06 1298.11 501.546C1299.26 460.568 1344.88 418.428 1386.52 395.172L1386.53 395.152Z" fill="#EF9829"/>
</g>
<g style="mix-blend-mode:multiply" opacity="0.07">
<path d="M1386.26 395.674C1483.91 341.299 1646.15 345.741 1652.36 447.68C1655.52 499.685 1603.68 544.976 1549.03 568.295C1517.7 581.647 1483.9 592.225 1451.21 596.672C1418.52 601.12 1388.32 599.526 1362.6 587.908C1328.55 572.538 1297.07 539.118 1298.36 500.924C1299.74 460.39 1344.89 418.705 1386.26 395.674Z" fill="#EE992A"/>
</g>
<g style="mix-blend-mode:multiply" opacity="0.08">
<path d="M1386.02 396.178C1483.04 342.318 1643.62 346.773 1650.02 447.432C1653.3 499.057 1601.67 544.117 1547.56 567.205C1516.58 580.403 1483.1 590.881 1450.7 595.384C1419.02 599.778 1387.3 598.433 1361.63 586.622C1328.06 571.193 1297.15 538.159 1298.63 500.306C1300.22 460.211 1344.93 419.007 1386.02 396.178V396.178Z" fill="#EE992B"/>
</g>
<g style="mix-blend-mode:multiply" opacity="0.1">
<path d="M1385.78 396.702C1482.14 343.374 1641.06 347.823 1647.69 447.206C1651.11 498.451 1599.66 543.257 1546.11 566.157C1515.47 579.218 1482.31 589.578 1450.2 594.117C1418.09 598.656 1386.31 597.362 1360.66 585.357C1327.58 569.848 1297.21 537.217 1298.93 499.709C1300.73 460.076 1344.99 419.311 1385.8 396.704L1385.78 396.702Z" fill="#EE9A2C"/>
</g>
<g style="mix-blend-mode:multiply" opacity="0.11">
<path d="M1385.52 397.223C1481.24 344.41 1638.5 348.873 1645.33 446.994C1648.87 497.86 1597.63 542.434 1544.59 565.121C1514.3 578.048 1481.46 588.288 1449.62 592.86C1417.79 597.432 1385.23 596.301 1359.63 584.103C1327.03 568.535 1297.22 536.29 1299.14 499.102C1301.16 459.912 1344.98 419.605 1385.5 397.24L1385.52 397.223Z" fill="#EE9A2D"/>
</g>
<g style="mix-blend-mode:multiply" opacity="0.13">
<path d="M1385.28 397.747C1480.36 345.449 1635.95 349.925 1642.98 446.766C1646.64 497.271 1595.6 541.572 1543.12 564.051C1513.19 576.843 1480.65 586.963 1449.11 591.571C1417.57 596.179 1384.22 595.227 1358.66 582.798C1326.54 567.19 1297.3 535.311 1299.41 498.464C1301.64 459.714 1345 419.885 1385.26 397.725L1385.28 397.747Z" fill="#ED9B2E"/>
</g>
<g style="mix-blend-mode:multiply" opacity="0.14">
<path d="M1385.04 398.271C1479.46 346.485 1633.43 350.979 1640.65 446.559C1644.44 496.684 1593.61 540.754 1541.67 563.022C1512.08 575.679 1479.88 585.682 1448.61 590.343C1417.34 595.004 1383.22 594.195 1357.71 581.574C1326.04 565.904 1297.37 534.41 1299.72 497.889C1302.17 459.581 1345.08 420.211 1385.06 398.273L1385.04 398.271Z" fill="#ED9B2F"/>
</g>
<g style="mix-blend-mode:multiply" opacity="0.15">
<path d="M1384.77 398.792C1478.56 347.541 1630.87 352.029 1638.29 446.328C1642.21 496.073 1591.56 539.89 1540.18 561.969C1510.95 574.492 1479.05 584.394 1448.07 589.071C1417.1 593.749 1382.18 593.139 1356.7 580.303C1325.51 564.593 1297.41 533.466 1299.95 497.285C1302.62 459.439 1345.08 420.508 1384.77 398.812L1384.77 398.792Z" fill="#ED9C31"/>
</g>
<g style="mix-blend-mode:multiply" opacity="0.17">
<path d="M1384.53 399.296C1477.66 348.558 1628.33 353.061 1635.97 446.083C1640.01 495.448 1589.57 539.033 1538.71 560.88C1509.83 573.268 1478.25 583.05 1447.54 587.761C1414.9 592.787 1381.17 592.026 1355.71 578.996C1325 563.265 1297.47 532.485 1300.21 496.625C1303.09 459.219 1345.11 420.768 1384.52 399.275L1384.53 399.296Z" fill="#EC9D32"/>
</g>
<g style="mix-blend-mode:multiply" opacity="0.18">
<path d="M1384.29 399.82C1476.78 349.597 1625.81 354.116 1633.62 445.874C1637.79 494.878 1587.54 538.19 1537.24 559.849C1508.69 572.1 1477.44 581.764 1447.02 586.53C1414.21 591.655 1380.15 591.011 1354.74 577.749C1324.51 561.979 1297.53 531.563 1300.5 496.047C1303.6 459.084 1345.15 421.089 1384.29 399.82V399.82Z" fill="#EC9D33"/>
</g>
<g style="mix-blend-mode:multiply" opacity="0.2">
<path d="M1384.05 400.344C1475.88 350.652 1623.29 355.17 1631.3 445.648C1635.61 494.275 1585.54 537.352 1535.78 558.8C1507.59 570.897 1476.66 580.483 1446.52 585.264C1413.56 590.488 1379.15 589.96 1353.78 576.486C1324.03 560.695 1297.62 530.645 1300.79 495.45C1304.09 458.946 1345.21 421.394 1384.07 400.366L1384.05 400.344Z" fill="#EC9E34"/>
</g>
<g style="mix-blend-mode:multiply" opacity="0.21">
<path d="M1383.81 400.848C1475.01 351.672 1620.75 356.203 1628.95 445.419C1633.39 493.666 1583.51 536.49 1534.31 557.73C1506.47 569.692 1475.86 579.159 1445.99 583.972C1412.86 589.314 1378.14 588.886 1352.78 575.196C1323.48 559.382 1297.64 529.679 1301.03 494.807C1304.42 459.936 1345.22 421.651 1383.79 400.846L1383.81 400.848Z" fill="#EB9E35"/>
</g>
<g style="mix-blend-mode:multiply" opacity="0.23">
<path d="M1383.57 401.372C1474.13 352.71 1618.23 357.257 1626.63 445.193C1631.19 493.08 1581.52 535.653 1532.86 556.682C1505.37 568.51 1475.07 577.875 1445.49 582.705C1412.21 588.147 1377.14 587.835 1351.83 573.913C1323.01 558.079 1297.74 528.722 1301.34 494.193C1305.06 458.572 1345.3 421.958 1383.59 401.355L1383.57 401.372Z" fill="#EB9F36"/>
</g>
<g style="mix-blend-mode:multiply" opacity="0.24">
<path d="M1383.33 401.896C1473.23 353.747 1615.73 358.314 1624.28 444.984C1628.97 492.491 1579.49 534.81 1531.37 555.649C1504.23 567.341 1474.23 576.607 1444.95 581.473C1411.5 587.032 1376.12 586.819 1350.83 572.684C1322.49 556.848 1297.77 527.816 1301.59 493.611C1305.42 459.406 1345.32 422.277 1383.32 401.915L1383.33 401.896Z" fill="#EB9F37"/>
</g>
<g style="mix-blend-mode:multiply" opacity="0.25">
<path d="M1383.09 402.4C1472.35 354.785 1613.21 359.349 1621.94 444.736C1626.77 491.865 1577.48 533.951 1529.9 554.559C1503.12 566.117 1473.45 575.265 1444.42 580.162C1410.81 585.841 1375.09 585.724 1349.84 571.376C1321.96 555.518 1297.83 526.855 1301.87 492.973C1306.01 458.253 1345.35 422.537 1383.09 402.4V402.4Z" fill="#EAA039"/>
</g>
<g style="mix-blend-mode:multiply" opacity="0.27">
<path d="M1382.84 402.924C1471.45 355.822 1610.69 360.404 1619.62 444.51C1624.57 491.278 1575.47 533.091 1528.45 553.511C1502 564.932 1472.66 573.982 1443.93 578.895C1410.14 584.671 1374.11 584.694 1348.87 570.11C1321.47 554.251 1297.88 525.913 1302.14 492.354C1306.49 458.094 1345.39 422.839 1382.85 402.904L1382.84 402.924Z" fill="#EAA03A"/>
</g>
<g style="mix-blend-mode:multiply" opacity="0.28">
<path d="M1382.62 403.431C1470.6 356.843 1608.21 361.444 1617.29 444.284C1622.39 490.675 1573.48 532.234 1526.99 552.463C1500.9 563.749 1471.87 572.699 1443.43 577.648C1409.47 583.541 1373.12 583.665 1347.92 568.847C1320.97 553.004 1297.96 524.993 1302.43 491.757C1306.91 458.522 1345.45 423.143 1382.62 403.45L1382.62 403.431Z" fill="#EAA13B"/>
</g>
<g style="mix-blend-mode:multiply" opacity="0.3">
<path d="M1382.38 403.954C1469.7 357.899 1605.71 362.5 1614.97 444.058C1620.19 490.088 1571.47 531.394 1525.52 551.393C1499.78 562.545 1471.08 571.396 1442.89 576.357C1408.79 582.37 1372.09 582.608 1346.93 567.559C1320.45 551.715 1298.01 524.031 1302.71 491.139C1307.45 457.778 1345.5 423.425 1382.38 403.954V403.954Z" fill="#E9A23C"/>
</g>
<g style="mix-blend-mode:multiply" opacity="0.31">
<path d="M1382.14 404.459C1468.82 358.918 1603.21 363.538 1612.62 443.829C1617.99 489.482 1569.46 530.534 1524.05 550.342C1498.66 561.359 1470.27 570.11 1442.38 575.087C1408.1 581.198 1371.09 581.576 1345.96 566.293C1320.84 551.011 1298.07 523.089 1302.98 490.52C1307.89 457.95 1345.52 423.724 1382.14 404.459Z" fill="#E9A23D"/>
</g>
<g style="mix-blend-mode:multiply" opacity="0.32">
<path d="M1381.92 404.985C1467.94 359.957 1600.73 364.597 1610.32 443.605C1615.81 488.898 1567.47 529.696 1522.62 549.296C1497.58 560.159 1469.52 568.832 1441.9 573.842C1407.47 580.073 1370.12 580.568 1345.01 565.049C1319.89 549.531 1298.14 522.189 1303.27 489.942C1308.42 457.482 1345.58 424.048 1381.91 405.024L1381.92 404.985Z" fill="#E9A33E"/>
</g>
<g style="mix-blend-mode:multiply" opacity="0.34">
<path d="M1381.68 405.489C1467.07 360.976 1598.23 365.635 1607.98 443.357C1613.61 488.272 1565.46 528.817 1521.15 548.207C1496.47 558.935 1468.71 567.507 1441.39 572.534C1406.78 578.882 1369.13 579.497 1344.04 563.725C1318.94 547.951 1298.21 521.188 1303.57 489.268C1308.93 457.347 1345.65 424.274 1381.7 405.472L1381.68 405.489Z" fill="#E9A33F"/>
</g>
<g style="mix-blend-mode:multiply" opacity="0.35">
<path d="M1381.46 405.996C1466.21 362.017 1595.77 366.677 1605.67 443.134C1611.45 487.691 1563.47 527.98 1519.7 547.158C1495.35 557.75 1467.92 566.243 1440.87 571.265C1406.11 577.732 1368.11 578.462 1343.07 562.459C1318.42 546.701 1298.28 520.268 1303.84 488.668C1309.4 457.068 1345.69 424.595 1381.46 405.996V405.996Z" fill="#E8A441"/>
</g>
<g style="mix-blend-mode:multiply" opacity="0.37">
<path d="M1381.24 406.522C1465.33 363.056 1593.3 367.738 1603.35 442.908C1609.25 487.084 1561.48 527.122 1518.25 546.11C1494.25 556.567 1467.14 564.962 1440.37 569.998C1405.45 576.582 1367.13 577.433 1342.12 561.196C1317.11 544.959 1298.35 519.348 1304.13 488.052C1309.91 456.755 1345.73 424.878 1381.24 406.503L1381.24 406.522Z" fill="#E8A442"/>
</g>
<g style="mix-blend-mode:multiply" opacity="0.38">
<path d="M1381.02 407.029C1464.47 364.078 1590.84 368.781 1601.02 442.681C1607.07 486.5 1559.46 526.282 1516.8 545.043C1493.15 555.365 1466.36 563.659 1439.88 568.731C1404.8 575.435 1366.15 576.422 1341.17 559.913C1316.2 543.403 1298.43 518.389 1304.45 487.438C1310.4 456.796 1345.82 425.165 1381.03 407.031L1381.02 407.029Z" fill="#E8A543"/>
</g>
<g style="mix-blend-mode:multiply" opacity="0.39">
<path d="M1380.79 407.536C1463.59 365.097 1588.38 369.823 1598.72 442.438C1604.91 485.899 1557.5 525.408 1515.36 543.977C1492.07 554.165 1465.6 562.381 1439.38 567.445C1404.15 574.268 1365.17 575.373 1340.2 558.628C1316.9 542.995 1298.49 517.447 1304.72 486.8C1310.96 456.152 1345.86 425.447 1380.8 407.516L1380.79 407.536Z" fill="#E7A544"/>
</g>
<g style="mix-blend-mode:multiply" opacity="0.41">
<path d="M1380.57 408.042C1462.73 366.138 1585.92 370.865 1596.39 442.212C1602.73 485.295 1555.48 524.568 1513.89 542.927C1490.95 552.98 1464.79 561.095 1438.87 566.175C1403.46 573.116 1364.15 574.358 1339.23 557.362C1316.38 541.765 1298.54 516.524 1304.99 486.2C1311.44 455.876 1345.9 425.748 1380.55 408.04L1380.57 408.042Z" fill="#E7A645"/>
</g>
<g style="mix-blend-mode:multiply" opacity="0.42">
<path d="M1380.37 408.551C1461.88 367.16 1583.48 371.909 1594.11 441.971C1600.59 484.696 1553.54 523.696 1512.48 541.844C1489.9 551.763 1464.06 559.8 1438.41 564.894C1402.85 571.954 1363.2 573.333 1338.32 556.083C1315.91 540.542 1298.64 515.568 1305.34 485.591C1312.05 455.614 1346 426.038 1380.39 408.573L1380.37 408.551Z" fill="#E7A646"/>
</g>
<g style="mix-blend-mode:multiply" opacity="0.44">
<path d="M1380.15 409.078C1461.02 368.201 1581.04 372.973 1591.79 441.745C1598.41 484.093 1551.52 522.856 1511.03 540.796C1488.8 550.56 1463.27 558.516 1437.89 563.624C1402.16 570.802 1362.2 572.32 1337.35 554.798C1315.39 539.311 1298.7 514.626 1305.62 484.953C1312.34 456.125 1346.05 426.32 1380.15 409.058L1380.15 409.078Z" fill="#E6A747"/>
</g>
<g style="mix-blend-mode:multiply" opacity="0.45">
<path d="M1379.95 409.587C1460.18 369.244 1578.61 374.02 1589.5 441.524C1596.27 483.513 1549.57 522.003 1509.62 539.753C1487.72 549.38 1462.54 557.26 1437.44 562.362C1401.55 569.679 1361.24 571.312 1336.42 553.537C1314.89 538.122 1298.79 513.708 1305.95 484.361C1312.87 455.992 1346.15 426.629 1379.97 409.589L1379.95 409.587Z" fill="#E6A849"/>
</g>
<g style="mix-blend-mode:multiply" opacity="0.46">
<path d="M1379.75 410.096C1459.32 370.266 1576.2 375.048 1587.2 441.281C1594.11 482.912 1547.58 521.146 1508.17 538.685C1486.62 548.178 1461.77 555.959 1436.94 561.095C1400.9 568.531 1360.25 570.322 1335.47 552.274C1314.38 536.914 1298.86 512.788 1306.24 483.744C1313.62 454.701 1346.21 426.914 1379.75 410.115L1379.75 410.096Z" fill="#E6A84A"/>
</g>
<g style="mix-blend-mode:multiply" opacity="0.48">
<path d="M1379.55 410.605C1458.49 371.29 1573.79 376.097 1584.91 441.059C1591.98 482.316 1545.63 520.294 1506.76 537.622C1485.56 546.98 1461.01 554.681 1436.46 559.811C1400.25 567.365 1359.29 569.294 1334.54 550.993C1313.88 535.706 1298.94 511.829 1306.56 483.13C1313.84 455.676 1346.28 427.218 1379.55 410.624L1379.55 410.605Z" fill="#E5A94B"/>
</g>
<g style="mix-blend-mode:multiply" opacity="0.49">
<path d="M1379.35 411.114C1457.63 372.311 1571.37 377.144 1582.61 440.816C1589.82 481.714 1543.64 519.437 1505.32 536.557C1484.48 545.78 1460.26 553.402 1435.99 558.527C1399.62 566.22 1358.31 568.284 1333.61 549.693C1313.4 534.48 1299.04 510.872 1306.89 482.48C1314.75 454.087 1346.38 427.468 1379.37 411.097L1379.35 411.114Z" fill="#E5A94C"/>
</g>
<g style="mix-blend-mode:multiply" opacity="0.51">
<path d="M1379.15 411.623C1456.79 373.355 1568.97 378.194 1580.3 440.592C1587.68 481.135 1541.67 518.582 1503.89 535.511C1483.4 544.6 1459.49 552.141 1435.51 557.263C1398.97 565.092 1357.32 567.293 1332.66 548.43C1312.87 533.289 1299.09 509.95 1307.18 481.883C1314.83 455.323 1346.44 427.772 1379.14 411.643L1379.15 411.623Z" fill="#E5AA4D"/>
</g>
<g style="mix-blend-mode:multiply" opacity="0.52">
<path d="M1378.96 412.135C1455.95 374.379 1566.59 379.245 1578.04 440.354C1585.56 480.519 1539.72 517.729 1502.48 534.429C1482.35 543.383 1458.76 550.845 1435.06 555.981C1398.36 563.93 1356.38 566.307 1331.75 547.151C1312.38 532.102 1299.19 509.012 1307.52 481.271C1315.35 455.169 1346.54 428.081 1378.96 412.154L1378.96 412.135Z" fill="#E5AA4E"/>
</g>
<g style="mix-blend-mode:multiply" opacity="0.54">
<path d="M1378.79 412.627C1455.14 375.386 1564.23 380.26 1575.76 440.094C1583.44 479.903 1537.77 516.838 1501.07 533.346C1481.27 542.163 1458.03 549.53 1434.58 554.678C1397.73 562.765 1355.4 565.277 1330.82 545.832C1311.88 530.854 1299.27 508.034 1307.85 480.601C1315.87 454.956 1346.65 428.312 1378.79 412.607L1378.79 412.627Z" fill="#E4AB4F"/>
</g>
<g style="mix-blend-mode:multiply" opacity="0.55">
<path d="M1378.6 413.138C1454.3 376.429 1561.85 381.312 1573.49 439.875C1581.34 479.328 1535.85 516.068 1499.68 532.305C1480.25 541.01 1457.29 548.273 1434.15 553.418C1397.14 561.645 1354.45 564.311 1329.93 544.576C1311.41 529.69 1299.4 507.121 1308.2 480.011C1316.4 454.824 1346.76 428.621 1378.62 413.16L1378.6 413.138Z" fill="#E4AB50"/>
</g>
<g style="mix-blend-mode:multiply" opacity="0.56">
<path d="M1378.44 413.652C1453.5 377.458 1559.5 382.369 1571.23 439.636C1579.24 478.734 1533.92 515.218 1498.29 531.225C1479.21 539.795 1456.58 546.98 1433.71 552.139C1396.53 560.483 1353.5 563.325 1329.02 543.297C1310.93 528.503 1299.49 506.184 1308.54 479.38C1316.89 454.647 1346.86 428.91 1378.44 413.652V413.652Z" fill="#E4AC52"/>
</g>
<g style="mix-blend-mode:multiply" opacity="0.58">
<path d="M1378.26 414.163C1452.68 378.485 1557.14 383.403 1568.96 439.417C1577.14 478.14 1531.97 514.366 1496.88 530.182C1478.15 538.617 1455.84 545.743 1433.23 550.874C1395.9 559.357 1352.51 562.353 1328.08 542.036C1310.42 527.334 1299.57 505.244 1308.87 478.788C1317.4 454.512 1346.96 429.219 1378.26 414.183L1378.26 414.163Z" fill="#E3AD53"/>
</g>
<g style="mix-blend-mode:multiply" opacity="0.59">
<path d="M1378.1 414.658C1451.86 379.491 1554.82 384.443 1566.7 439.159C1575.04 477.527 1530.04 513.496 1495.49 529.102C1477.11 537.402 1455.11 544.447 1432.8 549.576C1395.31 558.198 1351.57 561.348 1327.2 540.722C1309.95 526.13 1299.67 504.268 1309.23 478.121C1317.92 454.299 1347.09 429.452 1378.1 414.638L1378.1 414.658Z" fill="#E3AD54"/>
</g>
<g style="mix-blend-mode:multiply" opacity="0.61">
<path d="M1377.96 415.174C1451.08 380.542 1552.52 385.485 1564.48 438.926C1572.98 476.918 1528.13 512.629 1494.14 528.027C1476.11 536.192 1454.44 543.159 1432.4 548.282C1394.76 557.043 1350.64 560.364 1326.35 539.431C1309.51 524.929 1299.83 503.319 1309.62 477.497C1318.5 454.133 1347.23 429.747 1377.98 415.157L1377.96 415.174Z" fill="#E3AE55"/>
</g>
<g style="mix-blend-mode:multiply" opacity="0.62">
<path d="M1377.8 415.688C1450.26 381.569 1550.19 386.543 1562.21 438.707C1570.89 476.345 1526.19 511.799 1492.74 526.986C1475.07 535.017 1453.73 541.905 1431.94 547.039C1394.14 555.939 1349.67 559.434 1325.41 538.189C1308.99 523.798 1299.9 502.418 1309.95 476.905C1318.99 453.995 1347.33 430.055 1377.8 415.688V415.688Z" fill="#E2AE56"/>
</g>
<g style="mix-blend-mode:multiply" opacity="0.63">
<path d="M1377.66 416.185C1449.49 382.58 1547.89 387.566 1559.97 438.451C1568.81 475.734 1524.27 510.91 1491.35 525.906C1474.01 533.8 1453.01 540.612 1431.51 545.74C1393.55 554.799 1348.7 558.446 1324.53 536.875C1308.51 522.592 1300 501.442 1310.31 476.256C1319.51 453.802 1347.46 430.308 1377.64 416.163L1377.66 416.185Z" fill="#E2AF57"/>
</g>
<g style="mix-blend-mode:multiply" opacity="0.65">
<path d="M1377.53 416.703C1448.71 383.631 1545.61 388.61 1557.76 438.24C1566.79 475.15 1522.39 510.086 1490.02 524.852C1473.03 532.612 1452.34 539.362 1431.13 544.468C1393.02 553.666 1347.79 557.484 1323.7 535.606C1308.08 521.432 1300.15 500.512 1310.73 475.657C1320.1 453.657 1347.65 430.629 1377.55 416.706L1377.53 416.703Z" fill="#E2AF58"/>
</g>
<g style="mix-blend-mode:multiply" opacity="0.66">
<path d="M1377.41 417.203C1447.95 384.645 1543.35 389.637 1555.54 437.986C1564.75 474.543 1520.48 509.2 1488.67 523.777C1472.04 531.383 1451.67 538.074 1430.72 543.192C1392.45 552.529 1346.84 556.537 1322.82 534.333C1307.61 520.267 1300.27 499.557 1311.11 475.031C1320.64 453.466 1347.78 430.902 1377.41 417.203V417.203Z" fill="#E1B05A"/>
</g>
<g style="mix-blend-mode:multiply" opacity="0.68">
<path d="M1377.29 417.702C1447.19 385.659 1541.11 390.686 1553.33 437.755C1562.75 473.942 1518.61 508.357 1487.33 522.724C1471.06 530.195 1451.01 536.807 1430.34 541.919C1391.91 551.415 1345.91 555.592 1321.97 533.062C1307.16 519.124 1300.42 498.627 1311.5 474.426C1321.17 453.314 1347.94 431.198 1377.29 417.721L1377.29 417.702Z" fill="#E1B05B"/>
</g>
<g style="mix-blend-mode:multiply" opacity="0.69">
<path d="M1377.19 418.223C1446.43 386.693 1538.86 391.716 1551.13 437.524C1560.72 473.357 1516.72 507.492 1486 521.651C1470.08 528.987 1450.36 535.541 1429.96 540.628C1391.38 550.282 1345 554.63 1321.14 531.754C1306.73 517.925 1300.56 497.656 1311.94 473.768C1321.77 453.111 1348.15 431.46 1377.21 418.206L1377.19 418.223Z" fill="#E1B15C"/>
</g>
<g style="mix-blend-mode:multiply" opacity="0.7">
<path d="M1377.09 418.724C1445.69 387.729 1536.64 392.748 1548.94 437.276C1558.74 472.738 1514.87 506.613 1484.67 520.578C1469.1 527.78 1449.7 534.255 1429.59 539.356C1390.84 549.149 1344.07 553.705 1320.31 530.486C1306.3 516.785 1300.72 496.726 1312.35 473.166C1322.32 452.961 1348.33 431.759 1377.11 418.727L1377.09 418.724Z" fill="#E1B15D"/>
</g>
<g style="mix-blend-mode:multiply" opacity="0.72">
<path d="M1377.01 419.228C1444.96 388.745 1534.44 393.782 1546.76 437.047C1556.74 472.137 1513 505.77 1483.36 519.527C1468.12 526.592 1449.07 533.01 1429.21 538.084C1390.31 548.036 1343.12 552.758 1319.48 529.217C1305.85 515.642 1300.87 495.776 1312.76 472.544C1322.88 452.772 1348.49 432.036 1377.01 419.228V419.228Z" fill="#E0B25E"/>
</g>
<g style="mix-blend-mode:multiply" opacity="0.73">
<path d="M1376.92 419.732C1444.24 389.764 1532.26 394.819 1544.6 436.801C1554.8 471.523 1511.17 504.893 1482.07 518.44C1467.18 525.37 1448.43 531.707 1428.87 536.778C1389.82 546.888 1342.22 551.818 1318.67 527.912C1305.42 514.463 1301.03 494.807 1313.21 471.908C1323.49 452.591 1348.71 432.321 1376.94 419.735L1376.92 419.732Z" fill="#E0B35F"/>
</g>
<g style="mix-blend-mode:multiply" opacity="0.75">
<path d="M1376.86 420.258C1443.51 390.822 1530.09 395.858 1542.43 436.594C1552.84 470.946 1509.31 504.072 1480.77 517.411C1466.24 524.206 1447.81 530.484 1428.53 535.53C1389.34 545.801 1341.31 550.915 1317.88 526.648C1305.02 513.327 1301.21 493.86 1313.66 471.311C1324.08 452.426 1348.93 432.624 1376.88 420.261L1376.86 420.258Z" fill="#E0B360"/>
</g>
<g style="mix-blend-mode:multiply" opacity="0.76">
<path d="M1376.8 420.765C1442.82 391.843 1527.93 396.877 1540.26 436.348C1550.9 470.332 1507.48 503.195 1479.46 516.34C1465.28 522.981 1447.18 529.2 1428.16 534.258C1388.8 544.688 1340.33 550.004 1317.04 525.379C1304.57 512.184 1301.36 492.911 1314.07 470.689C1324.64 452.257 1349.12 432.904 1376.78 420.762L1376.8 420.765Z" fill="#DFB462"/>
</g>
<g style="mix-blend-mode:multiply" opacity="0.77">
<path d="M1376.76 421.273C1442.12 392.865 1525.81 397.921 1538.14 436.126C1548.99 469.742 1505.67 502.359 1478.21 515.277C1464.38 521.783 1446.6 527.943 1427.86 532.976C1388.35 543.584 1339.45 549.106 1316.29 524.101C1304.2 511.031 1301.58 491.968 1314.58 470.08C1325.27 452.078 1349.39 433.215 1376.77 421.295L1376.76 421.273Z" fill="#DFB463"/>
</g>
<g style="mix-blend-mode:multiply" opacity="0.79">
<path d="M1376.73 421.784C1441.46 393.89 1523.71 398.928 1536.01 435.885C1547.09 469.133 1503.88 501.487 1476.95 514.214C1463.48 520.586 1446.03 526.686 1427.56 531.694C1387.91 542.463 1338.54 548.183 1315.52 522.8C1303.79 509.874 1301.76 490.982 1315.06 469.427C1325.89 451.858 1349.62 433.46 1376.73 421.765L1376.73 421.784Z" fill="#DFB564"/>
</g>
<g style="mix-blend-mode:multiply" opacity="0.8">
<path d="M1376.71 422.296C1440.8 394.936 1521.6 399.955 1533.9 435.646C1545.23 468.509 1502.09 500.615 1475.72 513.153C1462.58 519.388 1445.47 525.412 1427.26 530.432C1387.45 541.378 1337.64 547.321 1314.77 521.541C1303.41 508.74 1301.97 490.04 1315.55 468.834C1326.52 451.718 1349.88 433.769 1376.71 422.296V422.296Z" fill="#DEB565"/>
</g>
<g style="mix-blend-mode:multiply" opacity="0.82">
<path d="M1376.71 422.809C1440.14 395.962 1519.54 400.987 1531.8 435.427C1543.37 467.905 1500.31 499.784 1474.47 512.09C1461.68 518.19 1444.89 524.155 1426.96 529.15C1387.01 540.257 1336.72 546.418 1314.02 520.263C1303.02 507.605 1302.17 489.056 1316.06 468.205C1327.16 451.519 1350.16 434.06 1376.71 422.809V422.809Z" fill="#DEB666"/>
</g>
<g style="mix-blend-mode:multiply" opacity="0.83">
<path d="M1376.72 423.306C1439.52 396.974 1517.5 401.982 1529.73 435.174C1541.57 467.269 1498.56 498.897 1473.27 511.014C1460.84 516.98 1444.38 522.886 1426.73 527.855C1386.64 539.143 1335.84 545.519 1313.32 518.972C1302.71 506.44 1302.45 488.082 1316.61 467.581C1327.86 451.328 1350.48 434.337 1376.74 423.308L1376.72 423.306Z" fill="#DEB667"/>
</g>
<g style="mix-blend-mode:multiply" opacity="0.85">
<path d="M1376.74 423.821C1438.87 398.021 1515.46 402.996 1527.64 434.957C1539.74 466.669 1496.81 498.049 1472.06 509.975C1459.98 515.787 1443.84 521.653 1426.45 526.615C1386.21 538.083 1334.9 544.672 1312.57 517.713C1302.31 505.323 1302.64 487.137 1317.12 466.991C1328.49 451.149 1350.74 434.645 1376.74 423.841L1376.74 423.821Z" fill="#DDB768"/>
</g>
<g style="mix-blend-mode:multiply" opacity="0.86">
<path d="M1376.77 424.34C1438.27 399.055 1513.45 404.016 1525.6 434.725C1537.96 466.035 1495.07 497.203 1470.88 508.902C1459.16 514.579 1443.34 520.386 1426.23 525.323C1385.84 536.969 1334.02 543.793 1311.9 516.425C1301.99 504.178 1302.92 486.144 1317.69 466.349C1329.19 450.938 1351.08 434.925 1376.8 424.323L1376.77 424.34Z" fill="#DDB86A"/>
</g>
<g style="mix-blend-mode:multiply" opacity="0.87">
<path d="M1376.83 424.861C1437.67 400.088 1511.47 405.018 1523.55 434.493C1536.2 465.404 1493.34 496.338 1469.69 507.846C1458.29 513.386 1442.84 519.119 1425.99 524.048C1385.45 535.894 1333.11 542.95 1311.2 515.153C1301.64 503.027 1303.18 485.167 1318.24 465.745C1329.86 450.764 1351.4 435.221 1376.83 424.861V424.861Z" fill="#DDB86B"/>
</g>
<g style="mix-blend-mode:multiply" opacity="0.89">
<path d="M1376.88 425.381C1437.09 401.124 1509.51 406.022 1521.5 434.281C1534.46 464.775 1491.63 495.495 1468.51 506.812C1457.47 512.217 1442.34 517.891 1425.77 522.795C1385.09 534.822 1332.19 542.105 1310.53 513.904C1301.32 501.921 1303.44 484.21 1318.83 465.145C1330.58 450.575 1351.76 435.522 1376.9 425.384L1376.88 425.381Z" fill="#DCB96C"/>
</g>
<g style="mix-blend-mode:multiply" opacity="0.9">
<path d="M1376.96 425.904C1436.53 402.181 1507.55 407.027 1519.49 434.054C1532.76 464.131 1489.93 494.654 1467.38 505.763C1456.69 511.033 1441.88 516.649 1425.57 521.545C1384.75 533.771 1331.28 541.302 1309.85 512.635C1300.99 500.792 1303.72 483.236 1319.39 464.542C1331.27 450.383 1352.08 435.837 1376.96 425.904V425.904Z" fill="#DCB96D"/>
</g>
<g style="mix-blend-mode:multiply" opacity="0.92">
<path d="M1377.05 426.41C1435.97 403.199 1505.65 408 1517.48 433.828C1531.1 463.473 1488.22 493.753 1466.24 504.694C1455.89 509.789 1441.42 515.387 1425.39 520.258C1384.44 532.686 1330.38 540.44 1309.22 511.351C1300.69 499.629 1304.02 482.226 1320.01 463.906C1332.01 450.158 1352.46 436.102 1377.05 426.41V426.41Z" fill="#DCBA6E"/>
</g>
<g style="mix-blend-mode:multiply" opacity="0.93">
<path d="M1377.15 426.936C1435.42 404.24 1503.73 408.99 1515.49 433.603C1529.44 462.795 1486.57 492.897 1465.1 503.645C1455.11 508.605 1440.96 514.144 1425.21 518.99C1384.12 531.619 1329.45 539.634 1308.58 510.087C1300.4 498.506 1304.32 481.234 1320.63 463.311C1332.77 449.974 1352.86 436.408 1377.17 426.938L1377.15 426.936Z" fill="#DCBA6F"/>
</g>
<g style="mix-blend-mode:multiply" opacity="0.94">
<path d="M1377.26 427.464C1434.88 405.3 1501.85 409.984 1513.5 433.398C1527.82 462.141 1484.89 492.078 1463.99 502.618C1454.34 507.444 1440.52 512.923 1425.02 517.761C1383.79 530.59 1328.5 538.845 1307.95 508.842C1300.1 497.401 1304.61 480.263 1321.24 462.713C1333.48 449.785 1353.23 436.731 1377.26 427.464V427.464Z" fill="#DBBB70"/>
</g>
<g style="mix-blend-mode:multiply" opacity="0.96">
<path d="M1377.39 427.994C1434.37 406.345 1499.99 410.962 1511.55 433.179C1526.27 461.456 1483.27 491.228 1462.91 501.557C1453.62 506.248 1440.14 511.671 1424.9 516.482C1383.55 529.532 1327.59 538.022 1307.37 507.566C1299.85 496.244 1304.98 479.259 1321.91 462.103C1334.28 449.566 1353.65 437.019 1377.41 427.996L1377.39 427.994Z" fill="#DBBB72"/>
</g>
<g style="mix-blend-mode:multiply" opacity="0.97">
<path d="M1377.53 428.524C1433.85 407.388 1498.13 411.92 1509.58 432.957C1524.72 460.732 1481.62 490.392 1461.81 500.513C1452.85 505.067 1439.72 510.433 1424.76 515.219C1383.26 528.469 1326.64 537.233 1306.75 506.304C1299.57 495.122 1305.3 478.251 1322.55 461.51C1335.06 449.365 1354.07 437.327 1377.55 428.527L1377.53 428.524Z" fill="#DBBC73"/>
</g>
<g style="mix-blend-mode:multiply" opacity="0.99">
<path d="M1377.68 429.057C1433.37 408.435 1496.3 412.861 1507.65 432.759C1523.2 460.032 1480.02 489.563 1460.73 499.491C1452.12 503.91 1439.32 509.217 1424.62 513.975C1382.99 527.447 1325.67 536.461 1306.16 505.064C1299.29 494.001 1305.64 477.265 1323.2 460.917C1335.83 449.183 1354.48 437.655 1377.68 429.057V429.057Z" fill="#DABC74"/>
</g>
<g style="mix-blend-mode:multiply">
<path d="M1424.5 512.715C1382.74 526.428 1324.69 535.689 1305.58 503.788C1294.34 485.051 1322.78 449.677 1377.83 429.57C1432.86 409.481 1494.46 413.783 1505.7 432.52C1521.73 459.259 1478.38 488.71 1459.66 498.41C1451.4 502.695 1438.92 507.962 1424.5 512.695L1424.5 512.715Z" fill="#DABD75"/>
</g>
</g>
<path d="M1531.95 355.738C1531.97 355.602 1531.99 355.465 1532 355.329C1532.08 354.586 1532.42 350.042 1532.34 343.291C1532.33 342.697 1532.33 342.084 1532.3 341.487C1532.29 340.636 1532.26 339.742 1532.23 338.849C1531.47 316.991 1526.38 295.865 1517.57 276.497C1517.55 276.455 1517.52 276.412 1517.51 276.351C1516.54 274.236 1515.53 272.155 1514.5 270.09C1509.47 260.181 1503.46 250.825 1496.54 242.127C1493.31 237.994 1489.27 233.406 1485.72 229.826C1483.33 227.378 1480.84 224.996 1478.29 222.687C1478.17 222.573 1478.05 222.439 1477.92 222.325L1477.58 222.046C1477.13 221.655 1476.71 221.267 1476.26 220.876C1474.6 219.407 1472.83 217.904 1470.87 216.319C1470.87 216.319 1470.73 216.203 1470.66 216.135C1469.72 215.387 1468.73 214.613 1467.7 213.834C1467.23 213.48 1466.75 213.145 1466.28 212.791C1465.89 212.485 1465.51 212.201 1465.09 211.912C1464.76 211.675 1464.45 211.459 1464.12 211.221C1458.13 206.887 1451.82 202.929 1445.18 199.386C1443.47 198.464 1442.15 197.769 1441.37 197.376L1440.18 196.795L1439 196.216C1439 196.216 1438.89 196.162 1438.83 196.136L1438.57 196.005C1437.99 195.736 1437.21 195.363 1436.63 195.094L1436.35 194.961C1436.35 194.961 1436.16 194.878 1436.07 194.828L1434.74 194.229C1434.22 193.987 1433.5 193.682 1432.98 193.459L1431.44 192.796C1431.15 192.682 1430.85 192.546 1430.57 192.433C1430.48 192.401 1430.4 192.372 1430.31 192.321L1430.01 192.205C1429.84 192.145 1429.67 192.065 1429.52 192.007L1427.8 191.322C1427.37 191.15 1426.84 190.946 1426.37 190.77C1425.91 190.596 1425.46 190.421 1425.01 190.247L1424.95 190.24C1424.67 190.126 1424.37 190.01 1424.08 189.896C1423.55 189.693 1422.93 189.478 1422.42 189.296L1421.24 188.895C1420.71 188.711 1420.18 188.527 1419.65 188.343C1419.55 188.312 1419.46 188.281 1419.36 188.249C1418.96 188.121 1418.56 187.993 1418.17 187.845L1417.46 187.621L1416.59 187.335C1416.59 187.335 1416.49 187.323 1416.44 187.297L1416.13 187.2C1415.98 187.161 1415.81 187.101 1415.63 187.06C1415.2 186.927 1414.76 186.794 1414.34 186.664C1414.05 186.569 1413.75 186.492 1413.5 186.422C1413.02 186.284 1412.54 186.147 1412.07 186.009L1410.82 185.659C1410.6 185.591 1410.33 185.519 1410.08 185.468C1409.7 185.362 1409.33 185.278 1408.95 185.171C1408.57 185.065 1408.22 184.983 1407.87 184.901C1407.28 184.749 1406.67 184.595 1406.07 184.462L1404.42 184.062C1404.24 184.04 1404.05 183.977 1403.88 183.936L1403.76 183.922C1403.3 183.806 1402.77 183.681 1402.22 183.575C1401.47 183.404 1400.7 183.25 1399.95 183.098C1399.41 182.992 1398.87 182.886 1398.39 182.787C1397.81 182.677 1397.23 182.586 1396.65 182.475C1396.03 182.359 1395.43 182.246 1394.81 182.15C1394.42 182.103 1394.05 182.038 1393.68 181.973L1392.68 181.79C1392.43 181.759 1392.15 181.725 1391.9 181.694C1391.61 181.658 1391.32 181.623 1391.03 181.567C1387.74 181.085 1384.45 180.72 1381.16 180.455C1380.42 180.383 1379.71 180.336 1379.04 180.294C1378.3 180.242 1377.57 180.192 1376.83 180.14C1376.38 180.105 1375.91 180.087 1375.52 180.058C1374.43 180.005 1373.37 179.973 1372.33 179.944C1371.95 179.937 1371.6 179.913 1371.22 179.907C1369.71 179.879 1368.23 179.855 1366.82 179.88C1366.15 179.877 1365.45 179.89 1364.78 179.906L1364.74 179.902C1364.6 179.904 1364.46 179.907 1364.33 179.91C1363.22 179.932 1362.16 179.961 1361.17 179.997C1360.38 180.018 1359.58 180.059 1358.79 180.1C1356.98 180.194 1355.54 180.294 1354.56 180.372C1349.71 180.745 1344.87 181.357 1340.09 182.173C1337.23 182.612 1334.7 183.112 1331.5 183.847C1318.33 186.796 1305.47 191.365 1293.23 197.533L1293.19 197.528C1291.97 198.168 1290.76 198.791 1289.56 199.434C1289.41 199.515 1289.24 199.613 1289.09 199.693C1287.02 200.822 1284.93 201.99 1282.89 203.202C1282.72 203.299 1282.57 203.399 1282.4 203.497L1282.21 203.593C1282.21 203.593 1282.1 203.658 1282.04 203.69C1281.95 203.739 1281.87 203.788 1281.8 203.839C1281.74 203.871 1281.67 203.922 1281.61 203.954C1281.05 204.301 1280.5 204.648 1279.94 204.994C1278.81 205.705 1277.71 206.401 1276.66 207.102C1276.05 207.502 1275.45 207.883 1274.87 208.306C1273.66 209.126 1272.49 209.932 1271.43 210.691L1271.28 210.791L1271.15 210.894C1270.89 211.079 1270.63 211.265 1270.39 211.453C1264.73 215.542 1261.21 218.609 1260.99 218.799C1259.2 220.3 1257.44 221.902 1255.68 223.525C1254.44 224.657 1253.16 225.864 1251.84 227.164C1251.75 227.252 1251.64 227.338 1251.57 227.428L1251.36 227.64C1248.73 230.223 1245.94 233.162 1242.83 236.754L1242.76 236.824C1242.76 236.824 1242.72 236.878 1242.69 236.915C1242.65 236.968 1242.6 237.002 1242.56 237.056C1241.15 238.702 1239.66 240.535 1238.17 242.488C1236.88 244.148 1235.59 245.808 1234.47 247.232L1230.67 252.875C1229.42 254.698 1228.23 256.489 1227.14 258.115C1225.07 261.262 1222.76 265.426 1220.51 269.953L1220.5 270.031C1218.54 273.922 1216.62 278.095 1214.92 282.136L1214.86 282.287C1214.86 282.287 1214.83 282.402 1214.8 282.458C1212.62 287.705 1210.79 292.72 1209.74 296.643C1205.7 311.508 1205.37 312.713 1204.01 322.726C1202.28 335.325 1202.48 344.483 1202.57 348.883C1202.85 361.569 1204.67 371.439 1205.28 374.677C1207.4 386.206 1209.72 393.074 1211.97 399.716C1213.36 403.821 1214.47 406.705 1215.96 410.031C1217.71 414.101 1219.71 418.161 1221.88 422.184C1222.12 422.668 1222.36 423.152 1222.63 423.66C1224.72 427.851 1227.98 433.213 1230.72 437.009C1232.76 439.83 1235.38 443.65 1237.51 446.383C1239.63 449.114 1242.53 452.654 1244.91 455.219C1247.5 458.107 1248.58 459.287 1251.05 461.667C1254.04 464.702 1257.11 467.55 1260.24 470.228L1260.28 470.233C1261.3 471.129 1262.32 471.986 1263.35 472.803C1264.55 473.782 1265.76 474.74 1266.84 475.546C1267.42 475.973 1268.22 476.565 1269.15 477.252C1269.29 477.349 1269.42 477.463 1269.56 477.56C1270.52 478.252 1271.63 479.06 1272.89 479.926C1273.16 480.117 1273.44 480.309 1273.71 480.501C1277.41 483.051 1282.11 486.099 1287.37 488.999C1288.52 489.634 1290.08 490.477 1291.95 491.459C1292.47 491.74 1293.03 492.026 1293.53 492.285L1296.31 493.654C1296.89 493.923 1297.67 494.296 1298.25 494.565L1298.94 494.887C1298.94 494.887 1299.04 494.919 1299.08 494.943L1300.12 495.428C1300.65 495.67 1301.36 495.975 1301.89 496.198L1303.63 496.946L1303.78 497.004C1310.57 499.873 1317.11 502.1 1323.45 503.827L1324.04 503.998C1324.57 504.143 1325.21 504.3 1325.82 504.474C1325.88 504.481 1325.93 504.488 1325.99 504.515C1326.53 504.659 1327.08 504.787 1327.54 504.923L1331.09 505.774C1332.69 506.128 1334.85 506.571 1336.45 506.887C1337.94 507.188 1339.76 507.49 1341.49 507.761L1341.56 507.771C1342.43 507.918 1343.29 508.042 1344.05 508.155C1346.3 508.471 1349.3 508.801 1351.57 509.058C1353.88 509.343 1356.99 509.448 1359.31 509.613C1364.27 509.768 1370.91 509.792 1375.85 509.589C1379.73 509.432 1384.9 509.02 1388.73 508.422C1389.7 508.264 1390.71 508.092 1391.75 507.924C1394.78 507.426 1397.91 506.881 1400.54 506.432L1403.63 505.686C1406.11 505.14 1408.56 504.55 1410.99 503.9L1412.21 503.596C1415.07 502.879 1418.55 501.705 1421.69 500.589C1423.04 500.121 1424.36 499.651 1425.69 499.142C1429.27 497.822 1433.74 496.038 1437.03 494.366C1437.13 494.3 1437.26 494.237 1437.37 494.19C1440.39 492.762 1443.36 491.249 1446.31 489.615C1446.94 489.277 1447.6 488.942 1448.19 488.639L1451.43 486.666C1452.31 486.141 1453.17 485.613 1454.02 485.085L1458.94 482.071C1460.82 480.919 1464.22 478.628 1469.29 474.565C1469.38 474.497 1469.46 474.428 1469.55 474.379L1470.06 473.948C1472.69 471.82 1475.73 469.267 1479.26 466.103C1479.33 466.032 1479.42 465.944 1479.51 465.895C1482.97 462.802 1488.83 457.096 1495.43 448.931C1495.47 448.858 1495.54 448.787 1495.59 448.714C1497.11 446.844 1498.64 444.838 1500.2 442.698C1500.87 441.791 1501.54 440.865 1502.21 439.899C1503.14 438.59 1504.05 437.299 1504.79 436.124C1505.03 435.739 1505.28 435.334 1505.54 434.951C1506.86 432.899 1508.19 430.769 1509.49 428.557C1511.31 425.537 1513.05 422.43 1514.35 419.704C1516.7 415.109 1518.92 410.222 1520.96 405.016C1522.26 401.855 1523.42 398.657 1524.3 395.681C1525.35 392.449 1526.31 389.107 1527.19 385.676C1527.41 384.892 1527.6 384.145 1527.77 383.375C1528.89 378.729 1529.82 373.881 1530.56 368.871C1530.58 368.696 1530.6 368.501 1530.64 368.348L1530.69 367.997C1531.23 364.051 1531.67 359.993 1531.94 355.835L1531.95 355.738Z" fill="url(#paint0_radial_79_2055)"/>
<path d="M1526.53 299.62C1526.29 298.523 1526.01 297.44 1525.68 296.353C1525.95 297.394 1526.23 298.496 1526.53 299.62Z" fill="url(#paint1_linear_79_2055)"/>
<path d="M1201.25 351.645C1201.17 350.667 1201.11 349.711 1201.06 348.815C1201.08 349.767 1201.14 350.704 1201.25 351.645Z" fill="url(#paint2_linear_79_2055)"/>
<path d="M1293.05 270.656C1286.7 274.838 1288.44 284.047 1294.28 285.238C1294.71 285.33 1295.3 285.363 1295.73 285.357C1309.16 284.831 1314.18 284.638 1337.39 283.216C1313.02 318.715 1312.7 319.743 1312.3 321.039C1310.29 327.434 1315.59 333.916 1321.87 332.79C1324.1 332.391 1325.93 331.153 1327.35 329.093C1337.83 313.102 1349.89 298.154 1359.31 281.441C1360.37 279.554 1361.17 276.569 1358.97 273.096C1358.25 272.039 1357.51 270.999 1356.79 269.961C1354.85 267.39 1352.19 266.155 1348.84 266.296C1312 268.983 1293.41 270.437 1293.07 270.658" fill="#412121"/>
<path d="M1415.75 200.141C1415.3 200.422 1414.88 200.747 1414.81 201.528C1413.91 211.757 1412.43 218.119 1406.01 233.422C1405.48 234.662 1405.04 237.258 1407.96 240.542C1408.85 241.482 1409.72 242.439 1410.61 243.398C1413.1 245.997 1416.07 247.27 1419.42 247.227C1439.42 246.599 1450.46 246.669 1467.17 248.74C1467.44 248.774 1468.1 248.855 1468.81 248.705C1472.71 247.898 1471.48 241.916 1466.53 237.473C1463.58 234.817 1461.12 234.358 1460.31 234.219C1448.85 233.068 1442.52 232.43 1425.35 232.674C1431.34 214.51 1431.31 208.674 1430.76 206.809C1429.67 203.136 1419.79 198.146 1415.75 200.141" fill="#412121"/>
<path d="M1490.29 269.688C1488.01 271.504 1486 273.589 1483.81 275.495C1449.06 305.112 1381.87 340.532 1333.43 360.186C1329.81 361.659 1328.54 362.511 1327 365.406C1319.65 379.25 1362.37 416.048 1406.6 420.965C1505.92 432.013 1526.86 309.308 1497.51 273.204C1495.57 270.811 1492.66 268.634 1490.31 269.671" fill="white"/>
</g>
<defs>
<radialGradient id="paint0_radial_79_2055" cx="0" cy="0" r="1" gradientUnits="userSpaceOnUse" gradientTransform="translate(1373.54 372.096) rotate(6.76999) scale(189.534 189.545)">
<stop stop-color="#F79F40"/>
<stop offset="0.16" stop-color="#F7A442"/>
<stop offset="0.37" stop-color="#F8B449"/>
<stop offset="0.6" stop-color="#F9CE55"/>
<stop offset="0.77" stop-color="#FBE660"/>
<stop offset="0.91" stop-color="#FBF36F"/>
<stop offset="0.93" stop-color="#FBF672"/>
<stop offset="0.95" stop-color="#FBF676"/>
<stop offset="0.96" stop-color="#FBF782"/>
<stop offset="0.98" stop-color="#FBF897"/>
<stop offset="0.99" stop-color="#FCFAB4"/>
<stop offset="1" stop-color="#FDFBC2"/>
</radialGradient>
<linearGradient id="paint1_linear_79_2055" x1="1525.47" y1="297.997" x2="1526.69" y2="298.151" gradientUnits="userSpaceOnUse">
<stop stop-color="#19B79C"/>
<stop offset="0.4" stop-color="#1DBB9D"/>
<stop offset="0.82" stop-color="#29C7A2"/>
<stop offset="1" stop-color="#31CFA6"/>
</linearGradient>
<linearGradient id="paint2_linear_79_2055" x1="1200.85" y1="350.273" x2="1201.38" y2="350.339" gradientUnits="userSpaceOnUse">
<stop stop-color="#19B79C"/>
<stop offset="0.4" stop-color="#1DBB9D"/>
<stop offset="0.82" stop-color="#29C7A2"/>
<stop offset="1" stop-color="#31CFA6"/>
</linearGradient>
<clipPath id="clip0_79_2055">
<rect width="1645" height="1221" fill="white"/>
</clipPath>
</defs>
</svg>
