<svg width="1645" height="1221" viewBox="0 0 1645 1221" fill="none" xmlns="http://www.w3.org/2000/svg">
<g style="mix-blend-mode:multiply" opacity="0.4">
<g style="mix-blend-mode:multiply" opacity="0.01">
<path d="M1266.17 908.949C1352.39 860.387 1497.77 864.181 1502.25 956.221C1504.6 1002.26 1459.27 1042.06 1410.39 1062.8C1382.23 1074.75 1352.08 1084.33 1322.99 1087.95C1296.44 1091.34 1270.64 1089.75 1248.34 1080.43C1217.39 1067.5 1188.34 1037.34 1188.78 1003.35C1189.15 966.963 1229.61 929.507 1266.16 908.927L1266.17 908.949Z" fill="#AF3CA5"/>
</g>
<g style="mix-blend-mode:multiply" opacity="0.03">
<path d="M1265.96 909.417C1351.63 861.301 1495.47 865.104 1500.23 956.053C1502.63 1001.76 1457.54 1041.35 1409.11 1061.94C1381.25 1073.76 1351.37 1083.2 1322.52 1086.91C1295.83 1090.33 1269.74 1088.87 1247.48 1079.38C1216.96 1066.36 1188.41 1036.58 1188.99 1002.86C1189.6 966.86 1229.63 929.806 1265.94 909.414L1265.96 909.417Z" fill="#AD3DA6"/>
</g>
<g style="mix-blend-mode:multiply" opacity="0.04">
<path d="M1265.74 909.865C1350.85 862.194 1493.26 866 1498.22 955.865C1500.73 1001.25 1455.81 1040.63 1407.86 1061.03C1380.3 1072.75 1350.68 1082.06 1322.09 1085.81C1295.26 1089.33 1268.87 1087.93 1246.65 1078.28C1216.53 1065.2 1188.49 1035.76 1189.24 1002.34C1190.03 966.716 1229.66 930.066 1265.73 909.863L1265.74 909.865Z" fill="#AB3EA6"/>
</g>
<g style="mix-blend-mode:multiply" opacity="0.06">
<path d="M1265.53 910.313C1350.09 863.088 1491.06 866.895 1496.21 955.677C1498.82 1000.74 1454.06 1039.92 1406.58 1060.12C1379.32 1071.72 1349.98 1080.93 1321.65 1084.73C1294.67 1088.33 1267.99 1087.01 1245.81 1077.19C1216.12 1064.04 1188.55 1034.95 1189.48 1001.82C1190.46 966.571 1229.71 930.31 1265.53 910.313V910.313Z" fill="#A93FA6"/>
</g>
<g style="mix-blend-mode:multiply" opacity="0.07">
<path d="M1265.32 910.761C1349.32 863.983 1488.87 867.813 1494.19 955.489C1496.9 1000.22 1452.33 1039.19 1405.31 1059.24C1378.36 1070.71 1349.29 1079.82 1321.19 1083.64C1293.08 1087.47 1267.1 1086.09 1244.96 1076.1C1215.66 1062.88 1188.59 1034.13 1189.7 1001.29C1190.88 966.424 1229.74 930.57 1265.32 910.761V910.761Z" fill="#A740A6"/>
</g>
<g style="mix-blend-mode:multiply" opacity="0.08">
<path d="M1265.11 911.21C1348.54 864.876 1486.66 868.708 1492.18 955.302C1495.01 999.714 1450.6 1038.46 1404.06 1058.33C1377.4 1069.69 1348.6 1078.7 1320.75 1082.56C1293.5 1086.33 1266.22 1085.18 1244.12 1075.03C1215.25 1061.76 1188.65 1033.35 1189.94 1000.79C1191.31 966.299 1229.76 930.85 1265.11 911.21V911.21Z" fill="#A540A7"/>
</g>
<g style="mix-blend-mode:multiply" opacity="0.1">
<path d="M1264.89 911.658C1347.78 865.79 1484.48 869.606 1490.17 955.114C1493.1 999.202 1448.87 1037.74 1402.78 1057.42C1376.44 1068.66 1347.91 1077.57 1320.29 1081.47C1292.67 1085.38 1265.32 1084.27 1243.27 1073.94C1214.8 1060.59 1188.69 1032.52 1190.16 1000.26C1191.72 966.152 1229.79 931.091 1264.89 911.658V911.658Z" fill="#A341A7"/>
</g>
<g style="mix-blend-mode:multiply" opacity="0.11">
<path d="M1264.66 912.104C1347 866.682 1482.27 870.502 1488.14 954.904C1491.19 998.671 1447.1 1036.99 1401.5 1056.49C1375.44 1067.61 1347.2 1076.42 1319.81 1080.35C1292.42 1084.28 1264.43 1083.32 1242.4 1072.8C1214.35 1059.41 1188.72 1031.67 1190.35 999.69C1192.08 965.979 1229.78 931.307 1264.64 912.063L1264.66 912.104Z" fill="#A142A7"/>
</g>
<g style="mix-blend-mode:multiply" opacity="0.13">
<path d="M1264.45 912.552C1346.21 867.575 1480.06 871.417 1486.13 954.716C1489.27 998.14 1445.37 1036.26 1400.24 1055.61C1374.49 1066.62 1346.5 1075.32 1319.37 1079.29C1292.24 1083.25 1263.55 1082.44 1241.56 1071.75C1213.93 1058.31 1188.77 1030.91 1190.59 999.205C1192.51 965.873 1229.81 931.607 1264.43 912.55L1264.45 912.552Z" fill="#9F43A7"/>
</g>
<g style="mix-blend-mode:multiply" opacity="0.14">
<path d="M1264.23 913.001C1345.45 868.47 1477.88 872.315 1484.11 954.528C1487.38 997.631 1443.64 1035.55 1398.97 1054.7C1373.51 1065.59 1345.81 1074.19 1318.93 1078.2C1292.05 1082.22 1262.68 1081.52 1240.72 1070.66C1213.5 1057.19 1188.83 1030.09 1190.83 998.681C1192.94 965.728 1229.86 931.85 1264.23 913.001V913.001Z" fill="#9D44A8"/>
</g>
<g style="mix-blend-mode:multiply" opacity="0.15">
<path d="M1264.04 913.432C1344.71 869.348 1475.71 873.196 1482.12 954.324C1485.48 997.121 1441.93 1034.81 1397.72 1053.78C1372.57 1064.55 1345.14 1073.06 1318.49 1077.08C1291.85 1081.11 1261.82 1080.58 1239.89 1069.53C1213.09 1056.02 1188.9 1029.24 1191.08 998.119C1193.38 965.564 1229.89 932.071 1264.04 913.412L1264.04 913.432Z" fill="#9B45A8"/>
</g>
<g style="mix-blend-mode:multiply" opacity="0.17">
<path d="M1263.83 913.88C1343.93 870.24 1473.55 874.096 1480.09 954.133C1483.57 996.609 1440.17 1034.08 1396.44 1052.89C1371.59 1063.54 1344.44 1071.97 1318.03 1076.02C1289.94 1080.34 1260.95 1079.68 1239.04 1068.47C1212.63 1054.93 1188.93 1028.48 1191.3 997.631C1193.76 965.454 1229.91 932.371 1263.81 913.878L1263.83 913.88Z" fill="#9946A8"/>
</g>
<g style="mix-blend-mode:multiply" opacity="0.18">
<path d="M1263.62 914.328C1343.17 871.135 1471.36 875.013 1478.07 953.945C1481.66 996.098 1438.44 1033.35 1395.17 1051.98C1370.63 1062.51 1343.73 1070.83 1317.57 1074.93C1289.35 1079.34 1260.05 1078.78 1238.18 1067.38C1212.19 1053.81 1188.97 1027.67 1191.52 997.105C1194.18 965.307 1229.94 932.631 1263.6 914.326L1263.62 914.328Z" fill="#9747A8"/>
</g>
<g style="mix-blend-mode:multiply" opacity="0.2">
<path d="M1263.4 914.776C1342.4 872.03 1469.17 875.911 1476.06 953.757C1479.76 995.588 1436.71 1032.63 1393.9 1051.07C1369.65 1061.48 1343.04 1069.72 1317.11 1073.83C1288.75 1078.33 1259.17 1077.86 1237.33 1066.29C1211.73 1052.71 1189.01 1026.87 1191.74 996.579C1194.57 965.177 1229.95 932.869 1263.38 914.774L1263.4 914.776Z" fill="#9548A9"/>
</g>
<g style="mix-blend-mode:multiply" opacity="0.21">
<path d="M1263.19 915.225C1341.64 872.925 1467.01 876.812 1474.05 953.55C1477.87 995.059 1434.98 1031.88 1392.64 1050.17C1368.71 1060.47 1342.36 1068.61 1316.67 1072.75C1288.18 1077.33 1258.31 1076.97 1236.49 1065.2C1211.3 1051.59 1189.05 1026.04 1191.98 996.055C1194.91 966.07 1229.99 933.132 1263.19 915.225V915.225Z" fill="#9349A9"/>
</g>
<g style="mix-blend-mode:multiply" opacity="0.23">
<path d="M1263 915.656C1340.88 873.8 1464.86 877.715 1472.06 953.345C1475.98 994.53 1433.25 1031.15 1391.39 1049.24C1367.75 1059.43 1341.69 1067.48 1316.24 1071.63C1287.59 1076.31 1257.44 1076.03 1235.66 1064.07C1210.88 1050.45 1189.12 1025.2 1192.23 995.492C1195.34 965.786 1230.05 933.356 1262.98 915.634L1263 915.656Z" fill="#914AA9"/>
</g>
<g style="mix-blend-mode:multiply" opacity="0.24">
<path d="M1262.78 916.104C1340.12 874.695 1462.67 878.613 1470.05 953.157C1474.08 994.021 1431.52 1030.43 1390.12 1048.34C1366.79 1058.4 1340.98 1066.36 1315.8 1070.54C1287.02 1075.33 1256.58 1075.14 1234.83 1062.99C1210.44 1049.37 1189.17 1024.41 1192.47 994.988C1195.85 964.741 1230.07 933.616 1262.78 916.104V916.104Z" fill="#8F4BAA"/>
</g>
<g style="mix-blend-mode:multiply" opacity="0.25">
<path d="M1262.57 916.553C1339.36 875.59 1460.51 879.513 1468.03 952.97C1472.19 993.512 1429.79 1029.7 1388.87 1047.43C1365.82 1057.37 1340.31 1065.25 1315.36 1069.46C1286.43 1074.33 1255.72 1074.26 1233.99 1061.9C1210.01 1048.26 1189.23 1023.61 1192.71 994.484C1196.19 965.356 1230.12 933.898 1262.59 916.555L1262.57 916.553Z" fill="#8D4BAA"/>
</g>
<g style="mix-blend-mode:multiply" opacity="0.27">
<path d="M1262.38 917.003C1338.6 876.484 1458.36 880.416 1466.04 952.784C1470.31 993.005 1428.08 1028.98 1387.61 1046.55C1364.88 1056.37 1339.63 1064.16 1314.92 1068.38C1285.86 1073.35 1254.86 1073.36 1233.16 1060.81C1209.59 1047.18 1189.29 1022.81 1192.93 993.958C1196.67 964.486 1230.14 934.159 1262.36 917.001L1262.38 917.003Z" fill="#8B4CAA"/>
</g>
<g style="mix-blend-mode:multiply" opacity="0.28">
<path d="M1262.17 917.432C1337.84 877.36 1456.21 881.319 1464.03 952.577C1468.4 992.474 1426.33 1028.23 1386.34 1045.62C1363.9 1055.32 1338.94 1063.03 1314.46 1067.28C1285.25 1072.35 1253.98 1072.46 1232.3 1059.72C1209.13 1046.1 1189.31 1022 1193.16 993.431C1197 964.863 1230.16 934.397 1262.14 917.449L1262.17 917.432Z" fill="#894DAA"/>
</g>
<g style="mix-blend-mode:multiply" opacity="0.3">
<path d="M1261.97 917.883C1337.09 878.257 1454.07 882.221 1462.04 952.391C1466.52 991.986 1424.62 1027.51 1385.11 1044.72C1362.98 1054.3 1338.28 1061.92 1314.04 1066.2C1284.7 1071.35 1253.14 1071.57 1231.49 1058.63C1208.7 1045.02 1189.39 1021.2 1193.42 992.91C1197.49 964.212 1230.22 934.663 1261.97 917.902L1261.97 917.883Z" fill="#874EAB"/>
</g>
<g style="mix-blend-mode:multiply" opacity="0.31">
<path d="M1261.76 918.331C1336.31 879.15 1451.92 883.124 1460.01 952.181C1464.61 991.455 1422.88 1026.78 1383.82 1043.81C1361.98 1053.28 1337.57 1060.82 1313.56 1065.09C1284.09 1070.35 1252.25 1070.67 1230.62 1057.52C1208.23 1043.91 1189.41 1020.37 1193.62 992.362C1197.83 964.352 1230.23 934.901 1261.72 918.326L1261.76 918.331Z" fill="#854FAB"/>
</g>
<g style="mix-blend-mode:multiply" opacity="0.32">
<path d="M1261.57 918.762C1335.57 880.027 1449.77 884.027 1458.02 951.976C1462.74 990.928 1421.17 1026.03 1382.57 1042.88C1361.04 1052.24 1336.88 1059.69 1313.14 1063.99C1283.52 1069.35 1251.41 1069.78 1229.8 1056.43C1207.81 1042.83 1189.47 1019.57 1193.89 991.84C1198.3 964.113 1230.28 935.144 1261.55 918.779L1261.57 918.762Z" fill="#8350AB"/>
</g>
<g style="mix-blend-mode:multiply" opacity="0.34">
<path d="M1261.38 919.213C1334.83 880.925 1447.65 884.932 1456.02 951.791C1460.87 990.421 1419.44 1025.31 1381.34 1041.98C1360.1 1051.21 1336.22 1058.58 1312.72 1062.89C1282.97 1068.35 1250.57 1068.88 1229.01 1055.32C1207.44 1041.76 1189.57 1018.75 1194.17 991.302C1198.76 963.854 1230.37 935.392 1261.39 919.215L1261.38 919.213Z" fill="#8151AB"/>
</g>
<g style="mix-blend-mode:multiply" opacity="0.35">
<path d="M1261.18 919.644C1334.07 881.8 1445.52 885.818 1454.03 951.586C1458.99 989.914 1417.73 1024.56 1380.08 1041.07C1359.14 1050.19 1335.55 1057.49 1312.28 1061.81C1282.38 1067.37 1249.71 1068 1228.17 1054.23C1206.96 1040.69 1189.63 1017.95 1194.41 990.778C1199.19 963.609 1230.42 935.655 1261.18 919.644Z" fill="#7F52AC"/>
</g>
<g style="mix-blend-mode:multiply" opacity="0.37">
<path d="M1260.99 920.095C1333.33 882.697 1443.39 886.723 1452.04 951.401C1457.12 989.408 1416.02 1023.84 1378.83 1040.17C1358.2 1049.16 1334.87 1056.38 1311.84 1060.73C1281.81 1066.39 1248.85 1067.13 1227.34 1053.16C1205.82 1039.19 1189.67 1017.16 1194.65 990.274C1199.63 963.387 1230.44 935.915 1260.99 920.114L1260.99 920.095Z" fill="#7D53AC"/>
</g>
<g style="mix-blend-mode:multiply" opacity="0.38">
<path d="M1260.8 920.526C1332.58 883.595 1441.27 887.628 1450.05 951.196C1455.24 988.881 1414.31 1023.1 1377.6 1039.25C1357.26 1048.12 1334.22 1055.27 1311.43 1059.61C1281.24 1065.37 1248.01 1066.21 1226.52 1052.03C1205.04 1037.85 1189.75 1016.32 1194.92 989.714C1200.03 963.357 1230.51 936.141 1260.82 920.528L1260.8 920.526Z" fill="#7B54AC"/>
</g>
<g style="mix-blend-mode:multiply" opacity="0.39">
<path d="M1260.61 920.977C1331.82 884.489 1439.16 888.535 1448.05 951.01C1453.37 988.393 1412.58 1022.39 1376.35 1038.34C1356.31 1047.11 1333.54 1054.16 1310.99 1058.53C1280.67 1064.39 1247.15 1065.36 1225.69 1050.94C1205.66 1037.49 1189.79 1015.53 1195.16 989.19C1200.53 962.845 1230.56 936.404 1260.61 920.977V920.977Z" fill="#7955AC"/>
</g>
<g style="mix-blend-mode:multiply" opacity="0.41">
<path d="M1260.41 921.408C1331.08 885.367 1437.05 889.423 1446.06 950.786C1451.52 987.85 1410.88 1021.63 1375.1 1037.42C1355.35 1046.06 1332.87 1053.05 1310.57 1057.43C1280.12 1063.4 1246.31 1064.46 1224.87 1049.85C1205.21 1036.45 1189.85 1014.73 1195.4 988.666C1200.95 962.6 1230.59 936.645 1260.41 921.427L1260.41 921.408Z" fill="#7756AD"/>
</g>
<g style="mix-blend-mode:multiply" opacity="0.42">
<path d="M1260.24 921.841C1330.36 886.247 1434.95 890.312 1444.09 950.583C1449.66 987.326 1409.19 1020.89 1373.88 1036.5C1354.45 1045.02 1332.23 1051.94 1310.17 1056.31C1279.58 1062.38 1245.49 1063.57 1224.08 1048.73C1204.81 1035.37 1189.95 1013.89 1195.69 988.108C1201.31 962.921 1230.68 936.874 1260.26 921.844L1260.24 921.841Z" fill="#7556AD"/>
</g>
<g style="mix-blend-mode:multiply" opacity="0.44">
<path d="M1260.05 922.292C1329.6 887.142 1432.84 891.239 1442.1 950.398C1447.78 986.838 1407.48 1020.16 1372.63 1035.59C1353.49 1044 1331.56 1050.83 1309.73 1055.23C1279 1061.42 1244.62 1062.72 1223.25 1047.64C1204.36 1034.33 1189.99 1013.09 1195.93 987.584C1201.87 962.08 1230.71 937.134 1260.07 922.275L1260.05 922.292Z" fill="#7357AD"/>
</g>
<g style="mix-blend-mode:multiply" opacity="0.45">
<path d="M1259.88 922.726C1328.88 888.022 1430.77 892.131 1440.13 950.195C1445.95 986.316 1405.77 1019.42 1371.4 1034.69C1352.57 1042.97 1330.9 1049.74 1309.31 1054.15C1278.43 1060.44 1243.78 1061.86 1222.43 1046.57C1203.92 1033.3 1190.05 1012.32 1196.19 987.082C1202.13 962.666 1230.78 937.399 1259.87 922.745L1259.88 922.726Z" fill="#7158AE"/>
</g>
<g style="mix-blend-mode:multiply" opacity="0.46">
<path d="M1259.7 923.159C1328.16 888.903 1428.68 893.022 1438.14 949.99C1444.08 985.79 1404.06 1018.68 1370.17 1033.77C1351.63 1041.93 1330.25 1048.64 1308.89 1053.03C1277.88 1059.42 1242.94 1060.97 1221.62 1045.44C1203.49 1032.24 1190.11 1011.48 1196.46 986.522C1202.57 962.502 1230.85 937.625 1259.7 923.159V923.159Z" fill="#6F59AE"/>
</g>
<g style="mix-blend-mode:multiply" opacity="0.48">
<path d="M1259.53 923.593C1327.42 889.78 1426.62 893.915 1436.16 949.788C1442.24 985.288 1402.37 1017.95 1368.94 1032.85C1350.71 1040.89 1329.59 1047.53 1308.47 1051.93C1277.33 1058.45 1242.08 1060.09 1220.81 1044.33C1203.05 1031.18 1190.17 1010.66 1196.72 985.981C1203.27 961.303 1230.9 937.869 1259.53 923.593V923.593Z" fill="#6D5AAE"/>
</g>
<g style="mix-blend-mode:multiply" opacity="0.49">
<path d="M1259.36 924.046C1326.69 890.68 1424.53 894.825 1434.19 949.605C1440.39 984.783 1400.68 1017.23 1367.72 1031.95C1349.79 1039.89 1328.96 1046.44 1308.09 1050.84C1276.8 1057.45 1241.28 1059.24 1220.03 1043.25C1202.64 1030.16 1190.27 1009.88 1197.02 985.465C1203.45 962.235 1231 938.139 1259.38 924.048L1259.36 924.046Z" fill="#6B5BAE"/>
</g>
<g style="mix-blend-mode:multiply" opacity="0.51">
<path d="M1259.21 924.482C1325.99 891.563 1422.48 895.72 1432.24 949.385C1438.58 984.244 1399 1016.47 1366.51 1031.03C1348.89 1038.85 1328.32 1045.33 1307.7 1049.74C1276.27 1056.46 1240.45 1058.37 1219.24 1042.14C1202.22 1029.12 1190.35 1009.06 1197.3 984.926C1203.89 962.071 1231.09 938.367 1259.23 924.484L1259.21 924.482Z" fill="#6A5CAF"/>
</g>
<g style="mix-blend-mode:multiply" opacity="0.52">
<path d="M1259.03 924.915C1325.25 892.44 1420.41 896.613 1430.27 949.182C1436.74 983.742 1397.31 1015.73 1365.28 1030.1C1347.95 1037.8 1327.67 1044.23 1307.28 1048.64C1275.72 1055.48 1239.59 1057.51 1218.43 1041.03C1201.79 1028.1 1190.41 1008.24 1197.57 984.385C1204.3 961.924 1231.14 938.61 1259.06 924.898L1259.03 924.915Z" fill="#685DAF"/>
</g>
<g style="mix-blend-mode:multiply" opacity="0.54">
<path d="M1258.88 925.351C1324.55 893.323 1418.39 897.51 1428.32 948.982C1434.92 983.223 1395.64 1014.99 1364.09 1029.19C1347.07 1036.76 1327.05 1043.12 1306.9 1047.53C1275.21 1054.49 1238.79 1056.64 1217.65 1039.93C1201.38 1027.06 1190.51 1007.44 1197.87 983.849C1204.75 961.782 1231.25 938.861 1258.9 925.334L1258.88 925.351Z" fill="#665EAF"/>
</g>
<g style="mix-blend-mode:multiply" opacity="0.55">
<path d="M1258.73 925.787C1323.85 894.205 1416.36 898.408 1426.36 948.782C1433.11 982.723 1393.98 1014.31 1362.87 1028.29C1346.16 1035.78 1326.41 1042.04 1306.5 1046.45C1274.66 1053.51 1237.94 1055.81 1216.86 1038.84C1200.93 1026.06 1190.57 1006.64 1198.13 983.328C1205.16 961.654 1231.32 939.107 1258.73 925.787V925.787Z" fill="#645FAF"/>
</g>
<g style="mix-blend-mode:multiply" opacity="0.56">
<path d="M1258.58 926.223C1323.15 895.088 1414.31 899.303 1424.41 948.582C1431.29 982.204 1392.31 1013.59 1361.66 1027.37C1345.26 1034.74 1325.78 1040.93 1306.1 1045.35C1274.12 1052.54 1237.11 1054.97 1216.06 1037.74C1200.51 1025.02 1190.65 1005.82 1198.42 982.789C1205.6 961.51 1231.39 939.352 1258.58 926.223V926.223Z" fill="#6260B0"/>
</g>
<g style="mix-blend-mode:multiply" opacity="0.58">
<path d="M1258.42 926.659C1322.43 895.968 1412.3 900.203 1422.46 948.382C1429.48 981.685 1390.64 1012.86 1360.47 1026.45C1344.36 1033.7 1325.16 1039.83 1305.74 1044.24C1273.63 1051.55 1236.31 1054.1 1215.31 1036.64C1200.12 1024 1190.76 1005.02 1198.74 982.256C1206.07 961.37 1231.51 939.605 1258.44 926.662L1258.42 926.659Z" fill="#6061B0"/>
</g>
<g style="mix-blend-mode:multiply" opacity="0.59">
<path d="M1258.29 927.098C1321.74 896.853 1410.3 901.103 1420.53 948.184C1427.7 981.19 1388.99 1012.12 1359.27 1025.55C1343.47 1032.68 1324.56 1038.75 1305.36 1043.17C1273.12 1050.6 1235.48 1053.29 1214.53 1035.55C1199.71 1023 1190.84 1004.22 1199.04 981.739C1206.52 961.228 1231.62 939.855 1258.31 927.119L1258.29 927.098Z" fill="#5E61B0"/>
</g>
<g style="mix-blend-mode:multiply" opacity="0.61">
<path d="M1258.16 927.536C1321.06 897.738 1408.29 902.003 1418.58 947.964C1425.89 980.651 1387.33 1011.36 1358.07 1024.61C1342.55 1031.64 1323.93 1037.62 1304.96 1042.05C1272.59 1049.6 1234.64 1052.43 1213.74 1034.45C1199.26 1022 1190.9 1003.41 1199.32 981.2C1206.95 961.083 1231.69 940.101 1258.16 927.536V927.536Z" fill="#5C62B1"/>
</g>
<g style="mix-blend-mode:multiply" opacity="0.62">
<path d="M1258.03 927.974C1320.36 898.621 1406.3 902.906 1416.64 947.767C1424.12 980.136 1385.66 1010.62 1356.89 1023.7C1341.69 1030.61 1323.33 1036.54 1304.61 1040.94C1272.09 1048.61 1233.83 1051.58 1212.99 1033.33C1198.87 1020.96 1191.01 1002.58 1199.65 980.647C1207.41 960.922 1231.82 940.334 1258.03 927.955L1258.03 927.974Z" fill="#5A63B1"/>
</g>
<g style="mix-blend-mode:multiply" opacity="0.63">
<path d="M1257.91 928.415C1319.7 899.508 1404.33 903.791 1414.73 947.571C1422.34 979.641 1384.03 1009.89 1355.72 1022.78C1340.81 1029.57 1322.74 1035.44 1304.25 1039.85C1271.58 1047.64 1233.02 1050.77 1212.23 1032.23C1198.46 1019.94 1191.13 1001.76 1199.97 980.114C1207.88 960.782 1231.95 940.568 1257.91 928.396L1257.91 928.415Z" fill="#5864B1"/>
</g>
<g style="mix-blend-mode:multiply" opacity="0.65">
<path d="M1257.8 928.836C1319.04 900.376 1402.38 904.679 1412.82 947.356C1420.58 979.11 1382.4 1009.16 1354.55 1021.87C1339.95 1028.54 1322.14 1034.34 1303.89 1038.74C1271.09 1046.65 1232.2 1049.92 1211.48 1031.13C1198.05 1018.94 1191.22 1000.96 1200.29 979.58C1208.33 960.64 1232.06 940.818 1257.8 928.836Z" fill="#5665B1"/>
</g>
<g style="mix-blend-mode:multiply" opacity="0.66">
<path d="M1257.69 929.277C1318.36 901.261 1400.42 905.584 1410.91 947.161C1418.83 978.598 1380.77 1008.42 1353.4 1020.95C1339.09 1027.5 1321.58 1033.26 1303.55 1037.65C1270.62 1045.68 1231.41 1049.11 1210.74 1030.03C1197.66 1017.94 1191.32 1000.15 1200.64 979.048C1208.83 960.483 1232.2 941.073 1257.71 929.279L1257.69 929.277Z" fill="#5466B2"/>
</g>
<g style="mix-blend-mode:multiply" opacity="0.68">
<path d="M1257.59 929.72C1317.71 902.17 1398.49 906.474 1409.01 946.968C1417.11 978.09 1379.14 1007.69 1352.24 1020.04C1338.25 1026.47 1321 1032.16 1303.23 1036.56C1270.16 1044.72 1230.62 1048.32 1210.03 1028.93C1197.29 1016.95 1191.46 999.332 1201 978.52C1209.32 960.346 1232.37 941.312 1257.61 929.723L1257.59 929.72Z" fill="#5267B2"/>
</g>
<g style="mix-blend-mode:multiply" opacity="0.69">
<path d="M1257.5 930.144C1317.07 903.04 1396.56 907.344 1407.12 946.756C1415.38 977.581 1377.53 1006.94 1351.09 1019.13C1337.39 1025.43 1320.42 1031.08 1302.89 1035.45C1269.71 1043.75 1229.81 1047.49 1209.29 1027.83C1196.89 1015.95 1191.58 998.517 1201.32 977.986C1209.77 960.203 1232.48 941.562 1257.5 930.164L1257.5 930.144Z" fill="#5068B2"/>
</g>
<g style="mix-blend-mode:multiply" opacity="0.7">
<path d="M1257.41 930.587C1316.41 903.928 1394.65 908.256 1405.23 946.543C1413.66 977.054 1375.93 1006.19 1349.96 1018.2C1336.56 1024.4 1319.87 1029.96 1302.57 1034.34C1269.25 1042.77 1229 1046.68 1208.58 1026.72C1196.53 1014.94 1191.71 997.682 1201.68 977.438C1210.27 960.027 1232.65 941.8 1257.43 930.57L1257.41 930.587Z" fill="#4E69B2"/>
</g>
<g style="mix-blend-mode:multiply" opacity="0.72">
<path d="M1257.33 931.033C1315.78 904.82 1392.76 909.151 1403.36 946.352C1411.94 976.546 1374.33 1005.46 1348.82 1017.29C1335.72 1023.37 1319.33 1028.89 1302.25 1033.26C1268.8 1041.82 1228.21 1045.89 1207.86 1025.62C1196.15 1013.94 1191.84 996.888 1202.04 976.909C1210.76 959.89 1232.8 942.036 1257.34 931.013L1257.33 931.033Z" fill="#4C6AB3"/>
</g>
<g style="mix-blend-mode:multiply" opacity="0.73">
<path d="M1257.28 931.461C1315.18 905.695 1390.89 910.029 1401.5 946.145C1410.27 976.024 1372.74 1004.73 1347.71 1016.38C1334.92 1022.34 1318.79 1027.8 1301.95 1032.15C1268.36 1040.86 1227.42 1045.08 1207.17 1024.53C1195.78 1012.97 1191.98 996.075 1202.42 976.401C1211.25 959.772 1232.98 942.315 1257.28 931.481L1257.28 931.461Z" fill="#4A6BB3"/>
</g>
<g style="mix-blend-mode:multiply" opacity="0.75">
<path d="M1257.23 931.909C1314.56 906.587 1389.03 910.926 1399.65 945.957C1408.61 975.505 1371.17 1004 1346.62 1015.48C1334.12 1021.32 1318.27 1026.72 1301.67 1031.07C1267.95 1039.9 1226.64 1044.32 1206.49 1023.44C1195.45 1011.98 1192.14 995.264 1202.82 975.877C1211.78 959.62 1233.18 942.578 1257.24 931.931L1257.23 931.909Z" fill="#486CB3"/>
</g>
<g style="mix-blend-mode:multiply" opacity="0.76">
<path d="M1257.17 932.338C1313.96 907.462 1387.18 911.806 1397.78 945.746C1406.92 974.98 1369.58 1003.25 1345.48 1014.55C1333.28 1020.26 1317.72 1025.61 1301.37 1029.95C1267.51 1038.92 1225.83 1043.49 1205.8 1022.3C1195.08 1010.96 1192.28 994.412 1203.21 975.312C1212.29 959.446 1233.36 942.777 1257.17 932.338V932.338Z" fill="#466CB3"/>
</g>
<g style="mix-blend-mode:multiply" opacity="0.77">
<path d="M1257.14 932.788C1313.37 908.359 1385.35 912.689 1395.94 945.561C1405.28 974.483 1368.01 1002.53 1344.39 1013.64C1332.49 1019.24 1317.22 1024.54 1301.09 1028.86C1267.11 1037.98 1225.04 1042.74 1205.12 1021.23C1194.72 1010.01 1192.44 993.601 1203.61 974.807C1212.8 959.311 1233.56 943.059 1257.14 932.807L1257.14 932.788Z" fill="#446DB4"/>
</g>
<g style="mix-blend-mode:multiply" opacity="0.79">
<path d="M1257.11 933.219C1312.77 909.234 1383.52 913.572 1394.11 945.355C1403.64 973.946 1366.46 1001.78 1343.31 1012.74C1331.71 1018.21 1316.71 1023.47 1300.82 1027.78C1266.72 1037.04 1224.26 1041.97 1204.47 1020.14C1194.39 1009.02 1192.62 992.793 1204.03 974.286C1213.36 959.161 1233.78 943.324 1257.12 933.241L1257.11 933.219Z" fill="#426EB4"/>
</g>
<g style="mix-blend-mode:multiply" opacity="0.8">
<path d="M1257.09 933.652C1312.21 910.114 1381.71 914.437 1392.3 945.133C1402.03 973.392 1364.94 1001.02 1342.24 1011.8C1330.95 1017.15 1316.24 1022.34 1300.57 1026.65C1266.34 1036.06 1223.47 1041.16 1203.82 1019C1194.06 1007.99 1192.79 991.923 1204.45 973.705C1213.9 958.951 1234 943.508 1257.09 933.633L1257.09 933.652Z" fill="#406FB4"/>
</g>
<g style="mix-blend-mode:multiply" opacity="0.82">
<path d="M1257.1 934.107C1311.66 911.015 1379.95 915.327 1390.5 944.952C1400.45 972.882 1363.42 1000.3 1341.19 1010.9C1330.19 1016.15 1315.76 1021.28 1300.33 1025.57C1265.96 1035.13 1222.69 1040.41 1203.18 1017.93C1193.74 1007.04 1192.97 991.115 1204.89 973.205C1214.45 958.82 1234.24 943.795 1257.1 934.107Z" fill="#3E70B5"/>
</g>
<g style="mix-blend-mode:multiply" opacity="0.83">
<path d="M1257.1 934.543C1311.1 911.895 1378.18 916.197 1388.71 944.751C1399.24 973.306 1361.89 999.56 1340.15 1010C1329.46 1015.13 1315.3 1020.21 1300.1 1024.49C1265.62 1034.22 1221.93 1039.69 1202.56 1016.85C1193.42 1006.08 1193.18 990.311 1205.33 972.686C1215 958.671 1234.48 944.062 1257.1 934.562L1257.1 934.543Z" fill="#3C71B5"/>
</g>
<g style="mix-blend-mode:multiply" opacity="0.85">
<path d="M1257.11 934.978C1310.56 912.777 1376.43 917.07 1386.91 944.551C1397.32 971.825 1360.38 998.821 1339.1 1009.08C1328.7 1014.09 1314.84 1019.13 1299.88 1023.38C1265.26 1033.24 1221.14 1038.92 1201.94 1015.72C1193.13 1005.07 1193.39 989.447 1205.79 972.13C1215.57 958.485 1234.73 944.29 1257.11 934.978Z" fill="#3A72B5"/>
</g>
<g style="mix-blend-mode:multiply" opacity="0.86">
<path d="M1257.15 935.419C1310.05 913.664 1374.72 917.928 1385.16 944.355C1395.79 971.281 1358.91 998.087 1338.08 1008.16C1328 1013.05 1314.4 1018.02 1299.68 1022.29C1264.94 1032.31 1220.38 1038.17 1201.35 1014.64C1192.83 1004.11 1193.61 988.624 1206.27 971.616C1216.17 958.34 1235.02 944.543 1257.15 935.438L1257.15 935.419Z" fill="#3873B5"/>
</g>
<g style="mix-blend-mode:multiply" opacity="0.87">
<path d="M1257.18 935.857C1309.51 914.547 1372.99 918.803 1383.38 944.157C1393.77 969.511 1357.4 997.348 1337.07 1007.25C1327.27 1012.01 1313.98 1016.94 1299.48 1021.19C1264.62 1031.39 1219.6 1037.44 1200.75 1013.54C1192.54 1003.12 1193.83 987.781 1206.75 971.081C1216.76 958.175 1235.3 944.795 1257.2 935.859L1257.18 935.857Z" fill="#3674B6"/>
</g>
<g style="mix-blend-mode:multiply" opacity="0.89">
<path d="M1257.24 936.319C1309.02 915.455 1371.31 919.663 1381.65 943.983C1392.79 970.222 1355.95 996.636 1336.07 1006.37C1326.58 1011.02 1313.55 1015.9 1299.29 1020.12C1264.32 1030.48 1218.82 1036.73 1200.17 1012.46C1192.26 1002.16 1194.05 986.939 1207.25 970.569C1217.35 958.011 1235.59 945.067 1257.26 936.322L1257.24 936.319Z" fill="#3475B6"/>
</g>
<g style="mix-blend-mode:multiply" opacity="0.9">
<path d="M1257.3 936.762C1308.54 916.345 1369.64 920.526 1379.89 943.768C1391.3 969.643 1354.48 995.882 1335.06 1005.44C1325.86 1009.96 1313.13 1014.8 1299.09 1019.01C1263.98 1029.53 1218 1036 1199.57 1011.36C1191.97 1001.17 1194.27 986.096 1207.73 970.035C1217.95 957.847 1235.87 945.3 1257.28 936.759L1257.3 936.762Z" fill="#3276B6"/>
</g>
<g style="mix-blend-mode:multiply" opacity="0.92">
<path d="M1257.39 937.207C1308.07 917.237 1367.99 921.372 1378.18 943.577C1389.87 969.072 1353.01 995.128 1334.1 1004.53C1325.2 1008.91 1312.75 1013.73 1298.95 1017.91C1263.72 1028.59 1217.24 1035.27 1199.04 1010.25C1191.72 1000.17 1194.54 985.219 1208.27 969.489C1218.6 957.65 1236.22 945.54 1257.39 937.188L1257.39 937.207Z" fill="#3077B6"/>
</g>
<g style="mix-blend-mode:multiply" opacity="0.93">
<path d="M1257.47 937.652C1307.59 918.126 1366.35 922.218 1376.46 943.386C1388.46 968.503 1351.58 994.399 1333.12 1003.64C1324.52 1007.9 1312.37 1012.67 1298.81 1016.84C1263.47 1027.71 1216.45 1034.58 1198.5 1009.17C1191.48 999.215 1194.82 984.384 1208.81 968.982C1219.23 957.491 1236.54 945.817 1257.49 937.655L1257.47 937.652Z" fill="#2E77B7"/>
</g>
<g style="mix-blend-mode:multiply" opacity="0.94">
<path d="M1257.55 938.098C1307.12 919.018 1364.7 923.063 1374.74 943.195C1387.07 967.917 1350.14 993.669 1332.15 1002.73C1323.85 1006.89 1311.96 1011.6 1298.64 1015.75C1263.19 1026.8 1215.63 1033.89 1197.94 1008.09C1191.2 998.252 1195.06 983.544 1209.33 968.472C1219.87 957.331 1236.87 946.074 1257.55 938.117L1257.55 938.098Z" fill="#2C78B7"/>
</g>
<g style="mix-blend-mode:multiply" opacity="0.96">
<path d="M1257.67 938.567C1306.69 919.934 1363.12 923.916 1373.06 943.028C1385.71 967.356 1348.73 992.962 1331.23 1001.84C1323.22 1005.88 1311.64 1010.55 1298.54 1014.67C1262.97 1025.88 1214.84 1033.2 1197.44 1007C1190.98 997.277 1195.36 982.691 1209.91 967.95C1220.56 957.159 1237.23 946.336 1257.7 938.55L1257.67 938.567Z" fill="#2A79B7"/>
</g>
<g style="mix-blend-mode:multiply" opacity="0.97">
<path d="M1257.78 939.015C1306.23 920.845 1361.51 924.728 1371.37 942.84C1384.39 966.738 1347.31 992.235 1330.27 1000.96C1322.57 1004.87 1311.27 1009.5 1298.39 1013.61C1262.7 1025.02 1213.99 1032.54 1196.9 1005.95C1190.72 996.335 1195.63 981.853 1210.42 967.459C1221.17 956.997 1237.55 946.633 1257.78 939.034L1257.78 939.015Z" fill="#287AB7"/>
</g>
<g style="mix-blend-mode:multiply" opacity="0.99">
<path d="M1257.92 939.467C1305.82 921.744 1359.95 925.544 1369.71 942.656C1383.1 966.105 1345.94 991.513 1329.35 1000.05C1321.95 1003.85 1310.93 1008.43 1298.29 1012.53C1262.49 1024.13 1213.19 1031.87 1196.4 1004.86C1190.49 995.357 1195.93 980.981 1211 966.937C1221.87 956.826 1237.93 946.878 1257.9 939.484L1257.92 939.467Z" fill="#267BB8"/>
</g>
<g style="mix-blend-mode:multiply">
<path d="M1298.18 1011.45C1262.28 1023.23 1212.34 1031.21 1195.9 1003.77C1186.23 987.659 1210.71 957.215 1258.04 939.936C1305.39 922.66 1358.37 926.358 1368.03 942.47C1381.82 965.454 1344.54 990.807 1328.44 999.149C1321.34 1002.82 1310.61 1007.36 1298.19 1011.43L1298.18 1011.45Z" fill="#247CB8"/>
</g>
</g>
<path d="M1383.65 885.812C1383.66 885.695 1383.68 885.559 1383.69 885.442C1383.76 884.758 1384.07 880.586 1384.01 874.37C1383.99 873.815 1383.98 873.26 1383.97 872.705C1383.95 871.912 1383.93 871.099 1383.9 870.264C1383.2 850.153 1378.53 830.72 1370.42 812.92C1370.4 812.879 1370.39 812.838 1370.35 812.794C1369.47 810.846 1368.56 808.935 1367.58 807.037C1362.97 797.93 1357.44 789.305 1351.07 781.307C1348.12 777.504 1344.39 773.29 1341.11 770.002C1338.92 767.736 1336.64 765.558 1334.29 763.431C1334.19 763.319 1334.06 763.205 1333.96 763.093L1333.65 762.838C1333.24 762.472 1332.85 762.108 1332.44 761.761C1330.93 760.408 1329.28 759.02 1327.48 757.573C1327.48 757.573 1327.35 757.459 1327.28 757.41C1326.42 756.711 1325.52 756.008 1324.56 755.297C1324.12 754.967 1323.69 754.656 1323.27 754.328C1322.91 754.047 1322.57 753.787 1322.18 753.523C1321.89 753.309 1321.6 753.096 1321.31 752.902C1315.81 748.925 1309.99 745.284 1303.89 742.024C1302.31 741.159 1301.1 740.536 1300.4 740.192L1299.3 739.642L1298.22 739.114C1298.22 739.114 1298.1 739.06 1298.05 739.034L1297.81 738.905C1297.27 738.641 1296.55 738.317 1296.01 738.072L1295.77 737.963C1295.77 737.963 1295.6 737.883 1295.5 737.852L1294.29 737.287C1293.8 737.069 1293.14 736.791 1292.66 736.573L1291.25 735.965C1290.99 735.854 1290.72 735.742 1290.46 735.631C1290.38 735.602 1290.31 735.573 1290.23 735.544L1289.95 735.43C1289.8 735.372 1289.63 735.292 1289.5 735.236L1287.94 734.609C1287.54 734.462 1287.05 734.263 1286.62 734.092C1286.2 733.942 1285.78 733.772 1285.35 733.62L1285.29 733.612C1285.03 733.501 1284.76 733.409 1284.5 733.298C1284.01 733.119 1283.44 732.911 1282.96 732.754L1281.88 732.384C1281.39 732.224 1280.92 732.047 1280.42 731.888L1280.16 731.796C1279.8 731.673 1279.42 731.547 1279.06 731.424L1278.41 731.225L1277.61 730.969C1277.61 730.969 1277.51 730.957 1277.48 730.933L1277.21 730.841C1277.08 730.805 1276.91 730.744 1276.75 730.706C1276.35 730.578 1275.95 730.469 1275.55 730.341C1275.28 730.268 1275.02 730.177 1274.79 730.109C1274.35 729.976 1273.91 729.863 1273.47 729.73L1272.32 729.411C1272.12 729.346 1271.86 729.295 1271.64 729.228C1271.29 729.126 1270.95 729.044 1270.6 728.962C1270.25 728.88 1269.93 728.781 1269.6 728.701C1269.05 728.554 1268.49 728.426 1267.95 728.301L1266.44 727.937C1266.26 727.915 1266.11 727.857 1265.94 727.816L1265.82 727.802C1265.38 727.688 1264.9 727.59 1264.42 727.491C1263.72 727.347 1263.03 727.202 1262.33 727.058C1261.83 726.956 1261.35 726.858 1260.91 726.764C1260.37 726.658 1259.84 726.574 1259.3 726.468C1258.74 726.36 1258.18 726.251 1257.62 726.162C1257.27 726.119 1256.92 726.057 1256.57 725.994L1255.64 725.841C1255.41 725.812 1255.16 725.781 1254.92 725.752C1254.65 725.719 1254.4 725.688 1254.13 725.635C1251.12 725.206 1248.08 724.852 1245.06 724.601C1244.38 724.536 1243.73 724.497 1243.12 724.442C1242.44 724.397 1241.77 724.335 1241.09 724.31C1240.67 724.279 1240.24 724.266 1239.89 724.242C1238.89 724.198 1237.92 724.159 1236.96 724.12C1236.62 724.118 1236.29 724.097 1235.93 724.093C1234.53 724.059 1233.17 724.05 1231.88 724.07C1231.25 724.071 1230.64 724.075 1230 724.096L1230.14 724.113C1230.14 724.113 1230.02 724.098 1229.98 724.093C1229.87 724.079 1229.72 724.101 1229.61 724.106C1228.58 724.118 1227.62 724.16 1226.71 724.186C1225.97 724.214 1225.24 724.243 1224.5 724.29C1222.83 724.382 1221.51 724.477 1220.62 724.545C1216.15 724.886 1211.71 725.448 1207.31 726.192C1204.67 726.6 1202.34 727.045 1199.43 727.736C1187.32 730.439 1175.49 734.641 1164.24 740.317L1164.2 740.312C1163.08 740.887 1161.96 741.481 1160.86 742.057C1160.71 742.138 1160.57 742.219 1160.42 742.299C1158.49 743.328 1156.6 744.42 1154.72 745.534C1154.57 745.634 1154.42 745.715 1154.28 745.796L1154.11 745.893C1154.11 745.893 1154 745.959 1153.95 745.993C1153.87 746.042 1153.81 746.074 1153.72 746.123C1153.66 746.155 1153.61 746.189 1153.55 746.221C1153.04 746.533 1152.53 746.846 1152.01 747.178C1150.96 747.84 1149.95 748.487 1148.98 749.12C1148.43 749.486 1147.89 749.854 1147.35 750.223C1146.23 750.975 1145.17 751.715 1144.17 752.423L1144.02 752.523L1143.89 752.626C1143.65 752.794 1143.41 752.962 1143.19 753.133C1137.99 756.902 1134.76 759.708 1134.56 759.901C1132.92 761.282 1131.28 762.741 1129.67 764.244C1128.52 765.288 1127.35 766.391 1126.12 767.583C1126.03 767.652 1125.94 767.74 1125.87 767.81L1125.69 768.005C1123.29 770.379 1120.7 773.086 1117.85 776.373L1117.78 776.444C1117.78 776.444 1117.73 776.497 1117.71 776.514C1117.66 776.568 1117.64 776.604 1117.59 776.658C1116.3 778.16 1114.93 779.869 1113.56 781.659C1112.36 783.192 1111.19 784.708 1110.16 786.025L1106.65 791.229C1105.5 792.906 1104.4 794.551 1103.41 796.05C1101.51 798.94 1099.38 802.771 1097.31 806.945L1097.3 807.022C1095.5 810.597 1093.74 814.434 1092.18 818.156L1092.12 818.287C1092.12 818.287 1092.09 818.402 1092.06 818.439C1090.05 823.252 1088.37 827.87 1087.4 831.467C1083.69 845.126 1083.39 846.256 1082.12 855.451C1080.52 867.037 1080.71 875.462 1080.79 879.504C1081.04 891.159 1082.71 900.241 1083.27 903.236C1085.23 913.835 1087.36 920.146 1089.42 926.25C1090.7 930.025 1091.71 932.68 1093.08 935.734C1094.7 939.471 1096.53 943.215 1098.53 946.9C1098.75 947.343 1098.97 947.785 1099.21 948.25C1101.15 952.105 1104.12 957.037 1106.66 960.531C1108.54 963.114 1110.95 966.633 1112.91 969.167C1114.86 971.679 1117.52 974.932 1119.71 977.276C1122.09 979.921 1123.08 981.012 1125.34 983.207C1128.08 985.995 1130.93 988.617 1133.79 991.084L1133.82 991.089C1134.75 991.914 1135.7 992.703 1136.64 993.45C1137.75 994.358 1138.87 995.227 1139.85 995.96C1140.37 996.36 1141.12 996.906 1141.97 997.525C1142.1 997.62 1142.22 997.714 1142.35 997.809C1143.24 998.452 1144.26 999.19 1145.4 999.983C1145.66 1000.15 1145.91 1000.34 1146.15 1000.51C1149.56 1002.87 1153.88 1005.65 1158.71 1008.32C1159.77 1008.9 1161.19 1009.69 1162.92 1010.58C1163.4 1010.83 1163.91 1011.09 1164.37 1011.35L1166.92 1012.61C1167.46 1012.87 1168.17 1013.2 1168.72 1013.44L1169.35 1013.74C1169.35 1013.74 1169.45 1013.77 1169.48 1013.79L1170.44 1014.23C1170.93 1014.44 1171.58 1014.72 1172.07 1014.94L1173.67 1015.63L1173.8 1015.69C1180.04 1018.33 1186.07 1020.38 1191.89 1021.96L1192.44 1022.11C1192.94 1022.25 1193.51 1022.4 1194.09 1022.55C1194.15 1022.55 1194.21 1022.56 1194.24 1022.59C1194.74 1022.71 1195.24 1022.85 1195.68 1022.96L1198.94 1023.74C1200.42 1024.08 1202.39 1024.46 1203.88 1024.78C1205.24 1025.06 1206.91 1025.35 1208.5 1025.58L1208.58 1025.59C1209.37 1025.73 1210.17 1025.85 1210.87 1025.93C1212.95 1026.23 1215.72 1026.53 1217.78 1026.78C1219.91 1027.04 1222.76 1027.14 1224.92 1027.3C1229.48 1027.45 1235.57 1027.46 1240.14 1027.27C1243.72 1027.12 1248.47 1026.73 1251.99 1026.2C1252.88 1026.05 1253.81 1025.91 1254.78 1025.73C1257.56 1025.28 1260.45 1024.76 1262.85 1024.37L1265.71 1023.67C1267.98 1023.18 1270.24 1022.63 1272.47 1022.03L1273.59 1021.75C1276.23 1021.09 1279.42 1020.02 1282.31 1018.99C1283.55 1018.57 1284.77 1018.12 1286 1017.66C1289.29 1016.44 1293.4 1014.81 1296.42 1013.27C1296.52 1013.22 1296.63 1013.15 1296.74 1013.11C1299.51 1011.79 1302.25 1010.4 1304.96 1008.92C1305.55 1008.62 1306.14 1008.29 1306.69 1008.02L1309.66 1006.19C1310.45 1005.72 1311.26 1005.22 1312.06 1004.73L1316.57 1001.96C1318.3 1000.91 1321.42 998.802 1326.09 995.065C1326.18 995.017 1326.26 994.948 1326.33 994.897L1326.79 994.499C1329.23 992.544 1332.01 990.197 1335.25 987.294C1335.32 987.223 1335.41 987.155 1335.47 987.104C1338.65 984.252 1344.05 979.024 1350.12 971.505C1350.16 971.432 1350.23 971.381 1350.28 971.308C1351.68 969.581 1353.09 967.738 1354.54 965.781L1354.54 965.742C1355.15 964.928 1355.75 964.072 1356.37 963.2C1357.23 962 1358.07 960.799 1358.76 959.717C1358.98 959.368 1359.22 959.002 1359.45 958.634C1360.67 956.748 1361.87 954.801 1363.09 952.756C1364.76 949.976 1366.37 947.129 1367.57 944.627C1369.71 940.402 1371.77 935.891 1373.64 931.119C1374.82 928.22 1375.9 925.268 1376.71 922.521C1377.67 919.554 1378.56 916.481 1379.38 913.32C1379.57 912.592 1379.75 911.903 1379.92 911.211C1380.94 906.928 1381.8 902.487 1382.48 897.886C1382.5 897.73 1382.52 897.555 1382.56 897.401L1382.6 897.09C1383.1 893.455 1383.5 889.728 1383.76 885.904L1383.65 885.812Z" fill="url(#paint0_radial_79_2055)"/>
<path d="M1378.66 834.195C1378.45 833.181 1378.19 832.181 1377.88 831.194C1378.12 832.152 1378.39 833.154 1378.66 834.195Z" fill="url(#paint1_linear_79_2055)"/>
<path d="M1079.51 882.056C1079.44 881.158 1079.39 880.282 1079.33 879.445C1079.36 880.318 1079.41 881.194 1079.51 882.056Z" fill="url(#paint2_linear_79_2055)"/>
<path d="M1347.63 885.501C1349.39 880.182 1354.03 866.063 1345.62 863.351C1344.56 863.207 1341.76 862.935 1337.21 862.535C1334.02 878.512 1329.3 895.705 1313.46 897.655C1313.16 897.697 1214.75 891.465 1208.03 890.482C1206.17 890.214 1198.08 887.678 1192.78 880.228C1188.23 873.818 1185.36 859.864 1184.06 852.113C1171.49 851.439 1163.91 851.023 1164.94 863.209C1164.97 863.469 1167.67 889.005 1189.35 914.6C1247.39 983.188 1327.87 945.505 1347.63 885.501Z" fill="#412121"/>
<path d="M1337.21 862.515C1334.02 878.493 1329.3 895.705 1313.46 897.635C1313.16 897.677 1214.75 891.446 1208.03 890.463C1206.17 890.194 1198.08 887.659 1192.79 880.209C1188.24 873.798 1185.36 859.844 1184.06 852.093C1288.67 857.287 1336.82 862.468 1337.21 862.515Z" fill="white"/>
<path d="M1232.74 796.648C1232.51 799.308 1231.31 801.316 1229.16 802.575C1225.88 804.504 1221.06 806.265 1217.59 807.835C1216.96 808.114 1202.06 814.805 1183.62 825.549C1176.86 829.285 1171.54 823.195 1173.9 816.962C1174.72 814.809 1176.07 811.219 1213.26 794.257C1202.21 788.788 1198.49 786.927 1181.54 778.916C1176 775.389 1181.59 768.859 1186.46 767.816C1186.71 767.767 1187.05 767.73 1187.29 767.681C1188.43 767.603 1190.76 767.415 1228.96 786.32C1231.47 787.775 1232.54 789.388 1232.75 792.043C1232.74 793.545 1232.75 795.068 1232.74 796.628" fill="#412121"/>
<path d="M1345.41 833.098C1344.98 837.336 1342.07 838.501 1339.61 837.131C1339.43 837.029 1338.87 836.724 1338.41 836.311C1325.37 824.825 1317.15 818.34 1300.1 807.963C1297.22 805.989 1295.86 804.003 1295.28 800.887C1295.09 799.322 1294.89 797.775 1294.68 796.266C1294.49 793.892 1295.11 792.228 1296.53 791.334C1305.38 785.7 1315.48 782.531 1324.53 777.257C1325.11 777.012 1325.47 776.858 1326.61 777.177C1331.76 779.073 1336.02 786.2 1334.44 788.793C1334.44 788.793 1332.55 790.834 1312.07 800.972C1323.48 808.62 1329.77 812.832 1341.69 823.41C1345.52 827.497 1345.57 831.557 1345.42 833.119" fill="#412121"/>
<defs>
<radialGradient id="paint0_radial_79_2055" cx="0" cy="0" r="1" gradientUnits="userSpaceOnUse" gradientTransform="translate(1237.98 900.842) rotate(6.76999) scale(174.308 174.319)">
<stop stop-color="#F79F40"/>
<stop offset="0.16" stop-color="#F7A442"/>
<stop offset="0.37" stop-color="#F8B449"/>
<stop offset="0.6" stop-color="#F9CE55"/>
<stop offset="0.77" stop-color="#FBE660"/>
<stop offset="0.91" stop-color="#FBF36F"/>
<stop offset="0.93" stop-color="#FBF672"/>
<stop offset="0.95" stop-color="#FBF676"/>
<stop offset="0.96" stop-color="#FBF782"/>
<stop offset="0.98" stop-color="#FBF897"/>
<stop offset="0.99" stop-color="#FCFAB4"/>
<stop offset="1" stop-color="#FDFBC2"/>
</radialGradient>
<linearGradient id="paint1_linear_79_2055" x1="1377.65" y1="832.71" x2="1378.78" y2="832.851" gradientUnits="userSpaceOnUse">
<stop stop-color="#19B79C"/>
<stop offset="0.4" stop-color="#1DBB9D"/>
<stop offset="0.82" stop-color="#29C7A2"/>
<stop offset="1" stop-color="#31CFA6"/>
</linearGradient>
<linearGradient id="paint2_linear_79_2055" x1="1079.11" y1="880.773" x2="1079.6" y2="880.833" gradientUnits="userSpaceOnUse">
<stop stop-color="#19B79C"/>
<stop offset="0.4" stop-color="#1DBB9D"/>
<stop offset="0.82" stop-color="#29C7A2"/>
<stop offset="1" stop-color="#31CFA6"/>
</linearGradient>
</defs>
</svg>
