<svg width="1645" height="1221" viewBox="0 0 1645 1221" fill="none" xmlns="http://www.w3.org/2000/svg">
<g style="mix-blend-mode:multiply">
<g style="mix-blend-mode:multiply" opacity="0.01">
<path d="M326.996 700.521C356.665 683.801 406.696 685.101 408.24 716.802C409.043 732.637 393.444 746.339 376.633 753.488C366.937 757.595 356.57 760.889 346.551 762.149C337.415 763.301 328.546 762.766 320.873 759.57C310.211 755.118 300.218 744.737 300.368 733.053C300.501 720.535 314.42 707.635 326.992 700.56L326.996 700.521Z" fill="#DF9D41"/>
</g>
<g style="mix-blend-mode:multiply" opacity="0.03">
<path d="M326.975 700.696C356.444 684.15 405.942 685.443 407.573 716.76C408.391 732.478 392.881 746.092 376.217 753.179C366.625 757.24 356.343 760.485 346.421 761.758C337.244 762.924 328.292 762.418 320.646 759.166C310.145 754.694 300.312 744.453 300.511 732.853C300.708 720.462 314.491 707.703 326.975 700.696V700.696Z" fill="#DE9C41"/>
</g>
<g style="mix-blend-mode:multiply" opacity="0.04">
<path d="M326.956 700.852C356.209 684.457 405.21 685.769 406.911 716.679C407.762 732.282 392.321 745.826 375.824 752.835C366.334 756.869 356.157 760.067 346.332 761.352C337.131 762.555 328.077 762.075 320.438 758.765C310.078 754.271 300.409 744.148 300.654 732.653C300.915 720.389 314.559 707.791 326.958 700.832L326.956 700.852Z" fill="#DE9C41"/>
</g>
<g style="mix-blend-mode:multiply" opacity="0.06">
<path d="M326.795 701.03C355.852 684.789 404.34 686.097 406.085 716.637C406.971 732.126 391.6 745.579 375.268 752.529C365.903 756.519 355.808 759.688 346.061 760.982C336.816 762.219 327.682 761.75 320.067 758.403C309.848 753.887 300.343 743.883 300.654 732.495C300.975 720.376 314.467 707.898 326.795 701.03V701.03Z" fill="#DE9B41"/>
</g>
<g style="mix-blend-mode:multiply" opacity="0.07">
<path d="M326.735 701.2C355.594 685.113 403.566 686.437 405.379 716.59C406.299 731.964 390.996 745.347 374.832 752.219C365.571 756.162 355.559 759.302 345.91 760.608C336.261 761.914 327.404 761.439 319.798 758.015C309.718 753.495 300.398 743.593 300.755 732.31C301.141 720.318 314.496 707.981 326.718 701.178L326.735 701.2Z" fill="#DD9B41"/>
</g>
<g style="mix-blend-mode:multiply" opacity="0.08">
<path d="M326.675 701.371C355.316 685.455 402.796 686.757 404.674 716.543C405.629 731.783 390.395 745.095 374.394 751.928C365.237 755.825 355.327 758.937 345.756 760.253C336.185 761.569 327.126 761.128 319.545 757.667C309.606 753.126 300.446 743.362 300.872 732.166C301.319 720.32 314.538 708.124 326.675 701.371V701.371Z" fill="#DD9A41"/>
</g>
<g style="mix-blend-mode:multiply" opacity="0.1">
<path d="M326.614 701.541C355.058 685.779 402.042 687.1 403.968 716.495C404.957 731.621 389.793 744.843 373.957 751.617C364.903 755.487 355.1 758.534 345.604 759.878C336.109 761.223 326.828 760.815 319.274 757.298C309.476 752.734 300.48 743.089 300.952 731.997C301.462 720.278 314.546 708.224 326.595 701.539L326.614 701.541Z" fill="#DD9A41"/>
</g>
<g style="mix-blend-mode:multiply" opacity="0.11">
<path d="M326.554 701.712C354.801 686.103 401.272 687.42 403.262 716.448C404.285 731.46 389.189 744.611 373.521 751.306C364.571 755.13 354.87 758.15 345.474 759.487C336.079 760.824 326.572 760.487 319.044 756.914C309.385 752.347 300.555 742.802 301.093 731.817C301.666 720.224 314.614 708.311 326.573 701.714L326.554 701.712Z" fill="#DC9A41"/>
</g>
<g style="mix-blend-mode:multiply" opacity="0.13">
<path d="M326.493 701.882C354.541 686.447 400.501 687.741 402.537 716.399C403.594 731.296 388.568 744.357 373.065 750.994C364.22 754.771 354.621 757.763 345.303 759.11C335.985 760.457 326.277 760.154 318.756 756.523C309.238 751.934 300.571 742.507 301.173 731.649C301.807 720.202 314.619 708.431 326.493 701.882V701.882Z" fill="#DC9941"/>
</g>
<g style="mix-blend-mode:multiply" opacity="0.14">
<path d="M326.435 702.033C354.267 686.749 399.749 688.064 401.833 716.332C402.924 731.115 387.966 744.105 372.631 750.663C363.89 754.394 354.374 757.357 345.154 758.716C335.67 760.122 326.001 759.824 318.507 756.136C309.147 751.547 300.643 742.24 301.294 731.466C301.992 720.145 314.648 708.513 326.435 702.033V702.033Z" fill="#DC9941"/>
</g>
<g style="mix-blend-mode:multiply" opacity="0.15">
<path d="M326.394 702.206C354.029 687.076 398.998 688.386 401.149 716.268C402.274 730.936 387.386 743.836 372.217 750.336C363.578 754.039 354.166 756.956 345.024 758.324C335.519 759.747 325.747 759.476 318.258 755.75C309.039 751.138 300.698 741.95 301.415 731.283C302.132 720.617 314.697 708.598 326.396 702.187L326.394 702.206Z" fill="#DB9841"/>
</g>
<g style="mix-blend-mode:multiply" opacity="0.17">
<path d="M326.334 702.376C353.772 687.4 398.225 688.726 400.443 716.221C401.602 730.774 386.785 743.584 371.778 750.045C363.244 753.702 353.934 756.592 344.87 757.969C335.321 759.426 325.467 759.185 318.004 755.402C308.924 750.788 300.749 741.699 301.512 731.137C302.275 720.575 314.72 708.739 326.331 702.396L326.334 702.376Z" fill="#DB9841"/>
</g>
<g style="mix-blend-mode:multiply" opacity="0.18">
<path d="M326.273 702.547C353.493 687.741 397.474 689.049 399.718 716.171C400.913 730.591 386.161 743.349 371.322 749.732C362.893 753.342 353.685 756.205 344.718 757.595C335.125 759.086 325.208 758.876 317.736 755.013C308.794 750.397 300.783 741.426 301.614 730.952C302.445 720.478 314.749 708.822 326.273 702.547V702.547Z" fill="#DB9841"/>
</g>
<g style="mix-blend-mode:multiply" opacity="0.2">
<path d="M326.213 702.718C353.236 688.066 396.701 689.389 399.012 716.124C400.241 730.429 385.559 743.098 370.867 749.419C362.542 752.983 353.417 755.816 344.547 757.218C334.913 758.724 324.911 758.563 317.465 754.644C308.662 750.025 300.816 741.154 301.714 730.786C302.611 720.419 314.776 708.924 326.213 702.718Z" fill="#DA9741"/>
</g>
<g style="mix-blend-mode:multiply" opacity="0.21">
<path d="M326.155 702.869C352.981 688.37 395.952 689.693 398.309 716.057C399.59 730.251 384.941 742.824 370.433 749.089C362.21 752.626 353.19 755.413 344.4 756.805C334.742 758.347 324.639 758.194 317.199 754.236C308.535 749.614 300.854 740.842 301.818 730.582C302.781 720.321 314.808 708.988 326.135 702.866L326.155 702.869Z" fill="#DA9741"/>
</g>
<g style="mix-blend-mode:multiply" opacity="0.23">
<path d="M326.094 703.039C352.701 688.712 395.178 690.033 397.603 716.01C398.918 730.089 384.337 742.592 369.997 748.778C361.878 752.269 352.96 755.029 344.248 756.43C334.546 758.007 324.361 757.883 316.947 753.869C308.422 749.244 300.905 740.591 301.937 730.418C302.968 720.245 314.832 709.109 326.094 703.039V703.039Z" fill="#DA9641"/>
</g>
<g style="mix-blend-mode:multiply" opacity="0.24">
<path d="M326.053 703.212C352.464 689.038 394.447 690.358 396.916 715.965C398.266 729.93 383.754 742.342 369.58 748.47C361.566 751.914 352.75 754.647 344.135 756.061C334.39 757.671 324.122 757.577 316.717 753.485C308.331 748.857 300.999 740.306 302.058 730.236C303.116 720.165 314.881 709.194 326.055 703.192L326.053 703.212Z" fill="#D99641"/>
</g>
<g style="mix-blend-mode:multiply" opacity="0.25">
<path d="M325.993 703.382C352.206 689.363 393.693 690.7 396.193 715.896C397.577 729.746 383.133 742.088 369.124 748.157C361.234 751.557 352.501 754.261 343.964 755.684C334.177 757.309 323.825 757.264 316.447 753.115C308.199 748.485 301.03 740.053 302.155 730.089C303.279 720.125 314.906 709.316 325.993 703.382Z" fill="#D99541"/>
</g>
<g style="mix-blend-mode:multiply" opacity="0.27">
<path d="M325.932 703.553C351.93 689.685 392.922 691.021 395.488 715.85C396.905 729.585 382.532 741.836 368.688 747.846C360.9 751.22 352.252 753.874 343.813 755.309C334.002 756.971 323.547 756.953 316.176 752.746C308.067 748.113 301.064 739.781 302.254 729.924C303.445 720.067 314.931 709.438 325.93 703.573L325.932 703.553Z" fill="#D99541"/>
</g>
<g style="mix-blend-mode:multiply" opacity="0.28">
<path d="M325.874 703.704C351.672 690.009 392.171 691.344 394.784 715.783C396.235 729.404 381.932 741.565 368.254 747.516C360.57 750.843 352.024 753.471 343.663 754.915C333.808 756.611 323.271 756.622 315.926 752.36C307.954 747.743 301.119 739.491 302.375 729.741C303.632 719.991 314.979 709.523 325.872 703.724L325.874 703.704Z" fill="#D89541"/>
</g>
<g style="mix-blend-mode:multiply" opacity="0.3">
<path d="M325.833 703.877C351.435 690.335 391.439 691.669 394.098 715.738C395.585 729.225 381.348 741.335 367.837 747.208C360.259 750.488 351.815 753.089 343.534 754.524C333.635 756.254 323.015 756.294 315.68 751.954C307.846 747.335 301.175 739.201 302.48 729.536C303.785 719.871 315.011 709.586 325.816 703.855L325.833 703.877Z" fill="#D89441"/>
</g>
<g style="mix-blend-mode:multiply" opacity="0.31">
<path d="M325.773 704.047C351.158 690.657 390.686 692.011 393.392 715.691C394.913 729.064 380.746 741.083 367.401 746.898C359.927 750.131 351.585 752.705 343.401 754.152C333.461 755.897 322.776 755.988 315.448 751.589C307.75 746.987 301.247 738.933 302.618 729.375C303.99 719.817 315.055 709.71 325.792 704.05L325.773 704.047Z" fill="#D89441"/>
</g>
<g style="mix-blend-mode:multiply" opacity="0.32">
<path d="M325.715 704.198C350.903 690.962 389.937 692.315 392.669 715.622C394.243 728.883 380.125 740.829 366.947 746.565C359.578 749.753 351.338 752.299 343.233 753.755C333.249 755.534 322.48 755.655 315.16 751.198C307.84 746.741 301.261 738.658 302.701 729.188C304.14 719.717 315.065 709.79 325.715 704.198V704.198Z" fill="#D79341"/>
</g>
<g style="mix-blend-mode:multiply" opacity="0.34">
<path d="M325.674 704.371C350.663 691.308 389.203 692.66 391.983 715.577C393.591 728.723 379.543 740.58 366.528 746.277C359.261 749.437 351.104 751.954 343.098 753.403C333.09 755.218 322.219 755.366 314.926 750.853C307.632 746.34 301.331 738.41 302.837 729.046C304.342 719.683 315.129 709.917 325.691 704.393L325.674 704.371Z" fill="#D79341"/>
</g>
<g style="mix-blend-mode:multiply" opacity="0.35">
<path d="M325.613 704.542C350.386 691.63 388.451 692.983 391.277 715.53C392.919 728.562 378.941 740.328 366.072 745.964C358.909 749.077 350.855 751.568 342.927 753.026C332.875 754.876 321.922 755.053 314.637 750.462C307.353 745.871 301.347 738.115 302.919 728.859C304.49 719.602 315.136 710.016 325.594 704.539L325.613 704.542Z" fill="#D79241"/>
</g>
<g style="mix-blend-mode:multiply" opacity="0.37">
<path d="M325.572 704.715C350.148 691.957 387.719 693.308 390.593 715.466C392.269 728.383 378.359 740.079 365.658 745.636C358.6 748.703 350.647 751.167 342.797 752.634C332.702 754.518 321.666 754.725 314.408 750.078C307.151 745.431 301.42 737.847 303.04 728.676C304.661 719.504 315.185 710.102 325.553 704.712L325.572 704.715Z" fill="#D69241"/>
</g>
<g style="mix-blend-mode:multiply" opacity="0.38">
<path d="M325.514 704.866C349.891 692.281 386.968 693.631 389.87 715.397C391.58 728.2 377.74 739.805 365.205 745.303C358.251 748.324 350.401 750.761 342.65 752.221C332.531 754.141 321.412 754.377 314.142 749.669C306.872 744.961 301.458 737.536 303.145 728.471C304.831 719.406 315.217 710.165 325.497 704.844L325.514 704.866Z" fill="#D69241"/>
</g>
<g style="mix-blend-mode:multiply" opacity="0.39">
<path d="M325.454 705.036C349.614 692.603 386.217 693.954 389.164 715.35C390.927 728.04 377.139 739.553 364.768 744.993C357.917 747.987 350.171 750.377 342.498 751.846C332.337 753.782 321.131 754.086 313.89 749.302C306.65 744.519 301.509 737.285 303.261 728.327C305.013 719.37 315.241 710.286 325.454 705.036Z" fill="#D69141"/>
</g>
<g style="mix-blend-mode:multiply" opacity="0.41">
<path d="M325.413 705.209C349.377 692.929 385.482 694.298 388.478 715.305C390.274 727.881 376.554 739.323 364.351 744.685C357.604 747.632 349.958 750.015 342.366 751.474C332.161 753.444 320.872 753.777 313.641 748.916C306.902 744.392 301.564 736.995 303.382 728.144C305.2 719.294 315.288 710.391 325.415 705.19L325.413 705.209Z" fill="#D59141"/>
</g>
<g style="mix-blend-mode:multiply" opacity="0.42">
<path d="M325.374 705.362C349.141 693.237 384.753 694.604 387.794 715.241C389.624 727.702 375.955 739.052 363.935 744.377C357.292 747.278 349.748 749.633 342.234 751.102C331.985 753.106 320.614 753.469 313.409 748.552C306.807 744.044 301.634 736.747 303.521 727.983C305.407 719.22 315.354 710.498 325.372 705.382L325.374 705.362Z" fill="#D59041"/>
</g>
<g style="mix-blend-mode:multiply" opacity="0.44">
<path d="M325.314 705.533C348.862 693.578 384.019 694.949 387.088 715.194C388.952 727.541 375.351 738.82 363.498 744.066C356.98 746.923 349.499 749.247 342.082 750.728C331.809 752.768 320.336 753.158 313.138 748.182C306.672 743.691 301.668 736.474 303.6 727.815C305.533 719.157 315.361 710.598 325.292 705.55L325.314 705.533Z" fill="#D59041"/>
</g>
<g style="mix-blend-mode:multiply" opacity="0.45">
<path d="M325.272 705.706C348.624 693.905 383.287 695.274 386.382 715.147C388.299 727.382 374.749 738.568 363.062 743.755C356.646 746.585 349.267 748.882 341.95 750.356C331.633 752.43 320.075 752.869 312.906 747.818C306.557 743.341 301.737 736.226 303.739 727.654C305.74 719.083 315.425 710.724 325.27 705.725L325.272 705.706Z" fill="#D48F41"/>
</g>
<g style="mix-blend-mode:multiply" opacity="0.46">
<path d="M325.234 705.859C348.389 694.212 382.555 695.6 385.701 715.063C387.652 727.184 374.172 738.279 362.65 743.408C356.338 746.192 349.062 748.461 341.825 749.925C331.465 752.034 319.843 752.505 312.665 747.373C306.449 742.933 301.8 735.878 303.868 727.413C305.935 718.949 315.481 710.751 325.237 705.84L325.234 705.859Z" fill="#D48F41"/>
</g>
<g style="mix-blend-mode:multiply" opacity="0.48">
<path d="M325.174 706.03C348.112 694.534 381.823 695.925 384.995 715.016C386.98 727.022 373.568 738.047 362.214 743.098C356.007 745.835 348.832 748.077 341.673 749.551C331.269 751.693 319.562 752.213 312.413 747.006C306.334 742.582 301.851 735.627 303.986 727.25C306.122 718.873 315.508 710.853 325.195 706.013L325.174 706.03Z" fill="#D48F41"/>
</g>
<g style="mix-blend-mode:multiply" opacity="0.49">
<path d="M325.135 706.183C347.874 694.86 381.091 696.25 384.31 714.951C386.349 726.846 372.988 737.778 361.799 742.77C355.696 745.461 348.622 747.696 341.543 749.159C331.115 751.338 319.306 751.885 312.164 746.619C306.221 742.213 301.906 735.337 304.088 727.065C306.27 718.792 315.535 710.955 325.118 706.161L325.135 706.183Z" fill="#D38E41"/>
</g>
<g style="mix-blend-mode:multiply" opacity="0.51">
<path d="M325.094 706.356C347.637 695.187 380.379 696.578 383.624 714.907C385.697 726.687 372.403 737.548 361.38 742.481C355.38 745.145 348.41 747.334 341.428 748.809C330.956 751.022 319.062 751.618 311.952 746.257C306.123 741.884 301.996 735.091 304.246 726.906C306.496 718.721 315.62 711.064 325.116 706.339L325.094 706.356Z" fill="#D38E41"/>
</g>
<g style="mix-blend-mode:multiply" opacity="0.52">
<path d="M325.053 706.529C347.379 695.511 379.667 696.906 382.918 714.86C385.044 726.527 371.802 737.297 360.924 742.168C355.028 744.785 348.16 746.947 341.257 748.432C330.741 750.68 318.762 751.324 311.661 745.886C305.969 741.529 302.009 734.816 304.323 726.758C306.526 719.12 315.625 711.183 325.031 706.546L325.053 706.529Z" fill="#D28D41"/>
</g>
<g style="mix-blend-mode:multiply" opacity="0.54">
<path d="M325.014 706.682C347.142 695.838 378.955 697.233 382.234 714.795C384.394 726.349 371.222 737.028 360.51 741.841C354.718 744.411 347.95 746.565 341.127 748.041C330.587 750.325 318.503 751.016 311.431 745.501C305.873 741.182 302.062 734.546 304.464 726.577C306.711 719.064 315.691 711.29 325.012 706.702L325.014 706.682Z" fill="#D28D41"/>
</g>
<g style="mix-blend-mode:multiply" opacity="0.55">
<path d="M324.973 706.855C346.904 696.165 378.223 697.559 381.548 714.751C383.761 726.192 370.637 736.798 360.093 741.533C354.406 744.057 347.721 746.181 340.995 747.669C330.411 749.987 318.245 750.707 311.18 745.135C305.739 740.829 302.115 734.275 304.583 726.414C306.891 719.047 315.738 711.395 324.971 706.875L324.973 706.855Z" fill="#D28D41"/>
</g>
<g style="mix-blend-mode:multiply" opacity="0.56">
<path d="M324.935 707.009C346.668 696.471 377.51 697.886 380.864 714.686C383.11 726.013 370.055 736.548 359.678 741.205C354.113 743.704 347.513 745.78 340.867 747.257C330.24 749.61 317.988 750.379 310.955 744.711C305.648 740.442 302.193 733.969 304.709 726.192C307.059 718.968 315.772 711.439 324.935 707.009Z" fill="#D18C41"/>
</g>
<g style="mix-blend-mode:multiply" opacity="0.58">
<path d="M324.894 707.182C346.411 696.796 376.798 698.214 380.161 714.62C382.46 725.835 369.454 736.296 359.245 740.875C353.784 743.328 347.283 745.396 340.738 746.866C330.086 749.255 317.73 750.07 310.706 744.325C305.533 740.092 302.248 733.679 304.83 726.009C307.224 718.91 315.821 711.524 324.877 707.16L324.894 707.182Z" fill="#D18C41"/>
</g>
<g style="mix-blend-mode:multiply" opacity="0.59">
<path d="M324.855 707.335C346.173 697.123 376.088 698.522 379.477 714.556C381.81 725.656 368.874 736.028 358.83 740.547C353.472 742.973 347.076 744.995 340.608 746.475C329.91 748.917 317.471 749.762 310.476 743.941C305.418 739.742 302.301 733.409 304.971 725.829C307.407 718.873 315.887 711.631 324.857 707.316L324.855 707.335Z" fill="#D18B41"/>
</g>
<g style="mix-blend-mode:multiply" opacity="0.61">
<path d="M324.833 707.51C345.955 697.451 375.412 698.874 378.809 714.513C381.196 725.501 368.311 735.781 358.43 740.261C353.176 742.641 346.88 744.655 340.492 746.124C329.751 748.601 317.227 749.495 310.242 743.596C305.319 739.413 302.371 733.16 305.107 725.687C307.604 718.877 315.95 711.757 324.833 707.51V707.51Z" fill="#D08B41"/>
</g>
<g style="mix-blend-mode:multiply" opacity="0.62">
<path d="M324.795 707.664C345.7 697.756 374.703 699.182 378.126 714.449C380.566 725.325 367.729 735.531 358.016 739.933C352.867 742.266 346.673 744.254 340.363 745.733C329.597 748.246 316.969 749.186 310.015 743.193C305.207 739.044 302.446 732.873 305.231 725.485C307.772 718.799 316.002 711.823 324.795 707.664Z" fill="#D08A41"/>
</g>
<g style="mix-blend-mode:multiply" opacity="0.63">
<path d="M324.773 707.839C345.479 698.105 374.009 699.512 377.459 714.407C379.933 725.168 367.166 735.284 357.618 739.628C352.574 741.914 346.479 743.894 340.25 745.363C329.44 747.91 316.724 748.919 309.783 742.828C305.089 738.713 302.496 732.622 305.369 725.324C307.951 718.782 316.045 711.947 324.773 707.839Z" fill="#D08A41"/>
</g>
<g style="mix-blend-mode:multiply" opacity="0.65">
<path d="M324.735 707.992C345.244 698.412 373.319 699.823 376.755 714.34C379.285 724.97 366.565 735.032 357.185 739.297C352.242 741.557 346.252 743.49 340.123 744.952C329.27 747.533 316.449 748.589 309.556 742.424C304.996 738.346 302.574 732.315 305.51 725.144C308.137 718.725 316.114 712.034 324.735 707.992Z" fill="#CF8A41"/>
</g>
<g style="mix-blend-mode:multiply" opacity="0.66">
<path d="M324.713 708.168C345.006 698.739 372.624 700.172 376.088 714.298C378.672 724.816 366.002 734.785 356.788 738.992C351.949 741.205 346.059 743.131 340.01 744.582C329.13 747.22 316.208 748.302 309.324 742.06C304.878 738.015 302.624 732.064 305.648 724.983C308.317 718.708 316.18 712.141 324.713 708.168V708.168Z" fill="#CF8941"/>
</g>
<g style="mix-blend-mode:multiply" opacity="0.68">
<path d="M324.694 708.324C344.79 699.048 371.953 700.486 375.424 714.236C378.06 724.642 365.441 734.519 356.392 738.666C351.659 740.833 345.871 742.732 339.9 744.193C328.976 746.865 315.966 748.015 309.116 741.659C304.785 737.648 302.721 731.76 305.811 724.786C308.521 718.654 316.268 712.231 324.714 708.326L324.694 708.324Z" fill="#CF8941"/>
</g>
<g style="mix-blend-mode:multiply" opacity="0.69">
<path d="M324.673 708.499C344.57 699.397 371.26 700.816 374.759 714.174C377.449 724.468 364.879 734.272 355.976 738.358C351.347 740.478 345.659 742.37 339.767 743.821C328.82 746.529 315.685 747.724 308.865 741.292C304.665 737.336 302.752 731.507 305.91 724.62C308.664 718.612 316.295 712.333 324.653 708.496L324.673 708.499Z" fill="#CE8841"/>
</g>
<g style="mix-blend-mode:multiply" opacity="0.7">
<path d="M324.654 708.655C344.334 699.704 370.589 701.129 374.095 714.112C376.838 724.294 364.319 734.005 355.581 738.033C351.056 740.107 345.47 741.971 339.657 743.432C328.663 746.194 315.444 747.437 308.655 740.91C304.57 736.989 302.827 731.22 306.071 724.442C308.866 718.578 316.383 712.423 324.654 708.655V708.655Z" fill="#CE8841"/>
</g>
<g style="mix-blend-mode:multiply" opacity="0.72">
<path d="M324.654 708.813C344.138 700.016 369.937 701.444 373.43 714.05C376.226 724.12 363.758 733.739 355.186 737.708C350.763 739.754 345.279 741.592 339.566 743.045C328.528 745.841 315.202 747.151 308.444 740.528C304.474 736.641 302.918 730.954 306.231 724.264C309.07 718.523 316.448 712.53 324.632 708.83L324.654 708.813Z" fill="#CE8741"/>
</g>
<g style="mix-blend-mode:multiply" opacity="0.73">
<path d="M324.632 708.988C343.92 700.345 369.264 701.776 372.764 714.008C375.613 723.966 363.193 733.511 354.788 737.402C350.471 739.402 345.07 741.21 339.456 742.656C328.394 745.489 314.944 746.842 308.237 740.128C304.381 736.274 302.996 730.647 306.394 724.066C309.275 718.47 316.539 712.6 324.635 708.969L324.632 708.988Z" fill="#CD8741"/>
</g>
<g style="mix-blend-mode:multiply" opacity="0.75">
<path d="M324.633 709.146C343.701 700.674 368.61 702.111 372.119 713.949C375.021 723.794 362.652 733.247 354.413 737.079C350.219 739.035 344.898 740.833 339.365 742.269C328.257 745.156 314.722 746.558 308.027 739.746C304.285 735.926 303.071 730.36 306.554 723.888C309.479 718.416 316.627 712.69 324.635 709.127L324.633 709.146Z" fill="#CD8741"/>
</g>
<g style="mix-blend-mode:multiply" opacity="0.76">
<path d="M324.614 709.302C343.485 700.983 367.939 702.424 371.454 713.887C374.432 723.603 362.089 733 354.018 736.754C349.929 738.664 344.708 740.454 339.255 741.88C328.122 744.803 314.461 746.269 307.816 739.364C304.187 735.597 303.163 730.094 306.694 723.708C309.662 718.379 316.695 712.778 324.616 709.283L324.614 709.302Z" fill="#CD8641"/>
</g>
<g style="mix-blend-mode:multiply" opacity="0.77">
<path d="M324.611 709.48C343.286 701.315 367.307 702.742 370.787 713.845C373.818 723.449 361.507 732.751 353.618 736.467C349.631 738.35 344.514 740.094 339.159 741.532C327.98 744.509 314.214 746.021 307.601 739.021C304.086 735.288 303.232 729.846 306.847 723.588C309.859 718.383 316.773 712.945 324.607 709.519L324.611 709.48Z" fill="#CC8641"/>
</g>
<g style="mix-blend-mode:multiply" opacity="0.79">
<path d="M324.631 709.64C343.088 701.646 366.675 703.06 370.164 713.768C373.268 723.263 360.988 732.47 353.264 736.128C349.382 737.964 344.365 739.7 339.09 741.128C327.887 744.141 313.973 745.734 307.435 738.606C304.032 734.926 303.349 729.544 307.051 723.376C310.104 718.314 316.904 713.001 324.631 709.64V709.64Z" fill="#CC8541"/>
</g>
<g style="mix-blend-mode:multiply" opacity="0.8">
<path d="M324.632 709.799C342.891 701.958 366.043 703.378 369.519 713.709C372.676 723.091 360.445 732.225 352.889 735.805C349.111 737.594 344.196 739.304 338.999 740.742C327.75 743.808 313.731 745.448 307.225 738.224C303.936 734.578 303.423 729.257 307.212 723.198C310.289 718.258 316.973 713.089 324.632 709.799V709.799Z" fill="#CC8541"/>
</g>
<g style="mix-blend-mode:multiply" opacity="0.82">
<path d="M324.63 709.976C342.693 702.29 365.389 703.713 368.871 713.669C372.104 722.922 359.902 731.981 352.511 735.501C348.838 737.245 344.023 738.947 338.908 740.355C327.633 743.478 313.487 745.181 307.034 737.845C303.86 734.233 303.518 728.972 307.372 723.02C310.491 718.224 317.058 713.198 324.63 709.976V709.976Z" fill="#CB8441"/>
</g>
<g style="mix-blend-mode:multiply" opacity="0.83">
<path d="M324.649 710.137C342.496 702.602 364.776 704.033 368.246 713.612C371.715 723.191 359.38 731.719 352.155 735.181C348.584 736.897 343.871 738.572 338.837 739.97C327.517 743.127 313.246 744.894 306.844 737.466C303.782 733.907 303.612 728.687 307.552 722.844C310.715 718.172 317.166 713.29 324.649 710.137V710.137Z" fill="#CB8441"/>
</g>
<g style="mix-blend-mode:multiply" opacity="0.85">
<path d="M324.669 710.297C342.316 702.935 364.166 704.333 367.601 713.552C371.035 722.771 358.837 731.474 351.76 734.856C348.293 736.525 343.683 738.173 338.746 739.584C327.4 742.797 312.982 744.624 306.655 737.067C303.708 733.542 303.709 728.382 307.734 722.649C310.921 718.098 317.275 713.363 324.672 710.278L324.669 710.297Z" fill="#CB8441"/>
</g>
<g style="mix-blend-mode:multiply" opacity="0.86">
<path d="M324.686 710.477C342.137 703.269 363.551 704.673 366.972 713.515C370.394 722.356 358.313 731.232 351.399 734.574C348.037 736.197 343.526 737.838 338.669 739.238C327.297 742.507 312.733 744.396 306.46 736.727C303.624 733.255 303.796 728.156 307.908 722.513C311.138 718.105 317.375 713.514 324.667 710.475L324.686 710.477Z" fill="#CA8341"/>
</g>
<g style="mix-blend-mode:multiply" opacity="0.87">
<path d="M324.726 710.64C341.96 703.584 362.96 704.976 366.366 713.46C369.773 721.944 357.811 730.973 351.063 734.256C347.805 735.833 343.394 737.466 338.617 738.856C327.199 742.179 312.509 744.131 306.308 736.352C303.568 732.912 303.909 727.873 308.127 722.342C311.381 718.056 317.521 713.611 324.723 710.66L324.726 710.64Z" fill="#CA8341"/>
</g>
<g style="mix-blend-mode:multiply" opacity="0.89">
<path d="M324.746 710.801C341.781 703.917 362.348 705.296 365.741 713.403C369.364 722.052 357.288 730.73 350.707 733.935C347.554 735.466 343.245 737.072 338.546 738.472C327.103 741.831 312.265 743.864 306.118 735.973C303.489 732.586 304.004 727.588 308.288 722.164C311.586 718.002 317.59 713.698 324.724 710.818L324.746 710.801Z" fill="#CA8241"/>
</g>
<g style="mix-blend-mode:multiply" opacity="0.9">
<path d="M324.785 710.964C341.623 704.234 361.757 705.599 365.137 713.329C368.838 721.829 356.788 730.452 350.373 733.598C347.322 735.101 343.135 736.683 338.499 738.051C327.03 741.466 312.026 743.558 305.973 735.54C303.44 732.184 304.144 727.25 308.511 721.954C311.834 717.914 317.739 713.776 324.788 710.944L324.785 710.964Z" fill="#C98241"/>
</g>
<g style="mix-blend-mode:multiply" opacity="0.92">
<path d="M324.822 711.146C341.444 704.568 361.184 705.924 364.509 713.291C368.305 721.665 356.245 730.207 350.014 733.297C347.068 734.754 342.981 736.328 338.445 737.688C326.929 741.157 311.777 743.33 305.8 735.182C303.378 731.88 304.239 726.965 308.708 721.8C312.075 717.884 317.863 713.89 324.824 711.127L324.822 711.146Z" fill="#C98241"/>
</g>
<g style="mix-blend-mode:multiply" opacity="0.93">
<path d="M324.861 711.309C341.287 704.885 360.593 706.227 363.903 713.237C367.793 721.483 355.743 729.948 349.678 732.979C346.836 734.389 342.848 735.956 338.393 737.306C326.851 740.832 311.533 743.063 305.648 734.808C303.321 731.537 304.372 726.684 308.926 721.629C312.318 717.835 318.009 713.987 324.861 711.309V711.309Z" fill="#C98141"/>
</g>
<g style="mix-blend-mode:multiply" opacity="0.94">
<path d="M324.92 711.475C341.146 705.223 360.041 706.535 363.317 713.184C367.323 721.287 355.258 729.71 349.358 732.683C346.621 734.047 342.736 735.586 338.358 736.946C326.787 740.547 311.304 742.837 305.496 734.434C303.282 731.216 304.505 726.404 309.145 721.459C312.581 717.788 318.155 714.084 324.92 711.475V711.475Z" fill="#C88141"/>
</g>
<g style="mix-blend-mode:multiply" opacity="0.96">
<path d="M324.96 711.638C340.989 705.54 359.451 706.838 362.711 713.13C366.814 721.086 354.757 729.451 349.022 732.365C346.389 733.682 342.603 735.214 338.306 736.564C326.708 740.221 311.038 742.587 305.345 734.059C303.225 730.873 304.621 726.102 309.344 721.285C312.805 717.737 318.28 714.198 324.96 711.638V711.638Z" fill="#C88041"/>
</g>
<g style="mix-blend-mode:multiply" opacity="0.97">
<path d="M325.015 711.823C340.828 705.876 358.898 707.146 362.102 713.095C366.322 720.907 354.252 729.211 348.683 732.066C346.155 733.337 342.468 734.861 338.251 736.202C326.627 739.914 310.77 742.356 305.171 733.702C303.144 730.567 304.732 725.839 309.541 721.132C313.045 717.707 318.384 714.31 324.994 711.84L325.015 711.823Z" fill="#C88041"/>
</g>
<g style="mix-blend-mode:multiply" opacity="0.99">
<path d="M325.152 711.997C340.769 706.205 358.425 707.463 361.593 713.052C365.952 720.704 353.845 728.983 348.444 731.76C346.018 733.004 342.436 734.482 338.317 735.834C326.665 739.603 310.599 742.137 305.136 733.342C303.204 730.238 304.966 725.551 309.877 720.975C313.405 717.672 318.648 714.421 325.169 712.019L325.152 711.997Z" fill="#C77F41"/>
</g>
<g style="mix-blend-mode:multiply">
<path d="M338.208 735.426C326.528 739.27 310.277 741.861 304.911 732.919C301.76 727.669 309.735 717.775 325.135 712.134C340.552 706.515 357.78 707.721 360.933 712.951C365.411 720.44 353.289 728.678 348.053 731.396C345.751 732.596 342.25 734.064 338.213 735.387L338.208 735.426Z" fill="#C77F41"/>
</g>
</g>
<path d="M364.415 693.451L364.43 693.334C364.456 693.12 364.534 691.845 364.529 689.946C364.531 689.769 364.531 689.611 364.514 689.431C364.503 689.192 364.496 688.934 364.488 688.676C364.275 682.522 362.85 676.574 360.359 671.108L360.363 671.07C360.06 670.479 359.796 669.893 359.493 669.302C358.076 666.519 356.383 663.879 354.431 661.425C353.526 660.266 352.381 658.96 351.377 657.966C350.711 657.272 350.001 656.611 349.292 655.951L349.187 655.839L349.099 655.749C348.974 655.635 348.85 655.521 348.723 655.427C348.26 655.014 347.758 654.596 347.2 654.152L347.146 654.106C346.875 653.895 346.605 653.684 346.317 653.451C346.19 653.356 346.044 653.259 345.917 653.164C345.81 653.072 345.7 652.999 345.593 652.907C345.503 652.837 345.41 652.786 345.32 652.715C343.631 651.5 341.852 650.372 339.976 649.39C339.494 649.134 339.123 648.93 338.899 648.823L338.563 648.663L338.227 648.503L338.168 648.496L338.095 648.448C337.927 648.368 337.722 648.264 337.554 648.184L337.476 648.174L337.406 648.106L337.031 647.942C336.88 647.883 336.675 647.779 336.524 647.721L336.093 647.53L335.849 647.421L335.771 647.411L335.679 647.36L335.547 647.305L335.057 647.106C334.945 647.053 334.794 646.995 334.66 646.959C334.529 646.903 334.395 646.867 334.283 646.813C334.283 646.813 334.112 646.753 334.037 646.724C333.886 646.666 333.715 646.605 333.564 646.547L333.243 646.429C333.092 646.371 332.939 646.332 332.788 646.274L332.71 646.264C332.598 646.211 332.483 646.177 332.369 646.143L332.159 646.078L331.911 646.008L331.775 645.991L331.643 645.936C331.529 645.902 331.395 645.866 331.28 645.832L331.051 645.764C330.917 645.728 330.783 645.692 330.649 645.656L330.306 645.554C330.306 645.554 330.172 645.518 330.097 645.489C329.98 645.474 329.887 645.424 329.77 645.409L329.464 645.332C329.291 645.291 329.118 645.25 328.964 645.211L328.504 645.096L328.309 645.072C328.178 645.016 328.022 644.997 327.888 644.961C327.676 644.915 327.465 644.869 327.253 644.823C327.097 644.804 326.944 644.766 326.81 644.729C326.634 644.708 326.479 644.689 326.325 644.65C326.15 644.629 325.977 644.588 325.802 644.566C325.685 644.552 325.588 644.54 325.49 644.528L325.198 644.492C325.198 644.492 325.042 644.473 324.984 644.466L324.731 644.435C323.798 644.3 322.881 644.207 321.946 644.093C321.732 644.066 321.537 644.042 321.359 644.04C321.145 644.014 320.948 644.01 320.731 644.003C320.595 643.986 320.478 643.972 320.359 643.977C320.045 643.958 319.75 643.942 319.453 643.945C319.356 643.933 319.239 643.918 319.14 643.926C318.706 643.912 318.29 643.921 317.896 643.912C317.699 643.907 317.521 643.905 317.322 643.92L317.205 643.906C316.886 643.926 316.589 643.929 316.309 643.954C316.09 643.967 315.852 643.977 315.633 643.99C315.117 644.005 314.718 644.035 314.438 644.06C313.08 644.17 311.715 644.339 310.363 644.568C309.558 644.687 308.847 644.837 307.952 645.043C304.233 645.872 300.614 647.167 297.18 648.9C296.842 649.076 296.504 649.252 296.163 649.447L296.037 649.511C295.444 649.833 294.87 650.158 294.294 650.503L294.146 650.584L294.102 650.618L294.059 650.652L293.995 650.684L293.952 650.718C293.801 650.818 293.631 650.916 293.48 651.016C293.159 651.214 292.858 651.414 292.557 651.614C292.384 651.731 292.214 651.829 292.061 651.948C291.716 652.183 291.393 652.4 291.089 652.62L291.045 652.654L291.001 652.688C291.001 652.688 290.851 652.788 290.785 652.84C289.181 653.987 288.205 654.856 288.139 654.907C287.634 655.319 287.144 655.773 286.651 656.246C286.296 656.559 285.937 656.91 285.558 657.259L285.47 657.327L285.424 657.381C284.683 658.1 283.889 658.932 283.013 659.951L283.008 659.99L282.965 660.024C282.571 660.49 282.151 661.012 281.729 661.553C281.355 662.021 281.001 662.492 280.676 662.887L279.611 664.476C279.252 664.985 278.912 665.497 278.619 665.955C278.037 666.833 277.377 668.017 276.747 669.284C276.195 670.402 275.655 671.581 275.18 672.709L275.168 672.806C274.534 674.27 274.023 675.69 273.709 676.799C272.582 680.989 272.481 681.333 272.095 684.152C271.599 687.709 271.658 690.286 271.685 691.515C271.761 695.083 272.268 697.873 272.453 698.785C273.061 702.043 273.715 703.962 274.335 705.837C274.727 706.992 275.042 707.802 275.461 708.743C275.952 709.89 276.524 711.028 277.135 712.171L277.34 712.591C277.927 713.77 278.848 715.287 279.626 716.351C280.2 717.153 280.94 718.213 281.535 718.997C282.133 719.763 282.938 720.771 283.621 721.488C284.353 722.289 284.646 722.641 285.356 723.302C286.2 724.157 287.07 724.955 287.945 725.715C288.231 725.968 288.518 726.201 288.806 726.434C289.147 726.713 289.491 726.973 289.798 727.208C289.962 727.327 290.198 727.494 290.451 727.684L290.578 727.778C290.851 727.97 291.158 728.205 291.524 728.448C291.597 728.496 291.67 728.545 291.76 728.615C292.799 729.336 294.137 730.192 295.599 731.004C295.913 731.181 296.359 731.414 296.897 731.697C297.046 731.775 297.194 731.852 297.343 731.93L298.125 732.323C298.293 732.403 298.498 732.507 298.666 732.587L298.854 732.669L298.892 732.674L299.19 732.829C299.341 732.887 299.545 732.991 299.696 733.049L300.184 733.267L300.223 733.272C302.137 734.1 303.978 734.722 305.758 735.197L305.934 735.219C306.082 735.296 306.255 735.337 306.428 735.378L306.486 735.385C306.64 735.424 306.793 735.463 306.927 735.499L307.925 735.74C308.369 735.834 308.985 735.969 309.428 736.063C309.851 736.154 310.355 736.236 310.84 736.315L310.859 736.318C311.112 736.349 311.346 736.377 311.558 736.423C312.201 736.502 313.038 736.605 313.681 736.684C314.323 736.763 315.209 736.792 315.857 736.832C317.256 736.866 319.113 736.876 320.522 736.832C321.614 736.788 323.072 736.671 324.159 736.508C324.442 736.463 324.724 736.419 325.006 736.374C325.853 736.241 326.743 736.074 327.47 735.945L328.346 735.737C329.037 735.584 329.73 735.412 330.423 735.24L330.769 735.164C331.584 734.968 332.554 734.632 333.441 734.326C333.813 734.194 334.186 734.062 334.56 733.91C335.574 733.54 336.821 733.041 337.75 732.562L337.855 732.515C338.696 732.105 339.537 731.694 340.366 731.223C340.555 731.127 340.725 731.03 340.893 730.951L341.812 730.392C342.048 730.243 342.303 730.096 342.539 729.947L343.926 729.109C344.461 728.78 345.409 728.145 346.835 726.995L346.9 726.944L347.034 726.822C347.78 726.222 348.64 725.497 349.619 724.609L349.686 724.538C350.663 723.67 352.305 722.053 354.169 719.751L354.215 719.698C354.635 719.176 355.081 718.598 355.511 717.998C355.7 717.745 355.891 717.472 356.081 717.218C356.343 716.855 356.605 716.492 356.804 716.16C356.876 716.051 356.949 715.941 357.022 715.831C357.388 715.264 357.759 714.657 358.133 714.03C358.652 713.185 359.134 712.315 359.507 711.53C360.161 710.227 360.784 708.86 361.36 707.389C361.725 706.505 362.054 705.596 362.296 704.756C362.586 703.843 362.859 702.907 363.117 701.931C363.185 701.702 363.231 701.49 363.276 701.278C363.595 699.973 363.862 698.602 364.054 697.203L364.085 696.949C364.24 695.842 364.362 694.69 364.445 693.534L364.415 693.451Z" fill="url(#paint0_radial_79_2055)"/>
<path d="M362.897 677.647C362.835 677.343 362.754 677.037 362.654 676.728C362.737 677.015 362.818 677.321 362.897 677.647Z" fill="url(#paint1_linear_79_2055)"/>
<path d="M271.273 692.295C271.248 692.015 271.24 691.757 271.213 691.497C271.221 691.755 271.246 692.034 271.273 692.295Z" fill="url(#paint2_linear_79_2055)"/>
<path d="M355.585 716.11C353.083 719.578 343.702 730.94 327.913 731.058C314.718 731.138 308.177 719.363 308.103 716.428C308.092 716.031 308.388 715.553 308.494 715.171C308.922 713.78 309.668 711.085 310.689 706.149C329.076 713.052 349.713 712.087 359.761 703.832C358.329 712.275 356.397 714.964 355.585 716.11" fill="white"/>
<path d="M331.055 692.261C330.876 693.722 330.681 694.983 315.081 699.354C312.78 699.902 311.383 697.437 312.392 695.663C312.821 694.905 313.399 694.7 313.857 694.518C317.626 693.123 321.549 692.241 325.318 690.845C321.062 687.357 319.703 686.182 316.077 682.554C314.573 680.63 316.108 678.11 318.056 678.349C318.402 678.431 318.665 678.542 319.001 678.86C322.601 682.386 324.876 684.465 330.161 688.435C330.878 689.037 331.159 689.645 331.156 690.633C331.128 691.183 331.1 691.733 331.053 692.281" fill="#412121"/>
<path d="M360.561 694.737C360.44 696.047 359.759 697.407 358.96 697.309C358.824 697.292 353.158 694.975 349.646 693.476C348.925 693.072 348.58 692.495 348.454 691.432C348.423 690.875 348.371 690.335 348.319 689.795C348.291 689.06 348.347 688.276 348.973 687.522C351.549 684.419 353.389 682.154 355.171 677.134C355.297 676.754 355.404 676.688 355.598 676.553C356.693 676.174 357.549 678.216 357.665 678.883C357.852 679.934 357.906 680.296 356.703 683.015C355.446 685.846 354.189 687.55 352.738 689.546C355.656 690.735 356.109 690.909 359.787 692.349C360.63 692.888 360.606 694.209 360.559 694.757" fill="#412121"/>
<path d="M363.113 705.667C361.22 709.981 361.108 710.244 359.547 712.82C357.026 716.603 356.832 716.895 354.805 719.236L352.669 721.504C352.919 721.238 358.833 714.61 360.203 700.229C364.508 697.851 365.525 696.494 365.755 695.909C364.893 700.192 364.515 702.142 363.094 705.664" fill="#73A8DC"/>
<path d="M311.361 702.614C309.931 710.88 307.519 721.18 304.063 723.246C300.374 725.442 293.222 723.477 288.072 716.479C284.513 711.653 283.479 706.228 285.421 702.651C287.205 699.391 289.729 698.791 297.145 699.9C301.551 700.559 311.292 702.526 311.37 702.536L311.363 702.594" fill="#73A8DC"/>
<defs>
<radialGradient id="paint0_radial_79_2055" cx="0" cy="0" r="1" gradientUnits="userSpaceOnUse" gradientTransform="translate(319.827 698.048) rotate(6.76999) scale(53.3873 53.3904)">
<stop stop-color="#F79F40"/>
<stop offset="0.16" stop-color="#F7A442"/>
<stop offset="0.37" stop-color="#F8B449"/>
<stop offset="0.6" stop-color="#F9CE55"/>
<stop offset="0.77" stop-color="#FBE660"/>
<stop offset="0.91" stop-color="#FBF36F"/>
<stop offset="0.93" stop-color="#FBF672"/>
<stop offset="0.95" stop-color="#FBF676"/>
<stop offset="0.96" stop-color="#FBF782"/>
<stop offset="0.98" stop-color="#FBF897"/>
<stop offset="0.99" stop-color="#FCFAB4"/>
<stop offset="1" stop-color="#FDFBC2"/>
</radialGradient>
<linearGradient id="paint1_linear_79_2055" x1="362.542" y1="677.177" x2="362.892" y2="677.221" gradientUnits="userSpaceOnUse">
<stop stop-color="#19B79C"/>
<stop offset="0.4" stop-color="#1DBB9D"/>
<stop offset="0.82" stop-color="#29C7A2"/>
<stop offset="1" stop-color="#31CFA6"/>
</linearGradient>
<linearGradient id="paint2_linear_79_2055" x1="271.107" y1="691.901" x2="271.262" y2="691.921" gradientUnits="userSpaceOnUse">
<stop stop-color="#19B79C"/>
<stop offset="0.4" stop-color="#1DBB9D"/>
<stop offset="0.82" stop-color="#29C7A2"/>
<stop offset="1" stop-color="#31CFA6"/>
</linearGradient>
</defs>
</svg>
