<svg width="1645" height="1221" viewBox="0 0 1645 1221" fill="none" xmlns="http://www.w3.org/2000/svg">
<g style="mix-blend-mode:multiply" opacity="0.7">
<g style="mix-blend-mode:multiply" opacity="0.01">
<path d="M583.455 803.436C618.417 774.517 685.323 765.572 695.923 808.033C699.799 823.316 691.948 838.958 679.686 851.409C674.897 856.277 669.394 860.682 663.598 864.419C651.79 872.043 638.872 878.72 625.892 882.523C614.204 885.951 602.481 887.082 591.49 884.507C576.06 880.892 559.863 869.039 556.76 853.258C553.425 836.302 568.496 815.793 583.453 803.455L583.455 803.436Z" fill="#47E7C8"/>
</g>
<g style="mix-blend-mode:multiply" opacity="0.03">
<path d="M583.385 803.684C618.097 775.031 684.217 766.207 694.887 808.103C698.753 823.306 690.87 838.885 678.7 851.229C673.935 856.06 668.457 860.429 662.683 864.148C650.981 871.706 638.173 878.298 625.314 882.077C613.728 885.478 602.125 886.603 591.246 884.081C575.945 880.542 559.889 868.824 556.786 853.201C553.433 836.401 568.394 815.978 583.388 803.665L583.385 803.684Z" fill="#46E6C8"/>
</g>
<g style="mix-blend-mode:multiply" opacity="0.04">
<path d="M583.296 803.93C617.828 775.611 683.171 766.83 693.828 808.191C697.726 823.298 689.789 838.831 677.711 851.068C672.973 855.843 667.514 860.214 661.762 863.916C650.17 871.389 637.486 877.937 624.729 881.688C613.265 885.065 601.741 886.18 590.974 883.712C575.786 880.226 559.886 868.686 556.784 853.221C553.392 836.574 568.278 816.28 583.31 803.972L583.296 803.93Z" fill="#46E4C7"/>
</g>
<g style="mix-blend-mode:multiply" opacity="0.06">
<path d="M583.228 804.159C617.527 776.127 682.148 767.436 692.792 808.261C696.701 823.271 688.728 838.78 676.745 850.89C672.051 855.631 666.616 859.966 660.866 863.648C649.381 871.055 636.806 877.517 624.191 881.247C612.828 884.596 601.424 885.707 590.752 883.269C575.695 879.839 559.934 868.454 556.813 853.146C553.399 836.674 568.196 816.468 583.248 804.162L583.228 804.159Z" fill="#45E3C7"/>
</g>
<g style="mix-blend-mode:multiply" opacity="0.07">
<path d="M583.138 804.405C617.224 776.664 681.103 768.059 691.735 808.329C695.676 823.244 687.65 838.707 675.739 850.707C671.069 855.412 665.659 859.71 659.928 863.395C648.553 870.716 636.102 877.134 623.591 880.817C612.33 884.14 601.043 885.264 590.466 882.859C575.538 879.504 559.939 868.257 556.796 853.124C553.363 836.808 568.047 816.707 583.136 804.425L583.138 804.405Z" fill="#45E1C7"/>
</g>
<g style="mix-blend-mode:multiply" opacity="0.08">
<path d="M583.068 804.654C616.921 777.2 680.077 768.684 690.697 808.419C694.649 823.237 686.569 838.653 674.77 850.548C670.125 855.217 664.736 859.497 659.03 863.146C647.763 870.382 635.419 876.734 623.03 880.392C611.891 883.69 600.704 884.808 590.22 882.453C575.423 879.153 559.963 868.062 556.82 853.087C553.368 836.927 567.941 816.931 583.068 804.654V804.654Z" fill="#44E0C7"/>
</g>
<g style="mix-blend-mode:multiply" opacity="0.1">
<path d="M583.001 804.883C616.621 777.716 679.074 769.293 689.663 808.47C693.644 823.212 685.513 838.563 673.787 850.349C669.187 854.963 663.801 859.225 658.097 862.854C646.938 870.024 634.72 876.312 622.455 879.927C611.418 883.197 600.331 884.307 589.958 882.006C575.294 878.762 560.011 867.831 556.827 853.029C553.376 837.027 567.837 817.136 583.001 804.883Z" fill="#44DEC6"/>
</g>
<g style="mix-blend-mode:multiply" opacity="0.11">
<path d="M582.911 805.128C616.3 778.23 678.028 769.916 688.604 808.558C692.617 823.205 684.43 838.529 672.798 850.188C668.223 854.766 662.861 858.99 657.177 862.622C646.126 869.706 634.035 875.932 621.87 879.538C610.935 882.782 599.967 883.887 589.69 881.617C575.135 878.446 560.013 867.653 556.81 853.007C553.339 837.161 567.689 817.374 582.892 805.126L582.911 805.128Z" fill="#43DDC6"/>
</g>
<g style="mix-blend-mode:multiply" opacity="0.13">
<path d="M582.844 805.358C616.02 778.75 677.008 770.502 687.567 808.628C691.593 823.178 683.352 838.456 671.812 850.007C667.261 854.549 661.924 858.737 656.261 862.351C645.32 869.351 633.334 875.529 621.292 879.092C610.462 882.289 599.611 883.408 589.426 881.189C575.003 878.074 560.039 867.439 556.815 852.968C553.325 837.278 567.582 817.599 582.802 805.372L582.844 805.358Z" fill="#43DBC6"/>
</g>
<g style="mix-blend-mode:multiply" opacity="0.14">
<path d="M582.754 805.603C615.697 779.283 675.982 771.127 686.512 808.696C690.568 823.151 682.273 838.383 670.826 849.827C666.319 854.334 660.986 858.483 655.346 862.081C644.514 868.994 632.654 875.11 620.715 878.645C610.006 881.818 599.252 882.949 589.182 880.763C574.89 877.704 560.066 867.225 556.842 852.912C553.333 837.377 567.478 817.803 582.757 805.584L582.754 805.603Z" fill="#42DAC6"/>
</g>
<g style="mix-blend-mode:multiply" opacity="0.15">
<path d="M582.684 805.852C615.396 779.8 674.956 771.752 685.492 808.788C689.578 823.168 681.231 838.334 669.876 849.671C665.396 854.122 660.102 858.276 654.464 861.854C643.722 868.68 631.986 874.751 620.19 878.245C609.584 881.391 598.93 882.514 588.974 880.362C574.811 877.378 560.148 867.037 556.902 852.899C553.374 837.521 567.41 818.032 582.723 805.857L582.684 805.852Z" fill="#42D8C6"/>
</g>
<g style="mix-blend-mode:multiply" opacity="0.17">
<path d="M582.616 806.081C615.095 780.316 673.952 772.361 684.457 808.839C688.555 823.121 680.153 838.261 668.893 849.471C664.437 853.886 659.167 858.003 653.551 861.564C642.916 868.324 631.308 874.312 619.613 877.798C609.108 880.917 598.573 882.035 588.71 879.935C574.679 877.006 560.155 866.821 556.89 852.839C553.343 837.616 567.286 818.234 582.619 806.061L582.616 806.081Z" fill="#41D7C5"/>
</g>
<g style="mix-blend-mode:multiply" opacity="0.18">
<path d="M582.527 806.327C614.775 780.831 672.927 772.986 683.399 808.927C687.528 823.114 679.073 838.207 667.904 849.31C663.492 853.691 658.227 857.769 652.63 861.332C642.105 868.007 630.602 873.948 619.03 877.391C608.648 880.485 598.215 881.576 588.442 879.546C574.525 876.651 560.157 866.643 556.89 852.839C553.324 837.772 567.156 818.495 582.524 806.346L582.527 806.327Z" fill="#41D5C5"/>
</g>
<g style="mix-blend-mode:multiply" opacity="0.2">
<path d="M582.457 806.575C614.473 781.367 671.924 773.594 682.361 809.017C686.521 823.109 678.012 838.156 666.916 849.149C662.528 853.493 657.288 857.535 651.713 861.081C641.296 867.67 629.92 873.548 618.47 876.966C608.189 880.033 597.876 881.119 588.195 879.14C574.41 876.301 560.2 866.451 556.915 852.802C553.329 837.891 567.05 818.719 582.474 806.597L582.457 806.575Z" fill="#40D4C5"/>
</g>
<g style="mix-blend-mode:multiply" opacity="0.21">
<path d="M582.37 806.802C614.155 781.861 670.881 774.197 681.307 809.065C685.496 823.082 676.916 838.061 665.932 848.949C661.571 853.237 656.35 857.282 650.799 860.791C640.49 867.314 629.242 873.109 617.894 876.5C607.716 879.54 597.522 880.621 587.936 878.673C574.282 875.89 560.212 866.195 556.904 852.722C553.3 837.966 566.928 818.902 582.372 806.782L582.37 806.802Z" fill="#40D2C5"/>
</g>
<g style="mix-blend-mode:multiply" opacity="0.23">
<path d="M582.3 807.05C613.852 782.398 669.874 774.825 680.268 809.155C684.469 823.074 675.853 838.029 664.944 848.788C660.626 853.042 655.41 857.048 649.859 860.557C639.659 866.995 628.516 872.743 617.29 876.11C607.233 879.125 597.117 880.216 587.646 878.302C574.121 875.593 560.211 866.037 556.885 852.719C553.261 838.12 566.778 819.16 582.258 807.065L582.3 807.05Z" fill="#3FD0C4"/>
</g>
<g style="mix-blend-mode:multiply" opacity="0.24">
<path d="M582.23 807.299C613.551 782.914 668.871 775.433 679.231 809.226C683.464 823.05 674.794 837.959 663.978 848.61C659.684 852.828 654.511 856.799 648.963 860.289C638.872 866.641 627.856 872.326 616.731 875.665C606.777 878.654 596.78 879.739 587.401 877.876C574.008 875.224 560.238 865.823 556.909 852.683C553.244 838.256 566.671 819.385 582.21 807.296L582.23 807.299Z" fill="#3FCFC4"/>
</g>
<g style="mix-blend-mode:multiply" opacity="0.25">
<path d="M582.143 807.525C613.231 783.428 667.867 776.042 678.175 809.293C682.44 823.023 673.716 837.885 662.992 848.43C658.723 852.611 653.574 856.545 648.045 860.038C638.062 866.324 627.152 871.943 616.171 875.241C606.319 878.202 596.441 879.283 587.174 877.473C573.913 874.876 560.301 865.633 556.953 852.649C553.269 838.378 566.606 819.594 582.16 807.547L582.143 807.525Z" fill="#3ECDC4"/>
</g>
<g style="mix-blend-mode:multiply" opacity="0.27">
<path d="M582.073 807.774C612.93 783.945 666.861 776.669 677.136 809.383C681.43 823.037 672.635 837.832 662.003 848.269C657.78 852.396 652.632 856.331 647.127 859.787C637.253 865.988 626.469 871.543 615.591 874.814C605.843 877.729 596.082 878.823 586.911 877.045C573.761 874.501 560.305 865.436 556.938 852.607C553.235 838.492 566.46 819.813 582.053 807.771L582.073 807.774Z" fill="#3ECCC4"/>
</g>
<g style="mix-blend-mode:multiply" opacity="0.28">
<path d="M581.983 808.02C612.608 784.479 665.837 777.275 676.08 809.452C680.405 823.01 671.554 837.778 661.017 848.089C656.818 852.179 651.694 856.077 646.211 859.516C636.444 865.651 625.767 871.141 615.011 874.387C605.385 877.277 595.703 878.362 586.644 876.637C573.624 874.168 560.309 865.239 556.943 852.568C553.221 838.609 566.334 820.035 581.964 808.017L581.983 808.02Z" fill="#3DCAC3"/>
</g>
<g style="mix-blend-mode:multiply" opacity="0.3">
<path d="M581.916 808.248C612.31 784.976 664.853 777.886 675.063 809.524C679.4 822.986 670.515 837.71 660.051 847.911C655.876 851.965 650.776 855.826 645.313 859.267C635.655 865.317 625.105 870.743 614.47 873.964C604.946 876.828 595.384 877.907 586.417 876.233C573.528 873.82 560.373 865.049 556.985 852.554C553.243 838.75 566.245 820.281 581.933 808.27L581.916 808.248Z" fill="#3DC9C3"/>
</g>
<g style="mix-blend-mode:multiply" opacity="0.31">
<path d="M581.845 808.497C611.989 785.49 663.847 778.513 674.026 809.595C678.394 822.961 669.437 837.637 659.084 847.733C654.953 851.753 649.875 855.597 644.417 858.999C634.868 864.963 624.442 870.345 613.911 873.52C604.489 876.357 595.047 877.431 586.173 875.808C573.415 873.451 560.399 864.834 557.011 852.498C553.25 838.85 566.16 820.488 581.865 808.499L581.845 808.497Z" fill="#3CC7C3"/>
</g>
<g style="mix-blend-mode:multiply" opacity="0.32">
<path d="M581.758 808.723C611.672 785.985 662.846 779.102 672.97 809.663C677.368 822.954 668.358 837.564 658.079 847.55C653.974 851.514 648.918 855.341 643.482 858.726C634.04 864.625 623.723 869.921 613.314 873.071C604.014 875.883 594.669 876.97 585.892 875.358C573.266 873.057 560.388 864.596 556.979 852.435C553.2 838.943 566 820.666 581.741 808.701L581.758 808.723Z" fill="#3CC6C3"/>
</g>
<g style="mix-blend-mode:multiply" opacity="0.34">
<path d="M581.688 808.972C611.369 786.521 661.859 779.732 671.932 809.752C676.36 822.948 667.295 837.532 657.11 847.392C653.03 851.319 647.998 855.11 642.581 858.497C633.248 864.31 623.056 869.562 612.768 872.688C603.57 875.473 594.325 876.552 585.66 874.994C573.146 872.745 560.447 864.445 557.018 852.439C553.22 839.103 565.908 820.932 581.686 808.991L581.688 808.972Z" fill="#3BC4C3"/>
</g>
<g style="mix-blend-mode:multiply" opacity="0.35">
<path d="M581.618 809.22C611.048 787.035 660.855 780.34 670.895 809.823C675.355 822.924 666.216 837.459 656.143 847.214C652.107 851.107 647.08 854.858 641.665 858.226C632.442 863.954 622.356 869.14 612.19 872.241C603.094 874.999 593.968 876.073 585.396 874.566C573.011 872.393 560.453 864.228 557.023 852.4C553.205 839.22 565.782 821.154 581.618 809.22V809.22Z" fill="#3BC3C2"/>
</g>
<g style="mix-blend-mode:multiply" opacity="0.37">
<path d="M581.531 809.447C610.731 787.53 659.852 780.949 669.839 809.891C674.328 822.916 665.139 837.386 655.138 847.031C651.126 850.887 646.121 854.622 640.728 857.973C631.612 863.634 621.652 868.757 611.591 871.812C602.617 874.545 593.59 875.611 585.13 874.157C572.877 872.04 560.477 864.033 557.028 852.361C553.171 839.334 565.675 821.378 581.529 809.466L581.531 809.447Z" fill="#3AC1C2"/>
</g>
<g style="mix-blend-mode:multiply" opacity="0.38">
<path d="M581.461 809.695C610.43 788.047 658.867 781.559 668.802 809.961C673.323 822.892 664.08 837.315 654.171 846.853C650.186 850.653 645.222 854.373 639.832 857.705C630.825 863.281 620.972 868.338 611.033 871.368C602.161 874.074 593.253 875.135 584.888 873.713C572.767 871.651 560.506 863.8 557.035 852.303C553.16 839.432 565.554 821.56 581.444 809.673L581.461 809.695Z" fill="#3AC0C2"/>
</g>
<g style="mix-blend-mode:multiply" opacity="0.39">
<path d="M581.372 809.941C610.091 788.558 657.883 782.17 667.744 810.049C672.296 822.884 662.977 837.279 653.163 846.69C649.202 850.454 644.263 854.137 638.894 857.451C629.994 862.961 620.268 867.955 610.45 870.96C601.68 873.639 592.873 874.693 584.62 873.324C572.63 871.318 560.508 863.622 557.037 852.283C553.143 839.568 565.426 821.802 581.372 809.941V809.941Z" fill="#39BEC2"/>
</g>
<g style="mix-blend-mode:multiply" opacity="0.41">
<path d="M581.304 810.17C609.792 789.056 656.899 782.78 666.707 810.119C671.288 822.879 661.918 837.208 652.197 846.512C648.279 850.241 643.342 853.905 637.995 857.203C629.205 862.627 619.605 867.557 609.889 870.535C601.224 873.168 592.533 874.236 584.373 872.918C572.493 870.985 560.551 863.43 557.059 852.266C553.143 839.726 565.316 822.045 581.301 810.189L581.304 810.17Z" fill="#39BCC1"/>
</g>
<g style="mix-blend-mode:multiply" opacity="0.42">
<path d="M581.234 810.418C609.472 789.57 655.914 783.391 665.69 810.192C670.303 822.857 660.879 837.14 651.23 846.334C647.337 850.027 642.424 853.654 637.099 856.934C628.418 862.273 618.923 867.157 609.331 870.091C600.787 872.699 592.194 873.779 584.129 872.492C572.38 870.615 560.578 863.215 557.086 852.21C553.151 839.826 565.215 822.23 581.234 810.418V810.418Z" fill="#38BBC1"/>
</g>
<g style="mix-blend-mode:multiply" opacity="0.44">
<path d="M581.144 810.664C609.152 790.084 654.93 784.002 664.632 810.28C669.276 822.85 659.796 837.105 650.242 846.173C646.375 849.81 641.484 853.42 636.179 856.703C627.604 861.976 618.238 866.776 608.768 869.686C600.326 872.267 591.852 873.342 583.882 872.087C572.265 870.265 560.602 863.021 557.088 852.191C553.134 839.963 565.086 822.472 581.144 810.664V810.664Z" fill="#38B9C1"/>
</g>
<g style="mix-blend-mode:multiply" opacity="0.45">
<path d="M581.077 810.893C608.834 790.579 653.946 784.612 663.597 810.331C668.27 822.825 658.72 837.013 649.277 845.975C645.455 849.578 640.588 853.152 635.285 856.415C626.82 861.603 617.558 866.357 608.21 869.242C599.87 871.796 591.496 872.863 583.638 871.661C572.149 869.915 560.645 862.828 557.115 852.135C553.141 840.062 564.982 822.676 581.096 810.896L581.077 810.893Z" fill="#37B8C1"/>
</g>
<g style="mix-blend-mode:multiply" opacity="0.46">
<path d="M580.988 811.139C608.495 791.091 652.962 785.223 662.539 810.418C667.244 822.818 657.64 836.959 648.27 845.812C644.472 849.378 639.627 852.935 634.328 856.159C625.97 861.281 616.837 865.952 607.591 868.81C599.373 871.34 591.099 872.399 583.333 871.248C571.976 869.557 560.611 862.626 557.079 852.111C553.066 840.191 564.817 822.893 580.968 811.137L580.988 811.139Z" fill="#37B6C1"/>
</g>
<g style="mix-blend-mode:multiply" opacity="0.48">
<path d="M580.917 811.388C608.194 791.607 651.997 785.836 661.5 810.508C666.236 822.812 656.578 836.908 647.301 845.653C643.527 849.183 638.706 852.703 633.427 855.93C625.178 860.966 616.15 865.591 607.028 868.405C598.912 870.907 590.757 871.962 583.105 870.845C571.861 869.207 560.654 862.434 557.122 852.076C553.091 840.313 564.749 823.122 580.917 811.388Z" fill="#36B5C0"/>
</g>
<g style="mix-blend-mode:multiply" opacity="0.49">
<path d="M580.85 811.617C607.876 792.102 651.034 786.429 660.466 810.559C665.25 822.79 655.5 836.835 646.317 845.454C642.589 848.93 637.771 852.43 632.514 855.64C624.374 860.591 615.472 865.152 606.472 867.941C598.458 870.417 590.422 871.466 582.863 870.4C571.751 868.818 560.683 862.2 557.129 852.018C553.079 840.41 564.626 823.324 580.852 811.597L580.85 811.617Z" fill="#36B3C0"/>
</g>
<g style="mix-blend-mode:multiply" opacity="0.51">
<path d="M580.76 811.863C607.537 792.614 650.05 787.04 659.408 810.646C664.223 822.783 654.419 836.781 645.329 845.293C641.625 848.732 636.829 852.216 631.594 855.408C623.561 860.293 614.785 864.791 605.889 867.534C597.997 869.985 590.039 871.044 582.595 870.011C571.611 868.504 560.704 862.025 557.132 851.999C553.062 840.547 564.5 823.546 580.76 811.863V811.863Z" fill="#35B2C0"/>
</g>
<g style="mix-blend-mode:multiply" opacity="0.52">
<path d="M580.692 812.092C607.238 793.111 649.087 787.633 658.373 810.697C663.22 822.739 653.363 836.691 644.345 845.093C640.666 848.496 635.913 851.945 630.68 855.118C622.757 859.918 614.088 864.349 605.311 867.087C597.522 869.511 589.683 870.565 582.331 869.583C571.479 868.132 560.711 861.809 557.136 851.96C553.048 840.664 564.373 823.768 580.673 812.089L580.692 812.092Z" fill="#35B0C0"/>
</g>
<g style="mix-blend-mode:multiply" opacity="0.54">
<path d="M580.603 812.338C606.902 793.603 648.103 788.244 657.315 810.785C662.213 822.734 652.263 836.635 643.357 844.932C639.721 848.301 634.973 851.711 629.762 854.867C621.946 859.601 613.404 863.969 604.751 866.662C597.063 869.059 589.344 870.108 582.087 869.158C571.366 867.762 560.737 861.594 557.161 851.923C553.034 840.781 564.27 823.973 580.603 812.338V812.338Z" fill="#34AFBF"/>
</g>
<g style="mix-blend-mode:multiply" opacity="0.55">
<path d="M580.533 812.586C606.581 794.118 647.158 788.859 656.276 810.875C661.203 822.748 651.199 836.603 642.388 844.773C638.779 848.086 634.05 851.499 628.861 854.638C621.154 859.286 612.719 863.588 604.188 866.257C596.605 868.608 589.002 869.671 581.838 868.772C571.227 867.449 560.759 861.419 557.163 851.904C553.014 840.936 564.141 824.214 580.533 812.586V812.586Z" fill="#34ADBF"/>
</g>
<g style="mix-blend-mode:multiply" opacity="0.56">
<path d="M580.465 812.815C606.263 794.612 646.195 789.453 655.261 810.928C660.22 822.706 650.162 836.516 641.424 844.576C637.839 847.852 633.135 851.229 627.967 854.35C620.387 858.935 612.059 863.171 603.632 865.793C596.17 868.119 588.648 869.173 581.596 868.327C571.119 867.04 560.807 861.188 557.19 851.847C553.022 841.036 564.039 824.399 580.465 812.815V812.815Z" fill="#33ACBF"/>
</g>
<g style="mix-blend-mode:multiply" opacity="0.58">
<path d="M580.376 813.061C605.924 795.124 645.231 790.066 654.203 811.016C659.212 822.701 649.062 836.46 640.436 844.415C636.894 847.657 632.214 850.997 627.05 854.099C619.579 858.599 611.357 862.769 603.069 865.388C595.71 867.687 588.304 868.755 581.347 867.94C570.999 866.729 560.829 861.012 557.212 851.83C553.005 841.173 563.93 824.643 580.395 813.063L580.376 813.061Z" fill="#33AABF"/>
</g>
<g style="mix-blend-mode:multiply" opacity="0.59">
<path d="M580.306 813.309C605.606 795.619 644.285 790.681 653.166 811.086C658.205 822.696 648.004 836.389 639.449 844.235C635.935 847.421 631.277 850.743 626.112 853.846C618.748 858.279 610.653 862.385 602.469 864.959C595.212 867.231 587.926 868.293 581.083 867.512C570.867 866.357 560.835 860.796 557.216 851.791C552.991 841.289 563.807 824.845 580.306 813.309V813.309Z" fill="#32A9BF"/>
</g>
<g style="mix-blend-mode:multiply" opacity="0.61">
<path d="M580.219 813.536C605.269 796.111 643.325 791.255 652.11 811.154C657.2 822.672 646.942 836.338 638.463 844.054C634.99 847.226 630.337 850.509 625.196 853.575C617.942 857.923 609.973 861.966 601.891 864.512C594.756 866.76 587.569 867.815 580.819 867.085C570.713 866.002 560.84 860.599 557.204 851.731C552.959 841.384 563.644 825.042 580.219 813.536V813.536Z" fill="#32A7BE"/>
</g>
<g style="mix-blend-mode:multiply" opacity="0.62">
<path d="M580.149 813.784C604.951 796.606 642.38 791.871 651.071 811.244C656.192 822.666 645.859 836.304 637.475 843.893C634.028 847.009 629.397 850.275 624.276 853.343C617.131 857.606 609.266 861.602 601.309 864.105C594.276 866.325 587.189 867.373 580.551 866.696C570.576 865.669 560.842 860.421 557.204 851.731C552.94 841.54 563.516 825.284 580.127 813.801L580.149 813.784Z" fill="#31A5BE"/>
</g>
<g style="mix-blend-mode:multiply" opacity="0.63">
<path d="M580.078 814.033C604.65 797.123 641.434 792.486 650.034 811.314C655.206 822.644 644.8 836.233 636.508 843.715C633.086 846.794 628.479 850.024 623.38 853.075C616.341 857.272 608.606 861.185 600.768 863.682C593.836 865.876 586.869 866.918 580.323 866.292C570.48 865.321 560.904 860.231 557.248 851.697C552.945 841.659 563.428 825.51 580.076 814.052L580.078 814.033Z" fill="#31A4BE"/>
</g>
<g style="mix-blend-mode:multiply" opacity="0.65">
<path d="M579.991 814.259C604.313 797.615 640.494 793.062 648.978 811.382C654.201 822.62 643.722 836.16 635.503 843.533C632.124 846.577 627.539 849.79 622.445 852.802C615.515 856.914 607.885 860.78 600.17 863.233C593.361 865.402 586.491 866.457 580.043 865.843C570.328 864.946 560.894 859.992 557.235 851.636C552.914 841.754 563.287 825.691 579.991 814.259Z" fill="#30A2BE"/>
</g>
<g style="mix-blend-mode:multiply" opacity="0.66">
<path d="M579.921 814.507C603.976 798.107 639.549 793.678 647.942 811.453C653.196 822.595 642.644 836.087 634.536 843.355C631.182 846.363 626.621 849.539 621.546 852.554C614.724 856.599 607.222 860.383 599.61 862.809C592.903 864.951 586.152 866 579.796 865.437C570.213 864.596 560.918 859.798 557.24 851.597C552.897 841.891 563.162 825.912 579.902 814.505L579.921 814.507Z" fill="#30A1BD"/>
</g>
<g style="mix-blend-mode:multiply" opacity="0.68">
<path d="M579.832 814.754C603.639 798.6 638.606 794.274 646.883 811.54C652.186 822.61 641.561 836.053 633.548 843.194C630.22 846.146 625.681 849.305 620.628 852.302C613.915 856.262 606.518 860 599.049 862.384C592.444 864.499 585.793 865.54 579.549 865.031C570.078 864.244 560.942 859.603 557.262 851.58C552.88 842.027 563.055 826.136 579.832 814.754V814.754Z" fill="#2F9FBD"/>
</g>
<g style="mix-blend-mode:multiply" opacity="0.69">
<path d="M579.764 814.982C603.321 799.094 637.685 794.852 645.866 811.613C651.22 822.59 640.522 835.984 632.581 843.016C629.297 845.934 624.761 849.073 619.73 852.054C613.123 855.948 605.855 859.602 598.486 861.979C591.986 864.047 585.451 865.103 579.3 864.644C569.959 863.932 560.964 859.428 557.284 851.563C552.883 842.166 562.948 826.361 579.759 815.021L579.764 814.982Z" fill="#2F9EBD"/>
</g>
<g style="mix-blend-mode:multiply" opacity="0.7">
<path d="M579.694 815.231C603.003 799.589 636.761 795.451 644.83 811.683C650.234 822.568 639.443 835.911 631.615 842.838C628.355 845.719 623.862 848.825 618.833 851.786C612.336 855.594 605.192 859.204 597.928 861.535C591.549 863.579 585.114 864.627 579.078 864.202C569.867 863.546 561.009 859.216 557.33 851.509C552.89 842.265 562.844 826.565 579.733 815.236L579.694 815.231Z" fill="#2E9CBD"/>
</g>
<g style="mix-blend-mode:multiply" opacity="0.72">
<path d="M579.607 815.457C602.666 800.081 635.818 796.047 643.774 811.751C649.229 822.543 638.365 835.838 630.609 842.655C627.374 845.5 622.905 848.569 617.879 851.51C611.489 855.253 604.454 858.778 597.331 861.086C591.054 863.103 584.736 864.165 578.795 863.772C569.714 863.191 560.997 858.997 557.298 851.446C552.84 842.358 562.684 826.743 579.607 815.457V815.457Z" fill="#2E9BBD"/>
</g>
<g style="mix-blend-mode:multiply" opacity="0.73">
<path d="M579.537 815.706C602.349 800.576 634.895 796.645 642.735 811.841C648.241 822.54 637.302 835.806 629.641 842.496C626.451 845.288 621.982 848.357 616.978 851.281C610.697 854.938 603.786 858.419 596.768 860.68C590.593 862.67 584.375 863.725 578.546 863.385C569.596 862.86 561.038 858.824 557.318 851.448C552.84 842.516 562.575 826.987 579.535 815.725L579.537 815.706Z" fill="#2D99BC"/>
</g>
<g style="mix-blend-mode:multiply" opacity="0.75">
<path d="M579.467 815.954C602.031 801.071 633.974 797.224 641.698 811.912C647.277 822.501 636.223 835.733 628.654 842.316C625.489 845.071 621.045 848.103 616.062 851.01C609.908 854.604 603.087 857.997 596.187 860.254C590.134 862.219 584.016 863.266 578.279 862.977C569.442 862.505 561.042 858.627 557.323 851.409C552.804 842.65 562.432 827.187 579.465 815.974L579.467 815.954Z" fill="#2D98BC"/>
</g>
<g style="mix-blend-mode:multiply" opacity="0.76">
<path d="M579.38 816.181C601.676 801.541 633.052 797.803 640.642 811.98C646.272 822.476 635.145 835.66 627.668 842.136C624.527 844.854 620.124 847.872 615.146 850.74C609.102 854.248 602.404 857.597 595.609 859.807C589.659 861.745 583.66 862.788 578.018 862.53C569.309 862.133 561.051 858.391 557.33 851.351C552.792 842.748 562.31 827.37 579.38 816.181Z" fill="#2C96BC"/>
</g>
<g style="mix-blend-mode:multiply" opacity="0.77">
<path d="M579.31 816.429C601.356 802.056 632.129 798.401 639.606 812.05C645.286 822.454 634.067 835.587 626.702 841.958C623.588 844.62 619.206 847.621 614.248 850.491C608.31 853.933 601.742 857.199 595.069 859.385C589.22 861.296 583.338 862.353 577.791 862.126C569.214 861.785 561.095 858.198 557.354 851.314C552.778 842.864 562.204 827.594 579.31 816.429V816.429Z" fill="#2C95BC"/>
</g>
<g style="mix-blend-mode:multiply" opacity="0.79">
<path d="M579.22 816.675C601.019 802.548 631.206 798.999 638.547 812.138C644.301 822.432 632.986 835.534 625.694 841.795C622.624 844.422 618.247 847.384 613.311 850.238C607.482 853.594 601.018 856.814 594.469 858.955C588.742 860.842 582.94 861.889 577.505 861.716C569.06 861.43 561.078 858.018 557.337 851.292C552.741 842.998 562.039 827.811 579.201 816.673L579.22 816.675Z" fill="#2B93BB"/>
</g>
<g style="mix-blend-mode:multiply" opacity="0.8">
<path d="M579.152 816.904C600.704 803.023 630.306 799.561 637.51 812.208C643.334 822.412 631.908 835.46 624.727 841.617C621.681 844.208 617.346 847.155 612.412 849.989C606.69 853.28 600.355 856.416 593.906 858.55C588.281 860.41 582.598 861.452 577.278 861.312C568.942 861.099 561.121 857.826 557.38 851.258C552.744 843.137 561.954 828.018 579.17 816.926L579.152 816.904Z" fill="#2B91BB"/>
</g>
<g style="mix-blend-mode:multiply" opacity="0.82">
<path d="M579.082 817.153C600.367 803.516 629.405 800.142 636.474 812.279C642.371 822.373 630.846 835.409 623.741 841.436C620.722 843.972 616.408 846.902 611.496 849.718C605.884 852.924 599.653 856.014 593.347 858.106C587.825 859.939 582.259 860.995 577.034 860.887C568.829 860.73 561.147 857.612 557.385 851.219C552.729 843.254 561.83 828.22 579.082 817.153Z" fill="#2A90BB"/>
</g>
<g style="mix-blend-mode:multiply" opacity="0.83">
<path d="M578.993 817.398C600.03 804.008 628.481 800.74 635.435 812.368C641.405 822.353 629.786 835.358 622.773 841.278C619.777 843.776 615.488 846.67 610.578 849.467C605.073 852.607 598.971 855.614 592.768 857.679C587.349 859.465 581.9 860.535 576.768 860.478C568.693 860.396 561.152 857.414 557.39 851.18C552.696 843.368 561.687 828.42 578.993 817.398V817.398Z" fill="#2A8EBB"/>
</g>
<g style="mix-blend-mode:multiply" opacity="0.85">
<path d="M578.925 817.627C599.714 804.483 627.601 801.305 634.401 812.419C640.441 822.314 628.729 835.268 621.789 841.078C618.837 843.542 614.551 846.416 609.663 849.197C604.264 852.27 598.269 855.211 592.19 857.232C586.893 858.994 581.524 860.054 576.504 860.051C568.56 860.024 561.156 857.217 557.395 851.141C552.66 843.502 561.563 828.622 578.906 817.625L578.925 817.627Z" fill="#298DBA"/>
</g>
<g style="mix-blend-mode:multiply" opacity="0.86">
<path d="M578.836 817.873C599.357 804.973 626.68 801.884 633.342 812.507C639.457 822.272 627.629 835.212 620.8 840.917C617.873 843.345 613.63 846.185 608.745 848.946C603.455 851.934 597.587 854.811 591.607 856.825C586.413 858.559 581.163 859.615 576.237 859.642C568.423 859.691 561.16 857.02 557.4 851.102C552.645 843.619 561.423 828.803 578.836 817.873V817.873Z" fill="#298BBA"/>
</g>
<g style="mix-blend-mode:multiply" opacity="0.87">
<path d="M578.766 818.122C599.04 805.468 625.798 802.467 632.303 812.597C638.808 822.726 626.565 835.18 619.831 840.758C616.931 843.13 612.707 845.972 607.844 848.716C602.681 851.641 596.919 854.452 591.063 856.422C585.971 858.129 580.838 859.199 576.008 859.258C568.306 859.36 561.201 856.847 557.419 851.105C552.626 843.775 561.294 829.044 578.763 818.141L578.766 818.122Z" fill="#288ABA"/>
</g>
<g style="mix-blend-mode:multiply" opacity="0.89">
<path d="M578.698 818.351C598.705 805.941 624.902 803.009 631.269 812.648C637.637 822.286 625.509 835.09 618.848 840.558C615.991 842.896 611.773 845.7 606.931 848.426C602.089 851.153 596.223 854.011 590.488 855.956C585.518 857.639 580.485 858.701 575.747 858.811C568.174 858.988 561.189 856.628 557.429 851.027C552.614 843.872 561.176 829.207 578.679 818.348L578.698 818.351Z" fill="#2888BA"/>
</g>
<g style="mix-blend-mode:multiply" opacity="0.9">
<path d="M578.609 818.597C598.368 806.433 624 803.591 630.211 812.735C636.422 821.88 624.409 835.034 617.859 840.398C615.027 842.699 610.849 845.487 606.012 848.175C601.175 850.863 595.538 853.63 589.908 855.529C585.039 857.185 580.106 858.24 575.48 858.403C568.039 858.636 561.193 856.431 557.431 851.007C552.578 844.006 561.03 829.427 578.609 818.597V818.597Z" fill="#2787BA"/>
</g>
<g style="mix-blend-mode:multiply" opacity="0.92">
<path d="M578.541 818.826C598.033 806.906 623.122 804.135 629.177 812.786C635.668 822.064 623.353 834.944 616.876 840.198C614.068 842.462 609.914 845.214 605.097 847.904C600.279 850.595 594.838 853.208 589.35 855.084C584.583 856.713 579.767 857.783 575.258 857.96C567.946 858.268 561.239 856.219 557.48 850.934C552.585 844.106 560.933 829.573 578.563 818.808L578.541 818.826Z" fill="#2785B9"/>
</g>
<g style="mix-blend-mode:multiply" opacity="0.93">
<path d="M578.452 819.072C597.696 807.398 622.223 804.697 628.118 812.874C634.724 822.027 622.27 834.909 615.888 840.037C613.125 842.248 608.975 844.98 604.179 847.653C599.383 850.326 594.154 852.828 588.767 854.677C584.123 856.281 579.406 857.343 574.99 857.572C567.809 857.935 561.241 856.042 557.46 850.932C552.527 844.257 560.785 829.812 578.452 819.072V819.072Z" fill="#2684B9"/>
</g>
<g style="mix-blend-mode:multiply" opacity="0.94">
<path d="M578.382 819.32C597.361 807.871 621.343 805.261 627.079 812.964C633.801 821.973 621.189 834.856 614.899 839.876C612.161 842.051 608.052 844.768 603.258 847.422C598.465 850.075 593.45 852.445 588.185 854.269C583.642 855.847 579.045 856.903 574.721 857.183C567.669 857.622 561.243 855.864 557.463 850.912C552.508 844.413 560.639 830.031 578.36 819.337L578.382 819.32Z" fill="#2682B9"/>
</g>
<g style="mix-blend-mode:multiply" opacity="0.96">
<path d="M578.314 819.549C597.045 808.347 620.468 805.786 626.045 813.015C632.886 821.861 620.132 834.766 613.935 839.679C611.221 841.816 607.136 844.498 602.345 847.132C597.831 849.602 592.77 852.025 587.629 853.806C583.188 855.356 578.708 856.427 574.479 856.738C567.537 857.25 561.269 855.65 557.489 850.856C552.496 844.51 560.52 830.194 578.314 819.549Z" fill="#2581B9"/>
</g>
<g style="mix-blend-mode:multiply" opacity="0.97">
<path d="M578.224 819.795C596.689 808.837 619.569 806.348 625.006 813.104C631.985 821.79 619.071 834.715 612.966 839.52C610.296 841.624 606.233 844.288 601.446 846.883C597.059 849.29 592.107 851.628 587.068 853.381C582.732 854.885 578.347 855.987 574.235 856.313C567.422 856.899 561.296 855.436 557.516 850.8C552.482 844.627 560.401 830.358 578.246 819.778L578.224 819.795Z" fill="#257FB8"/>
</g>
<g style="mix-blend-mode:multiply" opacity="0.99">
<path d="M578.154 820.043C596.356 809.29 618.692 806.893 623.97 813.175C631.087 821.699 617.991 834.661 611.98 839.34C609.337 841.387 605.293 844.054 600.529 846.632C596.248 848.973 591.403 851.244 586.486 852.973C582.271 854.453 577.986 855.547 573.966 855.924C567.285 856.566 561.276 855.275 557.496 850.798C552.421 844.797 560.217 830.572 578.135 820.041L578.154 820.043Z" fill="#247EB8"/>
</g>
<g style="mix-blend-mode:multiply">
<path d="M599.613 846.361C585.893 853.771 566.206 860.684 557.523 850.742C552.429 844.897 560.115 830.757 578.087 820.272C596.039 809.785 617.819 807.398 622.933 813.245C630.213 821.572 616.932 834.59 611.013 839.162C608.394 841.173 604.375 843.803 599.632 846.364L599.613 846.361Z" fill="#247CB8"/>
</g>
</g>
<path d="M635.611 788.074C635.611 788.074 635.625 787.957 635.632 787.899C635.671 787.587 635.805 785.686 635.777 782.856C635.769 782.598 635.779 782.362 635.771 782.104C635.755 781.746 635.762 781.371 635.729 780.992C635.41 771.839 633.293 762.999 629.603 754.896L629.571 754.832C629.165 753.952 628.74 753.07 628.312 752.207C626.213 748.054 623.688 744.146 620.794 740.509C619.444 738.782 617.763 736.856 616.266 735.367C615.266 734.335 614.222 733.337 613.154 732.375C613.1 732.329 613.049 732.264 612.995 732.218L612.852 732.101C612.674 731.941 612.496 731.781 612.298 731.618C611.603 730.999 610.85 730.373 610.04 729.72L609.95 729.649C609.555 729.324 609.138 729.016 608.705 728.686C608.505 728.543 608.305 728.4 608.127 728.239C607.963 728.12 607.8 728.001 607.639 727.863C607.513 727.768 607.366 727.671 607.24 727.577C604.734 725.767 602.09 724.118 599.307 722.629C598.584 722.244 598.045 721.96 597.709 721.8L597.205 721.561L596.72 721.323L596.642 721.314L596.532 721.241C596.289 721.132 595.972 720.974 595.728 720.865L595.616 720.812L595.504 720.759L594.942 720.512C594.717 720.405 594.415 720.289 594.211 720.185L593.573 719.909C593.461 719.856 593.329 719.8 593.215 719.766L593.102 719.713L592.971 719.657L592.764 719.572L592.048 719.287C591.858 719.224 591.651 719.139 591.444 719.054C591.256 718.972 591.066 718.909 590.876 718.846L590.857 718.844C590.745 718.79 590.611 718.754 590.499 718.701C590.272 718.614 590.007 718.522 589.797 718.457L589.305 718.278C589.076 718.21 588.869 718.125 588.64 718.058L588.524 718.043C588.356 717.963 588.185 717.903 588.015 717.843L587.71 717.746L587.35 717.622L587.291 717.615L587.16 717.56C587.16 717.56 587.026 717.523 586.95 717.494C586.76 717.432 586.588 717.39 586.398 717.328C586.283 717.294 586.149 717.258 586.054 717.226C585.845 717.161 585.652 717.118 585.443 717.052L584.927 716.91C584.927 716.91 584.715 716.864 584.62 716.833C584.466 716.794 584.313 716.755 584.14 716.714L583.68 716.599C583.432 716.529 583.181 716.478 582.932 716.408L582.241 716.244C582.241 716.244 582.085 716.225 582.01 716.196L581.951 716.189C581.759 716.145 581.528 716.097 581.316 716.051C581.007 715.994 580.68 715.914 580.371 715.856C580.137 715.828 579.928 715.762 579.716 715.717C579.463 715.685 579.232 715.637 578.981 715.587C578.728 715.556 578.479 715.486 578.207 715.452C578.051 715.433 577.895 715.414 577.739 715.395L577.311 715.342C577.196 715.308 577.099 715.296 576.982 715.282C576.865 715.268 576.749 715.253 576.612 715.237C575.234 715.028 573.866 714.899 572.479 714.769C572.167 714.73 571.873 714.714 571.598 714.7C571.286 714.662 570.97 714.662 570.675 714.646C570.481 714.622 570.283 714.618 570.125 714.618C569.673 714.602 569.22 714.586 568.787 714.572C568.631 714.553 568.473 714.553 568.315 714.554C567.684 714.536 567.051 714.537 566.477 714.546C566.2 714.551 565.903 714.554 565.625 714.56C565.625 714.56 565.506 714.565 565.448 714.558C564.993 714.561 564.535 714.584 564.138 714.595C563.8 714.612 563.464 714.611 563.146 714.631C562.389 714.676 561.79 714.721 561.372 714.749C559.335 714.914 557.328 715.162 555.309 715.507C554.119 715.697 553.046 715.901 551.723 716.213C546.214 717.455 540.82 719.362 535.72 721.939C535.212 722.212 534.706 722.467 534.198 722.74C534.135 722.772 534.072 722.804 534.006 722.855C533.138 723.322 532.268 723.808 531.413 724.336C531.347 724.387 531.284 724.419 531.201 724.448L531.116 724.497L531.051 724.548C531.051 724.548 530.987 724.58 530.944 724.614L530.859 724.663C530.623 724.812 530.39 724.941 530.154 725.09C529.682 725.388 529.211 725.686 528.781 725.969C528.523 726.136 528.285 726.304 528.027 726.47C527.51 726.822 527.036 727.139 526.579 727.478L526.514 727.53L526.448 727.581C526.448 727.581 526.232 727.732 526.122 727.818C523.758 729.524 522.276 730.805 522.187 730.893C521.438 731.513 520.702 732.193 519.966 732.874C519.454 733.345 518.917 733.852 518.356 734.396C518.313 734.43 518.269 734.465 518.245 734.501L518.155 734.589C517.055 735.66 515.875 736.899 514.583 738.401L514.578 738.44L514.515 738.471L514.467 738.544C513.869 739.222 513.26 739.998 512.627 740.809C512.086 741.514 511.547 742.199 511.079 742.794L509.482 745.168C508.953 745.933 508.466 746.684 508.008 747.359C507.134 748.675 506.169 750.415 505.224 752.315L505.22 752.354C504.406 753.994 503.599 755.734 502.897 757.427L502.89 757.485L502.841 757.558C501.919 759.758 501.166 761.86 500.73 763.487C499.037 769.704 498.895 770.22 498.322 774.4C497.596 779.668 497.68 783.494 497.711 785.336C497.829 790.649 498.588 794.775 498.837 796.13C499.726 800.964 500.698 803.831 501.643 806.596C502.224 808.308 502.687 809.532 503.308 810.913C504.046 812.624 504.887 814.309 505.786 816.001L506.107 816.614C506.979 818.362 508.344 820.605 509.492 822.209C510.336 823.38 511.445 824.979 512.331 826.136C513.219 827.273 514.42 828.764 515.415 829.835C516.493 831.035 516.944 831.545 517.991 832.524C519.239 833.784 520.534 834.991 521.841 836.1C522.27 836.469 522.699 836.838 523.111 837.186C523.614 837.603 524.118 838.001 524.572 838.334C524.806 838.52 525.152 838.761 525.532 839.045L525.715 839.166C526.114 839.452 526.587 839.787 527.116 840.148C527.226 840.221 527.353 840.316 527.462 840.389C529.012 841.449 530.969 842.737 533.174 843.937C533.657 844.194 534.305 844.55 535.104 844.964C535.326 845.09 535.55 845.197 535.752 845.321L536.907 845.898C537.151 846.006 537.467 846.164 537.711 846.273L537.991 846.406L538.049 846.413L538.478 846.624C538.702 846.731 539.004 846.847 539.209 846.951L539.942 847.259L540.001 847.266C542.836 848.484 545.588 849.415 548.228 850.134L548.476 850.204C548.705 850.272 548.953 850.342 549.224 850.395L549.302 850.404C549.53 850.472 549.759 850.54 549.952 850.583L551.43 850.942C552.104 851.085 552.99 851.273 553.665 851.415C554.281 851.55 555.057 851.665 555.773 851.792L555.812 851.797C556.182 851.842 556.53 851.905 556.859 851.965C557.791 852.099 559.059 852.235 560.014 852.352C560.987 852.472 562.287 852.513 563.246 852.591C565.315 852.647 568.099 852.673 570.167 852.571C571.795 852.514 573.953 852.324 575.564 852.087C575.968 852.018 576.391 851.951 576.834 851.887C578.104 851.687 579.418 851.453 580.507 851.271L581.811 850.956C582.847 850.728 583.867 850.477 584.888 850.207L585.399 850.072C586.603 849.765 588.045 849.29 589.368 848.82C589.925 848.631 590.484 848.423 591.043 848.215C592.534 847.667 594.426 846.91 595.794 846.228L595.943 846.148C597.202 845.551 598.446 844.913 599.696 844.236C599.971 844.092 600.245 843.948 600.479 843.819L601.825 842.996C602.187 842.783 602.552 842.551 602.914 842.338L604.965 841.088C605.755 840.611 607.177 839.659 609.305 837.944L609.414 837.858L609.613 837.685C610.711 836.792 611.989 835.723 613.456 834.401C613.48 834.364 613.524 834.33 613.546 834.313C614.991 833.008 617.456 830.641 620.208 827.223L620.279 827.133C620.91 826.341 621.565 825.512 622.208 824.622C622.492 824.242 622.759 823.84 623.045 823.44C623.428 822.894 623.812 822.348 624.13 821.853C624.229 821.687 624.328 821.522 624.447 821.358C625.008 820.498 625.551 819.616 626.101 818.675C626.85 817.403 627.583 816.109 628.137 814.972C629.124 813.056 630.049 810.995 630.889 808.825C631.426 807.507 631.907 806.163 632.296 804.925C632.739 803.576 633.147 802.183 633.502 800.744C633.581 800.418 633.661 800.091 633.738 799.785C634.213 797.846 634.601 795.818 634.898 793.72C634.908 793.642 634.917 793.564 634.924 793.505L634.941 793.369C635.164 791.716 635.352 790.019 635.468 788.274L635.611 788.074Z" fill="url(#paint0_radial_79_2055)"/>
<path d="M633.335 764.586C633.235 764.119 633.112 763.669 632.989 763.219C633.095 763.647 633.215 764.116 633.335 764.586Z" fill="url(#paint1_linear_79_2055)"/>
<path d="M497.209 786.362C497.179 785.963 497.149 785.564 497.139 785.167C497.149 785.564 497.179 785.963 497.209 786.362Z" fill="url(#paint2_linear_79_2055)"/>
<path d="M518.822 739.455C518.139 740.992 517.2 742.043 516.928 742.326C509.563 749.982 506.839 754.135 503.541 760.55C502.935 761.781 502.675 761.966 502.483 762.081L502.289 762.057C501.787 760.829 504.318 753.094 513.084 742.882C511.59 743.134 510.418 743.345 509.888 743.953C511.174 742.173 512.887 739.813 514.283 738.107C515.408 737.316 516.077 737.181 519.084 736.838C519.632 736.886 519.684 737.267 519.282 738.286C519.115 738.68 518.95 739.055 518.803 739.452" fill="#412121"/>
<path d="M568.365 720.906C568.225 721.508 566.158 722.454 562.165 723.743C560.519 724.272 556.735 725.626 550.01 728.715C555.425 729.854 558.412 730.478 565.521 732.794C568.971 734.324 567.495 737.168 565.299 737.985C564.616 738.238 563.521 738.459 562.23 738.024C554.646 735.551 550.161 734.249 541.937 732.962C540.744 732.697 540.332 732.192 540.502 731.125C540.587 730.76 540.693 730.378 540.794 730.034C542.294 725.869 563.689 719.383 563.895 719.309C564.428 719.157 564.791 719.103 565.365 719.094C568.186 719.144 568.505 720.409 568.384 720.908" fill="#412121"/>
<path d="M571.396 757.238C563.196 795.037 522.221 817.545 504.986 793.702C502.401 790.123 494.72 777.813 504.812 769.839C520.706 757.281 544.763 751.971 561.468 749.06C563.504 748.737 567.032 748.181 567.906 748.15C573.227 748.764 572.371 752.672 571.398 757.218" fill="white"/>
<defs>
<radialGradient id="paint0_radial_79_2055" cx="0" cy="0" r="1" gradientUnits="userSpaceOnUse" gradientTransform="translate(569.331 794.911) rotate(6.76999) scale(79.3256 79.3302)">
<stop stop-color="#F79F40"/>
<stop offset="0.16" stop-color="#F7A442"/>
<stop offset="0.37" stop-color="#F8B449"/>
<stop offset="0.6" stop-color="#F9CE55"/>
<stop offset="0.77" stop-color="#FBE660"/>
<stop offset="0.91" stop-color="#FBF36F"/>
<stop offset="0.93" stop-color="#FBF672"/>
<stop offset="0.95" stop-color="#FBF676"/>
<stop offset="0.96" stop-color="#FBF782"/>
<stop offset="0.98" stop-color="#FBF897"/>
<stop offset="0.99" stop-color="#FCFAB4"/>
<stop offset="1" stop-color="#FDFBC2"/>
</radialGradient>
<linearGradient id="paint1_linear_79_2055" x1="632.846" y1="763.906" x2="633.352" y2="763.969" gradientUnits="userSpaceOnUse">
<stop stop-color="#19B79C"/>
<stop offset="0.4" stop-color="#1DBB9D"/>
<stop offset="0.82" stop-color="#29C7A2"/>
<stop offset="1" stop-color="#31CFA6"/>
</linearGradient>
<linearGradient id="paint2_linear_79_2055" x1="496.997" y1="785.77" x2="497.23" y2="785.799" gradientUnits="userSpaceOnUse">
<stop stop-color="#19B79C"/>
<stop offset="0.4" stop-color="#1DBB9D"/>
<stop offset="0.82" stop-color="#29C7A2"/>
<stop offset="1" stop-color="#31CFA6"/>
</linearGradient>
</defs>
</svg>
