<svg width="500" height="250" viewBox="0 0 500 250" fill="none" xmlns="http://www.w3.org/2000/svg">
<rect width="500" height="250" fill="white"/>
<path d="M68.589 76.98H113.409V94.08H100.929V88.8H68.289V86.58H100.929V79.2H68.589V76.98ZM118.869 99.42H63.549V97.2H118.869V99.42ZM111.429 115.5C113.149 115.5 114.289 115.9 114.849 116.7C115.409 117.5 115.689 118.56 115.689 119.88C115.689 120.4 115.589 120.96 115.389 121.56C115.189 122.2 114.769 122.78 114.129 123.3C113.529 123.86 112.649 124.32 111.489 124.68C110.369 125.04 108.889 125.22 107.049 125.22H72.129C69.809 125.22 68.649 124.1 68.649 121.86V113.76H101.829V107.52H68.469V105.3H113.469V113.7C112.749 113.46 112.009 113.34 111.249 113.34C110.329 113.34 109.469 113.56 108.669 114C107.909 114.4 107.329 115.06 106.929 115.98H80.289V121.8C80.289 122.04 80.349 122.3 80.469 122.58C80.589 122.86 80.909 123 81.429 123H105.369C106.529 123 107.269 122.74 107.589 122.22C107.909 121.74 107.989 121.04 107.829 120.12C107.789 119.76 107.789 119.32 107.829 118.8C107.909 118.24 108.069 117.72 108.309 117.24C108.589 116.76 108.969 116.36 109.449 116.04C109.969 115.68 110.629 115.5 111.429 115.5ZM136.629 95.16V117.3C136.629 117.7 136.749 118.06 136.989 118.38C137.229 118.7 137.609 118.84 138.129 118.8C139.289 118.76 140.529 118.6 141.849 118.32C143.169 118 144.509 117.64 145.869 117.24C147.229 116.8 148.549 116.34 149.829 115.86C151.149 115.38 152.369 114.94 153.489 114.54V78H151.149V76.26H162.969V93.12H167.169V78H164.889V76.26H179.229V78H176.649V120.48C176.649 121.04 176.809 121.4 177.129 121.56C177.449 121.72 177.829 121.8 178.269 121.8H179.589V123.66H150.789V121.8H152.229C152.789 121.8 153.129 121.64 153.249 121.32C153.409 121 153.489 120.7 153.489 120.42V117.06C152.009 117.58 150.389 118.14 148.629 118.74C146.869 119.34 144.989 119.88 142.989 120.36C141.029 120.88 138.949 121.3 136.749 121.62C134.589 121.98 132.369 122.16 130.089 122.16C128.369 122.16 127.169 121.7 126.489 120.78C125.849 119.86 125.529 118.62 125.529 117.06V92.94H137.529V79.98H125.289V77.76H148.449V95.16H136.629ZM162.969 120.72C163.009 121.12 163.149 121.38 163.389 121.5C163.629 121.66 163.909 121.76 164.229 121.8H165.909C166.469 121.8 166.809 121.64 166.929 121.32C167.089 121 167.169 120.7 167.169 120.42V95.88H162.969V120.72ZM221.589 76.26H239.049V78.12H235.929V104.64H224.889V78.12H221.589V76.26ZM196.149 79.44H192.309V77.7H207.729V86.46C207.729 89.5 208.069 91.96 208.749 93.84C209.429 95.72 210.349 97.2 211.509 98.28C212.669 99.36 214.029 100.1 215.589 100.5C217.189 100.9 218.889 101.16 220.689 101.28V103.5C218.449 103.5 216.329 103.3 214.329 102.9C212.369 102.5 210.589 101.82 208.989 100.86C207.389 99.86 206.009 98.56 204.849 96.96C203.689 95.36 202.809 93.36 202.209 90.96C201.689 93.44 200.749 95.52 199.389 97.2C198.029 98.88 196.469 100.24 194.709 101.28C192.949 102.28 191.089 103 189.129 103.44C187.169 103.84 185.309 104.02 183.549 103.98V101.76C185.989 101.76 188.009 101.34 189.609 100.5C191.249 99.66 192.549 98.54 193.509 97.14C194.469 95.74 195.149 94.14 195.549 92.34C195.949 90.5 196.149 88.56 196.149 86.52V79.44ZM223.809 125.4V110.28H187.989V108.06H235.929V125.4H223.809ZM260.731 77.76H293.251V79.98H275.851V92.1H292.051V94.32H275.851V117.42C275.851 117.82 275.971 118.18 276.211 118.5C276.451 118.78 276.831 118.92 277.351 118.92C278.671 118.92 280.331 118.76 282.331 118.44C284.371 118.08 286.471 117.66 288.631 117.18C290.831 116.7 292.991 116.18 295.111 115.62C297.231 115.06 299.051 114.56 300.571 114.12V78.12H297.271V76.26H314.731V78.12H311.611V91.98H319.531V94.74H311.611V120.48C311.611 121.04 311.771 121.4 312.091 121.56C312.411 121.72 312.791 121.8 313.231 121.8H315.151V123.66H297.271V121.8H299.311C299.871 121.8 300.211 121.64 300.331 121.32C300.491 121 300.571 120.7 300.571 120.42V116.7C298.891 117.18 296.791 117.74 294.271 118.38C291.791 119.02 289.111 119.6 286.231 120.12C283.351 120.68 280.391 121.16 277.351 121.56C274.311 121.96 271.431 122.16 268.711 122.16C266.991 122.16 265.791 121.7 265.111 120.78C264.471 119.86 264.151 118.62 264.151 117.06V79.5H260.731V77.76ZM358.171 76.26H375.631V78.12H372.511V102.3H361.471V78.12H358.171V76.26ZM320.731 89.22C320.731 86.74 321.051 84.72 321.691 83.16C322.331 81.6 323.311 80.38 324.631 79.5C325.991 78.62 327.711 78.02 329.791 77.7C331.911 77.34 334.411 77.16 337.291 77.16C340.171 77.16 342.611 77.34 344.611 77.7C346.651 78.02 348.311 78.62 349.591 79.5C350.911 80.38 351.851 81.6 352.411 83.16C353.011 84.72 353.311 86.74 353.311 89.22C353.311 91.66 353.011 93.66 352.411 95.22C351.851 96.78 350.931 98.02 349.651 98.94C348.371 99.82 346.711 100.42 344.671 100.74C342.631 101.06 340.171 101.22 337.291 101.22C334.411 101.22 331.931 101.06 329.851 100.74C327.771 100.42 326.051 99.82 324.691 98.94C323.331 98.02 322.331 96.78 321.691 95.22C321.051 93.66 320.731 91.66 320.731 89.22ZM338.671 98.94C339.551 98.94 340.251 98.8 340.771 98.52C341.331 98.24 341.751 97.86 342.031 97.38C342.351 96.9 342.571 96.36 342.691 95.76C342.811 95.16 342.871 94.56 342.871 93.96V84.24C342.871 83.6 342.811 82.98 342.691 82.38C342.571 81.78 342.351 81.24 342.031 80.76C341.751 80.28 341.331 79.9 340.771 79.62C340.251 79.34 339.551 79.2 338.671 79.2H335.791C334.911 79.2 334.191 79.34 333.631 79.62C333.111 79.9 332.691 80.28 332.371 80.76C332.051 81.24 331.831 81.78 331.711 82.38C331.591 82.98 331.531 83.6 331.531 84.24V93.96C331.531 94.56 331.591 95.16 331.711 95.76C331.831 96.36 332.051 96.9 332.371 97.38C332.691 97.86 333.111 98.24 333.631 98.52C334.191 98.8 334.911 98.94 335.791 98.94H338.671ZM337.291 113.28H361.351V106.2H372.571V125.22H361.351V123.6C358.791 123.92 356.131 124.18 353.371 124.38C350.651 124.62 347.931 124.8 345.211 124.92C342.491 125.04 339.791 125.12 337.111 125.16C334.471 125.2 331.931 125.22 329.491 125.22C327.171 125.22 326.011 124.1 326.011 121.86V107.94H323.251V106.2H337.291V113.28ZM338.611 122.76C340.131 122.8 341.831 122.78 343.711 122.7C345.631 122.66 347.591 122.58 349.591 122.46C351.591 122.34 353.591 122.18 355.591 121.98C357.631 121.82 359.551 121.62 361.351 121.38V115.62H337.291V121.56C337.291 122.08 337.411 122.4 337.651 122.52C337.931 122.68 338.251 122.76 338.611 122.76ZM402.031 78.36H386.851V76.2H402.031V78.36ZM403.351 95.46H410.251V78H407.911V76.26H419.731V120.72C419.771 121.16 419.951 121.44 420.271 121.56C420.591 121.72 420.951 121.8 421.351 121.8H422.191C422.671 121.72 422.971 121.52 423.091 121.2C423.211 120.92 423.271 120.66 423.271 120.42V78H421.291V76.26H435.331V78H432.751V120.48C432.751 121.04 432.911 121.4 433.231 121.56C433.551 121.72 433.931 121.8 434.371 121.8H435.691V123.66H407.551V121.8H408.991C409.551 121.8 409.891 121.64 410.011 121.32C410.171 121 410.251 120.7 410.251 120.42V98.22H403.351V95.46ZM377.971 119.16C377.971 117.96 378.371 116.94 379.171 116.1C380.011 115.26 381.051 114.84 382.291 114.84C383.491 114.84 384.511 115.26 385.351 116.1C386.191 116.94 386.611 117.96 386.611 119.16V119.52C387.411 118.44 388.011 117.12 388.411 115.56C388.811 113.96 389.091 112.2 389.251 110.28C389.411 108.32 389.471 106.22 389.431 103.98C389.431 101.74 389.431 99.42 389.431 97.02V84.78H381.871V82.62H407.011V84.78H400.471V99.96C400.471 100.72 400.451 101.7 400.411 102.9C400.411 104.06 400.451 105.34 400.531 106.74C400.611 108.1 400.751 109.52 400.951 111C401.151 112.44 401.471 113.82 401.911 115.14C402.351 116.46 402.931 117.66 403.651 118.74C404.411 119.78 405.351 120.6 406.471 121.2V123.48C404.831 123.08 403.391 122.3 402.151 121.14C400.911 120.02 399.831 118.68 398.911 117.12C397.991 115.56 397.231 113.84 396.631 111.96C396.031 110.08 395.551 108.18 395.191 106.26C394.671 108.66 393.951 110.9 393.031 112.98C392.151 115.02 391.151 116.82 390.031 118.38C388.911 119.9 387.711 121.1 386.431 121.98C385.151 122.9 383.871 123.4 382.591 123.48H382.231C381.031 123.48 380.011 123.06 379.171 122.22C378.371 121.42 377.971 120.4 377.971 119.16ZM144.118 165.08C143.798 165.96 143.411 166.813 142.958 167.64C142.531 168.44 141.958 169.147 141.238 169.76C140.544 170.373 139.678 170.867 138.638 171.24C137.624 171.613 136.358 171.8 134.838 171.8C132.198 171.8 129.971 171.507 128.158 170.92C126.371 170.36 124.918 169.467 123.798 168.24C122.704 166.987 121.918 165.4 121.438 163.48C120.958 161.56 120.718 159.24 120.718 156.52C120.718 154.2 120.864 152.053 121.158 150.08C121.451 148.08 122.078 146.36 123.038 144.92C124.024 143.453 125.438 142.307 127.278 141.48C129.144 140.653 131.651 140.24 134.798 140.24C135.758 140.24 136.611 140.333 137.358 140.52C138.131 140.68 138.798 140.88 139.358 141.12C139.944 141.36 140.411 141.613 140.758 141.88C141.131 142.12 141.398 142.333 141.558 142.52V140.64H143.078V148.48H141.558V146.48C141.371 145.787 141.104 145.133 140.758 144.52C140.438 143.907 139.998 143.373 139.438 142.92C138.904 142.467 138.264 142.12 137.518 141.88C136.771 141.613 135.878 141.48 134.838 141.48C133.344 141.48 132.158 141.773 131.278 142.36C130.424 142.92 129.771 143.773 129.318 144.92C128.891 146.067 128.611 147.507 128.478 149.24C128.371 150.973 128.318 152.987 128.318 155.28C128.318 157.947 128.384 160.24 128.518 162.16C128.678 164.053 128.984 165.627 129.438 166.88C129.918 168.107 130.584 169.013 131.438 169.6C132.291 170.187 133.424 170.48 134.838 170.48C136.784 170.48 138.318 170.013 139.438 169.08C140.584 168.147 141.411 166.573 141.918 164.36L144.118 165.08ZM157.506 170.2H160.306V171.44H147.106V170.2H149.906V141.64H147.106V140.4H157.506V170.2ZM171.573 153.96C171.573 154.893 171.266 155.64 170.653 156.2C170.066 156.733 169.226 157 168.133 157C166.906 157 166.013 156.653 165.453 155.96C164.893 155.267 164.613 154.507 164.613 153.68C164.613 152.747 164.88 151.947 165.413 151.28C165.973 150.613 166.706 150.08 167.613 149.68C168.52 149.253 169.56 148.947 170.733 148.76C171.933 148.573 173.173 148.48 174.453 148.48C176.693 148.48 178.52 148.76 179.933 149.32C181.373 149.853 182.493 150.547 183.293 151.4C184.12 152.227 184.68 153.133 184.973 154.12C185.293 155.08 185.453 155.987 185.453 156.84V170.2H187.773V171.44H177.853V170.2C176.973 170.813 175.946 171.24 174.773 171.48C173.626 171.72 172.386 171.84 171.053 171.84C169.933 171.84 168.88 171.68 167.893 171.36C166.933 171.04 166.08 170.587 165.333 170C164.613 169.413 164.04 168.72 163.613 167.92C163.186 167.093 162.973 166.187 162.973 165.2C162.973 164.507 163.04 163.867 163.173 163.28C163.306 162.693 163.546 162.16 163.893 161.68C164.266 161.2 164.746 160.773 165.333 160.4C165.946 160 166.733 159.64 167.693 159.32C168.68 159 169.76 158.773 170.933 158.64C172.106 158.48 173.2 158.293 174.213 158.08C175.253 157.867 176.12 157.573 176.813 157.2C177.506 156.8 177.853 156.2 177.853 155.4V154.24C177.853 153.92 177.84 153.507 177.813 153C177.813 152.493 177.706 152 177.493 151.52C177.28 151.04 176.893 150.627 176.333 150.28C175.8 149.907 175.013 149.72 173.973 149.72C173.68 149.72 173.32 149.747 172.893 149.8C172.466 149.853 172.04 149.92 171.613 150C171.186 150.08 170.786 150.173 170.413 150.28C170.066 150.387 169.813 150.507 169.653 150.64C170.373 150.933 170.866 151.387 171.133 152C171.426 152.587 171.573 153.24 171.573 153.96ZM177.853 158.12C177.48 158.493 176.986 158.8 176.373 159.04C175.786 159.28 175.173 159.547 174.533 159.84C174 160.08 173.48 160.333 172.973 160.6C172.493 160.867 172.066 161.2 171.693 161.6C171.32 162 171.026 162.493 170.813 163.08C170.6 163.667 170.493 164.387 170.493 165.24C170.493 165.773 170.533 166.333 170.613 166.92C170.72 167.48 170.906 168 171.173 168.48C171.466 168.933 171.866 169.307 172.373 169.6C172.88 169.893 173.546 170.04 174.373 170.04C174.72 170.04 175.093 169.987 175.493 169.88C175.893 169.8 176.266 169.653 176.613 169.44C176.96 169.227 177.253 168.96 177.493 168.64C177.733 168.32 177.853 167.92 177.853 167.44V158.12ZM191.871 166.96C191.925 167.12 192.191 167.4 192.671 167.8C193.151 168.173 193.751 168.56 194.471 168.96C195.218 169.36 196.045 169.707 196.951 170C197.885 170.32 198.805 170.48 199.711 170.48C200.191 170.48 200.671 170.44 201.151 170.36C201.631 170.28 202.058 170.12 202.431 169.88C202.805 169.667 203.098 169.373 203.311 169C203.551 168.6 203.671 168.093 203.671 167.48C203.671 166.947 203.591 166.467 203.431 166.04C203.271 165.587 202.991 165.16 202.591 164.76C202.191 164.36 201.645 163.973 200.951 163.6C200.258 163.2 199.378 162.8 198.311 162.4C196.685 161.787 195.338 161.187 194.271 160.6C193.231 160.013 192.405 159.427 191.791 158.84C191.205 158.227 190.791 157.587 190.551 156.92C190.311 156.253 190.191 155.533 190.191 154.76C190.191 153.453 190.485 152.4 191.071 151.6C191.685 150.773 192.471 150.133 193.431 149.68C194.391 149.2 195.471 148.88 196.671 148.72C197.898 148.56 199.111 148.48 200.311 148.48C201.725 148.48 203.085 148.667 204.391 149.04C205.698 149.413 206.765 149.867 207.591 150.4V149.24H209.111V155.36H207.591V152.6C207.405 152.387 207.111 152.12 206.711 151.8C206.338 151.48 205.871 151.173 205.311 150.88C204.778 150.587 204.178 150.333 203.511 150.12C202.845 149.907 202.138 149.8 201.391 149.8C199.818 149.8 198.725 150.093 198.111 150.68C197.498 151.24 197.191 151.92 197.191 152.72C197.191 152.987 197.218 153.307 197.271 153.68C197.351 154.027 197.565 154.413 197.911 154.84C198.285 155.267 198.831 155.707 199.551 156.16C200.298 156.613 201.325 157.067 202.631 157.52C205.085 158.373 206.978 159.427 208.311 160.68C209.671 161.933 210.351 163.32 210.351 164.84C210.351 166.227 210.085 167.373 209.551 168.28C209.045 169.16 208.338 169.853 207.431 170.36C206.525 170.893 205.445 171.253 204.191 171.44C202.965 171.653 201.645 171.76 200.231 171.76C199.405 171.76 198.591 171.68 197.791 171.52C197.018 171.36 196.271 171.16 195.551 170.92C194.831 170.68 194.151 170.413 193.511 170.12C192.898 169.827 192.351 169.547 191.871 169.28V171.28H190.351V164.84H191.871V166.96ZM214.137 166.96C214.19 167.12 214.457 167.4 214.937 167.8C215.417 168.173 216.017 168.56 216.737 168.96C217.484 169.36 218.31 169.707 219.217 170C220.15 170.32 221.07 170.48 221.977 170.48C222.457 170.48 222.937 170.44 223.417 170.36C223.897 170.28 224.324 170.12 224.697 169.88C225.07 169.667 225.364 169.373 225.577 169C225.817 168.6 225.937 168.093 225.937 167.48C225.937 166.947 225.857 166.467 225.697 166.04C225.537 165.587 225.257 165.16 224.857 164.76C224.457 164.36 223.91 163.973 223.217 163.6C222.524 163.2 221.644 162.8 220.577 162.4C218.95 161.787 217.604 161.187 216.537 160.6C215.497 160.013 214.67 159.427 214.057 158.84C213.47 158.227 213.057 157.587 212.817 156.92C212.577 156.253 212.457 155.533 212.457 154.76C212.457 153.453 212.75 152.4 213.337 151.6C213.95 150.773 214.737 150.133 215.697 149.68C216.657 149.2 217.737 148.88 218.937 148.72C220.164 148.56 221.377 148.48 222.577 148.48C223.99 148.48 225.35 148.667 226.657 149.04C227.964 149.413 229.03 149.867 229.857 150.4V149.24H231.377V155.36H229.857V152.6C229.67 152.387 229.377 152.12 228.977 151.8C228.604 151.48 228.137 151.173 227.577 150.88C227.044 150.587 226.444 150.333 225.777 150.12C225.11 149.907 224.404 149.8 223.657 149.8C222.084 149.8 220.99 150.093 220.377 150.68C219.764 151.24 219.457 151.92 219.457 152.72C219.457 152.987 219.484 153.307 219.537 153.68C219.617 154.027 219.83 154.413 220.177 154.84C220.55 155.267 221.097 155.707 221.817 156.16C222.564 156.613 223.59 157.067 224.897 157.52C227.35 158.373 229.244 159.427 230.577 160.68C231.937 161.933 232.617 163.32 232.617 164.84C232.617 166.227 232.35 167.373 231.817 168.28C231.31 169.16 230.604 169.853 229.697 170.36C228.79 170.893 227.71 171.253 226.457 171.44C225.23 171.653 223.91 171.76 222.497 171.76C221.67 171.76 220.857 171.68 220.057 171.52C219.284 171.36 218.537 171.16 217.817 170.92C217.097 170.68 216.417 170.413 215.777 170.12C215.164 169.827 214.617 169.547 214.137 169.28V171.28H212.617V164.84H214.137V166.96ZM244.723 142.16C244.723 142.667 244.616 143.147 244.403 143.6C244.216 144.053 243.949 144.453 243.603 144.8C243.283 145.12 242.896 145.373 242.443 145.56C242.016 145.747 241.549 145.84 241.043 145.84C240.003 145.84 239.123 145.493 238.403 144.8C237.683 144.08 237.323 143.2 237.323 142.16C237.323 141.12 237.683 140.253 238.403 139.56C239.123 138.84 240.003 138.48 241.043 138.48C241.549 138.48 242.016 138.573 242.443 138.76C242.896 138.947 243.283 139.213 243.603 139.56C243.949 139.88 244.216 140.267 244.403 140.72C244.616 141.147 244.723 141.627 244.723 142.16ZM245.163 170.2H247.963V171.44H234.763V170.2H237.563V150.08H234.763V148.84H245.163V170.2ZM262.428 148.48C263.335 148.48 264.242 148.6 265.148 148.84C266.082 149.08 266.922 149.427 267.668 149.88C268.442 150.307 269.068 150.853 269.548 151.52C270.028 152.16 270.268 152.893 270.268 153.72C270.268 154.84 270.002 155.733 269.468 156.4C268.935 157.04 268.082 157.36 266.908 157.36C265.842 157.36 264.975 157.067 264.308 156.48C263.668 155.893 263.348 155.067 263.348 154C263.348 153.147 263.588 152.4 264.068 151.76C264.575 151.12 265.282 150.72 266.188 150.56C265.895 150.347 265.428 150.16 264.788 150C264.175 149.813 263.575 149.72 262.988 149.72C261.975 149.72 261.108 149.92 260.388 150.32C259.695 150.693 259.228 151.28 258.988 152.08C258.855 152.507 258.748 153.013 258.668 153.6C258.615 154.187 258.575 154.8 258.548 155.44C258.548 156.08 258.548 156.733 258.548 157.4C258.548 158.067 258.548 158.693 258.548 159.28C258.548 160.107 258.548 160.933 258.548 161.76C258.575 162.56 258.602 163.347 258.628 164.12C258.682 164.867 258.748 165.573 258.828 166.24C258.935 166.907 259.068 167.493 259.228 168C259.575 168.987 260.148 169.667 260.948 170.04C261.748 170.413 262.575 170.6 263.428 170.6C264.842 170.6 265.988 170.253 266.868 169.56C267.775 168.893 268.588 167.827 269.308 166.36L271.228 167.32C270.322 168.84 269.242 169.973 267.988 170.72C266.762 171.467 265.162 171.84 263.188 171.84C261.508 171.84 259.922 171.667 258.428 171.32C256.935 170.973 255.628 170.36 254.508 169.48C253.415 168.6 252.548 167.4 251.908 165.88C251.268 164.36 250.948 162.427 250.948 160.08C250.948 156.027 251.868 153.08 253.708 151.24C255.575 149.4 258.482 148.48 262.428 148.48ZM300.341 140.4V148.24H298.821V141.64H290.141V170.2H292.941V171.44H279.741V170.2H282.541V141.64H273.861V148.24H272.341V140.4H300.341ZM301.091 175.8C301.091 175.293 301.198 174.813 301.411 174.36C301.598 173.907 301.851 173.507 302.171 173.16C302.518 172.84 302.918 172.573 303.371 172.36C303.825 172.173 304.305 172.08 304.811 172.08C305.318 172.08 305.798 172.173 306.251 172.36C306.705 172.573 307.091 172.84 307.411 173.16C307.758 173.507 308.025 173.907 308.211 174.36C308.425 174.813 308.531 175.293 308.531 175.8C308.531 176.467 308.358 177.08 308.011 177.64C308.598 177.32 309.105 176.88 309.531 176.32C309.958 175.76 310.358 175.12 310.731 174.4L312.531 170.44L303.611 150.12H301.731V148.88H313.691V150.12H311.291L316.451 162.8L322.091 150.12H319.171V148.88H325.731V150.12H324.091L312.211 175.36C311.865 176.107 311.411 176.747 310.851 177.28C310.318 177.84 309.718 178.28 309.051 178.6C308.385 178.947 307.691 179.2 306.971 179.36C306.251 179.52 305.531 179.573 304.811 179.52C304.305 179.52 303.825 179.413 303.371 179.2C302.918 179.013 302.518 178.747 302.171 178.4C301.851 178.08 301.598 177.693 301.411 177.24C301.198 176.787 301.091 176.307 301.091 175.8ZM327.145 176.56H329.945V150.12H327.145V148.88H337.505V149.84C338.172 149.307 338.879 148.947 339.625 148.76C340.372 148.573 341.212 148.48 342.145 148.48C343.772 148.48 345.212 148.707 346.465 149.16C347.745 149.587 348.825 150.28 349.705 151.24C350.585 152.2 351.252 153.453 351.705 155C352.159 156.52 352.385 158.36 352.385 160.52C352.385 161.987 352.239 163.4 351.945 164.76C351.679 166.12 351.172 167.333 350.425 168.4C349.679 169.44 348.665 170.267 347.385 170.88C346.132 171.52 344.505 171.84 342.505 171.84C341.439 171.84 340.532 171.693 339.785 171.4C339.039 171.107 338.279 170.693 337.505 170.16V176.56H340.305V177.8H327.145V176.56ZM337.505 167.96C337.879 168.92 338.399 169.587 339.065 169.96C339.759 170.36 340.465 170.56 341.185 170.56C342.039 170.56 342.705 170.413 343.185 170.12C343.665 169.827 344.025 169.467 344.265 169.04C344.505 168.613 344.652 168.147 344.705 167.64C344.759 167.107 344.785 166.627 344.785 166.2V153.84C344.785 152.373 344.479 151.32 343.865 150.68C343.279 150.04 342.385 149.72 341.185 149.72C340.625 149.72 340.145 149.8 339.745 149.96C339.345 150.12 338.999 150.32 338.705 150.56C338.439 150.773 338.199 151.013 337.985 151.28C337.799 151.547 337.639 151.787 337.505 152V167.96ZM377.388 166.8C377.148 167.36 376.814 167.947 376.388 168.56C375.961 169.147 375.401 169.68 374.708 170.16C374.014 170.64 373.161 171.027 372.148 171.32C371.134 171.64 369.908 171.8 368.468 171.8C365.961 171.8 363.894 171.493 362.268 170.88C360.641 170.293 359.361 169.493 358.428 168.48C357.521 167.44 356.881 166.253 356.508 164.92C356.161 163.56 355.988 162.133 355.988 160.64C355.988 158 356.281 155.88 356.868 154.28C357.481 152.68 358.308 151.453 359.348 150.6C360.388 149.72 361.614 149.147 363.028 148.88C364.468 148.613 366.014 148.48 367.668 148.48C369.721 148.48 371.428 148.773 372.788 149.36C374.174 149.92 375.281 150.747 376.108 151.84C376.934 152.907 377.521 154.213 377.868 155.76C378.214 157.307 378.401 159.04 378.428 160.96H363.588V163.8C363.588 165.133 363.694 166.24 363.908 167.12C364.148 167.973 364.481 168.653 364.908 169.16C365.361 169.693 365.908 170.053 366.548 170.24C367.214 170.453 367.974 170.56 368.828 170.56C370.428 170.56 371.801 170.173 372.948 169.4C374.094 168.627 374.908 167.467 375.388 165.92L377.388 166.8ZM367.468 149.72C366.854 149.72 366.308 149.813 365.828 150C365.348 150.187 364.934 150.52 364.588 151C364.268 151.48 364.014 152.147 363.828 153C363.668 153.827 363.588 154.907 363.588 156.24V159.56H370.508V155.76C370.561 153.573 370.361 152.027 369.908 151.12C369.454 150.187 368.641 149.72 367.468 149.72Z" fill="black"/>
</svg>
