<svg width="500" height="250" viewBox="0 0 500 250" fill="none" xmlns="http://www.w3.org/2000/svg">
<rect width="500" height="250" fill="white"/>
<path d="M172.567 119.3V128.12C172.567 129.16 172.387 129.9 172.027 130.34C171.667 130.78 171.027 131 170.107 131H161.827C160.907 131 160.267 130.78 159.907 130.34C159.547 129.9 159.367 129.16 159.367 128.12V119.54L146.587 119.72C145.147 119.72 144.427 119.08 144.427 117.8V110.72C144.427 109.44 145.147 108.8 146.587 108.8L171.547 108.44L171.847 104.72L148.267 105.38C146.827 105.46 146.107 104.82 146.107 103.46V95.78C146.107 95.1 146.287 94.62 146.647 94.34C147.007 94.06 147.547 93.9 148.267 93.86L172.747 93.38L173.047 89.96L147.247 90.56C145.807 90.64 145.087 90 145.087 88.64V80.36C145.087 79.08 145.807 78.44 147.247 78.44L184.087 77.84C185.007 77.84 185.667 78.06 186.067 78.5C186.467 78.94 186.627 79.68 186.547 80.72L184.567 108.2H185.347C186.787 108.2 187.507 108.84 187.507 110.12V117.2C187.507 118.48 186.787 119.12 185.347 119.12L172.567 119.3ZM209.786 108.92L196.646 109.22C195.206 109.3 194.486 108.66 194.486 107.3V99.02C194.486 98.34 194.666 97.86 195.026 97.58C195.386 97.3 195.926 97.14 196.646 97.1L210.806 96.68L211.346 90.74L195.266 91.16C193.826 91.24 193.106 90.6 193.106 89.24V80.36C193.106 79.68 193.286 79.2 193.646 78.92C194.006 78.64 194.546 78.48 195.266 78.44L222.566 77.84C224.366 77.76 225.186 78.72 225.026 80.72L221.966 120.92C221.886 121.96 221.666 122.7 221.306 123.14C220.986 123.58 220.386 123.8 219.506 123.8H211.286C210.446 123.8 209.806 123.58 209.366 123.14C208.926 122.7 208.746 121.96 208.826 120.92L209.786 108.92ZM228.206 82.04C228.206 80.04 229.066 79.04 230.786 79.04H238.826C240.546 79.04 241.406 80.04 241.406 82.04V119.6C241.406 121.6 240.546 122.6 238.826 122.6H230.786C229.066 122.6 228.206 121.6 228.206 119.6V82.04ZM261.349 100.22V102.56L273.049 102.14C274.489 102.1 275.209 102.74 275.209 104.06V110.66C275.209 111.34 275.029 111.82 274.669 112.1C274.309 112.38 273.769 112.54 273.049 112.58L250.609 113.18C249.729 113.22 249.089 113.02 248.689 112.58C248.329 112.1 248.149 111.34 248.149 110.3L247.969 94.34C247.969 93.3 248.149 92.6 248.509 92.24C248.869 91.84 249.509 91.58 250.429 91.46L261.709 90.08L261.769 87.8L249.289 88.22C247.849 88.3 247.129 87.66 247.129 86.3V79.76C247.129 79.08 247.309 78.6 247.669 78.32C248.029 78.04 248.569 77.88 249.289 77.84L272.989 77.24C273.909 77.2 274.549 77.42 274.909 77.9C275.309 78.34 275.489 79.08 275.449 80.12L274.969 96.26C274.929 97.3 274.729 98.02 274.369 98.42C274.049 98.78 273.449 99 272.569 99.08L261.349 100.22ZM282.229 100.82L279.229 100.88C277.789 100.96 277.069 100.32 277.069 98.96V90.68C277.069 90 277.249 89.52 277.609 89.24C277.969 88.96 278.509 88.8 279.229 88.76L282.229 88.7V80.84C282.229 78.84 283.089 77.84 284.809 77.84H292.849C294.569 77.84 295.429 78.84 295.429 80.84V112.4C295.429 114.4 294.569 115.4 292.849 115.4H284.809C283.089 115.4 282.229 114.4 282.229 112.4V100.82ZM259.789 134.24C258.069 134.28 257.209 133.28 257.209 131.24V118.64C257.209 116.64 258.069 115.64 259.789 115.64H267.829C269.549 115.64 270.409 116.64 270.409 118.64V122L292.009 121.52C293.449 121.48 294.169 122.28 294.169 123.92V131.24C294.169 132.8 293.409 133.6 291.889 133.64L259.789 134.24ZM314.533 115.88L310.333 123.44C310.013 124.04 309.593 124.34 309.073 124.34C308.593 124.34 308.073 124.16 307.513 123.8L300.913 119.36C300.353 118.96 300.053 118.52 300.013 118.04C299.973 117.56 300.113 117 300.433 116.36L306.913 103.76C307.233 103.16 307.473 102.58 307.633 102.02C307.793 101.42 307.873 100.76 307.873 100.04V92.84L303.313 92.96C302.473 93 301.893 92.84 301.573 92.48C301.293 92.12 301.153 91.42 301.153 90.38V83.42C301.153 82.38 301.293 81.7 301.573 81.38C301.893 81.06 302.473 80.88 303.313 80.84L307.873 80.72V77.48C307.873 76.44 308.073 75.7 308.473 75.26C308.873 74.82 309.493 74.6 310.333 74.6H318.613C319.453 74.6 320.073 74.82 320.473 75.26C320.873 75.7 321.073 76.44 321.073 77.48V80.36L325.513 80.24C326.393 80.2 326.973 80.36 327.253 80.72C327.533 81.08 327.673 81.78 327.673 82.82V89.78C327.673 90.82 327.533 91.5 327.253 91.82C326.973 92.14 326.393 92.32 325.513 92.36L321.073 92.48V100.04C321.073 100.76 321.133 101.42 321.253 102.02C321.413 102.62 321.673 103.2 322.033 103.76L328.093 114.02C328.493 114.66 328.713 115.28 328.753 115.88C328.833 116.44 328.593 116.94 328.033 117.38L321.313 122.48C320.793 122.88 320.273 123.06 319.753 123.02C319.273 123.02 318.873 122.74 318.553 122.18L314.533 115.88ZM330.433 105.44L326.053 105.62C324.613 105.7 323.893 105.06 323.893 103.7V96.02C323.893 95.34 324.073 94.86 324.433 94.58C324.793 94.3 325.333 94.14 326.053 94.1L330.433 93.92V82.04C330.433 80.04 331.293 79.04 333.013 79.04H339.553C341.273 79.04 342.133 80.04 342.133 82.04V119.6C342.133 121.6 341.273 122.6 339.553 122.6H333.013C331.293 122.6 330.433 121.6 330.433 119.6V105.44ZM344.413 81.44C344.413 79.44 345.273 78.44 346.993 78.44H353.533C355.253 78.44 356.113 79.44 356.113 81.44V119C356.113 121 355.253 122 353.533 122H346.993C345.273 122 344.413 121 344.413 119V81.44ZM173.154 178.44C173.181 178.813 173.141 179.067 173.034 179.2C172.928 179.36 172.648 179.467 172.194 179.52C168.968 179.947 166.074 179.867 163.514 179.28C160.981 178.72 158.834 177.76 157.074 176.4C155.314 175.013 153.968 173.28 153.034 171.2C152.128 169.093 151.674 166.733 151.674 164.12C151.674 161.427 152.208 159.107 153.274 157.16C154.368 155.187 155.794 153.587 157.554 152.36C159.341 151.133 161.394 150.267 163.714 149.76C166.034 149.253 168.434 149.12 170.914 149.36C171.368 149.413 171.648 149.507 171.754 149.64C171.888 149.773 171.954 150.04 171.954 150.44L171.914 153.16C171.914 153.587 171.821 153.853 171.634 153.96C171.474 154.04 171.208 154.067 170.834 154.04C168.701 153.96 166.768 154.133 165.034 154.56C163.301 154.96 161.808 155.613 160.554 156.52C159.328 157.4 158.381 158.533 157.714 159.92C157.048 161.307 156.714 162.933 156.714 164.8C156.714 166.64 157.074 168.267 157.794 169.68C158.541 171.067 159.581 172.2 160.914 173.08C162.274 173.933 163.874 174.52 165.714 174.84C167.581 175.16 169.634 175.16 171.874 174.84C172.301 174.787 172.568 174.827 172.674 174.96C172.808 175.067 172.888 175.32 172.914 175.72L173.154 178.44ZM180.458 168.4C180.458 169.413 180.591 170.333 180.858 171.16C181.124 171.987 181.511 172.693 182.018 173.28C182.524 173.867 183.124 174.333 183.818 174.68C184.511 175 185.298 175.16 186.178 175.16C187.058 175.16 187.844 175 188.538 174.68C189.258 174.333 189.858 173.867 190.338 173.28C190.844 172.693 191.231 171.987 191.498 171.16C191.791 170.333 191.938 169.413 191.938 168.4C191.938 167.413 191.791 166.507 191.498 165.68C191.231 164.827 190.844 164.107 190.338 163.52C189.858 162.933 189.258 162.48 188.538 162.16C187.844 161.813 187.058 161.64 186.178 161.64C185.298 161.64 184.511 161.813 183.818 162.16C183.124 162.48 182.524 162.933 182.018 163.52C181.511 164.107 181.124 164.827 180.858 165.68C180.591 166.507 180.458 167.413 180.458 168.4ZM175.738 168.4C175.738 166.747 175.978 165.227 176.458 163.84C176.964 162.427 177.671 161.213 178.578 160.2C179.484 159.16 180.578 158.36 181.858 157.8C183.138 157.213 184.578 156.92 186.178 156.92C187.778 156.92 189.218 157.213 190.498 157.8C191.804 158.36 192.898 159.16 193.778 160.2C194.684 161.213 195.378 162.427 195.858 163.84C196.364 165.227 196.618 166.747 196.618 168.4C196.618 170.053 196.364 171.587 195.858 173C195.378 174.413 194.684 175.627 193.778 176.64C192.898 177.653 191.804 178.44 190.498 179C189.218 179.587 187.778 179.88 186.178 179.88C184.578 179.88 183.138 179.587 181.858 179C180.578 178.44 179.484 177.653 178.578 176.64C177.671 175.627 176.964 174.413 176.458 173C175.978 171.587 175.738 170.053 175.738 168.4ZM204.208 168.4C204.208 169.413 204.341 170.333 204.608 171.16C204.874 171.987 205.261 172.693 205.768 173.28C206.274 173.867 206.874 174.333 207.568 174.68C208.261 175 209.048 175.16 209.928 175.16C210.808 175.16 211.594 175 212.288 174.68C213.008 174.333 213.608 173.867 214.088 173.28C214.594 172.693 214.981 171.987 215.248 171.16C215.541 170.333 215.688 169.413 215.688 168.4C215.688 167.413 215.541 166.507 215.248 165.68C214.981 164.827 214.594 164.107 214.088 163.52C213.608 162.933 213.008 162.48 212.288 162.16C211.594 161.813 210.808 161.64 209.928 161.64C209.048 161.64 208.261 161.813 207.568 162.16C206.874 162.48 206.274 162.933 205.768 163.52C205.261 164.107 204.874 164.827 204.608 165.68C204.341 166.507 204.208 167.413 204.208 168.4ZM199.488 168.4C199.488 166.747 199.728 165.227 200.208 163.84C200.714 162.427 201.421 161.213 202.328 160.2C203.234 159.16 204.328 158.36 205.608 157.8C206.888 157.213 208.328 156.92 209.928 156.92C211.528 156.92 212.968 157.213 214.248 157.8C215.554 158.36 216.648 159.16 217.528 160.2C218.434 161.213 219.128 162.427 219.608 163.84C220.114 165.227 220.368 166.747 220.368 168.4C220.368 170.053 220.114 171.587 219.608 173C219.128 174.413 218.434 175.627 217.528 176.64C216.648 177.653 215.554 178.44 214.248 179C212.968 179.587 211.528 179.88 209.928 179.88C208.328 179.88 206.888 179.587 205.608 179C204.328 178.44 203.234 177.653 202.328 176.64C201.421 175.627 200.714 174.413 200.208 173C199.728 171.587 199.488 170.053 199.488 168.4ZM223.647 150.4C223.647 149.973 223.727 149.68 223.887 149.52C224.074 149.36 224.394 149.28 224.847 149.28H227.527C227.981 149.28 228.287 149.36 228.447 149.52C228.607 149.68 228.687 149.973 228.687 150.4V164.88L237.567 157.48C237.861 157.213 238.114 157.067 238.327 157.04C238.541 157.013 238.781 157.12 239.047 157.36L241.007 159.24C241.541 159.747 241.527 160.24 240.967 160.72L231.767 168.36L240.727 176.32C241.074 176.64 241.234 176.92 241.207 177.16C241.207 177.373 241.007 177.653 240.607 178L238.767 179.48C238.474 179.72 238.207 179.84 237.967 179.84C237.754 179.867 237.461 179.707 237.087 179.36L228.687 171.68V178.6C228.687 179.027 228.607 179.32 228.447 179.48C228.287 179.64 227.981 179.72 227.527 179.72H224.847C224.394 179.72 224.074 179.64 223.887 179.48C223.727 179.32 223.647 179.027 223.647 178.6V150.4ZM244.036 152.08C244.036 151.173 244.343 150.413 244.956 149.8C245.596 149.187 246.383 148.88 247.316 148.88C248.249 148.88 249.049 149.187 249.716 149.8C250.383 150.413 250.716 151.173 250.716 152.08C250.716 153.013 250.383 153.787 249.716 154.4C249.049 154.987 248.249 155.28 247.316 155.28C246.383 155.28 245.596 154.987 244.956 154.4C244.343 153.787 244.036 153.013 244.036 152.08ZM244.956 159.76C244.956 159.333 245.036 159.04 245.196 158.88C245.356 158.693 245.663 158.6 246.116 158.6H248.836C249.289 158.6 249.596 158.693 249.756 158.88C249.916 159.04 249.996 159.333 249.996 159.76V178.6C249.996 179.027 249.916 179.32 249.756 179.48C249.596 179.64 249.289 179.72 248.836 179.72H246.116C245.663 179.72 245.356 179.64 245.196 179.48C245.036 179.32 244.956 179.027 244.956 178.6V159.76ZM269.788 166.28C269.574 164.68 268.974 163.48 267.988 162.68C267.028 161.88 265.814 161.48 264.348 161.48C262.721 161.48 261.388 161.987 260.348 163C259.308 164.013 258.734 165.387 258.628 167.12L269.788 166.28ZM264.228 156.92C265.934 156.92 267.428 157.2 268.708 157.76C270.014 158.32 271.121 159.12 272.028 160.16C272.934 161.173 273.628 162.413 274.108 163.88C274.614 165.347 274.908 166.987 274.988 168.8C275.014 169.333 274.934 169.707 274.748 169.92C274.561 170.107 274.214 170.227 273.708 170.28L258.988 171.44C259.174 172.267 259.521 172.947 260.028 173.48C260.561 174.013 261.188 174.44 261.908 174.76C262.628 175.053 263.414 175.24 264.268 175.32C265.148 175.4 266.014 175.4 266.868 175.32C267.721 175.24 268.548 175.107 269.348 174.92C270.148 174.707 270.841 174.453 271.428 174.16C271.801 173.973 272.054 173.947 272.188 174.08C272.321 174.213 272.414 174.467 272.468 174.84L272.747 177.52C272.801 177.893 272.761 178.147 272.628 178.28C272.521 178.413 272.281 178.547 271.908 178.68C270.761 179.133 269.561 179.453 268.308 179.64C267.054 179.853 265.934 179.96 264.948 179.96C263.134 179.96 261.521 179.667 260.108 179.08C258.721 178.493 257.548 177.693 256.588 176.68C255.628 175.64 254.894 174.413 254.388 173C253.908 171.56 253.668 170 253.668 168.32C253.668 166.853 253.894 165.44 254.348 164.08C254.828 162.72 255.508 161.507 256.388 160.44C257.294 159.373 258.401 158.52 259.708 157.88C261.014 157.24 262.521 156.92 264.228 156.92ZM278.325 151.92C278.325 151.547 278.325 151.253 278.325 151.04C278.352 150.8 278.419 150.613 278.525 150.48C278.632 150.32 278.792 150.2 279.005 150.12C279.219 150.013 279.512 149.907 279.885 149.8C281.165 149.427 282.539 149.16 284.005 149C285.499 148.813 286.979 148.773 288.445 148.88C289.912 148.987 291.312 149.253 292.645 149.68C294.005 150.107 295.205 150.72 296.245 151.52C297.285 152.32 298.112 153.333 298.725 154.56C299.339 155.76 299.645 157.213 299.645 158.92C299.645 160.44 299.365 161.787 298.805 162.96C298.272 164.133 297.565 165.16 296.685 166.04C295.805 166.893 294.805 167.587 293.685 168.12C292.565 168.653 291.419 169.04 290.245 169.28L296.565 176.12C296.779 176.387 296.885 176.613 296.885 176.8C296.885 176.987 296.765 177.187 296.525 177.4L294.125 179.56C293.885 179.773 293.672 179.88 293.485 179.88C293.299 179.907 293.085 179.773 292.845 179.48L284.045 169.48L284.285 178.6C284.312 179.027 284.232 179.32 284.045 179.48C283.859 179.64 283.539 179.72 283.085 179.72H280.405C279.952 179.72 279.645 179.64 279.485 179.48C279.325 179.32 279.232 179.027 279.205 178.6L278.325 151.92ZM294.445 159.08C294.445 157.933 294.179 156.973 293.645 156.2C293.139 155.4 292.405 154.787 291.445 154.36C290.485 153.933 289.325 153.68 287.965 153.6C286.632 153.493 285.125 153.56 283.445 153.8L283.805 165.6C287.219 165.52 289.845 164.933 291.685 163.84C293.525 162.72 294.445 161.133 294.445 159.08ZM307.132 168.56C307.106 169.867 307.119 170.947 307.172 171.8C307.252 172.653 307.452 173.32 307.772 173.8C308.119 174.28 308.626 174.613 309.292 174.8C309.959 174.96 310.879 175.027 312.052 175L317.212 174.88L317.412 158.28C317.412 157.853 317.492 157.56 317.652 157.4C317.839 157.24 318.159 157.16 318.612 157.16H321.532C321.986 157.16 322.292 157.24 322.452 157.4C322.612 157.56 322.692 157.853 322.692 158.28L322.412 177.72C322.386 178.44 322.279 178.893 322.092 179.08C321.932 179.293 321.599 179.413 321.092 179.44C319.732 179.547 318.066 179.613 316.092 179.64C314.119 179.693 311.946 179.72 309.572 179.72C308.106 179.72 306.852 179.44 305.812 178.88C304.799 178.347 303.986 177.64 303.372 176.76C302.759 175.88 302.319 174.88 302.052 173.76C301.812 172.64 301.719 171.493 301.772 170.32L302.292 158.28C302.292 157.853 302.372 157.56 302.532 157.4C302.719 157.24 303.039 157.16 303.492 157.16H306.412C306.866 157.16 307.172 157.24 307.332 157.4C307.492 157.56 307.572 157.853 307.572 158.28L307.132 168.56ZM347.214 178.6C347.214 179.027 347.134 179.32 346.974 179.48C346.814 179.64 346.507 179.72 346.054 179.72H343.334C342.881 179.72 342.561 179.64 342.374 179.48C342.214 179.32 342.147 179.027 342.174 178.6L342.494 167.24C342.547 165.08 342.134 163.613 341.254 162.84C340.401 162.067 338.987 161.76 337.014 161.92C336.161 161.973 335.294 162.04 334.414 162.12C333.534 162.2 332.747 162.32 332.054 162.48V178.6C332.054 179.027 331.974 179.32 331.814 179.48C331.654 179.64 331.347 179.72 330.894 179.72H328.174C327.721 179.72 327.414 179.64 327.254 179.48C327.094 179.32 327.014 179.027 327.014 178.6L326.694 159.88C326.694 159.507 326.707 159.213 326.734 159C326.761 158.76 326.814 158.573 326.894 158.44C327.001 158.307 327.161 158.213 327.374 158.16C327.587 158.08 327.867 158.013 328.214 157.96C328.934 157.853 329.667 157.747 330.414 157.64C331.161 157.533 331.974 157.453 332.854 157.4C333.734 157.32 334.707 157.267 335.774 157.24C336.867 157.187 338.121 157.16 339.534 157.16C340.974 157.16 342.201 157.413 343.214 157.92C344.254 158.427 345.094 159.12 345.734 160C346.401 160.88 346.881 161.92 347.174 163.12C347.467 164.32 347.587 165.6 347.534 166.96L347.214 178.6Z" fill="black"/>
</svg>
