<svg width="500" height="250" viewBox="0 0 500 250" fill="none" xmlns="http://www.w3.org/2000/svg">
<rect width="500" height="250" fill="white"/>
<path d="M126.121 81.3C126.121 79.62 126.361 78.6 126.361 78.12C126.361 77.7 126.481 76.98 125.221 76.8L118.441 75.84C117.181 75.66 116.581 77.76 117.721 78.06C120.781 78.84 121.981 79.62 121.981 82.44V127.62C121.981 129.78 122.581 130.68 123.481 130.68C125.341 130.68 126.121 128.46 126.121 126.12V81.3ZM84.1815 98.76C84.1815 110.1 90.3015 114.24 97.7415 114.24C105.181 114.24 111.361 110.1 111.361 98.76C111.361 87.42 105.181 83.16 97.7415 83.16C90.3015 83.16 84.1815 87.42 84.1815 98.76ZM88.5015 98.82C88.5015 89.7 92.7615 86.4 97.7415 86.4C102.781 86.4 107.041 89.7 107.041 98.82C107.041 107.82 102.781 111 97.7415 111C92.7615 111 88.5015 107.82 88.5015 98.82ZM174.085 98.94C175.525 98.94 177.505 97.5 177.505 96.54C177.505 96 176.965 95.4 176.485 95.4C175.945 95.4 175.225 95.7 174.085 95.7H150.085C149.185 95.7 148.765 95.22 148.765 94.32V90.12H173.185C174.565 90.12 175.405 88.74 175.405 87.78V87.66V82.38C175.405 80.76 175.585 79.98 175.585 79.44C175.585 78.66 174.205 77.58 173.185 77.58C172.345 77.58 171.685 77.88 169.705 77.94H150.745C147.565 77.94 145.105 77.94 144.085 77.46C143.005 76.98 141.985 78.36 142.945 79.32C144.325 80.82 145.645 81.48 146.665 81.48C147.625 81.48 148.885 81.18 150.745 81.18H171.265V86.88H142.225C141.205 86.88 140.725 88.98 142.045 89.16C144.445 89.46 144.625 90.06 144.625 91.92V94.8C144.625 97.2 146.005 98.94 148.645 98.94H157.885V104.64H142.525C139.345 104.64 136.885 104.64 135.865 104.16C134.785 103.62 133.825 105.12 134.725 106.08C136.105 107.58 137.425 108.24 138.445 108.24C139.405 108.24 140.665 107.94 142.525 107.94H182.725C184.465 107.94 185.845 106.74 185.845 105.54C185.845 104.82 185.545 104.4 184.825 104.4C184.285 104.4 183.805 104.64 182.725 104.64H162.025V98.94H174.085ZM173.005 132.72C174.385 132.72 175.525 131.34 175.525 130.32V116.46C175.525 114.84 175.705 114.06 175.705 113.52C175.705 113.1 175.825 112.32 174.625 112.2L168.925 111.54C167.485 111.36 167.125 113.46 168.265 113.76C170.965 114.54 171.385 115.08 171.385 117.48V120.12H149.005V117.48C149.005 115.86 149.185 115.08 149.185 114.54C149.185 114.12 149.305 113.34 148.105 113.22L142.405 112.62C140.965 112.44 140.605 114.54 141.745 114.84C144.505 115.62 144.865 116.1 144.865 118.5V128.58C144.865 130.98 146.245 132.72 148.885 132.72H173.005ZM150.325 129.42C149.425 129.42 149.005 128.94 149.005 128.04V123.42H171.385V129.42H150.325ZM224.088 82.56C224.088 80.88 224.328 79.86 224.328 79.38C224.328 78.96 224.448 78.24 223.188 78.06L216.828 77.22C215.568 77.04 215.028 79.08 216.108 79.38C219.048 80.16 220.128 80.94 220.128 83.64V99.72H216.948C213.588 99.72 211.908 99.66 211.008 99.24C209.928 98.76 208.908 100.14 209.868 101.1C211.248 102.48 212.748 103.26 213.528 103.26C214.488 103.26 215.088 102.96 216.948 102.96H220.128V125.28C220.128 127.38 220.788 128.28 221.568 128.28C223.248 128.28 224.088 126.18 224.088 123.84V82.56ZM235.548 81.3C235.548 79.62 235.788 78.6 235.788 78.12C235.788 77.7 235.908 76.98 234.648 76.8L227.988 75.84C226.728 75.66 226.128 77.76 227.268 78.06C230.328 78.84 231.528 79.62 231.528 82.44V127.62C231.528 129.72 232.188 130.62 232.968 130.62C234.708 130.62 235.548 128.52 235.548 126.18V81.3ZM189.828 116.16C188.808 116.88 190.068 118.74 191.268 118.02C202.908 111.06 209.628 101.1 212.088 89.28C212.328 88.02 212.688 87.36 212.688 86.4C212.688 85.62 211.308 84.54 210.288 84.54C209.448 84.54 208.728 84.84 206.748 84.9H198.648C195.468 84.9 193.008 84.9 191.988 84.42C190.908 83.94 189.888 85.38 190.848 86.34C192.228 87.84 193.548 88.5 194.568 88.5C195.528 88.5 196.788 88.2 198.648 88.2H207.948C205.608 99.36 199.488 109.26 189.828 116.16ZM285.028 114.84C286.408 114.84 287.548 113.46 287.548 112.44V87C287.548 85.38 287.728 84.6 287.728 84.06C287.728 83.64 287.848 82.92 286.648 82.74L280.348 82.02C278.908 81.84 278.608 83.88 279.688 84.18C282.748 84.96 283.408 85.56 283.408 87.96V96.06H266.728V87.9C266.728 86.28 266.908 85.5 266.908 84.96C266.908 84.54 267.028 83.82 265.828 83.64L259.528 82.98C258.088 82.8 257.788 84.84 258.868 85.14C261.928 85.92 262.588 86.46 262.588 88.86V110.7C262.588 113.1 263.968 114.84 266.608 114.84H285.028ZM308.308 100.92C309.628 100.92 311.428 99.48 311.428 98.52C311.428 97.98 310.888 97.38 310.408 97.38C309.868 97.38 309.448 97.62 308.308 97.62H302.008V81.3C302.008 79.62 302.248 78.6 302.248 78.12C302.248 77.7 302.368 76.98 301.108 76.8L294.328 75.84C293.068 75.66 292.468 77.76 293.608 78.06C296.668 78.84 297.868 79.62 297.868 82.44V127.62C297.868 129.78 298.468 130.68 299.368 130.68C301.228 130.68 302.008 128.46 302.008 126.12V100.92H308.308ZM266.728 110.16V99.36H283.408V111.54H268.048C267.148 111.54 266.728 111.06 266.728 110.16ZM356.032 81.3C356.032 79.62 356.272 78.6 356.272 78.12C356.272 77.7 356.392 76.98 355.132 76.8L348.352 75.84C347.092 75.66 346.492 77.76 347.632 78.06C350.692 78.84 351.892 79.62 351.892 82.44V100.08C340.552 102.9 331.552 104.16 323.152 103.98C322.252 103.98 321.832 103.5 321.832 102.6V95.46H338.212C339.532 95.46 341.332 94.02 341.332 93.06C341.332 92.52 340.792 91.92 340.312 91.92C339.772 91.92 339.352 92.16 338.212 92.16H321.832V84.24H338.812C340.132 84.24 341.932 82.8 341.932 81.84C341.932 81.3 341.392 80.7 340.912 80.7C340.372 80.7 339.952 80.94 338.812 80.94H314.692C313.732 80.94 313.192 83.1 314.512 83.28C317.092 83.7 317.692 84.24 317.692 86.34V103.44C317.692 105.84 319.072 107.64 321.712 107.58C330.832 107.46 340.612 105.84 351.892 102.6V109.08C351.892 111.24 352.492 112.14 353.392 112.14C355.252 112.14 356.032 109.92 356.032 107.58V95.88H362.332C363.652 95.88 365.452 94.44 365.452 93.48C365.452 92.94 364.912 92.34 364.432 92.34C363.892 92.34 363.472 92.58 362.332 92.58H356.032V81.3ZM326.332 122.94C326.332 130.68 333.052 133.44 341.272 133.44C349.432 133.44 356.212 130.68 356.212 122.94C356.212 115.2 349.432 112.38 341.272 112.38C333.052 112.38 326.332 115.2 326.332 122.94ZM330.652 123C330.652 117.6 335.512 115.62 341.272 115.62C347.212 115.62 351.952 117.6 351.952 123C351.952 128.28 347.212 130.2 341.272 130.2C335.512 130.2 330.652 128.28 330.652 123ZM395.355 116.04C395.475 114.66 394.875 112.86 394.215 112.14C391.335 110.1 388.095 107.64 384.555 104.76C387.075 101.58 389.055 98.16 390.555 94.5C391.155 93.42 391.695 92.28 391.695 91.62C391.695 90.96 390.315 89.76 389.295 89.76C388.515 89.76 387.855 90.06 385.875 90.12H377.895C374.715 90.12 372.255 90.12 371.235 89.64C370.155 89.1 369.195 90.6 370.095 91.56C371.475 93.06 372.795 93.72 373.815 93.72C374.775 93.72 376.035 93.42 377.895 93.42H386.535C382.575 102.12 376.515 109.5 367.935 115.98C366.975 116.7 368.415 118.44 369.495 117.72C374.595 114.48 378.915 111 382.395 107.22C387.075 111.12 390.735 114.24 393.135 116.76C393.975 117.78 395.235 116.88 395.355 116.04ZM391.155 102.3C392.535 103.68 394.035 104.46 394.815 104.46C395.715 104.46 396.075 104.16 397.935 104.16H399.315V125.28C399.315 127.38 399.975 128.28 400.755 128.28C402.435 128.28 403.275 126.18 403.275 123.84V82.56C403.275 80.88 403.515 79.86 403.515 79.38C403.515 78.96 403.635 78.24 402.375 78.06L396.015 77.22C394.755 77.04 394.215 79.08 395.295 79.38C398.235 80.16 399.315 80.94 399.315 83.64V100.92H397.935C394.575 100.92 393.195 100.86 392.295 100.44C391.215 99.96 390.195 101.34 391.155 102.3ZM414.435 81.3C414.435 79.62 414.675 78.6 414.675 78.12C414.675 77.7 414.795 76.98 413.535 76.8L406.875 75.84C405.615 75.66 405.015 77.76 406.155 78.06C409.215 78.84 410.415 79.62 410.415 82.44V127.62C410.415 129.72 411.075 130.62 411.855 130.62C413.595 130.62 414.435 128.52 414.435 126.18V81.3ZM381.255 85.08C385.815 85.08 388.095 83.94 388.095 82.92C388.095 82.26 387.615 81.54 387.135 81.54H381.255C377.235 81.54 376.215 81.24 375.195 80.76C374.055 80.28 373.095 81.9 374.055 82.8C376.215 84.72 378.315 85.08 381.255 85.08ZM135.762 150.64C135.762 149.24 136.562 148.84 138.122 148.6C139.002 148.48 138.802 147.28 138.162 147.28H130.522C129.882 147.28 129.682 148.48 130.562 148.6C132.122 148.84 132.922 149.24 132.922 150.64V171.64C132.922 173.04 132.122 173.44 130.562 173.68C129.682 173.8 129.882 175 130.522 175H138.162C138.802 175 139.002 173.8 138.122 173.68C136.562 173.44 135.762 173.04 135.762 171.64V150.64ZM148.606 156.2C148.606 155.64 148.326 155.36 147.766 155.36H143.726C143.086 155.36 142.886 156.56 143.766 156.68C145.326 156.92 145.886 157.32 145.886 158.72V171.64C145.886 173.04 145.086 173.44 143.526 173.68C142.646 173.8 142.846 175 143.486 175H151.006C151.646 175 151.846 173.8 150.966 173.68C149.406 173.44 148.606 173.04 148.606 171.64V165.56C148.606 161.4 151.206 157.92 155.486 157.92C156.046 157.92 156.326 157.64 156.326 157.08V156C156.326 155.44 156.046 155.16 155.486 155.16C150.206 155.16 149.126 158.36 148.606 160.56V156.2ZM167.342 175.44C173.662 175.44 175.662 171.04 175.662 165.32C175.662 159.6 173.742 155.16 167.342 155.16C160.942 155.16 158.942 159.28 158.942 165.32C158.942 171.08 160.742 175.44 167.342 175.44ZM167.342 173.32C162.062 173.32 161.782 168.68 161.782 165.32C161.782 161.68 162.182 157.28 167.342 157.28C172.542 157.28 172.822 162 172.822 165.32C172.822 168.88 172.422 173.32 167.342 173.32ZM184.685 163.08C184.685 161.2 186.245 157.28 189.645 157.28C193.845 157.28 194.445 162.16 194.445 165.36C194.445 168.16 194.245 173.32 189.925 173.32C184.805 173.32 184.685 169.24 184.685 166.68V163.08ZM181.965 179.48C181.965 180.88 181.165 181.28 179.605 181.52C178.725 181.64 178.925 182.84 179.565 182.84H187.085C187.725 182.84 187.925 181.64 187.045 181.52C185.485 181.28 184.685 180.88 184.685 179.48V173.32C185.525 174.12 186.925 175.44 189.565 175.44C194.885 175.44 197.285 171.28 197.285 165.36C197.285 160 195.245 155.16 190.005 155.16C186.965 155.16 185.325 157.08 184.685 158.36V156C184.685 155.44 184.405 155.16 183.845 155.16H179.805C179.165 155.16 178.965 156.36 179.845 156.48C181.405 156.72 181.965 157.12 181.965 158.52V179.48ZM201.172 146.2C200.532 146.2 200.332 147.4 201.212 147.52C202.772 147.76 203.332 148.16 203.332 149.56V171.64C203.332 173.04 202.532 173.44 200.972 173.68C200.092 173.8 200.292 175 200.932 175H208.452C209.092 175 209.292 173.8 208.412 173.68C206.852 173.44 206.052 173.04 206.052 171.64V164.76L212.052 171.96C212.932 173.04 212.652 173.44 211.092 173.68C210.212 173.8 210.412 175 211.052 175H218.652C219.292 175 219.492 173.8 218.612 173.68C217.052 173.44 216.252 172.72 215.372 171.64L208.892 163.88L213.772 158.96C214.812 157.92 215.372 157.08 216.532 156.92C217.412 156.8 217.212 155.6 216.572 155.6H210.212C209.572 155.6 209.372 156.8 210.252 156.92C211.652 157.16 211.772 157.72 210.852 158.64L206.052 163.52V147.04C206.052 146.48 205.772 146.2 205.212 146.2H201.172ZM233.942 172.16C232.382 173 230.622 173.4 228.342 173.4C223.302 173.4 223.222 168.8 223.222 165.72V164.92H234.262C234.702 164.92 234.902 164.76 234.902 164.36C234.902 158.64 232.542 155.16 227.942 155.16C222.222 155.16 220.382 159.72 220.382 165.72C220.382 171.28 222.062 175.44 228.342 175.44C230.862 175.44 233.022 174.76 234.622 173.48C235.182 173.04 234.662 171.76 233.942 172.16ZM227.942 157.24C231.382 157.24 232.062 160.24 232.222 162.96H223.422C223.742 160.12 224.982 157.24 227.942 157.24ZM252.878 171.64C252.878 173.04 252.078 173.44 250.518 173.68C249.638 173.8 249.838 175 250.478 175H257.718C265.638 175 271.238 173.28 271.238 167.4C271.238 163.64 268.998 161.52 265.438 160.4C268.278 159.44 269.878 157.64 269.878 154.36C269.878 148.52 264.958 147.28 257.078 147.28H250.478C249.838 147.28 249.638 148.48 250.518 148.6C252.078 148.84 252.878 149.24 252.878 150.64V171.64ZM256.598 172.96C255.998 172.96 255.718 172.64 255.718 172.04V161.36H259.598C266.558 161.36 268.278 164.72 268.278 167.4C268.278 170.64 265.678 172.96 259.038 172.96H256.598ZM255.718 159.4V150.24C255.718 149.64 255.958 149.32 256.558 149.32H258.238C265.198 149.32 266.918 151.48 266.918 154.4C266.918 157.88 264.318 159.4 257.678 159.4H255.718ZM286.466 168.28C286.466 170.28 284.786 173.4 281.786 173.4C279.266 173.4 278.466 171.76 278.466 170C278.466 165.96 284.586 165.6 286.466 165.56V168.28ZM286.466 172.44C286.466 174.16 287.146 175 289.466 175H291.586C292.226 175 292.426 173.8 291.546 173.68C289.986 173.44 289.186 173.04 289.186 171.64V164.92C289.186 158.92 288.426 155.16 282.386 155.16C278.226 155.16 276.026 158.44 276.026 160.48C276.026 160.88 276.226 161.04 276.666 161.04H278.186C279.266 161.04 278.266 157.24 282.586 157.24C286.106 157.24 286.426 160.04 286.466 163.52C283.866 163.6 275.626 164.4 275.626 170.12C275.626 173.12 277.746 175.44 280.626 175.44C283.746 175.44 285.546 173.6 286.466 172.44ZM302.863 175.44C304.143 175.44 305.223 175.04 305.943 174.48C306.503 174.04 306.023 172.92 305.263 173.16C304.623 173.36 304.023 173.44 303.263 173.44C301.303 173.44 300.463 172.4 300.463 170V157.76H304.783C305.343 157.76 305.623 157.48 305.623 156.92V156.6C305.623 156.04 305.343 155.76 304.783 155.76H300.463V150.36C300.463 149.8 300.183 149.52 299.623 149.52H298.583C298.023 149.52 297.743 149.8 297.743 150.36V155.76H295.383C294.823 155.76 294.543 156.04 294.543 156.6V156.92C294.543 157.48 294.823 157.76 295.383 157.76H297.743V169.92C297.743 173.84 298.943 175.44 302.863 175.44ZM320.645 168.28C320.645 170.28 318.965 173.4 315.965 173.4C313.445 173.4 312.645 171.76 312.645 170C312.645 165.96 318.765 165.6 320.645 165.56V168.28ZM320.645 172.44C320.645 174.16 321.325 175 323.645 175H325.765C326.405 175 326.605 173.8 325.725 173.68C324.165 173.44 323.365 173.04 323.365 171.64V164.92C323.365 158.92 322.605 155.16 316.565 155.16C312.405 155.16 310.205 158.44 310.205 160.48C310.205 160.88 310.405 161.04 310.845 161.04H312.365C313.445 161.04 312.445 157.24 316.765 157.24C320.285 157.24 320.605 160.04 320.645 163.52C318.045 163.6 309.805 164.4 309.805 170.12C309.805 173.12 311.925 175.44 314.805 175.44C317.925 175.44 319.725 173.6 320.645 172.44ZM347.283 162.36C347.283 159.56 347.003 155.16 342.203 155.16C338.483 155.16 336.043 159.2 335.403 160.56V156.2C335.403 155.64 335.123 155.36 334.563 155.36H330.523C329.883 155.36 329.683 156.56 330.563 156.68C332.123 156.92 332.683 157.32 332.683 158.72V171.64C332.683 173.04 331.883 173.44 330.323 173.68C329.443 173.8 329.643 175 330.283 175H337.803C338.443 175 338.643 173.8 337.763 173.68C336.203 173.44 335.403 173.04 335.403 171.64V165.56C335.403 161.4 339.043 157.24 341.243 157.24C344.003 157.24 344.563 159.76 344.563 162.24V171.64C344.563 173.04 343.763 173.44 342.203 173.68C341.323 173.8 341.523 175 342.163 175H349.683C350.323 175 350.523 173.8 349.643 173.68C348.083 173.44 347.283 173.04 347.283 171.64V162.36ZM365.634 166.48C365.634 169.04 365.394 172.92 360.274 172.92C355.954 172.92 355.634 168.04 355.634 165.16C355.634 161.96 356.354 157.28 360.554 157.28C363.954 157.28 365.634 161.2 365.634 163.08V166.48ZM368.354 158.96C368.354 157.56 368.834 157.16 370.074 156.92C370.954 156.76 370.754 155.6 370.114 155.6H366.474C365.914 155.6 365.634 155.88 365.634 156.44V158.36C364.994 157.08 363.234 155.16 360.194 155.16C354.954 155.16 352.794 159.76 352.794 165.16C352.794 171.12 355.314 175.04 360.634 175.04C363.274 175.04 364.794 173.72 365.634 172.92V175.96C365.634 178.16 364.434 180.72 360.474 180.72C355.634 180.72 356.834 178.2 355.594 178.2H354.194C353.634 178.2 353.354 178.48 353.354 179.04C353.354 181.56 356.114 182.84 360.474 182.84C366.514 182.84 368.354 179.32 368.354 176.36V158.96Z" fill="black"/>
</svg>
