<svg width="500" height="250" viewBox="0 0 500 250" fill="none" xmlns="http://www.w3.org/2000/svg">
<rect width="500" height="250" fill="white"/>
<path d="M104.363 133.8V114.84H62.363V118.8H99.8031V133.8H104.363ZM57.983 81.36V109.32L83.843 108V104.1L62.483 105V81.36H57.983ZM92.243 111.84V80.46H87.743V91.08H74.843V95.04H87.743V111.84H92.243ZM104.483 111.84V79.98H99.923V111.84H104.483ZM163.003 109.44C152.683 106.02 144.523 99.9 139.723 91.92C141.043 88.62 141.883 85.08 142.003 81.36H137.203C136.363 95.4 126.223 105.96 112.843 109.32L115.423 112.74C124.543 110.28 132.883 104.16 137.743 95.88C143.083 103.74 151.603 110.1 160.423 113.04L163.003 109.44ZM111.823 123.9V127.86H164.383V123.9H111.823ZM176.283 83.7H171.843V128.7H202.083V124.86H176.283V83.7ZM199.797 83.7L218.217 128.7H221.817L240.237 83.7H235.557L221.217 119.22L220.017 122.94L218.817 119.22L204.477 83.7H199.797ZM247.877 93.9L250.217 96.96L259.397 89.34V128.7H263.717V83.7H260.057L247.877 93.9ZM277.696 124.5V128.46H330.256V124.5H303.076V102.6H298.396V124.5H277.696ZM321.916 116.34C324.256 106.56 325.336 94.38 325.336 82.5H283.036V86.46H320.656C320.656 94.32 319.576 106.68 317.476 116.34H321.916ZM382.837 111.84V79.98H378.277V111.84H382.837ZM382.717 133.74V114.84H341.317V118.8H378.157V133.74H382.717ZM338.197 81.84V108.66L374.917 106.98V103.08L342.757 104.34V85.8H366.397V81.84H338.197ZM422.397 122.16C416.277 117.6 411.777 111.42 408.957 104.16C409.917 101.04 410.577 97.74 410.817 94.2H421.377V90.24H393.177V94.2H406.137C405.237 107.1 398.397 117.84 390.297 123.78L393.537 126.66C398.757 122.4 403.797 116.58 407.097 109.26C410.157 115.68 414.417 121.32 419.457 125.4L422.397 122.16ZM430.737 132V80.58H426.237V102.66H417.537V106.74H426.237V132H430.737ZM441.837 133.44V79.98H437.277V133.44H441.837ZM415.677 84.66V80.7H399.477V84.66H415.677ZM129.918 174.85H132.198V152.35H129.978V168.97L130.038 171.67L128.718 169.48L117.078 152.35H114.798V174.85H117.018V157.57L116.958 155.5L117.948 157.3L129.918 174.85ZM139.811 164.26H150.641V162.34H139.811V154.27H152.711V152.35H137.591V174.85H153.191V172.93H139.811V164.26ZM173.194 152.35H170.764L163.924 161.62L157.114 152.35H154.654L162.724 163.3L154.204 174.85H156.664L163.924 164.98L171.184 174.85H173.644L165.124 163.3L173.194 152.35ZM173.942 163.6C173.942 170.65 178.742 175.45 185.042 175.45C191.342 175.45 196.142 170.65 196.142 163.6C196.142 156.55 191.342 151.75 185.042 151.75C178.742 151.75 173.942 156.55 173.942 163.6ZM193.922 163.6C193.922 169.57 189.992 173.53 185.042 173.53C180.092 173.53 176.162 169.57 176.162 163.6C176.162 157.63 180.092 153.67 185.042 153.67C189.992 153.67 193.922 157.63 193.922 163.6ZM215.172 174.85H217.452V152.35H215.232V168.97L215.292 171.67L213.972 169.48L202.332 152.35H200.052V174.85H202.272V157.57L202.212 155.5L203.202 157.3L215.172 174.85ZM234.908 152.35H232.688V174.85H247.808V172.93H234.908V152.35ZM254.451 174.85H255.861L263.061 158.35H260.721L255.831 169.9L255.141 171.76L254.481 169.9L249.591 158.35H247.251L254.451 174.85ZM266.897 157.45L268.067 158.98L272.657 155.17V174.85H274.817V152.35H272.987L266.897 157.45ZM303.38 164.68H311.72C311.54 169.78 308.48 173.53 303.05 173.53C298.1 173.53 294.2 169.57 294.2 163.6C294.2 157.63 298.1 153.67 303.05 153.67C306.17 153.67 308.96 155.26 310.52 157.99L312.35 156.82C310.4 153.67 307.04 151.75 303.05 151.75C296.75 151.75 291.95 156.55 291.95 163.6C291.95 170.65 296.75 175.45 303.05 175.45C310.04 175.45 313.97 170.38 313.91 163.54C313.91 163.24 313.91 162.88 313.88 162.79H303.38V164.68ZM329.874 166.6C329.874 170.59 327.084 173.44 323.784 173.44C320.484 173.44 317.694 170.59 317.694 166.6C317.694 162.61 320.484 159.79 323.784 159.79C327.084 159.79 329.874 162.61 329.874 166.6ZM315.534 166.6C315.534 171.7 319.164 175.3 323.784 175.3C328.404 175.3 332.034 171.7 332.034 166.6C332.034 161.5 328.404 157.93 323.784 157.93C319.164 157.93 315.534 161.5 315.534 166.6ZM336.92 160.21V169.75C336.92 173.05 338.18 175.3 342.26 175.3C342.77 175.3 343.37 175.3 344 175.21V173.41C343.46 173.47 342.89 173.5 342.44 173.5C339.38 173.5 339.08 172.09 339.08 169.75V160.21H344V158.35H339.08V153.85H336.92V158.35H333.53V160.21H336.92ZM348.715 151.75H346.555V174.85H348.715V168.01C348.715 166.21 348.835 164.98 349.015 164.26C349.615 161.8 351.985 159.76 354.685 159.76C356.545 159.76 357.895 160.69 358.555 162.28C358.885 163.06 359.095 164.2 359.095 165.4V174.85H361.255V165.4C361.255 163.69 361.105 162.25 360.505 161.14C359.425 159.13 357.535 157.9 354.685 157.9C352.435 157.9 350.035 159.28 348.715 161.35V151.75ZM367.67 158.41H365.51V174.85H367.67V158.41ZM365.15 155.17H368.03V152.29H365.15V155.17ZM386.169 161.5C384.699 159.28 382.239 157.93 379.389 157.93C374.769 157.93 371.139 161.5 371.139 166.6C371.139 171.7 374.769 175.3 379.389 175.3C382.509 175.3 385.179 173.68 386.589 171.04L384.909 169.87C383.799 172.12 381.699 173.44 379.389 173.44C376.089 173.44 373.299 170.59 373.299 166.6C373.299 162.61 376.089 159.79 379.389 159.79C381.429 159.79 383.319 160.84 384.429 162.61L386.169 161.5Z" fill="black"/>
</svg>
