<svg width="500" height="250" viewBox="0 0 500 250" fill="none" xmlns="http://www.w3.org/2000/svg">
<rect width="500" height="250" fill="white"/>
<path d="M70.7075 99.955C70.7075 88.68 71.8075 82.08 74.8875 78.945C76.3175 77.625 78.0225 76.91 80.3325 76.91C82.5875 76.91 84.3475 77.625 85.7225 78.945C88.5825 81.805 89.7375 87.635 89.9025 97.315H97.3275V77.13H100.628V125.09H97.3275V100.285H89.9025C89.9025 111.395 88.8025 117.94 85.7225 120.965C84.3475 122.34 82.5875 122.89 80.3325 122.89C78.0225 122.89 76.3175 122.34 74.8875 120.965C71.8075 117.885 70.7075 111.285 70.7075 99.955ZM73.9525 99.955C73.9525 110.24 74.7225 116.18 77.0325 118.71C77.9125 119.645 78.9575 120.085 80.3325 120.085C81.6525 120.085 82.8075 119.645 83.5775 118.71C85.8875 116.18 86.6575 110.24 86.6575 99.955C86.6575 89.78 85.8875 83.785 83.5775 81.255C82.8075 80.32 81.6525 79.825 80.3325 79.825C78.9575 79.825 77.9125 80.32 77.0325 81.255C74.7225 83.785 73.9525 89.78 73.9525 99.955ZM107.778 76.855H111.078V125.64H107.778V76.855ZM144.35 91.045C141.49 97.92 134.835 104.025 123.505 106.335V103.255C134.835 100.78 142.645 93.19 142.645 82.52V77.515H146V82.52C146 93.19 154.195 100.78 165.195 103.255V106.335C154.03 103.915 147.21 97.92 144.35 91.045ZM122.68 123.385V120.58H166.075V123.385H122.68ZM178.173 97.425V94.51H196.103C201.823 94.51 208.588 94.125 212.823 93.025V80.815H178.173V77.79H216.178V95.39C216.178 101.275 215.738 107.27 214.913 111.505H211.558C212.383 107.27 212.823 101.22 212.823 95.995V95.885C208.588 97.04 201.933 97.425 196.048 97.425H178.173ZM175.478 123.385V120.58H191.263V104.465H194.618V120.58H218.873V123.385H175.478ZM251.046 99.955C251.046 91.375 250.111 85.215 247.361 82.135C246.041 80.65 244.226 79.825 241.971 79.825C239.771 79.825 237.956 80.65 236.581 82.135C233.886 85.215 232.951 91.375 232.951 99.955C232.951 108.59 233.886 114.805 236.581 117.885C237.956 119.315 239.771 120.085 241.971 120.085C244.226 120.085 246.041 119.315 247.361 117.885C250.111 114.805 251.046 108.59 251.046 99.955ZM229.596 99.955C229.596 90.605 230.751 83.785 234.161 80.1C236.031 78.01 238.726 76.91 241.971 76.91C245.216 76.91 247.856 78.01 249.781 80.1C252.916 83.455 254.181 89.34 254.346 97.37H265.291V76.91H268.646V125.64H265.291V100.34H254.401C254.346 109.47 253.191 116.235 249.781 119.865C247.856 122.01 245.216 122.89 241.971 122.89C238.726 122.89 236.031 122.01 234.161 119.865C230.751 116.18 229.596 109.305 229.596 99.955ZM321.774 80.815H287.124V102.045H322.324V104.96H283.769V77.845H321.774V80.815ZM281.074 123.385V120.58H324.469V123.385H281.074ZM358.292 103.365H335.302V88.9H354.662V80.375H335.302V77.515H358.017V91.815H338.657V100.56H358.952C364.067 100.56 368.247 99.68 371.107 97.535V76.91H374.462V105.84H371.107V100.285C368.357 102.54 363.902 103.365 358.292 103.365ZM338.437 126.245V110.35H374.462V126.245H338.437ZM371.107 113.265H341.792V123.385H371.107V113.265ZM388.265 83.4H396.35V75.37H399.65V83.4H407.625V86.315H399.65V101.33C399.65 112 403.5 116.84 408.23 119.205V122.23C402.84 120.085 399.21 115.41 398 110.57C396.735 115.465 393.05 120.03 387.715 122.175V119.15C392.28 116.785 396.35 112.055 396.35 101.33V86.315H388.265V83.4ZM417.14 125.09H413.95V101.66H405.37V98.8H413.95V77.185H417.14V125.09ZM427.81 125.585H424.51V76.91H427.81V125.585ZM154.495 161.755C154.495 157.765 152.22 155.245 147.215 154.23L143.715 153.495C140.425 152.83 138.675 151.255 138.675 148.42C138.675 145.305 140.95 143.205 144.94 143.205C148.965 143.205 151.24 145.305 151.24 148.42V149.015H153.48V148.42C153.48 144.465 150.505 141.21 144.94 141.21C139.375 141.21 136.435 144.465 136.435 148.42C136.435 152.305 138.815 154.58 143.085 155.455L146.585 156.19C150.61 157.03 152.255 158.885 152.255 161.79C152.255 164.975 149.77 167.355 145.465 167.355C141.16 167.355 138.675 164.975 138.675 161.79V160.95H136.435V161.755C136.435 165.99 139.585 169.315 145.465 169.315C151.345 169.315 154.495 165.99 154.495 161.755ZM158.276 157.17H169.441V155.21H158.276V157.17ZM183.808 169.315C189.898 169.315 193.328 165.675 193.713 160.005H191.438C191.088 164.52 188.568 167.355 183.808 167.355C181.323 167.355 179.398 166.48 178.138 164.905C176.458 162.77 175.863 159.655 175.863 155.245C175.863 150.87 176.458 147.755 178.138 145.62C179.398 144.08 181.323 143.205 183.808 143.205C188.568 143.205 191.088 146.04 191.438 150.52H193.713C193.328 144.885 189.898 141.21 183.808 141.21C180.448 141.21 177.963 142.365 176.353 144.395C174.288 146.985 173.623 150.8 173.623 155.245C173.623 159.76 174.288 163.54 176.353 166.13C177.963 168.195 180.448 169.315 183.808 169.315ZM213.716 159.165C213.716 152.795 211.091 148.98 205.526 148.98C199.961 148.98 197.301 152.795 197.301 159.165C197.301 165.5 199.961 169.315 205.526 169.315C211.091 169.315 213.716 165.5 213.716 159.165ZM199.436 159.165C199.436 153.845 201.256 150.835 205.526 150.835C209.761 150.835 211.581 153.845 211.581 159.165C211.581 164.45 209.761 167.46 205.526 167.46C201.256 167.46 199.436 164.45 199.436 159.165ZM225.874 150.87C226.434 150.87 226.994 150.905 227.309 150.94L227.344 149.12C226.994 149.015 226.469 148.98 225.909 148.98C222.794 148.98 220.939 150.485 220.099 153.18V149.435H217.964V168.86H220.099V159.06C220.099 153.565 222.374 150.87 225.874 150.87ZM245.674 159.795V159.165C245.674 152.795 243.049 148.98 237.484 148.98C231.919 148.98 229.259 152.795 229.259 159.165C229.259 165.535 231.919 169.315 237.484 169.315C241.894 169.315 244.519 167.075 245.254 163.225H243.049C242.489 165.92 240.669 167.46 237.519 167.46C233.389 167.46 231.499 164.73 231.394 159.795H245.674ZM237.484 150.835C241.404 150.835 243.294 153.46 243.504 158.01H231.464C231.639 153.46 233.529 150.835 237.484 150.835ZM269.699 168.86C277.749 168.86 279.814 162.665 279.814 155.245C279.814 147.86 277.679 141.665 269.699 141.665H260.424V168.86H269.699ZM277.539 155.245C277.539 162.14 275.789 166.83 269.489 166.83H262.664V143.695H269.489C275.789 143.695 277.539 148.42 277.539 155.245ZM292.319 150.87C292.879 150.87 293.439 150.905 293.754 150.94L293.789 149.12C293.439 149.015 292.914 148.98 292.354 148.98C289.239 148.98 287.384 150.485 286.544 153.18V149.435H284.409V168.86H286.544V159.06C286.544 153.565 288.819 150.87 292.319 150.87ZM312.119 159.795V159.165C312.119 152.795 309.494 148.98 303.929 148.98C298.364 148.98 295.704 152.795 295.704 159.165C295.704 165.535 298.364 169.315 303.929 169.315C308.339 169.315 310.964 167.075 311.699 163.225H309.494C308.934 165.92 307.114 167.46 303.964 167.46C299.834 167.46 297.944 164.73 297.839 159.795H312.119ZM303.929 150.835C307.849 150.835 309.739 153.46 309.949 158.01H297.909C298.084 153.46 299.974 150.835 303.929 150.835ZM329.282 163.155C329.282 165.815 327.357 167.46 323.437 167.46C319.552 167.46 317.627 165.815 317.627 163.155C317.627 160.495 319.552 158.85 323.437 158.85C327.357 158.85 329.282 160.495 329.282 163.155ZM329.282 166.725C329.317 167.495 329.422 168.265 329.702 168.86H331.942C331.627 168.16 331.452 167.145 331.452 166.165V156.015C331.452 151.71 328.827 148.98 323.822 148.98C319.097 148.98 316.612 151.43 316.262 155H318.432C318.747 152.55 320.392 150.835 323.822 150.835C327.427 150.835 329.282 152.865 329.282 155.945V159.585C328.442 158.01 326.307 156.96 323.017 156.96C318.292 156.96 315.492 159.34 315.492 163.155C315.492 167.005 318.292 169.315 323.017 169.315C326.307 169.315 328.442 168.37 329.282 166.725ZM361.076 168.86H363.246V156.05C363.246 151.5 360.901 148.98 356.841 148.98C353.376 148.98 351.381 150.835 350.366 153.46C349.631 150.555 347.356 148.98 344.346 148.98C341.301 148.98 339.201 150.555 338.326 153.145V149.435H336.191V168.86H338.326V159.165C338.326 153.74 340.776 150.835 343.961 150.835C346.936 150.835 348.616 152.585 348.616 156.085V168.86H350.786V159.165C350.786 153.74 353.236 150.835 356.421 150.835C359.361 150.835 361.076 152.585 361.076 156.085V168.86Z" fill="black"/>
</svg>
