<svg width="500" height="250" viewBox="0 0 500 250" fill="none" xmlns="http://www.w3.org/2000/svg">
<rect width="500" height="250" fill="white"/>
<path d="M130.752 81.32H126.492V136.16H130.752V105.2H139.872V101.42H130.752V81.32ZM96.3119 85.82H92.0519V121.1H102.672C108.372 121.1 115.512 120.68 121.932 119.54L121.392 115.76C114.852 116.9 108.852 117.26 103.092 117.26H96.3119V85.82ZM150.261 136.04H185.901V117.2H170.181V109.58H193.281V105.98H142.881V109.58H165.981V117.2H150.261V136.04ZM154.341 120.92H181.821V132.26H154.341V120.92ZM154.821 83H150.561V99.62H186.141V95.96H154.821V83ZM222.691 101.12C223.231 102.32 225.391 104.3 229.711 107.18C233.311 109.58 238.171 112.46 242.431 114.8L244.651 111.5C239.491 108.8 234.931 106.1 232.111 104.18C226.171 100.16 224.851 98.3 224.851 91.82V85.22H220.471V91.82C220.471 98.3 219.091 100.16 213.151 104.18C210.331 106.1 205.711 108.86 200.491 111.56L202.771 114.92C207.091 112.58 212.011 109.64 215.611 107.24C219.931 104.36 222.151 102.32 222.631 101.12H222.691ZM197.491 124.76V128.42H247.891V124.76H197.491ZM281.26 106.64C279.46 106.76 277.72 106.88 275.92 106.94C277.06 102.5 277.54 96.92 277.54 92.54V84.8H255.22V88.52H273.46V93.2C273.46 94.04 273.46 94.82 273.4 95.66L254.68 96.02L254.8 99.56L273.16 99.08C272.92 101.78 272.44 104.54 271.72 107.06C267.7 107.18 263.86 107.18 260.5 107.18H252.04V110.9H264.4V132.62H268.72V110.9C272.8 110.84 277 110.66 281.56 110.24L281.26 106.64ZM275.02 116.72V120.5H284.92V134.66H289.12V82.28H284.92V116.72H275.02ZM299.56 81.32H295.36V136.16H299.56V81.32ZM352.189 81.32H347.989V101H335.689C335.629 91.1 330.589 85.22 322.189 85.22C313.729 85.22 308.689 91.1 308.689 101.06V106.7C308.689 116.72 313.729 122.6 322.189 122.6C330.649 122.6 335.689 116.72 335.689 106.7V104.84H347.989V136.16H352.189V81.32ZM331.549 105.98C331.549 115.1 327.829 118.7 322.189 118.7C316.549 118.7 312.829 115.1 312.829 105.98V101.84C312.829 92.72 316.549 89.18 322.189 89.18C327.829 89.18 331.549 92.72 331.549 101.84V105.98ZM362.399 93.68H373.079V99.08C373.079 104.42 372.479 106.88 369.599 110.54C367.799 112.88 364.199 116.72 360.659 120.08L363.479 122.9C367.259 119.18 370.019 116.12 372.239 113.54C374.039 111.38 375.059 109.7 375.239 109.04H375.299C375.539 109.7 376.799 111.62 378.539 113.6C380.579 115.88 383.759 119.54 386.399 122.18L389.159 119.48C385.799 116.12 382.919 112.94 380.939 110.48C377.939 106.64 377.279 104.66 377.279 99.08V93.68H387.419V89.96H377.279V82.46H373.079V89.96H362.399V93.68ZM384.239 101.6V105.44H393.779V133.46H397.979V82.46H393.779V101.6H384.239ZM408.599 81.32H404.399V136.16H408.599V81.32ZM151.533 170.78H153.543V151.85C153.933 152.75 154.173 153.17 154.533 153.8L164.493 170.78H166.983V149.15H164.973V168.08C164.553 167.18 164.313 166.67 163.953 166.07L154.023 149.15H151.533V170.78ZM176.243 171.02C177.473 171.02 178.613 170.78 179.513 170.33C180.353 169.91 181.013 169.31 181.313 168.8H181.343V170.78H183.323V159.47C183.323 156.2 181.103 154.31 177.503 154.31C175.043 154.31 173.213 155.18 171.713 156.23L172.703 157.79C174.083 156.83 175.733 156.14 177.473 156.14C179.993 156.14 181.313 157.46 181.313 159.8V161.3H176.753C173.003 161.3 171.053 163.13 171.053 165.74V166.4C171.053 169.25 173.183 171.02 176.243 171.02ZM181.313 165.74C181.313 166.97 180.653 167.78 179.783 168.32C178.823 168.92 177.833 169.25 176.543 169.25C174.893 169.25 173.093 168.41 173.093 166.31V165.83C173.093 164.18 174.203 163.01 176.783 163.01H181.313V165.74ZM194.819 154.31C192.269 154.31 190.619 155.63 189.869 156.86V154.61H187.859V170.78H189.899V160.28C189.899 158.39 191.789 156.17 194.519 156.17C197.729 156.17 198.599 158.09 198.599 160.4V170.78H200.639V159.89C200.639 156.53 198.509 154.31 194.819 154.31ZM210.84 171.02C213.39 171.02 215.07 169.76 215.82 168.53V170.78H217.83V154.61H215.79V165.11C215.79 167 213.87 169.16 211.14 169.16C207.93 169.16 207.24 167.24 207.24 164.93V154.61H205.2V165.44C205.2 168.8 207.15 171.02 210.84 171.02ZM239.014 154.31C236.434 154.31 234.814 155.87 234.094 157.25C233.374 155.39 231.784 154.31 229.204 154.31C226.834 154.31 225.394 155.57 224.674 156.86V154.61H222.664V170.78H224.704V160.28C224.704 158.39 226.174 156.17 228.844 156.17C231.754 156.17 232.474 157.82 232.474 160.43V170.78H234.514V160.16C234.574 158.3 236.044 156.17 238.654 156.17C241.564 156.17 242.284 157.82 242.284 160.43V170.78H244.324V159.89C244.324 156.47 242.674 154.31 239.014 154.31ZM263.162 169.16C261.212 169.16 259.112 168.5 256.982 166.94L255.902 168.71C257.822 170.18 260.402 171.11 263.252 171.11C267.932 171.11 270.692 168.53 270.692 165.44V164.75C270.692 161.66 269.132 160.01 263.552 158.75C259.622 157.85 258.422 156.77 258.422 154.91V154.31C258.422 152.06 260.702 150.74 263.372 150.74C265.592 150.74 267.422 151.37 268.802 152.36L269.792 150.65C268.322 149.6 266.282 148.82 263.372 148.82C259.262 148.82 256.292 151.04 256.292 154.31V155C256.292 157.73 257.852 159.53 262.892 160.67C267.512 161.72 268.562 162.77 268.562 164.81V165.44C268.562 167.39 266.552 169.16 263.162 169.16ZM285.225 177.2H287.265V154.61H285.255V156.59C284.415 155.39 282.765 154.31 280.395 154.31C276.705 154.31 273.975 156.83 273.975 161.24V164.09C273.975 168.5 276.705 171.02 280.425 171.02C282.285 171.02 284.295 170.27 285.195 168.65H285.225V177.2ZM276.015 161.54C276.015 158.12 277.785 156.11 280.515 156.11C283.275 156.11 285.225 158.24 285.225 160.13V164.99C285.225 167.84 283.125 169.22 280.515 169.22C277.815 169.22 276.015 167.24 276.015 163.79V161.54ZM297.588 171.02C300.138 171.02 301.818 169.76 302.568 168.53V170.78H304.578V154.61H302.538V165.11C302.538 167 300.618 169.16 297.888 169.16C294.678 169.16 293.988 167.24 293.988 164.93V154.61H291.948V165.44C291.948 168.8 293.898 171.02 297.588 171.02ZM313.792 171.02C315.022 171.02 316.162 170.78 317.062 170.33C317.902 169.91 318.562 169.31 318.862 168.8H318.892V170.78H320.872V159.47C320.872 156.2 318.652 154.31 315.052 154.31C312.592 154.31 310.762 155.18 309.262 156.23L310.252 157.79C311.632 156.83 313.282 156.14 315.022 156.14C317.542 156.14 318.862 157.46 318.862 159.8V161.3H314.302C310.552 161.3 308.602 163.13 308.602 165.74V166.4C308.602 169.25 310.732 171.02 313.792 171.02ZM318.862 165.74C318.862 166.97 318.202 167.78 317.332 168.32C316.372 168.92 315.382 169.25 314.092 169.25C312.442 169.25 310.642 168.41 310.642 166.31V165.83C310.642 164.18 311.752 163.01 314.332 163.01H318.862V165.74ZM334.378 154.64C333.718 154.4 332.968 154.31 332.068 154.31C329.608 154.31 328.108 155.9 327.418 157.46V154.61H325.408V170.78H327.448V161.6C327.448 158.57 329.128 156.38 331.798 156.38C332.578 156.38 333.208 156.5 333.748 156.71L334.378 154.64ZM338.299 161.63V161.36C338.299 158.18 339.979 156.11 342.829 156.11C345.649 156.11 347.299 158 347.299 161.36V161.63H338.299ZM348.079 167.63C346.909 168.47 345.289 169.22 343.129 169.22C340.159 169.22 338.299 167.18 338.299 163.61V163.34H349.339V161.66C349.339 157.13 347.029 154.31 342.829 154.31C338.779 154.31 336.259 157.01 336.259 161.6V163.61C336.259 168.32 338.809 171.02 343.099 171.02C345.829 171.02 347.689 170.09 348.979 169.19L348.079 167.63Z" fill="black"/>
</svg>
