<svg width="500" height="250" viewBox="0 0 500 250" fill="none" xmlns="http://www.w3.org/2000/svg">
<rect width="500" height="250" fill="white"/>
<path d="M217.878 118.16C217.878 120.36 217.118 122.2 215.598 123.68C214.118 125.2 212.278 125.96 210.078 125.96H205.698V123.92C204.018 124.52 202.238 124.96 200.358 125.24C198.398 125.56 196.358 125.72 194.238 125.72H177.198C175.838 125.72 174.798 125.36 174.078 124.64C173.358 123.96 172.998 122.94 172.998 121.58V70.94H202.218V76.94C202.218 78.1 201.918 78.96 201.318 79.52C200.718 80.04 199.838 80.3 198.678 80.3H185.178V92.24H201.438V98.06C201.438 99.22 201.138 100.08 200.538 100.64C199.978 101.16 199.118 101.42 197.958 101.42H185.178V116.42H195.018C196.338 116.42 198.018 116.26 200.058 115.94C202.058 115.62 203.938 115.16 205.698 114.56V70.82H217.878V118.16ZM228.093 106.1C226.813 106.1 225.853 105.82 225.213 105.26C224.573 104.66 224.253 103.72 224.253 102.44V96.86H244.233V93.68H230.732C229.573 93.68 228.693 93.42 228.093 92.9C227.533 92.38 227.253 91.54 227.253 90.38V70.76H272.793V90.38C272.793 91.54 272.493 92.38 271.893 92.9C271.333 93.42 270.473 93.68 269.313 93.68H256.413V96.86H275.733V102.44C275.733 103.72 275.413 104.66 274.773 105.26C274.133 105.82 273.173 106.1 271.893 106.1H228.093ZM231.153 125.96C229.913 125.96 228.933 125.62 228.213 124.94C227.533 124.3 227.193 123.38 227.193 122.18V107.96H239.433V116.66H272.793V122.18C272.793 123.38 272.433 124.3 271.713 124.94C270.993 125.62 270.013 125.96 268.773 125.96H231.153ZM239.373 84.5H260.673V80H239.373V84.5ZM286.428 74.48V68.3H297.588V74.48H303.648V80.54C303.648 81.7 303.408 82.54 302.928 83.06C302.488 83.58 301.688 83.84 300.528 83.84H297.588V98.48C297.588 103.56 298.168 107.42 299.328 110.06C300.528 112.66 302.048 114.38 303.888 115.22V125.6C301.528 125.16 299.168 124.04 296.808 122.24C294.488 120.48 292.908 118.56 292.068 116.48C291.108 118.76 289.168 120.86 286.248 122.78C283.368 124.7 280.688 125.68 278.208 125.72V115.64C280.328 115.2 282.228 113.68 283.908 111.08C285.588 108.44 286.428 104.24 286.428 98.48V83.84H282.528C281.368 83.84 280.548 83.58 280.068 83.06C279.588 82.54 279.348 81.7 279.348 80.54V74.48H286.428ZM316.308 119.9C316.308 121.66 315.728 123.1 314.568 124.22C313.448 125.34 311.948 125.9 310.068 125.9H305.388V101.06H302.748C301.748 101.06 300.928 100.76 300.288 100.16C299.648 99.52 299.328 98.7 299.328 97.7V91.16H305.388V70.82H316.308V119.9ZM317.928 70.82H329.028V118.88C329.028 120.72 328.368 122.34 327.048 123.74C325.728 125.18 324.028 125.9 321.948 125.9H317.928V70.82ZM202.075 177.32V148.92H196.155C195.381 148.92 194.795 148.747 194.395 148.4C194.021 148.053 193.835 147.493 193.835 146.72V142.68H218.435V146.72C218.435 147.493 218.235 148.053 217.835 148.4C217.461 148.747 216.888 148.92 216.115 148.92H210.195V174.52C210.195 175.347 209.875 176.013 209.235 176.52C208.595 177.053 207.848 177.32 206.995 177.32H202.075ZM234.111 177.32V161.96C234.111 160.6 233.871 159.52 233.391 158.72C232.938 157.893 232.298 157.48 231.471 157.48C230.644 157.48 229.991 157.893 229.511 158.72C229.058 159.547 228.831 160.627 228.831 161.96V174.68C228.831 175.507 228.538 176.147 227.951 176.6C227.364 177.08 226.644 177.32 225.791 177.32H220.751V157.24C220.751 156.227 220.724 155.32 220.671 154.52C220.618 153.72 220.538 152.84 220.431 151.88H228.271C228.324 152.147 228.391 152.467 228.471 152.84C228.578 153.213 228.631 153.493 228.631 153.68C229.191 152.987 229.951 152.467 230.911 152.12C231.871 151.773 232.724 151.6 233.471 151.6C234.911 151.6 236.191 151.893 237.311 152.48C238.431 153.067 239.271 153.827 239.831 154.76C240.444 153.933 241.284 153.2 242.351 152.56C243.444 151.92 244.724 151.6 246.191 151.6C249.044 151.6 251.311 152.48 252.991 154.24C254.698 156 255.551 158.28 255.551 161.08V174.68C255.551 175.507 255.258 176.147 254.671 176.6C254.084 177.08 253.364 177.32 252.511 177.32H247.431V161.96C247.431 160.467 247.204 159.347 246.751 158.6C246.298 157.853 245.658 157.48 244.831 157.48C244.031 157.48 243.378 157.853 242.871 158.6C242.391 159.347 242.151 160.427 242.151 161.84V174.68C242.151 175.507 241.858 176.147 241.271 176.6C240.684 177.08 239.964 177.32 239.111 177.32H234.111ZM280.145 164.48C280.145 168.96 279.291 172.253 277.585 174.36C275.905 176.467 273.131 177.52 269.265 177.52C265.585 177.52 262.851 176.453 261.065 174.32C259.278 172.213 258.385 168.933 258.385 164.48C258.385 160.027 259.345 156.76 261.265 154.68C263.211 152.573 265.878 151.52 269.265 151.52C272.678 151.52 275.345 152.573 277.265 154.68C279.185 156.76 280.145 160.027 280.145 164.48ZM272.105 164.48C272.105 161.947 271.825 160.133 271.265 159.04C270.705 157.947 270.038 157.4 269.265 157.4C268.438 157.4 267.758 157.947 267.225 159.04C266.691 160.133 266.425 161.947 266.425 164.48C266.425 166.747 266.678 168.507 267.185 169.76C267.691 171.013 268.385 171.64 269.265 171.64C270.198 171.64 270.905 171.013 271.385 169.76C271.865 168.507 272.105 166.747 272.105 164.48ZM283.251 177.32V157.28C283.251 156.24 283.238 155.32 283.211 154.52C283.184 153.693 283.104 152.8 282.971 151.84H290.891C290.998 152.133 291.078 152.44 291.131 152.76C291.184 153.08 291.211 153.307 291.211 153.44C291.638 152.933 292.278 152.493 293.131 152.12C294.011 151.747 294.904 151.56 295.811 151.56C298.638 151.56 300.811 152.44 302.331 154.2C303.878 155.933 304.651 158.213 304.651 161.04V174.68C304.651 175.507 304.358 176.147 303.771 176.6C303.184 177.08 302.464 177.32 301.611 177.32H296.611V161.92C296.611 160.533 296.384 159.44 295.931 158.64C295.504 157.84 294.851 157.44 293.971 157.44C293.144 157.44 292.491 157.853 292.011 158.68C291.558 159.507 291.331 160.587 291.331 161.92V174.68C291.331 175.507 291.038 176.147 290.451 176.6C289.864 177.08 289.144 177.32 288.291 177.32H283.251Z" fill="black"/>
</svg>
